<?xml version="1.0" standalone="no"?>
<!DOCTYPE svg PUBLIC "-//W3C//DTD SVG 1.1//EN" "http://www.w3.org/Graphics/SVG/1.1/DTD/svg11.dtd">
<svg xmlns="http://www.w3.org/2000/svg"><metadata>This SVG WebFont was generated by YouWorkForThem.
Copyright (c) 2016 by BLKBK. All rights reserved.</metadata><defs><font horiz-adv-x="618" id="ywftsvg"><font-face ascent="750" bbox="-492 -603 1892 1047.33" cap-height="730" descent="-250" font-family="Mighty River" font-stretch="normal" font-weight="400" panose-1="0 0 0 0 0 0 0 0 0 0" underline-position="-50" underline-thickness="50" unicode-range="U+000D-FB02" units-per-em="1000" x-height="295"/><missing-glyph horiz-adv-x="196"/><glyph d="M240 189q-2 -4 -2 0q-5 -13 -7 -18t-2.5 -9t-2.5 -9.5t-7 -19.5q-1 -8 -4.5 -14t-4.5 -14q0 -6 -0.5 -19t2.5 -15q5 -3 14 -4.5t16 0.5q25 6 43 12t44 23q20 14 43.5 31.5t47.5 36t46.5 37t40.5 34.5q2 0 2.5 0.5t3.5 1.5q2 2 5 4l6 4v-1q6 7 12.5 13.5t14.5 11.5h3 q1 3 2.5 4t3.5 5q1 -5 3.5 -4t3.5 5q0 3 -1.5 0t-2.5 -1q8 7 18 16t20.5 16.5t22 12t22.5 4.5q19 0 25 -17.5t8 -36.5q2 2 4 1.5t4 0.5q3 7 2 7t-2 2l9 4.5t7 7.5q0 2 -0.5 0.5t-1.5 0.5q14 22 31.5 38t29.5 40q-2 2 0.5 1t5.5 4l33 56h2q12 20 24 39t24 40q2 0 5 1.5l5 2.5 q3 17 11.5 25.5t14.5 22.5q8 2 14.5 13.5t13.5 19.5q6 0 5.5 -2t1.5 -7q3 3 3 5q2 -1 4 -3t2 -4q10 2 11 -6.5t6 -13.5q-2 -12 -7 -17.5t-7 -18.5q-32 -41 -62.5 -84.5t-60.5 -90.5l-6 -2t-7 -5q1 -2 3 -2t0 -4q-2 -1 -7.5 -7t-7.5 -11q-5 0 -6 2q-2 -8 -4.5 -18.5 t-6.5 -16.5q0 4 -1.5 3.5t-3 -3.5t-3.5 -6.5t-3 -4.5q-1 0 -1 3q-4 1 -3.5 -2.5t-3.5 -5.5q3 -3 3 1t4 2q-4 -8 -3 -10t-2 -7v4q-2 -2 -2 -5t-4 -5q1 4 -3.5 -2.5t-6.5 -8.5q4 0 5.5 3.5t3.5 4.5q-5 -12 -14.5 -22.5t-16.5 -22.5q-1 1 -1 5q-2 -1 -4 -1.5t-4 -5.5 q3 -1 3 1.5t2 0.5q-2 -4 -1 -4.5t3 2.5q-1 -11 -9 -20.5t-16 -11.5q-2 -3 -2.5 -6.5t-5.5 -6.5q2 -1 1.5 -4t2.5 -3q-3 -6 -5.5 -12t-5.5 -8q0 2 1 3.5t0 4.5q-2 0 -2.5 -2.5t-2.5 0.5q0 -5 -1 -6q-1 -5 1 -5.5t-3 -6.5q2 2 2 5q-3 -8 -7.5 -15t-8.5 -12q5 2 7.5 6t5.5 9 q-2 -8 -5.5 -14.5t-5.5 -11.5v3q-4 0 -5.5 -5t-1.5 -9q-5 1 -6 -2.5t-2 -5.5v-3q2 -2 0 -6t0 -7q-2 1 -2.5 4t-0.5 6q-3 -3 -3 -9.5t-5 -9.5q5 -2 8 8q5 -3 0.5 -8t-4.5 -10q-2 0 -2 3t1 5q-4 -5 -6 -12.5t-2 -11.5q2 0 2 5q3 -5 2 -10.5t-3 -12.5t-3.5 -13.5t-1.5 -12.5 q-1 -5 0 -8.5t2.5 -6.5l3 -6t1.5 -7q-9 -3 -16 2t-10 14q-1 0 -3 -2q-15 17 -14 43.5t10.5 56.5t23.5 60t26 54q-11 -9 -23 -21t-21 -23q-1 -1 -1 0t-2 1q-8 -5 -14 -14.5t-15 -12.5q-2 -6 -5.5 -10t-6.5 -3q-8 -5 -11 -8.5t-8 -3.5q-5 -6 -11 -10.5t-12 -14.5l-1 2 q-17 -16 -36.5 -27t-36.5 -23q-14 -5 -25.5 -3.5t-20.5 7.5t-15.5 14t-10.5 17q2 5 1.5 8.5t-1.5 8.5q5 1 3.5 -3t2.5 -3q1 2 1.5 6.5t1.5 9t2.5 7.5t4.5 3q4 14 10 19.5t13 12.5q-11 -5 -20.5 -13t-20.5 -16q2 -1 7 3t9 6q-3 -5 -7.5 -8t-7.5 -6q2 2 0 2q-4 -2 -4 -5t-5 -5 l-2 4q-20 -8 -34 -21q7 0 7 4q2 -2 -1.5 -3.5t-4.5 -3.5t0.5 -2t-0.5 -3q-10 -3 -16.5 -3t-12.5 -6l1 2q-3 0 -4.5 -3t-4.5 -5q-12 -2 -27 -10.5t-33 -10.5q-9 -1 -18 3t-16 9q-23 15 -22.5 45t17.5 75q3 4 3 5q-6 -4 -10 -8.5t-7 -8.5q-2 2 0 3.5t0 3.5q-5 -8 -12 -13.5 t-12 -15.5q-4 7 -10 -1q-17 -11 -30 -27.5t-29 -30.5q-2 -1 0 -1h2q-11 -9 -20 -21.5t-22 -14.5q-8 -4 -9 -9q-20 -11 -36 -8t-31 9q-13 7 -21 14t-3 24q13 36 32 70.5t42.5 65t49 57.5t51.5 48q13 13 25 23.5t29 20.5q5 3 12.5 5.5l10.5 3.5q13 1 22 -4t16 -12.5t13 -15 t13 -11.5q2 -1 1.5 -3t-0.5 -4q3 1 5.5 6l4.5 9q14 15 24.5 35t23.5 40q10 19 22.5 38t23.5 37q10 18 20 32t19.5 26.5t19.5 26t21 31.5q2 1 3 2.5t3 2.5q7 12 15 21.5t15 20.5q4 1 10 7.5l12 13t12 11.5t10 5t7 -6t7 -10q5 -8 9 -17q-3 -11 -8.5 -20t-8.5 -17q2 2 4.5 6.5 t6.5 5.5l-12 -22q-2 2 0 5l-6.5 -6.5t-6.5 -9.5q0 -2 1 0.5t3 3.5q1 -5 -2.5 -9t-5.5 -6q-1 -7 -4 -11.5t-7 -9.5q-2 1 -1 2t1 3l-8 -4q-1 -8 -6.5 -14t-5.5 -14q-2 -2 -2 3q-7 -7 -13.5 -18.5t-14.5 -21.5q2 -1 4 2.5t6 5.5q-2 -6 -7.5 -11t-7.5 -11q0 3 2.5 6t2.5 7 q-5 -5 -7 -8t-3 -5.5t-2.5 -5.5t-7.5 -7q-1 -5 -5 -8.5t-6 -8.5q2 -4 4 1q-2 -5 -7 -10.5t-9 -8.5q0 -5 1 -9.5t-4 -9.5q-2 1 0 7.5t1 11.5q-5 -2 -11.5 -10t-2.5 -16q-1 -4 -3.5 -5t-4.5 -4q-2 2 0 4t3 4q-4 -4 -8 -7.5t-5 -10.5q-1 0 -1 1.5t-1 1.5l-6 -10t-6 -9q2 -3 3 1 t3 3q-1 -5 -4 -6t-6 -6q-2 -1 -1 0.5t3 3.5q-5 -3 -8 -7t-7 -6q-11 -21 -26 -36.5t-28 -33.5q-1 -2 0 -2.5t1 -2.5l-2 4q-3 -3 -5 -7.5t-7 -9.5q-1 0 0 1t0 1q-7 -6 -12 -16.5t-10 -21.5q-3 -1 -5.5 -6.5t-0.5 -8.5q-3 -1 -3 -2zM44 145q-20 -24 -36 -50t-27 -58 q22 8 39 21.5t34 29.5q38 32 74 70t71 73q3 17 9.5 33.5t6.5 36.5q-9 2 -14 0t-12 -7q-1 3 1 4.5t0 2.5q-3 -3 -7.5 -5t-9.5 -7q2 -1 4 1t2 -1q-7 -6 -13.5 -10.5t-7.5 -9.5l5 5t6 1q-45 -37 -80 -78.5t-72 -93.5q5 10 13.5 20.5t13.5 21.5zM645 248q1 2 3.5 6.5t4.5 9 t3.5 8t0.5 2.5l-5 25q-4 2 -11 0t-10 -7q-64 -40 -117.5 -97.5t-97.5 -132.5q15 5 29.5 16.5t31.5 19.5q7 9 15.5 16t16.5 13.5t16 14t15 18.5q11 7 21 15t19 19q0 -2 -1 -2.5t-1 -1.5q14 15 27.5 27t26.5 25q2 0 6 3t7 3zM192 155q-2 -2 -3 -2q2 0 1 -3.5t2 5.5z" glyph-name="dd" horiz-adv-x="769" unicode="dd"/><glyph d="M812 252q1 -5 -3 -14t-5 -10q2 -4 -2 -8.5t-10 -9t-11 -9t-5 -8.5q-4 -1 -7 -4t-7 -5q-3 -2 -2.5 -1t0.5 3q-5 -5 -11 -9.5t-11 -4.5q-2 -3 0 -3.5t0 -2.5q-3 -5 -18.5 -15.5t-33.5 -22t-34 -21.5t-20 -14q-6 2 -9.5 1t-8.5 -8q-5 2 -16 -5t-13 -10v-1q-9 -10 -24.5 -16 t-29.5 -12q-19 -3 -40 -13t-43 -14q-5 -2 -9 -1.5t-8 -0.5q-5 -1 -14 -2t-18.5 -1.5t-18.5 -0.5t-15 2q-13 3 -27 7t-22 13q-3 2 -8 7t-5 9t-1 8t-0.5 9.5t3.5 14t9 22.5q0 -3 7 10q-2 -2 -5.5 -4t-5.5 -2q1 0 0.5 0.5t-2.5 -0.5q-32 -22 -51.5 -33t-32 -17t-20 -9.5 t-14.5 -9.5q-22 -2 -46 -11t-50 -14q-5 -1 -9.5 -1t-9.5 -2q-8 -2 -20.5 -2.5t-26.5 4.5q-14 2 -25 11t-21 19q-4 2 -7.5 3.5t-6.5 3.5q-11 18 -9.5 36t17.5 49q1 -2 5 6.5t9.5 20t11.5 23t12 15.5q8 12 13.5 15.5t10.5 16.5q1 -2 3.5 1t5.5 6.5t5 6.5t3 0q34 38 73 70.5 t89 49.5q5 -6 8 -11t7 -14q5 -7 10 -13t7.5 -13t2 -15.5t-5.5 -18.5q-4 -8 -11 -18t-14 -19q-20 -32 -47.5 -57.5t-51.5 -47.5q-4 0 -7 -3q-11 -7 -21 -14.5t-21 -8.5q-7 -1 -12.5 1.5t-10 6l-9 7t-10.5 3.5q-14 -12 -22 -33t-6 -39q20 -5 37 -9.5t37 0.5q36 8 70.5 17 t68.5 23q18 8 32.5 17t27.5 17.5t26 16.5t29 15q8 4 14.5 12t14.5 10q8 8 15 17t12 18q0 -2 2 1l4 6t4 5t2 0q34 34 71 63t82 44q2 -3 7 -5.5t10.5 -5t10 -5.5t5.5 -6q8 -13 13 -24.5t-5 -29.5q-4 -7 -11 -11.5t-12 -12.5q-20 -28 -44.5 -41t-48.5 -27q-2 0 -3 -1t-3 -2 q-9 -6 -19 -10t-21 -5q-12 -2 -26 -6t-25 -3q-6 -6 -10.5 -16.5t-7.5 -22.5t-4 -23.5t0 -19.5q17 -3 35.5 -2t37.5 6q30 7 62 19.5t64 26.5q16 7 43 22.5t55.5 33t54 33t38.5 23.5q5 4 13.5 10t14.5 9q8 4 18.5 11.5t17.5 7.5zM445 195q1 -2 -1 -3l-4 -2t-3.5 -2.5t0.5 -3.5 q40 20 69.5 41.5t36.5 49.5q-29 -11 -53.5 -33.5t-44.5 -46.5zM85 212q1 -2 0 -4.5t-2.5 -5.5t-2.5 -6t1 -5q28 22 54 51.5t54 60.5q-32 -13 -57.5 -38t-46.5 -53zM310 105q-1 -1 -2 -1.5t1 1.5h1z" glyph-name="ee" horiz-adv-x="698" unicode="ee"/><glyph d="M258 298q11 -2 16.5 -10.5t16.5 -11.5q2 0 3 -2t4 -5q2 -1 4 0t3 0v-4v-3q4 -2 5 -4t4 -7q6 -5 6.5 -14.5t-10.5 -18.5q-6 -23 -22.5 -49t-27.5 -48q9 3 16.5 8t16 11t18 10.5t21.5 5.5q10 7 30.5 18.5t45 24t51 25t49.5 22.5q16 20 35 35.5t35 31.5q12 6 22 5.5 t18.5 -4.5t16.5 -10t16 -11q5 -12 9 -31.5t-3 -36.5q-40 8 -46 50q-12 -8 -23 -18t-22 -21l-2 -2q-17 -18 -31.5 -36.5t-27.5 -32.5q-2 -2 -0.5 -3.5t-0.5 -5.5q-9 -5 -9 -13.5t-7 -16.5q-8 -3 -10.5 -12t-3.5 -17q20 6 36 22t36 26q5 5 9.5 6t12.5 5q3 4 8 9.5t14 10.5 q6 4 13 6.5t10 6.5q7 5 9 11.5t6 8.5q5 1 12 -1.5t12 1.5q8 -11 17.5 -17.5t17.5 -16.5l-6 -12t-4 -13q-7 -5 -8.5 -6t-2 -2t-0.5 -3.5t-4 -11.5q17 8 34 19t34 21l58 32l50 25q2 1 6 3.5t9 4.5q6 2 11.5 7.5t14.5 7.5q11 1 19.5 5.5t16 8.5t14.5 5.5t15 -2.5v-3 q-8 -1 -9 -5t0 -8.5t0 -8.5t-8 -5q-1 0 -6.5 -4t-11.5 -9t-11.5 -9t-6.5 -4q-24 -8 -44.5 -19t-39.5 -23.5t-38 -24.5t-40 -22q-2 -5 -8 -7t-7 -8q-2 1 -2.5 2t-2.5 -1q-5 -6 -12.5 -9.5t-9.5 -12.5q-6 0 -10.5 -2.5t-8.5 -6t-9 -7t-14 -6.5q-3 -3 -3.5 -7t-2.5 -6 q-1 0 -3 -6t-4 -13t-5 -12.5t-6 -5.5q-5 -7 -12 -14.5t-13 -16t-11 -19t-6 -22.5q-8 -15 -15.5 -26.5t-15.5 -23.5q-4 -4 -3.5 -6.5t-0.5 -4.5q-8 -9 -12 -20.5l-8 -23t-8.5 -23.5t-12.5 -22q-3 -6 -4.5 -8.5t-4.5 -5.5q-5 -5 -7.5 -12.5t-7.5 -14.5q-8 -11 -13 -17.5 t-8 -23.5q-43 -62 -86 -126t-91 -119q-7 -2 -12.5 -10.5t-10.5 -15.5q-11 -9 -22 -16t-22 -18q-7 -1 -17.5 0t-22 3t-22 5t-16.5 6q-4 23 1.5 48t16 49t23 46t22.5 40q18 35 39 66.5t38 60.5q21 32 45 58.5t44 52.5q25 27 48 53t44 52q17 8 29.5 24.5t29.5 29.5q5 5 11.5 7 t9.5 13q16 7 26 18.5t16.5 25.5t11.5 29t12 30q-5 -1 -12.5 -5t-9.5 -10q-12 -6 -23 -14t-21.5 -15.5t-22 -13.5t-24.5 -8q-20 -4 -37.5 4.5t-34.5 14.5q-5 12 -3.5 25t6 25.5t10.5 24t11 22.5l-52 -27q-8 -5 -14 -9t-17 -9q-8 -5 -17 -7t-20 -7q-3 -6 -10 -8.5t-15 -5.5 q-2 -4 -4.5 -6t-5.5 -5q-9 0 -12.5 -4t-10.5 -6q-9 -20 -22.5 -31t-27.5 -17q-3 -1 -4 -4q0 1 -1 3q-7 0 -9 -7.5t-3 -15.5q2 2 5 2t-2 -7q0 -5 1 -6t0 -4q-7 -13 -14.5 -22.5t-12.5 -18.5q-3 1 -1.5 3t1.5 6q-5 -5 -7 -12.5t-6 -11.5q-2 -6 0.5 -0.5t6.5 4.5q2 -3 0.5 -5 t-4.5 -7q-1 0 -0.5 1t-3.5 0q-3 -1 -4.5 -2t0.5 -6q0 -4 0.5 1.5t3.5 3.5v-12q-3 2 -5.5 -2.5t-2.5 0.5q-8 -11 -12.5 -20.5t-12.5 -14.5q-2 -3 -1 -3.5t2 1.5q-7 -20 -18.5 -37.5t-16.5 -37.5q-1 -2 -9 -2q-17 -26 -32.5 -54.5t-31.5 -54.5q-2 -3 -4.5 -4t-5.5 -3 q-7 -17 -17 -33t-20 -23q-10 -14 -18 -30t-22 -30q-2 0 -0.5 1.5t-0.5 1.5q-11 -9 -19 -22.5t-15 -26.5q-4 -2 -4 1q-1 1 0 2q-2 -3 -5 -6t-5 -11q-5 4 -8 -3t-11 -14q-2 -1 -1 0.5t0 1.5q-11 -11 -27 -26.5t-34 -29.5t-36.5 -24t-34.5 -10q-23 2 -32.5 25t-4.5 52 q5 25 16.5 46.5t14.5 41.5q7 6 11 16.5t12 17.5q2 12 7 19.5t11 14t12.5 13.5t10.5 18q28 40 57.5 80t62.5 78q11 18 25.5 32t25.5 31l9 11q15 16 35.5 36.5t44 42t46.5 41.5t43 34q3 2 4 1.5t5 0.5q8 8 15.5 16t16.5 11q6 9 12.5 13.5t13.5 7.5q5 12 11 31t12 33 q-11 -10 -26 -27t-29 -30q-2 1 -3.5 0t-3.5 0q-21 -18 -43 -37.5t-51 -27.5q-12 3 -25.5 6.5t-23 10.5t-13 19.5t3.5 34.5q2 2 2.5 3.5t3.5 2.5q14 32 33.5 62.5t37.5 56.5q3 2 6.5 5t6.5 6q15 20 35.5 40.5t37.5 34.5q9 7 17 12t18 5t16 -4.5t11 -11t9 -13.5t9 -11zM2 -152 v-4l-5 -7q0 2 1 5.5t-1 3.5q-3 -2 -5.5 -8.5t1.5 -9.5q-5 -2 -7 -7t-10 -5q-1 5 3 5t3 5q-6 -2 -7.5 -6.5t-3.5 -8.5q-2 -5 0.5 -0.5t3.5 0.5q-6 -6 -14 -16.5t-16 -20t-14.5 -16.5t-9.5 -6q-5 -6 -9 -10.5t-8 -10.5q-2 -5 1 -6t-2 -5q-1 3 -2.5 4t-7.5 1q-3 -12 -10 -21 t-19 -10q-2 -5 -2 -10q-5 0 -6 -2t-3 -4q-5 -25 -17.5 -37.5t-20.5 -23.5l2 2q2 -7 -3.5 -11t-0.5 -8q-5 -5 -12 -9t-11 -12q2 0 4 2t1 -2q-25 -29 -41.5 -67.5t-35.5 -79.5q30 9 55.5 27.5t46.5 38.5q52 53 98.5 117.5t84.5 130.5q3 11 8 14.5t7 15.5q15 14 23 31.5 t18 37.5q18 31 39.5 66t32.5 70q-3 -8 -9.5 -11t-11.5 -10q2 -1 5 3t5 -2q-4 -1 -8 -5.5l-8 -9t-7.5 -6.5t-6.5 3q-2 -5 -0.5 -6.5t-1.5 -6.5q-6 4 -12.5 -1.5t-8.5 -10.5h4.5t2.5 -1q-4 -4 -8 -8.5t-6 1.5q-7 -5 -6.5 -6.5t-0.5 -8.5q-2 0 -2.5 4t-3.5 -1q-7 -7 3 -7 q-14 -8 -24 -20t-21 -23h-3zM264 -386q1 -1 2 1t2.5 4t2.5 3t3 -1q-7 -5 -8 -14.5t-6 -10.5q-5 0 -5.5 1t0.5 5q-8 -16 -20 -31.5t-15 -34.5l4.5 9t3.5 3q-2 -5 -2.5 -10.5t-5.5 -6.5q0 1 -1 2t-3 -1q-11 -23 -16.5 -47t-15.5 -50q5 1 10 6t4 8q4 3 6.5 5.5t7.5 2.5 q81 97 158 212.5t140 247.5q0 1 -3.5 -0.5t-7 -4t-6 -4.5t-2.5 -1q-6 -15 -18 -20.5t-19 -15.5q-7 -7 -7 -12.5t-8 -10.5q-2 0 -0.5 3t-0.5 3q-1 -3 -2 -5.5t-1 -4.5q-2 0 -2 1t-1 0q-3 -7 -7.5 -13.5t-8.5 -11.5q-8 -8 -18 -19t-18 -12l-4 -12q-16 -14 -30 -28.5t-24 -35.5 q-1 1 -0.5 1.5t-2.5 -0.5q3 -3 2.5 -9t-3.5 -13t-7 -14t-9 -11zM158 180q10 5 18 14.5t17 15.5q5 9 13 15t11 15q6 11 4.5 24t-2.5 24q-37 -25 -65.5 -61.5t-58.5 -67.5q-8 -31 -27 -45q0 -6 -1 -9t-3 -8q26 19 49 39t45 44zM445 170q-3 -11 -9.5 -21.5t-8.5 -23.5 q8 14 15 26t14 25q-2 -2 -5 -3.5l-5 -2.5h-1zM2 -156v-2q5 -2 6 1t-3 5zM10 -155q-1 4 4.5 8t6.5 6q4 -3 -2 -5t-9 -9zM121 71q0 -2 -2 -2.5t-4 -4.5q4 0 6 2.5t0 4.5zM203 19q1 3 3 3t3 1q-2 -4 -6 -4zM129 -127q0 -1 -1 -2q0 1 1 2zM944 266v-2v2zM945 268q0 -1 -1 -2z " glyph-name="gg" horiz-adv-x="782" unicode="gg"/><glyph d="M27 46h-5t-5 2q-2 -6 -7.5 -10.5t-5.5 -13.5q-11 0 -21.5 7.5t-3.5 24.5q5 24 17 48t22 46q15 29 32 58.5t33 58.5q8 14 15.5 29t15.5 26q9 28 28 43q10 -6 15 -17.5t13 -22.5q-6 -19 -15 -33.5t-18.5 -28t-18.5 -27t-16 -29.5q16 12 31.5 25.5t31.5 26t33.5 22.5 t39.5 15q2 0 3 -2.5t3 -1.5q3 -2 2.5 1t1.5 2q5 -14 12.5 -23.5t10.5 -23.5q-5 -14 -12 -25.5t-14.5 -22l-15 -21t-13.5 -23.5q0 -2 1 -2q-5 -9 -9.5 -19t-8.5 -21q5 2 12 12t15 13q23 27 48 50.5t55 49.5q26 23 51 45.5t51 37.5q20 14 37 17q15 2 20 -4t9 -20l7 -14t5 -14 q-2 -10 -7 -15t-9 -12q-3 0 -3 3q-3 -5 -4.5 -12l-3 -14t-4.5 -13t-7 -9q0 -4 -0.5 -5.5t-2.5 -4.5q-4 -4 -5.5 -9t-5.5 -10q0 -2 1.5 -2.5t1.5 -3.5q-10 -11 -11.5 -16.5t-6.5 -18.5q-5 -17 -2 -27t10.5 -15t17.5 -5t21 3q16 5 23 6t11.5 3t11 6.5t21.5 15.5 q16 12 23.5 18.5t13 12l12.5 12.5t22 19q2 0 4 3l2 4l1 1q0 2 1 4q11 17 19.5 35t17.5 35t19 35.5t19 28.5q8 11 13 10.5t8 -6.5t5.5 -15t4.5 -15q-4 -3 -6.5 -9.5t-5 -12.5t-5.5 -11t-6 -5q-6 -14 -13.5 -25t-12.5 -23q14 11 27 23.5t26.5 23.5t29 19.5t33.5 11.5 q3 -9 8.5 -18.5t9.5 -20t3.5 -23t-7.5 -28.5q-12 -8 -17 -24.5t-13 -30.5q-1 0 -1 1t-2 1q-6 -14 -14 -26.5t-14 -27.5q39 39 86.5 89t92.5 92q14 13 27.5 23.5t25.5 17.5q17 7 22.5 -1t10.5 -23q5 -11 9 -19t1 -22q-2 -14 -7.5 -24.5t-11.5 -23.5q1 4 0 9q-2 -4 -2 -10 t-2 -8h-6q-9 -26 -19.5 -52.5t-21.5 -50.5q2 -8 0 -18.5t-1 -18.5q6 -8 16 -9.5t21 1t21 7.5t16 9q26 16 53 37.5t53 44.5q16 12 29 21t25 17.5t24 16.5l27 18q0 -2 -4 -4.5t-5 -3.5q2 -3 5 1t2 -1q0 -4 -1 -9q-1 -4 0.5 -2t3.5 2q0 -4 -1.5 -5t-3.5 -5q-3 -2 -5 -2t-2.5 -1 t-1.5 -4.5t-2 -12.5q-7 -8 -12.5 -10.5t-14.5 -10.5q-2 -1 1 3.5t0 4.5q-2 -1 -5 -11q-8 -8 -19 -15t-19 -20q-5 2 -10.5 -1.5t-10.5 -8.5l-10.5 -10.5t-9.5 -8.5q-6 4 -9 -2.5t-8 -11.5q0 1 0.5 1t0.5 -2q-5 -4 -14 -13t-17 -7l-3 -8q-3 7 -6.5 0t-8.5 -12q-2 -1 -2 1.5 t1 3.5q-5 -2 -8.5 -5t-6.5 -5q-4 -6 -6.5 -7.5t-7.5 -1.5q-10 -1 -26 -7t-27 -1t-24 18t-18 27q-2 8 -1.5 15t-0.5 13q5 18 10 41.5t16 36.5q5 26 14.5 45.5t17.5 42.5q-5 2 -6.5 -1.5t-3.5 -3.5q0 2 1 2.5t2 2.5q0 3 -1 2.5t-2.5 -2t-3.5 -2.5t-3 1q-2 -2 -3.5 -6t-5.5 -6 q3 0 6 4t5 2q-14 -17 -28.5 -31t-29.5 -28q-2 5 3.5 8.5t8.5 8.5q-11 -3 -14.5 -11.5t-12.5 -18.5q-1 -4 -3.5 -5t-5.5 -5q-30 -33 -61 -64q-2 1 1 3t3 4q-5 0 -8.5 -5.5t-5.5 -8.5q0 -2 0.5 -0.5t1.5 -0.5q-3 -8 -6.5 -7t-6.5 -5h-1q-12 -15 -26.5 -29t-30.5 -22 q-13 -2 -19 6t-12 15q-6 5 -10.5 10.5t-0.5 20.5q5 17 15.5 41.5t18.5 42.5q1 2 2.5 3t3.5 3q6 11 8.5 25.5t9.5 20.5q-6 -2 -9.5 -6.5t-8.5 -6.5q-2 -1 -1 0t-1 1q-5 -2 -10 -5.5t-1 -11.5q-14 -9 -24.5 -21.5t-21.5 -22.5q2 5 3.5 5t-0.5 3q-10 -11 -18.5 -24.5 t-18.5 -24.5q-3 1 -1 2.5t3 2.5q-11 -3 -19.5 -16t-17.5 -26q2 -3 4 0.5t4 5.5q-2 -7 -10 -15t-13 -10q-3 -11 -10.5 -19.5t-14.5 -21.5q-14 -2 -23 6.5t-14 20.5q9 20 22 42t22 46l6 8q-8 -7 -12.5 -13t-14.5 -9q1 -2 2.5 -1.5t3.5 1.5l3 1.5t0 -1.5q-7 -5 -11.5 -11 t-12.5 -10q-1 2 -0.5 3t-0.5 5q-12 -11 -18 -15.5t-17 -9.5q-2 -1 -1 -2.5t0 -3.5q-11 -2 -12 -2.5t0 -0.5t0 -0.5t-13 -2.5q-8 -8 -11 -9t-11 -3q-22 -2 -39.5 12.5t-19.5 34.5q1 13 0.5 32t8.5 33q3 17 8.5 32.5t12 30l13 29t10.5 31.5q-6 -2 -11 -6.5t-10 -0.5 q-2 -5 -5.5 -7t-7.5 -6q-2 -2 -2 -1t-2 2q-3 2 -3 -3.5t-3 -4.5q-2 1 0.5 4t0.5 8q-6 -2 -10.5 -6t-8.5 -8q1 -3 3.5 -0.5t4.5 0.5q0 -3 -2 -4t-4 1q0 -3 -1.5 -4t-2.5 -5q0 -1 1 -1q-5 -6 -15 -13.5t-18 -14.5q-2 5 -3 2.5t-5 -1.5q-1 -5 -3 -7t-3 -8q-7 -7 -13.5 -12.5 t-14.5 -9.5q-3 3 1 10q-3 -1 -4 -3t-3 -2h2h1q-1 -9 -11 -19q0 -1 3.5 2t4.5 4q-2 -5 -8 -10t-11 -9v1q-4 -1 -6.5 -5.5t-3.5 -6.5q-3 1 -1.5 1.5t1.5 1.5q-5 0 -3 -3t-1 -6q-1 0 -0.5 2t-1.5 4q-12 -11 -23.5 -24t-25.5 -21q2 3 3 5t3 4q-11 -9 -23 -22t-23 -24q-4 0 -4 2 q-4 -4 -9 -7.5t-3 -9.5q-6 -2 -12.5 -0.5t-13.5 1.5q-2 5 -5.5 8t-6.5 6.5t-4.5 8t1.5 12.5q14 39 35.5 77.5t39.5 71.5l-12 -8q0 3 1 5q-6 -3 -5 -2.5t-4 -5.5q2 2 5 2l-36 -29q-1 3 4 5.5t6 7.5q-12 -10 -23 -20t-22 -21q-1 -2 -1.5 -1t-0.5 2zM561 103q1 4 5.5 5t2.5 5 q-1 -2 -6.5 -4t-1.5 -6zM669 127q2 0 4.5 3.5t4.5 5.5q-3 0 -5 -3zM85 189q4 5 8 7.5t2 7.5q-1 -5 -5 -8.5t-5 -6.5zM186 212q2 0 4.5 2.5t1.5 4.5q-1 -2 -3.5 -3t-2.5 -4zM351 212q4 0 5 2t1 4zM1099 76q0 -1 1.5 0t1.5 2q-1 2 -2 1t-1 -3zM1017 212q-1 -2 -2.5 -3t-1.5 -3 q0 2 4 6zM299 151q1 0 3 2q-2 -2 -3 -2zM200 221q1 0 1.5 0.5t1.5 0.5q-1 -1 -3 -1zM1106 82q0 -1 1 0h-1zM815 94q-1 -1 -1 -2q0 1 0.5 1t0.5 1zM1017 218v-1v1z" glyph-name="mm" horiz-adv-x="1143" unicode="mm"/><glyph d="M725 31l7 -3q-3 0 -6.5 1t-5.5 2q-14 5 -16 13q-8 5 -11.5 13t-7.5 16q-2 9 -3 19t-3 22q3 22 14 54q5 14 9.5 28.5t9.5 29.5q-26 -5 -45.5 -20.5t-39.5 -30.5q-2 -2 -4.5 -3.5t-3.5 1.5q-3 -3 -6.5 -5.5t-5.5 -4.5q-4 -4 -10 -12q-6 -5 -12.5 -8.5t-11.5 -8.5 q-5 -3 -8.5 -6.5t-8.5 -6.5q-11 -10 -21.5 -20t-21.5 -20l-15 -15l-14 -14l-14 -14t-15 -12h-3q-3 0 -9 -5.5t-7 2.5q-5 -4 -8.5 -10t-8.5 -11l-3 -3t-3 -2q-2 0 -4.5 2t-6.5 0q3 6 3 10.5t-1 9.5q1 2 0.5 3t1.5 3q0 1 2 5l3 6l48 78q-5 -2 -9 -11.5t-12 -9.5q-8 -8 -14 -11 t-15 -8q-2 -1 -4.5 -1.5t-3.5 -1.5l-6 -7q-11 -8 -24.5 -10t-25.5 -9q-4 -1 -4 -3q-1 0 -1.5 -1t-1.5 -1q-6 -2 -8 -2q-17 -4 -35 -4t-30 4q-23 8 -34.5 25.5t-4.5 49.5q3 22 13 42q5 20 13 38l16 36q-14 -6 -27 -13l-26 -14q-5 -2 -9 -4.5t-7 -5.5q-11 -6 -18 -12 q-6 -3 -16 -9q-9 -6 -14.5 -13.5t-13.5 -14.5q-9 0 -16 -5q-2 -2 -3.5 -5.5t-4.5 -7.5q-2 1 -1 2.5t3 3.5q-3 0 -4 -3t0 -5q-22 -18 -44 -37t-45 -40q-4 -3 -6.5 -6.5t-7.5 -8.5q-3 -5 -6.5 -10t-9.5 -7q-5 -2 -8 -0.5l-5 2.5q-8 5 -16.5 9t-11.5 11q-5 5 -4 12 q2 10 7.5 18.5t10.5 14.5l4 4l7 10l16 30t17 29q11 17 21.5 33t21.5 31q22 31 49.5 58.5t46.5 62.5q4 2 7 4.5t6 4.5q7 0 9 -2q2 -1 2.5 -2.5t2.5 -3.5q5 -11 8 -24t5 -26q-5 -14 -15 -20t-17 -17q-2 0 -2 1.5t-1 1.5q-14 -14 -27 -29t-24 -32q-1 -1 -3.5 -2.5t-4.5 0.5 q-1 -5 -4 -7.5t-6 -5.5t-3 -7q-2 0 -1.5 0.5t-0.5 1.5q-5 -6 -9.5 -10.5t-5.5 -11.5q7 4 13.5 9t14.5 11q5 6 12 11.5t14 11.5q20 15 41.5 30t44.5 29q17 10 32 17q7 3 15.5 7t16.5 7q9 3 18.5 2.5t15.5 -6.5q-2 -6 0.5 -11t2.5 -11q3 -5 5 -10.5t1 -11.5q1 -5 -1.5 -8 t-4.5 -7q-1 -3 -2 -5.5t-1 -5.5q-4 -5 -5.5 -10.5t-5.5 -10.5q-1 -1 0 0.5t-1 2.5l-23 -51q-2 -6 -5 -13t-4 -15q-2 -8 -3 -15t-2 -15q0 -11 11 -15.5t24 -4.5q15 0 27 2.5t25 6.5q23 7 43.5 18.5t40 25t38.5 27t39 25.5q2 5 5 8l6 6q2 1 4 2.5t3 4.5q6 8 10 16.5t12 16.5 q5 9 9.5 16.5t9.5 16.5q11 15 24 29.5t24 28.5q1 0 3 -2l-1 -2q1 -2 3 -8q1 -3 -1 -8q0 -5 2.5 -8t4.5 -6q0 -6 -3 -16q-4 -18 -18 -32q-11 -15 -23.5 -26t-20.5 -28q0 -2 -0.5 -1t-2.5 1t-3.5 -4t-3.5 -6q-6 -8 -7 -10q36 29 73 58.5t80 47.5q5 3 13 5.5t16 3.5q19 2 26 -8 q3 -3 3 -9q3 -8 5.5 -15t2.5 -19q-2 -8 -5.5 -15l-7.5 -15q-5 -11 -7 -23t-5 -24l-6 -16v-13q1 -15 5 -27t22 -13q7 0 14.5 2t12.5 4q16 3 23 9q25 16 43 30q10 7 26 19.5t33 26.5t32.5 26.5t24.5 20.5l11 7q1 1 3.5 2.5t4.5 -0.5q4 -2 1 -8t-6 -11q-2 -3 -3.5 -6t-2.5 -6 q-2 -3 -4.5 -6t-3.5 -5q-6 -6 -18.5 -17t-26.5 -23t-26.5 -23t-19.5 -16q-41 -30 -81 -57q-5 -1 -9.5 -2t-12.5 -3q-2 -2 -6 -3t-9 -3q-4 -2 -6 -2.5t-7 -1.5h-14z" glyph-name="nn" horiz-adv-x="891" unicode="nn"/><glyph d="M185 232q-5 -2 -10 -3t-10 -6q-11 -1 -22 -6t-23 -5q-8 1 -17 5.5t-16 10.5l-7 4l-7 11q-9 14 -6.5 37t17.5 47q5 6 9 10.5t7 12.5q5 9 12 22.5t18 10.5q15 -4 22 -15.5t2 -21.5q-1 -5 -4 -9t-5 -9q-9 -17 -15.5 -32t-15.5 -32q13 0 26 7.5t32 12.5q2 0 3.5 2t3.5 2 q8 4 14.5 7t13.5 4q19 4 25 -6t12 -25q1 -8 3 -15t-5 -23q-5 0 -5 -4t-3 -4q-12 -21 -26 -39l-28 -36t-27.5 -39t-23.5 -48q5 -8 19.5 -6t25.5 6q42 11 82.5 37t75.5 53q11 10 30 25t31 29q4 4 6 6.5l4 5t5 6.5t9 11q-2 14 1 33.5t16 40.5q4 6 9 10.5t7 12.5q9 18 29 35 q7 6 11 3t6.5 -10t2 -16.5t-2.5 -15.5q-1 -5 -4 -9t-5 -9q-8 -17 -14.5 -32t-16.5 -32q14 0 31 7.5t35 12.5q2 0 4 2t4 2q7 4 13.5 7t14.5 4q18 4 24.5 -6t11.5 -25q2 -8 5 -16t-5 -23q-4 0 -5.5 -3.5t-3.5 -3.5q-13 -21 -27 -39l-28 -36t-27 -39t-23 -48q4 -8 18.5 -6 t25.5 6q42 11 82.5 37.5t80.5 51.5q12 9 25.5 20t29.5 16q13 13 25 23t24 13q2 0 5.5 2.5t8.5 1.5q-4 -2 -3 -2t2 -1q1 -3 -1.5 -3.5t-2.5 -5.5q0 -3 1.5 0.5t3.5 1.5q-3 -5 -6.5 -11t7.5 -6q-17 -11 -35.5 -32.5t-56.5 -47.5q-5 -2 -12 -7t-15 -10q-2 -1 -5.5 -4t-4.5 -4 q-7 -5 -8.5 -7t-5.5 -7q-4 -2 -5.5 -3.5t-5.5 -3.5q-2 1 0 2t0 3q-4 -2 -9.5 -4.5t-7.5 -2.5q-12 -13 -27 -19t-28 -15q-13 -7 -26.5 -12.5t-28.5 -10.5q-9 0 -14 -5q-15 -1 -25 2.5t-18 9.5q-7 4 -13.5 11.5t-9.5 17.5t-2 21t8 22q0 5 -1 7t1 5q10 17 21 33t20 33q3 -1 8 6 t5 12q8 9 15 21t15 23q-5 -2 -9.5 -3t-10.5 -6q-12 -1 -22.5 -6t-22.5 -5q-8 1 -17.5 5.5t-14.5 10.5q-1 0 -1 0.5t-1 0.5q-10 -10 -18 -19.5l-16 -19t-18 -20t-23 -22.5q-2 -1 -11 -12.5t-17 -14.5q-2 0 -6.5 -4t-10 -8.5t-10.5 -8.5t-8 -5q-2 1 0 2t0 3q-2 -2 -8 -7t-9 -5 q-12 -14 -25.5 -18.5t-25.5 -13.5q-14 -7 -27 -12.5t-28 -10.5q-9 0 -14 -5q-15 -1 -25 2.5t-18 9.5q-15 8 -25 26.5t3 40.5q1 2 3.5 8.5t6 13t6.5 12.5t5 8q6 8 8.5 12t5 7.5t4.5 8l6 13.5q4 -1 9 6t5 12q8 9 15 21t15 23z" glyph-name="rr" horiz-adv-x="733" unicode="rr"/><glyph d="M104 0q-25 -14 -54 -25.5t-51 -25.5q-17 -3 -26 6q-1 2 -2 5t-3 5q-2 1 -3.5 0t-2.5 1q-11 13 -8.5 25t12.5 22.5t22.5 19.5t20.5 16q47 36 107.5 62t112.5 46q9 14 17.5 31t6.5 34q-11 1 -22 -4t-20 -8q-16 0 -28.5 -8t-23.5 -16q-15 -5 -26.5 -13t-24.5 -19 q-5 -1 -10.5 -5.5t-10.5 -9.5q-7 -8 -20.5 -17.5t-22.5 -16.5q-5 -5 -9 -10t-9 -7q-11 -2 -17 -4t-10 2q-5 -3 -5 -1.5t-3 -3.5q-11 2 -18.5 10t-5.5 19q0 11 10 26.5t15 25.5q8 13 16.5 24t14.5 22q45 67 93 136.5t93 134.5q3 2 5 0q9 11 20 27t25 34q6 7 12.5 17t12.5 19 t12 16t11 10q8 4 13.5 3.5t8.5 -4t5.5 -9t4.5 -11.5q2 -7 3.5 -12t-6.5 -13q-5 0 -6 -1t-4 1q-31 -40 -58.5 -82t-57.5 -82q-2 -1 -2.5 -3t-2.5 -3q-5 -9 -11 -16.5t-10 -15.5q-18 -20 -33.5 -47t-35.5 -47q-12 -25 -29 -42t-31 -40q21 14 45.5 31t50.5 30q2 5 7 7.5t7 7.5 q15 5 27.5 11t28.5 4q2 -1 2.5 2t3.5 2q11 1 19.5 -2.5t16.5 -8.5q9 -18 18.5 -36.5t5.5 -48.5q29 7 52 15.5t43.5 18t40.5 21.5t44 27q2 2 3 4t4 5q3 5 7.5 9t7.5 10q9 17 20.5 31.5t22.5 28.5q2 2 1.5 1.5t1.5 -1.5q15 23 34 42t33 41q3 5 4 8.5t6 8.5q2 3 6.5 5t6.5 7 q14 18 30.5 37.5t31.5 39.5q7 7 14 16.5t17 11.5q6 -5 8 -13.5t6 -16.5q-7 -15 -16.5 -27t-21.5 -27q-32 -41 -64 -81.5t-64 -83.5q-3 -3 -5 -3q-6 -14 -15.5 -23t-12.5 -21q-23 -25 -43 -57.5t-41 -60.5q13 8 26.5 19t29.5 15q15 10 34.5 21t39.5 21t40.5 16.5t37.5 6.5 q9 0 15.5 -3t14.5 -7q2 -12 10 -24.5t7 -28.5q-2 -8 -6.5 -15.5t-8.5 -13.5l26 6q-6 -3 -2 -4.5t4 5.5q5 -2 16 1t14 9q12 -1 22 7.5t18 7.5q9 0 15.5 4.5t10.5 5.5q1 0 6 3t10.5 7t10.5 7.5t7 3.5q2 1 3.5 1t6.5 3v4.5v0t1 -0.5t4 3q1 -2 1 -3.5t3 3.5q1 1 12 8t24 14.5 t23.5 13.5t11.5 7l6 -8q-22 -23 -52 -45t-64 -41.5t-69 -36.5t-68 -30h-1l-58 -24q-3 -8 -11 -11.5t-16 -7.5q4 -1 9.5 1t10.5 2q-26 -7 -47 -21.5t-44 -28.5q-22 -14 -44.5 -27t-49.5 -22q-2 1 -2.5 2t-6.5 -2q-1 -5 -1 -8t-5 -8q-12 -4 -17 -1.5t-12 6.5q0 7 -4 11.5t-7 9 t-3 10.5t8 16q5 2 8 5l6 6q11 8 25.5 17t28.5 14q14 9 28 15t28 15q21 8 40 14.5t39 17.5q0 2 -0.5 1.5t-2.5 0.5q7 -2 18.5 9.5t22.5 26.5t19.5 30t10.5 21q-3 3 -8.5 1.5t-11.5 -4t-12.5 -5t-12.5 -1.5q-8 -5 -19 -10.5t-22 -6.5q-6 -5 -14 -8t-15 -11q-25 -11 -46.5 -28 t-46.5 -30q-14 -14 -28.5 -27.5t-28.5 -28.5q-8 2 -11 6q1 2 -1 0.5t-5 -1.5q-2 5 -9 8.5t-9 11.5q2 21 14.5 46.5t29.5 50.5q2 5 5.5 8.5t5.5 7.5l17 28q-1 -2 -2 -2t-2 -2q-7 -2 -15 -7t-16 -10.5t-15.5 -10.5t-11.5 -7q-14 -4 -27 -9.5t-22 -14.5q1 0 -2 3q-3 0 -4 -2.5 t-3 -2.5q-4 0 -8.5 -2.5t-9.5 -5.5q-8 0 -19.5 -6t-17.5 -11q-1 -1 -2 -3.5t-4 -3.5q-2 -2 -3.5 -2.5t-4.5 -2.5l-27 -25v3q-5 -2 -12.5 -11t-9.5 -14q-3 0 -4.5 -1t-2.5 1q-17 -17 -38.5 -29t-41.5 -26q-3 -2 -1 -3t-2 -3zM109 65q2 0 3 1t1 -1q-5 -2 -10 -6.5t-9 -3.5 q-2 -1 -3.5 -3t-3.5 -3l-3.5 -1.5t-7.5 -4t-6.5 -4.5l-2.5 -2q-18 -10 -25.5 -16t-7 -8t7.5 -1t18 6q5 2 13 7t16.5 10.5t16.5 10.5t14 7q8 4 17.5 11t13.5 12t-0.5 5.5t-24.5 -8.5q-6 -4 -10 -4t-7 -4zM605 116q2 1 6.5 5t3.5 6q-7 -5 -10 -11zM500 280l5 4q2 2 1 5z M143 76q-4 -2 -6 -2.5t-3 -0.5zM144 76q5 3 4 5zM128 71q-1 3 0 2.5t2 -0.5q0 -1 -1 -1t-1 -1zM133 73q-2 -2 -1.5 -2t-1.5 2h3zM133 73v1l1 -1h-1z" glyph-name="bb" horiz-adv-x="796" unicode="bb"/><glyph d="M588 165q4 0 7 3.5t1 5.5q14 5 31 10.5t28 10.5l24 9l28 9q8 2 22.5 9.5t22.5 10.5l15 6l27 11l10 -11l-6 -10l-14 -14q-6 -2 -16.5 -7t-21.5 -11t-20 -11.5t-11 -6.5q-2 -2 -9 -5t-14.5 -6.5t-14.5 -6t-10 -3.5q-10 -5 -27 -10t-28 -7q-2 0 -9.5 -2.5t-15.5 -6 t-15.5 -6.5t-9.5 -4q-5 -2 -8.5 -2h-6t-4.5 -1t-5 -4h-3q-9 -6 -14 -11t-9 -14q5 3 8.5 9t8.5 8q0 -5 -8 -12t-13 -13q-11 -17 -29 -33t-36 -27q-11 -7 -29 -14t-32 -7q-25 0 -37.5 23t-1.5 57q5 20 13 39t19 37h-2q-2 -1 -1.5 0.5t0.5 3.5q-5 -5 -7 -3.5t-2 -4.5 q-8 -2 -14 -7t-23 -7q-8 -7 -19 -10t-14 -2v-3q-2 -1 -2.5 1t-2.5 1l-4 -4q-4 2 -5 0t-4 -3q-2 -2 -4 -1t-5 1q-14 -2 -29.5 -6.5t-26.5 0.5q-6 -3 -17 -15t-24.5 -27.5t-30 -31.5t-32.5 -26q-2 1 -3 0t-4 -1q-17 -9 -40 -15t-35 -1q-8 7 -18.5 10.5t-16.5 12.5 q-2 4 -4.5 12t-4 16t-2 15t0.5 11q4 29 12 50t17 41q1 -3 0 -2.5t0 -2.5l9 22.5t13 26.5q0 -2 -0.5 -3t-0.5 -3q3 1 5.5 5.5t6.5 9.5q0 -3 -1.5 -4t-0.5 -2q11 15 22.5 29.5t28.5 25.5q2 2 7.5 5.5t6.5 3.5q5 1 6 -0.5t2 4.5q2 0 1 -1t-1 -3q5 0 6 7q2 0 4.5 3.5t8.5 9.5 q-1 0 -2 -1q6 5 11 13.5t13 11.5v-2q0 1 1 1.5t2 2.5q1 -1 2 1.5t3 2.5q5 2 16 5t23.5 5.5t24 5t18.5 4.5q8 -1 16.5 -4t14.5 -8q15 -8 23 -19t1 -36q-2 -8 -6 -18t-8 -18q-3 -9 -10 -21.5t-14 -24.5t-14 -22t-10 -15q-4 -1 -5 -2t-3 -5q17 3 30 5t31 8q34 11 70 30.5 t73 42.5q11 11 22 23t21 18q20 10 32 2q17 14 42.5 26t50.5 15q8 -7 14.5 -16t8.5 -22q-2 0 -1 1.5t-2 -1.5q1 -3 1.5 -5t-1.5 -7q2 0 4 8q5 -17 -5 -36.5t-16 -34.5q-6 -13 -12 -23t-11 -18l15 5q-6 -4 -7 -8zM110 85q14 14 24 22t21 25q-9 3 -20 10t-19.5 16.5t-13.5 22 t-3 26.5q-17 -23 -29 -46.5t-29 -52.5q-7 -18 -8 -33t16 -38q17 11 31 20.5t30 27.5zM484 195q-2 -3 -7.5 -7.5t-5.5 -9.5q1 -2 1 -4q0 -4 -5 -9q-1 -5 1 -2.5t6 1.5q0 2 2 2q0 -5 -2 -9q12 -6 23.5 -1t25.5 8q10 15 20 28t17 26.5t11.5 29.5t4.5 37q-18 -5 -26 -13.5 t-17 -19.5l3 9q-13 -17 -27 -30.5t-25 -35.5zM183 263q-2 0 -2 1t-1 0q-4 -7 -9 -12t-7 -11q5 4 8.5 9t8.5 7q-5 -4 -9.5 -10.5t-8.5 -13.5q-6 -6 -7 -11l3 4l-4 -5q-2 -8 -2.5 -17t1 -18t5 -16t8.5 -9q24 31 49 69.5t34 80.5q-14 -11 -35 -22t-32 -26zM389 51 q1 -5 -0.5 -5.5t3.5 -5.5q34 6 56 30t42 48h-18.5t-15.5 3t-13 10t-11 22q-11 -11 -17 -27q0 -1 -2.5 -0.5t-2.5 -1.5q0 -4 -4 -12q-5 -8 -11.5 -26t-5.5 -35zM405 104q-6 -18 -5.5 -14.5t2.5 10.5zM434 162q6 1 4 5zM519 238q3 3 5.5 5t4.5 5q-4 -6 -10 -10zM104 15 q-1 -2 -4 -2q2 0 4 2zM159 226q4 6 4 7q-2 -2 -2.5 -3.5t-1.5 -3.5zM596 174l-1 -1q0 1 1 2v-1zM529 248q1 1 2 1.5t2 2.5q-1 -2 -2 -2.5t-2 -1.5zM491 268l-1 -1q1 0 1 1zM129 294h-1h1z" glyph-name="oo" horiz-adv-x="675" unicode="oo"/><glyph d="M141 43q-1 -2 -0.5 -4t0.5 -3q-5 -4 -10 -5.5t-9.5 -2.5t-8.5 -3t-6 -6q-3 0 -1.5 1.5t0.5 3.5l-16 -8t-13 -1q-2 2 -0.5 2t1.5 2q-5 2 -9 -1t-7 -6.5t-6 -6t-5 0.5q6 5 4 5.5t-7 -1.5t-11 -5t-9 -4q0 -1 2 -1t0 -2t-4.5 -2t-7.5 -2q0 2 2.5 2.5t2.5 3.5q-3 1 -7 -1 t-4 -7q-1 -1 -5 -2t-4 1q-2 0 -1 1t0 4q-5 3 -12 1q0 1 0.5 1t0.5 2q-23 -5 -30 13l5.5 5.5t5.5 8.5q0 -2 5 0t7 0v-1q7 3 13.5 7.5t16.5 3.5q2 -2 5.5 -2t4.5 6q3 -1 5.5 0.5t2.5 -0.5q0 2 5 3q10 3 17.5 8t16.5 5q4 3 5 4t1.5 1h2h6.5q2 1 2 5q7 0 10 1q1 0 1 4 q12 6 23.5 11.5t22 12t18 15.5t10.5 22q-15 16 -36.5 26t-43.5 23q-11 5 -23 15t-17 21q-2 4 -2.5 11.5t0.5 16t3 17t5 15.5q17 11 29 23t29 22q5 3 14 9.5t17 8.5q17 6 31 12t28 8q3 2 8 3t7 1q13 -1 15 -16.5t5 -28.5q-4 -7 -8 -7q-2 0 -6.5 -1.5t-4.5 0.5 q-11 -1 -16.5 -3t-9.5 -5t-8.5 -7t-11.5 -9q-21 -10 -40.5 -24.5t-36.5 -31.5q2 -5 5.5 -6t9.5 -3q24 -13 50.5 -26.5t45.5 -35.5q1 -9 4 -19t4 -20.5t-1 -22t-10 -21.5l-2 -2q-4 -6 -11 -11t-15 -8.5l-16 -7t-14 -6.5q1 2 -3 1t-6 -1zM420 95q-6 -3 -16 -10.5t-18 -11.5 q-2 -1 -1.5 1.5t-3.5 1.5q-7 -7 -18.5 -11t-13.5 -13q-14 -4 -26.5 -9.5t-24.5 -10t-24.5 -6.5t-26.5 1q-2 2 -3 2.5t3 5.5q-5 1 -15 4t-8 8q5 4 14 4.5t13 8.5q31 11 62.5 26t58.5 34q8 5 13 11t11 14q-8 8 -22.5 11t-29.5 6t-27 9t-16 19q-6 7 -10.5 15t-9.5 14 q0 16 9.5 30.5t23 26.5t27.5 22t24 19q1 -3 -1 -3t-2 -3q21 11 46 23t53 11q0 -5 -3 -5q9 -2 14 -9.5t3 -17.5q-31 -3 -54 -16t-46 -32q-14 -11 -21.5 -18t-15.5 -22q13 -6 27.5 -12t28 -13.5t24.5 -18t17 -25.5q3 -5 5.5 -16t4.5 -17v-2q-5 -13 -14 -20l-18 -14q3 2 7 8z M108 25q6 0 6 5q-2 -1 -6 -5zM0 31q2 -2 3.5 -2t1.5 2q-1 2 -3 2t-2 -2zM143 45q0 -2 1.5 0t4.5 1v4zM413 87l-8 -6zM-21 24q2 0 3 1q-1 -1 -3 -1z" glyph-name="ss" horiz-adv-x="466" unicode="ss"/><glyph d="M683 195q0 -2 -2 -4q-4 -7 -11 -15t-13.5 -16t-12.5 -14.5t-9 -10.5q-1 -3 0.5 -3t3.5 2q-6 -7 -15.5 -11.5t-12.5 -9.5q-2 0 -1 1.5t-1 2.5q-14 -18 -27.5 -34t-33.5 -18l-6 -6t-6 -9q-7 -4 -11.5 -10.5t-12.5 -2.5q-2 -2 -2 -3.5t-1 -3.5q-3 0 -4.5 1t-3.5 2 q-4 -10 -13 -15.5t-14 -3.5q-3 -1 -5 -3t-5 -4q-16 -5 -30 -12.5t-31 -9.5q-3 -1 -11.5 -2t-12.5 1q-12 1 -26.5 8.5t-23.5 14.5t-17 11.5t-11 14.5q-8 11 -7 29.5t4 35.5q-8 -4 -10 -9q-2 0 -1.5 2t-2.5 3q-14 -20 -29.5 -37t-36.5 -20q-3 -2 -6 -6.5t-5 -9.5q-9 -5 -9 -8 t-7 2q-2 -2 -8.5 -7.5t-7.5 -7.5q-2 0 -6.5 -1.5t-6.5 -0.5q-5 -11 -11.5 -15t-11.5 -2q-3 -1 -6 -3t-5 -4q-14 -5 -30.5 -13.5t-35.5 -10.5q-3 -1 -11 -2.5t-14 0.5q-11 2 -25 10t-23 16q-6 7 -14 12t-11 16q-5 14 -2.5 36t6.5 43q11 29 19 47.5t15 33t14 27t18 29.5 t26.5 40.5t39.5 60.5q-20 -2 -39 -7.5t-48 -13.5q-6 -2 -14.5 -4t-16 -1.5t-13 4.5t-5.5 15q5 0 5 5q17 6 38 14t43.5 16t45 15t42.5 10q5 1 17.5 18t26.5 38t26 40t16 25q2 2 5.5 7t4.5 7q3 3 4.5 10.5t6.5 9.5q1 0 4.5 5t8 11t8 10.5t3.5 3.5l4.5 6t3 3t3 3t5.5 7 q7 8 11.5 13t9.5 9.5t11 10t17 15.5q3 2 9 -0.5t11 -8t8.5 -13.5t1.5 -17q0 -2 -2 -2.5t-2 -1.5q-5 -6 -15.5 -20.5t-24.5 -34.5t-29.5 -42t-29.5 -42t-24.5 -35.5t-14.5 -21.5q5 2 10.5 2.5t12.5 2.5l5 2.5t6 2.5q7 1 6 -1t5 0q5 1 6.5 3t6.5 3q15 2 36.5 4t44.5 3.5 t46.5 3.5t41.5 4q5 1 5 3t6 3q2 0 3 -1.5t5 -1.5q7 0 10 1l44 62q1 1 4.5 6.5t7 12t7 12t4.5 6.5q3 3 2.5 4.5t3.5 3.5q2 0 5 7.5t4 5.5q3 5 4.5 6.5t2.5 3l2 3t4 6.5q6 7 10.5 11t9.5 8t11 9t15 14q4 0 6.5 3t6.5 4q4 -4 9.5 -7.5t9.5 -8.5t5 -11.5t-2 -15.5q-1 -2 -4 -1.5 t-3 -0.5q-5 -6 -16 -21t-25.5 -34.5t-29.5 -41t-28 -39.5l67 5q9 1 18.5 0.5t17.5 -0.5q32 2 57 1t38 -4q-3 -6 -5.5 -10.5t-10.5 -6.5l-10 -2q-8 -2 -14.5 -2t-23.5 -1q-2 -2 -13.5 -3.5t-24.5 -3t-24 -2.5t-11 -2q-2 0 -1 1t0 1.5t-4.5 0t-12.5 -3.5q-5 -2 -3.5 -0.5 t-5.5 0.5q-14 -2 -29.5 -4.5t-31.5 -5.5q-1 0 -1 -0.5t-1 -0.5h-1q-4 -4 -12.5 -18t-13.5 -25q-3 0 -4 -0.5t-1.5 -2t-2.5 -4.5t-6 -10q-10 -17 -25.5 -34t-35.5 -49q-2 -5 -3.5 -11t-6.5 -7q-2 -7 -4 -13t-7 -8q-2 -15 -11 -27.5t-11 -26.5q-6 -8 -10.5 -20.5t-7.5 -23.5 q1 -7 -1 -12.5t-5 -13.5h-1q-6 -16 -6 -28.5t2 -25.5q40 -3 76.5 12.5t66.5 36.5q48 31 100 71t89 85q3 -4 0.5 -5.5t-0.5 -4.5q5 2 5 7t5 7q-1 -4 -3.5 -7.5t-4.5 -7.5t-3 -7t1 -6q2 2 4 4.5t4 5.5v9.5t2 2.5v-3q2 5 7 7q0 -3 -2 -7l4 3q1 -8 -3 -14t-8 -13zM413 323 q9 16 16 25t18 24l1 2q-3 0 -6 -0.5t-5 -0.5q-4 -1 -6.5 0t-4.5 0q-45 -5 -91.5 -14.5t-80.5 -14.5q-3 -1 -3.5 2.5t-4.5 2.5t-7 -3t-6 -3t-5.5 0t-4.5 0l-28 -5q-6 -3 -9 -3t-6 -1t-6 -4t-8 -11q-12 -18 -27 -36.5t-38 -54.5q-6 -11 -13.5 -22.5t-15.5 -20.5 q-3 -16 -13 -29.5t-13 -28.5q-7 -9 -12.5 -22.5t-8.5 -25.5q1 -8 -1.5 -14.5t-6.5 -15.5q-1 -1 -1 1q-11 -31 -10 -59q42 -4 80.5 13.5t71.5 40.5q41 26 84 58.5t82 69.5q6 14 12.5 25.5t16.5 27.5t24.5 38.5t35.5 58.5zM683 208l2 4q-3 -3 -3 -8q2 1 6 11zM681 191v-1v1z M351 80q-1 -1 -1 -2z" glyph-name="tt" horiz-adv-x="592" unicode="tt"/><glyph d="M727 78q-4 -4 -4 -5h-1v-1q-6 1 -9 0t-8 -1q0 -2 6 -2q-5 -2 -9 -1t-8 1.5t-8.5 -1.5t-10.5 -8q-5 -1 -4 2t-1 3q-4 -3 -9 -4l-10 -2q-3 -4 1 -2.5t-1 -2.5q-7 0 -10 -1t-5 -1t-4 1.5t-8 6.5q-4 -1 -17 -1q-3 -5 0.5 -4.5t1.5 -2.5q-17 -4 -27 -5.5t-26 -4.5q0 -2 2.5 -1 t-1.5 -4q-2 2 -5 4t-8 -6q0 3 -3.5 4t-5.5 4q-2 0 -2 -2t2 -2q-4 -5 -5 -2t-3 5q-4 -2 -3.5 -3.5t-2.5 -3.5q-13 -2 -14 -3t0 -2.5t-0.5 -3t-15.5 -4.5q-3 -1 -2.5 -2.5t-2.5 -1.5q-2 -2 -2 1t-8 -1q0 -1 1.5 -0.5t1.5 -0.5q-5 -2 -10.5 -2.5t-11.5 -0.5t-11.5 -1t-11.5 -5 q-4 3 -11 0.5t-10 -4.5q-18 -4 -27.5 0t-13.5 12t-6 18t-5 19q1 3 3 6.5t3 5.5l13 14q-9 -3 -11 -3.5t-2.5 0t-3 0.5t-12.5 -1q-4 -1 -7.5 -3t-6.5 -2q-4 0 -5 -0.5t-1 -1t-0.5 -1.5t-3.5 -3q-2 -1 -2.5 -3t-2.5 -3q-5 -1 -4 1t-1 2t-8 -3t-10 -4t-7 -0.5t-5 -1.5 q-5 0 -2.5 1t0.5 4q-5 -2 -4.5 -3t1.5 -1t0.5 -0.5t-5.5 -1.5q-4 -1 -4 -3.5t1 -4t1 -2t-4 3.5q-4 -5 -5 -7t-1.5 -2t-2 2t-6.5 5q-13 -3 -22 -10.5t-26 -7.5q-3 -1 -2.5 2t-1.5 4q-16 -2 -32 -7t-33 -8q-5 -10 -21 -11.5t-32 -8.5q-7 -3 -10.5 -6.5t-11.5 2.5 q-14 -8 -25.5 -6.5t-21.5 8t-18.5 15.5t-14.5 17q-2 7 0.5 15.5t7 17t10 16t10.5 12.5q15 16 33.5 31.5t36.5 30.5q35 31 72 60t73 59q-17 -5 -32 -5.5t-29 -9.5q-2 -1 -4 -1t-4 -2q-9 -5 -20 -10t-23 -12q-11 -5 -24.5 -9t-21.5 -4q-2 0 -3.5 4.5t-3.5 6.5q-2 3 -1.5 8 t2 11t4 12t3.5 9q3 7 12.5 12.5t17.5 9.5q30 17 66 26t77 17q18 3 30 1t18 -13q3 -9 5 -21.5t1.5 -24.5t-6 -21t-18.5 -10q-9 -11 -21 -20t-23 -19q-4 -1 -3.5 2t-1.5 3q-23 -18 -47 -34t-41 -40q-1 -4 1 -0.5t6 2.5q-5 -5 -9 -9.5t-9 -6.5q1 2 1.5 3.5t0.5 4.5 q-12 -9 -25 -18.5t-24 -23.5q2 -2 4.5 0t4.5 4q-4 -12 -17.5 -25t-22.5 -25q43 8 74 17t60 18t61.5 16.5t80.5 12.5q15 2 22.5 3.5t13.5 1.5t12.5 -2t20.5 -7q-1 -8 -5.5 -9.5t-3.5 -8.5q26 26 54 47.5t55.5 42.5t55 42.5t52.5 48.5q-5 -2 -8.5 1t-11.5 -3q0 -1 1.5 -1 t-0.5 -3q-2 1 -4.5 0t-4.5 -1.5t-3.5 -0.5t-0.5 4q-9 -7 -21.5 -11t-13.5 5q-6 -8 -14.5 -8.5t-11.5 -7.5q-8 0 -16.5 -4.5t-17.5 -10t-19 -11.5t-20 -9q-10 7 -10 26.5t-2 36.5q15 10 35 20.5t42 19.5t45 15.5t43 9.5q10 2 22.5 2t23.5 -1.5t18.5 -4.5t9.5 -9q4 -7 0.5 -26 t-7.5 -31q-5 -21 -17.5 -32t-24.5 -27q-14 -8 -25.5 -17t-24.5 -17q-4 -6 -4 -8q-29 -17 -57 -38.5t-57 -41.5q0 -2 -1.5 -4t-1.5 -6q-5 -3 -10 -5.5t-9 -8.5q54 5 87.5 14t63.5 15.5t65 8t91 -7.5q-2 -4 -5 -4t-3 -2q1 -1 2 -1v-1l1 1h3zM726 80q4 1 2.5 0.5t-4.5 -2.5h-1z " glyph-name="zz" horiz-adv-x="723" unicode="zz"/><glyph d="M208 269q-1 -4 -3.5 -4.5t-3.5 -4.5q7 5 16 13t17 15q1 2 0 2t-1 -2q1 3 3.5 4t4.5 -2q3 5 5.5 8t0.5 9q6 4 8.5 4t6.5 2q2 2 1.5 4t1.5 4q13 3 21 15q9 0 12 1q17 17 37.5 20t37 -5t26.5 -25t6 -41q-15 -25 -28 -49t-31 -46q-2 2 -3 0.5t-2 0.5q-4 -2 -6 -11q0 4 -1.5 2 t-2.5 -4q-2 -3 1 -1t4 0q-2 -5 -5 -4.5t-6 -0.5q0 -4 1 -5.5t-2 -4.5q-1 -1 -2 0v1q-4 -11 -11 -12t-12 -12q32 3 58.5 12.5t51 24t49.5 32t55 36.5q1 2 3.5 6t4.5 3q10 5 19.5 17.5t17.5 14.5l15 23q4 0 5 3.5t4 3.5q11 25 25.5 42t24.5 39q2 -2 3.5 1.5t5.5 3.5 q7 1 9 -4.5t7 -10.5q0 -2 1 -2t-1 -2q7 -6 7.5 -17.5t-10.5 -15.5q-15 -27 -32 -52t-35 -48q-3 -11 -9 -16.5t-12 -10.5q-10 -17 -19.5 -31t-17.5 -31q11 13 22 27l22 28q8 3 12.5 10t12.5 15q2 -3 3.5 -0.5t2.5 0.5q5 8 11 12t8 15q25 18 46 36.5t47 33.5h2 q25 11 39.5 -2.5t19.5 -33.5q3 -9 -0.5 -17.5t-7.5 -23.5q0 -4 -1 -7q-3 -7 -9.5 -15t-12.5 -13q-14 -29 -31.5 -53t-37.5 -49q7 3 31.5 13t51.5 21t50 18.5t28 4.5q5 3 7 3.5t2.5 0t2 -0.5t4.5 2q24 2 31 0t5 -6t-8 -8t-7 -5q-10 -4 -17 -4q-3 -5 -1 -8h-5q-2 -1 -4 -2.5 t-4 -3.5q-5 -4 -29 -13.5t-52.5 -20.5t-54 -20t-34.5 -12q-6 -2 -13 -5t-13 -5q-10 -4 -19 -5.5t-19 -8.5q-5 -6 -9.5 -12t-7.5 -3l-22 -22t-21 -15q-3 0 -6.5 2t-5.5 0q-7 10 -13 15t-10 14q-1 10 3 14t5 12q15 22 40.5 30.5t48.5 18.5q7 8 14 12.5t12 15.5q6 7 13.5 15.5 t11.5 19.5q-2 1 -3 -2t-4 -3q5 13 16.5 20t14.5 19q14 19 28.5 39t21.5 46q-22 -9 -41 -23t-37 -30.5t-35.5 -34t-35.5 -34.5q0 -5 -1.5 -6t-3.5 -6q-19 -18 -35.5 -40t-36.5 -42q-20 -29 -35 -48t-27 -34.5t-23.5 -30.5t-24.5 -35q-2 0 -4.5 -0.5t-4.5 -5.5q-1 -2 1 0.5 t3 -0.5q-5 -3 -5 -2q-11 -16 -13.5 -26t-13.5 -23q-11 -20 -21.5 -37t-22.5 -34q-2 -8 -3 -9q-2 0 -4 -4t-3.5 -8.5t-3.5 -8t-4 -3.5q-3 -3 -5.5 -3.5t-3.5 0t-1.5 0.5t0.5 -3q-6 -3 -16 2t-16 4q0 2 -1.5 3.5t1.5 6.5q2 2 0 0t3 0v3h1q-2 3 2.5 11t7.5 9q2 2 0.5 2t-0.5 2 q7 10 11 20t10 21q13 17 15.5 22t3 9t3.5 12.5t17 33.5q2 3 2.5 2.5t1.5 -0.5q1 5 3 7l6 6q-1 1 -2 1q14 28 30 55.5t33 58.5q4 -3 6 6t6 14q1 0 0.5 -2t0.5 -2q8 7 9.5 15t9.5 13q6 15 16.5 32t19.5 33q2 0 2.5 3.5t4.5 1.5q1 5 1 6.5t5 6.5q1 -3 3 -1t3.5 6t3.5 8.5t4 6.5 h-1q-4 -2 -13 -10t-20 -16.5t-23 -16.5t-21 -10l-2.5 -2.5l-2.5 -2.5q-13 -9 -30.5 -17t-36.5 -15.5t-37.5 -13.5t-32.5 -9q-5 -5 -12 -6t-15 -1.5t-15 -3t-11 -8.5q-15 -10 -34 -19t-38 -19l-5 -8q-7 -4 -13 -3.5t-11.5 2.5t-10.5 5t-10 5q0 3 -5 6q-2 1 -4 1q-2 7 0 14.5 t1 18.5q5 7 11 11.5t10 10.5q28 5 55.5 17t56.5 14q9 17 25 27q1 8 5 11.5t8 6.5t8 7t6 13q2 1 3.5 2.5t3.5 0.5q4 9 8 15t9 11q7 0 7.5 5.5t5.5 4.5q2 3 1.5 4.5t-0.5 5.5q13 17 22 36t20 41q-10 0 -19 -2.5t-19 -6.5q-45 -23 -85.5 -61.5t-78.5 -73.5q-54 -60 -96.5 -125 t-85.5 -139q-7 -12 -20 -32.5t-27.5 -43t-27 -43.5t-17.5 -34q-4 -5 -7.5 -7.5t-7.5 -7.5q-3 -1 -3.5 0.5t-2.5 0.5q-3 -1 -5.5 -4.5t-5.5 -6.5q-2 3 1 5.5t0 3.5q-2 5 0.5 7.5t1.5 5.5q-6 -6 -4 -15.5t-3 -12.5q0 -9 -1 -2t-3 12q1 1 1 2.5t-8 -0.5q-7 1 -11.5 0.5t-6 -0.5 t-1 2t3.5 9q2 -2 5 1q4 8 0.5 9.5t1.5 3.5q-3 3 -2 5q2 5 4 4t6 4q3 10 10 25t15.5 30.5t15.5 30t9 23.5l8 9q1 3 -1 2.5t-2 1.5q1 4 2 2t2 -2q4 4 6.5 11t6.5 11q7 20 20.5 36.5t18.5 36.5q6 0 7 7t6 9q4 21 21 36q11 23 24 43.5t22 45.5q11 11 18.5 23.5t14.5 26.5 q0 -2 2 -2q2 9 8.5 19.5t11.5 21.5q2 0 2 -1t2 -2q28 47 53.5 91t55.5 85q7 2 11 -1t7 -8t5.5 -11.5t4.5 -11.5q0 -8 -3.5 -14.5t-7.5 -12.5q-1 -1 -6 -1q-20 -32 -40 -66.5t-40 -66.5h-3q-8 -17 -17 -32t-17 -31q3 -1 3 1.5t2 3.5q2 -1 0.5 -2.5t-0.5 -3.5q2 -1 2 2t3 1 q2 4 -1 4t-2 5q15 12 21 27t19 27q5 2 3.5 0t-2.5 -3q7 2 8 8t7 9q0 -2 -1 -2.5t-1 -1.5q2 2 5 4t5 5q0 4 -1 2t-3 -1q3 2 6 5.5t6 3.5q-2 -2 -3 -2.5t-2 -2.5q6 3 11.5 6.5t8.5 8.5q2 1 2 -4l15 14q-1 2 -4 0t-4 0q0 2 1 2.5t1 2.5q-3 0 -4 -3q1 4 4.5 8t7.5 6zM-157 -265 q3 2 3.5 1t2.5 -1q-2 -1 -3.5 -2t-2.5 2zM507 203l1 2l-3 -2h2z" glyph-name="pp" horiz-adv-x="800" unicode="pp"/><glyph d="M418 160q-1 -2 -2.5 -3t-2.5 -3q-7 -7 -13 -15.5t-11 -19.5q-4 -5 -6 -11t-4 -13t-4.5 -15.5t1.5 -13.5q0 -6 10 -7q5 -1 10.5 -1.5t10.5 -0.5q10 1 18.5 3t17.5 5q21 7 41 16t38 18q5 2 8.5 5t6.5 5q17 6 31 15q11 8 22.5 13.5t21.5 12.5l7 5q3 2 3.5 3.5t2.5 3.5 q1 0 7.5 3.5t13.5 7t13 7t7 3.5q8 5 15.5 10t14.5 9q9 7 19.5 13t18.5 14h10.5t11.5 -1t7.5 -4t-1.5 -10q-2 -5 -7 -9.5t-10 -8.5q-15 -11 -31 -21t-33 -20l-19 -15q-6 -5 -17.5 -12t-24 -14.5t-24 -15t-17.5 -11.5q-2 -2 -4.5 -3t-4.5 -3q-5 -1 -7.5 -1t-4.5 -1 q-11 -5 -20.5 -12t-22.5 -14l-17 -7q-2 -1 -3.5 -0.5t-3.5 0.5q-3 1 -5 -1t-7 -4q-4 -6 -8 -7h-7q-5 -1 -10 -3.5t-10 -4.5l-27 -9q-7 -2 -14 -3.5t-15 -0.5q-17 2 -26 7t-16 16q-3 6 -5.5 12t-2.5 14q-2 11 1 19q2 17 4 28.5t8 22.5l-1 2q0 2 2.5 4.5l4.5 4.5l3 7h-1 q5 11 11 23.5t13 22.5q-8 -4 -14 -10t-13 -8q-1 0 -1.5 -0.5t-2.5 -0.5h-6l-5 -2.5t-4 -4.5q2 0 3.5 2.5t3.5 0.5q0 -8 -8 -12q-2 3 -5 1.5t-5 0.5q0 -2 0.5 -3t0.5 -3q-2 -1 -3 -3t-3 -2q-1 0 -4 3q-3 -5 -6.5 -10.5t-11.5 -7.5h-1q-1 0 -1.5 -0.5t-1.5 -0.5q0 -1 -3 -4 q-7 -9 -15 -10q-5 -5 -9.5 -8.5t-11.5 -5.5q-2 2 -0.5 3t1.5 3q-1 -1 -2 0t-2 1t-1.5 -0.5t-1.5 -0.5q-1 -1 -2 -1q-5 -2 -8 -5.5t-7 -5.5q5 -1 7.5 3t7.5 5q0 -2 -1 -4q-2 -5 -6 -9t-10 -2q-5 -11 -16.5 -16t-20.5 -12q-2 -1 -5 -3t-3 2q-4 -2 -5 -2q-5 -5 -10.5 -10 t-8.5 -11q-13 -7 -23.5 -14t-24.5 -10v3t2 3q2 1 2 -1t4 0q-1 5 -4.5 4t-4.5 -3q-2 -2 -1.5 -3t-0.5 -2q-3 1 -0.5 4.5t0.5 5.5q-4 -1 -2.5 -4.5t-2.5 -5.5l-2 2q-2 0 -2.5 -1.5t-2.5 -2.5h-3h-2q-16 0 -17 -9q-18 -2 -34 -7q-16 3 -30 8t-22 16q-5 5 -9 12t-5 16q-1 8 1 20 t5 20q1 0 1 -4q2 2 3 5t3 7q-1 0 -2 -1.5t-2 -1.5q0 8 2.5 13t5.5 12q1 0 1.5 -1.5t1.5 -1.5q11 28 24 54t30 49l3 5q2 -5 -0.5 -7t-4.5 -6q14 12 25.5 29t24.5 32q1 2 2.5 4t3.5 4q1 0 0.5 -1t0.5 -2q4 0 4 4q0 2 -1 2.5t1 2.5l3 1.5t1 3.5q2 -2 4.5 0.5t5.5 4.5q3 4 7 7 t7 7q8 7 17 13.5t17 14.5q2 5 3 5q2 1 5 1q9 1 15.5 -2t14.5 -5q4 -8 8 -16.5t6 -17.5q2 -2 4 -5.5t2 -7.5q-2 -6 -3.5 -11.5t-3.5 -9.5q-6 -8 -7 -21q-3 -8 -5 -16.5t-6 -14.5q-2 -7 -7 -7q-1 0 -3.5 2t-4.5 3q-6 5 -9.5 10t-9.5 10q-2 19 4 34.5t12 29.5 q-29 -23 -53 -54.5t-46 -63.5l-3 -4q0 6 3 9.5t7 8.5q-13 -7 -18.5 -20t-14.5 -21q-2 -8 -7 -14q-2 -5 -6 -11t-6 -13q-8 -5 -10 -15t-4 -21q-1 0 -3 2l-6 -19q2 -5 0.5 -11t-3.5 -9q5 -5 13 -6.5t16.5 -0.5t17 3t15.5 4q37 14 69.5 34t65.5 40q6 4 12.5 8.5t14.5 7.5 q13 7 25 15.5t24 17.5q38 26 75.5 52.5t72.5 54.5q5 1 8 3.5t6 5.5l3 3q1 -2 0.5 -2.5t-0.5 -2.5q2 2 4.5 3.5t6.5 3.5q1 0 3 4q5 7 11 11.5t11 10.5l10 13q3 1 7 5q6 4 11 4q8 -1 10.5 -7.5t4.5 -14.5q2 -5 2.5 -8.5t2.5 -5.5q2 -4 4 -7.5t1 -7.5q0 -2 -0.5 -3t-0.5 -2 q0 -4 -0.5 -7t-2.5 -7q-1 -2 -2 -5t-2 -7q-3 -6 -5 -12t-5 -13q-2 -13 -8 -24q-1 -3 -2 -5.5t-3 -5.5q-3 -2 -4.5 -5.5t-3.5 -3.5q-7 -1 -9.5 5t-10.5 2q-2 9 -7.5 14t-3.5 16q0 3 1.5 6t2.5 6q-17 -13 -32.5 -31.5t-29.5 -37.5q0 -2 -0.5 -3.5t-0.5 -2.5q0 -2 0.5 -1.5 t2.5 -1.5z" glyph-name="cc" horiz-adv-x="652" unicode="cc"/><glyph d="M664 466v1q-1 -1 -1 -2l-4 -5q-2 0 -3 -2.5t-3 -1.5q-2 -8 -7.5 -14.5t-11.5 -8.5q-11 -20 -27 -27q-2 -4 -0.5 -5t1.5 -5q-9 -8 -16 -13.5t-13 -10.5t-11.5 -12t-11.5 -18q-3 -1 -6.5 -2t-5.5 -3q0 -4 0 -2t2 0q-1 -4 -3 -5.5t-4 -6.5q-14 -2 -19.5 -11.5t-16.5 -15.5 q-2 -7 -5.5 -11t-8 -7t-8.5 -6t-7 -9q-3 -2 -6 -3t-4 -4q0 -5 1 -6t-2 -4q-3 -4 -7 -4.5t-7.5 -1.5t-6.5 -3.5t-6 -9.5q-5 -2 -7.5 -4t-7.5 -5q-6 -7 -7 -9t-2 -3t-4.5 -2.5t-13.5 -7.5q-3 -2 -2 -0.5t-1 2.5q-5 -11 -7.5 -11.5t-3.5 1t-1.5 2t-0.5 -8.5q-5 -10 -10.5 -23 t-11 -27t-10 -26.5t-5.5 -21.5q-16 -62 38 -61q8 5 18 4.5t17 2.5q2 2 4.5 2.5t5.5 3.5q2 -2 3.5 1t7.5 4q25 12 45.5 23t38.5 23.5t36.5 26.5t39.5 32q18 13 36.5 28.5t35.5 31.5q5 -2 7.5 -2.5t8.5 1.5q0 -5 -4.5 -7.5t-9.5 -7.5q1 -2 3 0q-5 -5 -1.5 -5.5t8 -0.5 t5.5 -0.5t-9 -4.5l-8.5 -8.5l-11.5 -11.5t-12 -10.5t-9 -5.5q-1 -2 3 -2q-2 -1 -3.5 -3.5t-5.5 -5.5h-3h-2q-2 -2 -3 -4.5t-3 -4.5q-4 -5 -6 -7t-4.5 -2.5t-5.5 -2t-8 -5.5q-5 -8 -11 -12.5l-10 -7.5q-11 -9 -25 -20t-29 -21.5t-30.5 -19t-28.5 -14.5q-1 0 -6 -2.5t-11 -5 t-10.5 -4t-5.5 -1.5q-26 -8 -48 -11.5t-44 5.5q-11 4 -19.5 11t-11.5 12q-1 3 -1 8.5t-4 9.5q-8 18 -4 44.5t13 53.5q-1 0 -2 1q-5 -2 -5.5 -5t-1.5 -5q-5 -5 -7.5 -7t-5 -3.5t-5.5 -3t-9 -5.5q-2 -8 -9 -12t-13 -7q-11 -10 -25 -22t-29.5 -23.5t-31.5 -22t-30 -16.5 q-2 0 -7.5 -4t-11.5 -9t-11.5 -9t-6.5 -4q-13 -3 -22.5 -8t-18.5 -8.5t-18.5 -4.5t-22.5 4q-10 4 -18 12t-11 13q-1 2 -1.5 7.5t-5.5 10.5q-4 11 -5 20t0 18.5t4 20.5t7 27l4 15q2 5 3.5 7t-0.5 9q3 8 5.5 13t6.5 10q64 142 151.5 264.5t181.5 227.5l35 32q4 4 10.5 7t7.5 6 q25 15 44.5 8t33.5 -20q2 -7 -0.5 -21t-7.5 -28.5t-12 -26.5t-14 -15q0 -9 -4 -15t-8.5 -11t-9.5 -11t-7 -15q-5 -5 -10 -11t-7 -14q-11 -5 -17 -16.5t-11 -22.5q-2 -2 -1.5 0t-1.5 3q-4 -3 -9 -8.5t-9.5 -11.5t-8.5 -10.5t-6 -5.5q-1 -9 -7 -16.5t-11 -9.5q-6 -9 -10.5 -16 t-17.5 -11q-2 -4 -1 -5t1 -5q-8 -8 -14.5 -13.5t-12 -11.5t-10.5 -13t-11 -18q-10 -2 -13 -6q0 -4 0 -2t2 0q-1 -4 -3.5 -5.5t-5.5 -6.5q-15 -3 -20 -12.5t-15 -15.5q-2 -2 -13.5 -15.5t-25 -29t-26 -27t-16.5 -9.5l-7.5 -10t-3 -3t-5.5 -3t-14 -9q-2 -2 -1.5 -0.5t-1.5 2.5 q-3 -11 -5 -11.5t-3 1.5l-1.5 3t-0.5 -7q-9 -23 -20 -46t-11 -41q-6 -34 11.5 -47t50.5 12h1q-4 0 4 3q0 2 2.5 1t4.5 1q3 -2 5 2t8 5q28 16 49 29t40 25.5t37.5 25.5t41.5 31q9 8 22.5 17.5t26.5 19.5q0 1 2 7q-1 0 2 3h-2q0 3 2 5q2 8 4 8t7 5q34 68 69.5 124.5 t74.5 106.5t81.5 97.5t89.5 97.5q7 8 17.5 15t21.5 16q3 3 4.5 6.5t5.5 5.5q25 15 45.5 8t33.5 -20q-3 -5 -2.5 -9.5t1 -8.5t0 -8.5t-5.5 -10.5q1 -1 2.5 -2t-0.5 -5q-2 -2 0.5 0.5t5.5 0.5q-5 -3 -8.5 -5.5t-5.5 -3.5q-5 -11 -10.5 -19.5t-13.5 -15.5q0 -9 -4.5 -14.5 t-9.5 -11l-10 -11t-6 -14.5q-6 -3 -11.5 -9t-6.5 -13q-12 -5 -17.5 -16t-11.5 -22q-2 -2 -2 -0.5t-1 2.5q4 2 6.5 6.5t-1.5 8.5zM158 334q2 1 2.5 0t1.5 -1l-2 -6h-4q-2 -5 -10.5 -16t-13.5 -19q0 3 -0.5 -2t-0.5 -6q-5 -11 -10 -17t-5 -17q60 65 117.5 134.5t111.5 143.5 q10 15 18.5 26.5t16.5 23t15 25t13 32.5h-4q-3 -2 -4.5 -4t-3.5 -3q-2 3 -7.5 -0.5t-12.5 -10t-14.5 -14t-12.5 -13.5v4q-8 -6 -12 -14t-11 -17q-5 1 -7 -2t-4 0q-5 -8 -13 -16t-10 -16q0 1 4 1q-11 -8 -8 -15q-3 -3 -6.5 -8.5t-8.5 -5.5q0 -5 -6 -14t-14 -18.5t-16 -18.5 t-11 -14q-3 -1 -3 -2.5t-1 -4.5q-1 0 -2 -1q-5 -5 -6 -4q3 -4 0 -8t-17 -26q-6 -19 -15.5 -30t-18.5 -25q0 2 2 3q-5 0 -1.5 2.5t3.5 4.5q-2 -1 -4 -4.5t-5 -6.5zM657 532q20 29 42.5 58.5t35.5 65.5h-4l-4 -4t-4 -3q-3 -12 -13 -15t-20 -13q-1 0 -1 0.5t-2 0.5 q-5 -7 -8 -16.5t-17 -14.5q2 2 2.5 3t2.5 4q-11 -6 -15.5 -15t-12.5 -18q-4 2 -5 -1t-5 -1q-4 -7 -12 -14.5t-12 -15.5q0 3 5 1q-8 -7 -8 -15q-3 -3 -5 -8t-9 -5q-1 -8 -9.5 -12.5t-10.5 -11.5q-1 -2 0 -1.5t1 -1.5q-5 -4 -4.5 -5t1.5 -1t0.5 -0.5t-6.5 -3.5 q-2 -4 -0.5 -5.5t-1.5 -2.5q-1 -1 -1 0t1 3q-6 -11 -10 -4q-1 -5 -6 -7.5t0 -4.5q3 5 7.5 5.5t7.5 0.5q-2 -2 -4 -3.5t-6 -2.5q-2 -3 -8 -9.5t-8 -14.5q-7 -20 -20.5 -32.5t-22.5 -28.5l-2 -1q-2 -3 -10.5 -12.5t-13.5 -17.5q1 0 2 -1.5t0 -1.5q-2 -6 -9.5 -14.5 t-15.5 -17.5t-14 -17.5t-6 -14.5q63 63 123.5 129.5t114.5 137.5zM302 540q2 3 4.5 6.5t7.5 4.5q-2 -4 -4.5 -7.5t-7.5 -3.5zM317 180q0 3 2.5 4t5.5 3v-3q-4 -4 -8 -4zM223 429q1 0 4 3q-1 -2 -0.5 -2.5t-1.5 -0.5h-2zM220 428h2q1 0 1 1l1 1q0 1 0.5 1t0.5 1q-3 -2 -3 -3 q-1 0 -2 -1zM227 436h-1q-1 -2 1 -4v4zM162 333l1 2v-2h-1zM664 466q0 -1 -1 -1z" glyph-name="ll" horiz-adv-x="614" unicode="ll"/><glyph d="M778 206q-5 -7 -10.5 -9.5t-6.5 -11.5q-2 -4 1.5 -1.5t5.5 1.5q-2 -8 -6 -10.5t-4 -9.5q-12 -11 -29.5 -25t-36.5 -27t-36 -22t-28 -9q-3 0 -3.5 -1t-3.5 -2l-3 -1.5t-4 -1.5q-39 -16 -68.5 -18t-64.5 11q2 -14 0 -30.5t-6 -34t-9.5 -34.5t-9.5 -31q-2 -2 -2.5 -5 t-2.5 -3q-3 -4 -4 -11q0 -5 -2 -5q-2 -3 -5.5 -11.5t-8 -17.5t-9.5 -15.5t-8 -5.5q-4 -17 -11 -25.5t-14 -19.5q-13 -12 -26 -29t-27 -34t-29 -33t-30 -25q-12 -8 -30.5 -10t-35 2.5t-28 15.5t-11.5 28q0 3 1 5l2 4q-3 11 -0.5 26.5t8.5 29.5q0 5 2.5 10.5t3.5 8.5 q0 3 -0.5 6t1.5 5q2 11 6.5 20.5t8.5 16.5q2 11 2 14.5t5 11.5q1 6 7.5 18t14.5 24.5t14.5 23.5t6.5 15q6 12 10 19t8 13t8 13t10 19q3 4 11 8q0 9 3 11t6.5 5t1.5 9q2 2 2 0.5t2 -2.5q2 1 0 4t1 8q6 8 12.5 18.5t10.5 21.5q-21 -17 -37 -28t-28 -11q-2 0 -3 -2.5t-3 -2.5 q-3 -1 -4.5 0.5t-3.5 -0.5q-38 -15 -67.5 -18t-65.5 10q2 -14 0 -30.5t-6 -34t-9 -34.5t-9 -31q-2 -2 -3 -5t-3 -3q-2 -2 -2 -4.5t-1 -6.5q0 -5 -3 -5q0 -8 -5.5 -16.5t-11.5 -18t-11.5 -19t-6.5 -18.5q0 -5 -2.5 -6t-4.5 -4q0 -2 1.5 -0.5t3.5 0.5q-1 -2 -4 -3t-5 -1 q-2 -15 -10 -16q-4 -16 -12.5 -24t-14.5 -22q-12 -12 -24.5 -28.5t-26 -33.5t-28 -32.5t-30.5 -25.5q-13 -8 -32.5 -9.5t-38 3t-32 15t-14.5 28.5q0 5 3 8q-2 12 -0.5 27.5t6.5 30.5q2 5 4.5 10l3.5 7q0 2 0.5 6t0.5 6q5 11 8.5 20.5t8.5 17.5q2 11 2 14t3 10q1 6 8 18 t15 24.5t14 23.5t6 15q6 12 15 27.5l18 31t17 30.5t14 27q2 4 11 8q0 9 2 11q3 2 6.5 5t2.5 9q2 2 1.5 0.5t1.5 -2.5q2 1 0 4t1 8q13 17 23.5 41.5t27.5 41.5q1 0 -2 -4q3 0 5 2.5t4 4.5q-5 1 -1.5 1t1.5 2q2 5 0.5 6t5.5 0q3 6 8.5 15.5t12 19.5t12 19.5t8.5 15.5 q10 8 17 20.5t15 23.5q4 6 10 12t8 14q14 18 37 47.5t47.5 61t47 61.5t36.5 50q6 6 16.5 17.5t19.5 21.5q12 13 27.5 28.5t32.5 30.5t34.5 28t32.5 21q9 5 23 9t23 -5q3 -8 8.5 -15t10 -14t6 -15t-2.5 -20q-5 -16 -13 -30t-13 -31q-14 -16 -26 -35t-26 -30 q-1 -4 -11.5 -18.5t-23.5 -30.5t-24.5 -29t-14.5 -13q-2 -9 -7.5 -12.5t-6.5 -11.5q-8 -8 -14 -13.5t-10 -13.5q-24 -17 -45 -35t-42 -38q-2 -3 -11.5 -9t-10.5 -10q-7 -3 -10.5 -4t-6 -2t-6 -3.5t-10.5 -8.5q-8 -5 -17 -11.5t-17 -6.5q-4 1 -8 -6.5t-6 -5.5q-2 1 -4 0 t-3 -1q-6 2 -9.5 -2.5t-7.5 -1.5l-4.5 -9t-7.5 -16t-8 -16.5t-5 -8.5q11 -11 15 -23.5t14 -19.5q5 -5 15 -7t17 -3q7 -3 8.5 -6.5t13.5 -2.5q23 3 44.5 3.5t44.5 8.5q7 4 18 9.5t23.5 12t24 13.5t20.5 13l44 27q5 3 6 10t8 8q-2 -1 0 -0.5t3 1.5q5 11 12 22.5t12 19.5 q10 8 16 20.5t15 23.5q5 6 11 12t8 14q27 36 56 75t55 77q6 6 16.5 18.5t20.5 20.5q12 13 26 28.5t29 30.5t31 28t32 21q10 5 22.5 9t23.5 -5q3 -2 8 -7t9 -13t6.5 -19t-0.5 -25q-7 -15 -14.5 -29t-13.5 -30q-14 -17 -26 -36.5t-27 -30.5q1 -7 -6 -14.5t-12 -8.5 q-3 -9 -8 -12.5t-7 -11.5q-7 -8 -13.5 -13.5t-11.5 -13.5q-24 -17 -43.5 -35t-42.5 -38q-2 -3 -11 -9t-10 -10q-14 -6 -24 -16t-24 -23q-8 -5 -16.5 -12t-17.5 -7q-4 1 -7.5 -5.5t-5.5 -4.5q-3 1 -4 0t-3 -1q-6 2 -10 -3t-8 -1q-1 -4 -4 -15.5t-7 -14.5q12 -11 16 -23.5 t16 -19.5q1 -2 8.5 -5t16.5 -6l16.5 -5.5t10.5 -2.5q23 3 44 3.5t44 8.5q7 4 18 9.5t23.5 12t24.5 13.5t21 13q2 1 8 7t13 12.5t13.5 11t9.5 4.5q5 3 12 7.5t13 5.5l-3 -7q7 0 11.5 3.5t8.5 3.5zM-153 -331q10 -2 16.5 1t11 9t9 13.5t11.5 12.5q16 19 28.5 34.5t24 32 t24 36.5t29.5 49q1 0 5.5 8t9.5 17t10 17t7 9q5 19 11 27t11 24q8 22 17 41t11 31q0 8 0.5 15t-0.5 13q1 15 0 24t-4 16t-7.5 12.5t-10.5 13.5q-5 -8 -5 -8.5t-6 -5.5q0 4 -0.5 3.5t-0.5 2.5q2 5 5.5 9.5t1.5 7.5q-5 -5 -8 -11.5t-9 -12.5q3 -2 -0.5 -5.5t-5.5 -7.5 q4 -2 4.5 1.5t4.5 3.5q0 -2 1 -2.5t2 -1.5q-5 -1 -4.5 -5.5t-1.5 -6.5q-2 -3 -4.5 -4t-5.5 -5q-6 -14 -14.5 -30.5t-16.5 -31.5t-16 -28t-12 -21q-1 0 -1 2q-2 -2 -3.5 -3t-1.5 -5q-1 0 -1 2t-2 3q0 -5 -1.5 -6t-1.5 -4q-1 -6 -8 -19t-15.5 -27.5t-15.5 -27.5t-8 -20 q-3 -3 -4.5 -7.5t-3.5 -8.5h-3q-5 -8 -7 -14t-3.5 -12t-3.5 -12t-7 -15q-1 2 -0.5 4t-1.5 2q-5 -8 -7.5 -16t-4.5 -17q2 -2 3 2t3 4q-2 -6 -3.5 -12t-4.5 -7q0 3 2 6.5t0 5.5q-4 -6 -5.5 -15.5t-6.5 -17.5q2 6 -1.5 2t-4.5 -9q-2 -8 -1 -15.5t4 -6.5q-2 -1 0 -4l-2.5 -2.5 t-1.5 -4.5q5 -7 1 -22zM231 -270q10 -3 14.5 -1t8 6.5t7 10.5t11.5 11q15 18 27.5 33.5t24.5 32t25 36.5t31 49q1 0 6 8t10 17t9.5 17t5.5 9q2 9 1 7.5t-3 -6t-3.5 -7t1.5 5.5q7 22 16.5 41t11.5 31q0 8 0.5 15t-0.5 13q0 15 -0.5 24t-3 16t-7.5 12.5t-12 13.5q-4 -6 -6 -6 t-2 2.5t1 6t2 5.5q-8 -8 -10.5 -18t-3.5 -18.5t-3 -14t-9 -5.5q-6 -14 -14.5 -30.5t-17 -31.5t-16.5 -28t-13 -21l-1 2l-3 -3t-1 -5q-2 0 -2 2t-2 3q0 -5 -1 -6t-1 -4q-2 -12 -10.5 -20.5t-10.5 -23.5q-3 -6 -10.5 -19.5t-15 -28.5l-14 -28t-6.5 -19q3 -2 3 2.5t2 4.5 q-1 -7 -2.5 -13.5t-5.5 -7.5q0 3 3 7t0 6q-5 -7 -6 -15.5t-7 -16.5q-3 2 -4 -4t-1.5 -14t-0.5 -15v-7q2 -4 6 -5t2 -8zM406 603q-5 -5 -8.5 -9t-6.5 -9q-1 -4 1.5 -2t2.5 0q-1 -2 -1.5 -4.5t-3.5 -2.5q-2 0 -1.5 2t-1.5 2q-2 -6 -9 -11t-9 -13q-2 -2 -1.5 -4t-1.5 -4 q-1 -3 -4.5 -8.5t-7.5 -9.5t-8 -6.5t-6 0.5q-9 -11 -26.5 -33.5t-37 -48t-38.5 -49t-31 -36.5q5 5 2 6q-11 -15 -19 -31.5t-22 -26.5q-3 -11 -10 -15q2 -5 -3.5 -8.5t-3.5 -7.5q34 28 75.5 70.5t83 90t80 96t66.5 89.5q2 9 5.5 14.5t4.5 15.5q-12 -5 -26.5 -17.5 t-23.5 -25.5q-1 -8 -4.5 -5t-5.5 1zM714 545q-2 -8 -4.5 -7.5t-5.5 -1.5q-5 -6 -8 -10t-8 -9q-3 -5 2 -2q-1 -2 -1.5 -4.5t-4.5 -2.5v2q0 1 -1 2q-1 -6 -7.5 -11t-10.5 -13q-30 -29 -54.5 -65.5t-53.5 -67.5q1 2 3.5 4.5t0.5 3.5q-11 -15 -18.5 -31.5t-23.5 -26.5 q-1 -7 -3.5 -10t-4.5 -5q1 -3 -3 -8t-8.5 -11t-8 -11t-2.5 -7q34 28 69 63t68.5 73.5t65.5 80t59 82.5q2 9 6.5 15t7.5 16q-13 -4 -30 -17.5t-21 -20.5zM-106 -166q3 6 3.5 8.5t0 4t-0.5 3t1 7.5q-2 -5 -3 -7t-1 -3.5t0.5 -4t-0.5 -8.5zM-34 -276q2 -1 3 0t3 2q0 2 1.5 4.5 t-0.5 1.5q-2 -3 -4 -4t-3 -4zM343 -225q3 -1 4 0.5t3 2.5q0 1 0.5 4t-1.5 2q-1 -4 -2.5 -5t-3.5 -4zM336 11q4 0 6 4.5t0 6.5zM-15 11q3 0 5 4.5t0 6.5zM472 247q1 2 3 3t2 6q-3 0 -4.5 -4t-0.5 -5zM134 268q1 2 3 3t2 6q-3 0 -4.5 -4t-0.5 -5zM234 -196q0 -4 -2 -6.5 t1 -4.5q1 2 2 7.5t-1 3.5zM-142 -246q-1 -5 -2.5 -7.5t0.5 -4.5q0 2 2 8t0 4zM504 295q1 1 4.5 2.5t2.5 5.5q-2 -2 -5 -4.5t-2 -3.5zM152 295q1 1 4 2.5t2 5.5q-1 -2 -4.5 -4.5t-1.5 -3.5zM-121 -202q0 2 0.5 3t0.5 5q-1 1 -2 -2.5t1 -5.5zM207 357l-2 -2z" glyph-name="ff" horiz-adv-x="667" unicode="ff"/><glyph glyph-name=".notdef" horiz-adv-x="196"/><glyph glyph-name="NULL" horiz-adv-x="0"/><glyph glyph-name="NULL" horiz-adv-x="0"/><glyph glyph-name="nonmarkingreturn" horiz-adv-x="390" unicode="&#x0d;"/><glyph glyph-name="space" horiz-adv-x="351" unicode=" "/><glyph d="M324 -33q6 0 9.5 4t8.5 4q-2 -5 -2.5 -9.5t-6.5 -8.5q-2 3 2 5t5 7l-13.5 -13.5t-16 -14t-17 -11t-16.5 -2.5q1 -5 2 -5t-1 -4q-2 0 -2 3q-40 -33 -85 -52t-95 -34q-2 5 -6 3.5t-9 1.5l-11 -5q-29 5 -61 16.5t-49 30.5q-4 3 -7 5.5t-5 7.5q-12 13 -12 34t-1 41 q4 10 3 21.5t0 19.5q8 20 14 41.5t12 42t13 39.5t17 34q-7 6 -15.5 11t-17 11t-15 13t-9.5 18q9 4 19.5 6t22.5 3t23.5 2t22.5 5q24 42 48 85.5t52 74.5q-2 -5 -5 -8.5t-4 -8.5q11 7 18 22t18 22q34 56 73.5 101t76.5 94q1 2 -0.5 3.5t3.5 6.5q5 6 14 11t13 21q15 9 29 21.5 t28 26t28 25.5t29 21q11 1 16.5 -1.5t9 -7.5t5.5 -13t5 -17q-2 -5 -4.5 -6t-4.5 -6q20 5 33 8.5t25.5 6.5t26.5 5.5t36 5.5q28 2 54.5 -3.5t42.5 -26.5q-2 -6 0 -9t4 -7q-8 -5 -13 -4.5t-11 3.5q-21 -3 -35.5 -4t-27 -1.5t-25.5 -3.5t-31 -11q-1 -2 -2 1t0 4 q-11 -2 -21.5 -5.5t-21.5 -6.5q-5 0 -8 -1q-23 -6 -30.5 -7t-11.5 -2t-10 -3t-26 -10q-8 -11 -26.5 -31.5t-39 -42t-38 -41.5t-24.5 -31q-19 -14 -30 -31t-26 -34q-9 -5 -13.5 -14t-7.5 -24q-12 -6 -20 -16t-15 -22t-14 -23.5t-17 -20.5q-2 -13 -10.5 -21t-13.5 -23 q33 5 67.5 12.5t70 13.5t72.5 10.5t76 3.5q-2 -4 5 -4.5t11 -4.5q-4 -4 -9.5 -9t-15.5 -4q2 -1 3.5 -1.5t-0.5 -2.5q-37 -5 -72 -12.5t-68 -15.5q-20 -12 -45.5 -17t-51.5 -12q-17 -4 -33 -11.5t-33 -8.5q-5 -2 -9 -6.5t-12 -0.5q-11 -17 -17.5 -34.5t-15.5 -29.5 q-2 0 -4 0.5t-5 0.5q0 -5 -1 -6.5t-3 -5.5q0 -2 0.5 -1.5t1 2t1.5 2t1 -2.5q-6 -25 -14 -42q-4 0 -2 4q-10 -22 -17.5 -49t-9.5 -52q-3 -18 -3 -42t7 -33q7 -8 23.5 -11.5t26.5 -3.5q30 2 61.5 14.5t62.5 29t60 34.5t53 31q5 -2 4 -6q14 2 24.5 11.5t22.5 7.5 q-2 -8 -7.5 -9.5t-6.5 -9.5q0 -3 0.5 -2t2 3t3.5 4t5 2q0 -6 -6.5 -10t-8.5 -9q10 4 17 8.5t15 8.5q-6 -11 -13.5 -15t-15.5 -11zM-66 -31l1 2q0 -1 -1 -2zM-67 -33q0 1 0.5 1t0.5 1zM28 85l-1 -1z" glyph-name="E" horiz-adv-x="444" unicode="E"/><glyph d="M709 634q-2 0 -1.5 -2t-0.5 -3q-6 0 -12.5 -3.5t-10.5 3.5q-45 -9 -87 -17.5t-83 -25.5q-37 0 -50 -21q-11 -5 -22 -3.5t-18 -8.5q0 5 -4.5 2.5t-9.5 -0.5q-16 -20 -31.5 -45.5t-29.5 -48.5q-23 -17 -38.5 -42t-35.5 -47q-7 -14 -14 -26.5t-18 -22.5q-2 -13 -12 -22.5 t-15 -23.5l-14 -7q2 -4 1 -9.5t-6 -10.5q33 7 63.5 15.5t61 14t61 7.5t63.5 -2q0 -4 1.5 -6t3.5 -3.5t2.5 -3.5t-1.5 -5q-2 -13 -15.5 -16t-24.5 -3q-17 -1 -32.5 -3t-31.5 -4q-11 -2 -16 -4t-9 -5t-10 -5.5t-19 -4.5q-29 -6 -55.5 -15t-49.5 -18q-2 -1 -2 -4.5t-2 -4.5 q-11 -1 -19 -5t-19 -5q-2 -5 -4 -11.5t-9 -8.5q2 5 5 8.5t5 8.5q-3 1 -5 -1.5t-3.5 -5t-3.5 -5t-5 -1.5q-6 -14 -11.5 -22.5t-11 -16t-11.5 -15.5t-12 -20q-1 -2 0.5 -2.5t1.5 -2.5q-5 -11 -12 -21t-14 -20.5t-12 -21t-6 -22.5q-11 -8 -16.5 -23.5t-15.5 -25.5 q3 16 11.5 27.5t13.5 27.5q-13 -20 -24 -43t-22 -49q-3 1 -4 0t-2 -1q2 -13 -4.5 -22.5t-11.5 -23.5q-1 -4 2 -1.5t2 4.5q2 -2 -1 -6.5t-7 -5.5q-2 -15 -5 -32.5t-9 -31.5q-6 -1 -4.5 3t-0.5 6q-6 -2 -5 -9q-4 0 -2.5 4t-0.5 7q-2 0 -1 -3.5t0 -5.5q-6 4 -11.5 4.5 t-3.5 11.5q-5 2 -4.5 -1t-3.5 -2q-4 14 -0.5 31.5t10.5 36.5t16 38t17 35q28 66 62 131.5t69 116.5q2 8 -3.5 10t-7.5 7q2 8 12.5 14t18.5 8q46 70 92 137.5t92 138.5q-19 -2 -37.5 -7.5t-34.5 5.5q-2 1 -2.5 5t-4.5 6q-8 6 -18.5 16t-8.5 25q8 7 16.5 7.5t18.5 4.5 q30 3 64.5 14.5t63.5 18.5q7 2 8 6t5 5q0 -2 -2 -3t-2 -6q15 22 30.5 46.5t31.5 50.5q11 20 24 42t28 26q14 -8 26.5 -18t17.5 -30q-8 -28 -21.5 -44.5t-24.5 -39.5q61 15 136.5 34t150.5 28q33 4 60.5 2.5t49.5 -18.5q0 -8 4 -13t-1 -13q-29 -8 -61 -9.5t-64 -6.5 q-2 -1 -0.5 -2t2.5 -1q-5 -3 -17 -5t-16 5zM-25 -131q3 -5 -1 -10.5t-3 -9.5q-3 8 4 20zM-3 -78q3 -2 2 -6.5t-4 -6.5q-2 7 2 13zM-47 -159q0 -1 -1 -2q1 1 1 2zM742 634q1 1 2 1zM-42 -150q-1 0 -1 -2q0 2 1 2z" glyph-name="F" horiz-adv-x="499" unicode="F"/><glyph d="M464 643q-1 0 -1 -3q4 2 4 3.5t3 6.5q16 9 34.5 25.5t38.5 31.5t42 24.5t44 5.5q14 -2 21 -10.5t20 -11.5q11 -18 17.5 -43t-7.5 -54q-2 -1 -3 -3t-3 -3q-5 0 -6 2.5t-2 5.5q-8 1 -10 1.5t-10 -3.5q-2 4 -3.5 8.5t-8.5 5.5q-1 7 2 10.5t5 9.5q-4 6 -15 6q1 6 3 9t4 8 q-27 -7 -53.5 -25t-46.5 -37q-4 -1 -4.5 1t-2.5 2q-17 -21 -36.5 -39t-39.5 -36q-2 0 0 3t0 3q-7 -3 -8.5 -8.5t-8.5 -4.5q0 -5 -3 -8t0 -4q-20 -23 -42.5 -47t-43.5 -41q-2 -2 -0.5 -3t1.5 -3q-5 -2 -7 -6.5t-5 -6.5q-10 2 -15.5 -3t-9.5 -13t-7.5 -17t-9.5 -13 q-2 1 -2.5 2.5t-2.5 0.5q-2 -2 -3.5 -5.5t-0.5 -6.5q-15 -11 -27 -24.5t-18 -33.5q-9 -4 -15.5 -10.5t-12 -14l-11 -15t-13.5 -13.5q-1 4 -0.5 5.5t0.5 3.5q-4 -2 -7 -6t-6 -9q0 -5 4.5 -1t7.5 3q-5 -6 -6 -9.5t-5 -4.5q0 3 -1 4q-9 -8 -15.5 -21t-14.5 -24q-3 1 -2 4t3 5 q-8 -2 -7.5 -7.5t-6.5 -5.5q-14 -32 -31.5 -56.5t-29.5 -57.5q-5 -2 -8 -6t-7 -9q-1 8 5 16.5t8 19.5q-13 -19 -22 -43t-20 -46q1 -4 4 -4q-2 -5 -5 -11.5t-5 -13t-2.5 -11.5t2.5 -6q-6 -8 -8.5 -17t-5.5 -18q-2 0 -2 4t1 8q-4 -8 -5 -26.5t1 -29.5v5q2 -1 1 -5.5t-3 -6.5 q6 -8 16 -10.5t21.5 -2t23.5 4t21 7.5q14 5 34 15t35 19q32 19 67 45.5t69 56t65.5 60.5t56.5 58q8 8 18.5 20.5t18.5 26t12 27.5t0 25q-15 1 -27 -4t-23 -11t-22 -9.5t-23 0.5q-15 -10 -39 -17.5t-47.5 -8t-42 8t-21.5 30.5q4 0 6 4t4 6q39 7 79.5 20.5t80.5 15.5 q11 1 21.5 5.5t22.5 6.5q31 7 64.5 11.5t55.5 9.5q5 1 13.5 3t19.5 4q25 7 54 7t55 7q8 -1 11 -1.5t5 -0.5t5.5 -0.5t11.5 -0.5q-3 -2 -6.5 -4.5t-6.5 -0.5q-3 -2 -2.5 -5t-4.5 -3q1 -2 2.5 -3t3.5 -3q-6 -2 -10 -3t-7.5 -1.5t-8 -2.5t-11.5 -7q3 4 3 5q-7 -3 -11.5 -4.5 t-9.5 -8.5q-10 8 -27 1q-16 -4 -29 -4q-21 0 -35 -15q-17 -5 -34.5 -10t-40.5 -7q0 -8 3.5 -11.5t7.5 -6.5t7 -8t0 -15q2 0 2.5 2t2.5 4q4 -8 4 -18.5t-3.5 -20t-10.5 -17t-16 -9.5q-2 -16 -11 -23.5t-14 -17.5q-5 0 -12 -4t-11 -12q1 -2 1.5 -1.5l1.5 1.5l2 2t3 0 q-2 -6 -7 -9.5t-7 -8.5q-4 0 -4 5q-5 -3 -8 -10.5t-7 -2.5q0 -9 -7 -14t-14 -9q-6 -1 -4 5q-5 -10 -11 -16t-13 -11t-12.5 -11t-8.5 -15q-20 -14 -37.5 -26t-35.5 -29q-3 6 -6.5 1.5t-0.5 -10.5q-11 -5 -19 -11t-14 -16q-10 2 -17 -4.5t-18 -9.5q0 5 4 5.5t5 5.5 q-1 2 -3.5 2t-3.5 2q-4 0 -5 -4t-3 -6q0 -2 1.5 -1.5t3.5 -0.5q-6 -6 -12 -9t-6 -9q-3 6 -9 6t-11 -6q0 -5 3.5 -1t5.5 0q1 -3 -1 -5t-5 -4t-5.5 -4.5t-2.5 -6.5q-10 -2 -17.5 -4t-10.5 -8q-14 -5 -27.5 -8t-25.5 -6q-26 -3 -46.5 2.5t-40.5 15.5q-5 9 -11 16.5t-11 15.5 t-8 18t-2 22q0 35 13 77t30 77q11 34 27 62t29 53q1 1 1 -1t2 -2q4 2 5.5 5t3.5 5q1 3 -1.5 0.5t-5.5 -0.5q17 35 37 65t42 60q3 -4 -2.5 -7t-3.5 -8q22 23 40.5 47t39.5 49q2 -1 0 -3l-4 -4q6 2 9 5.5t8 8.5q-2 10 3 16.5t10 12.5q9 1 15 7t11.5 13.5t11.5 14.5t15 11 q7 13 21 27.5t26 23.5q3 17 19 27.5t30 18.5q0 -1 1.5 -1.5t-0.5 -2.5q5 2 7 8.5t8 9.5q3 3 6 7q6 8 7 8zM132 183q3 -8 -5 -16t-11 -17q0 8 6.5 16.5t9.5 16.5zM138 177q-1 -6 -5.5 -11t-7.5 -11q0 6 5.5 12.5t7.5 9.5zM252 -71l4 4zM236 300v-1v1zM236 300q0 1 0.5 1 t0.5 1q0 -1 -1 -2z" glyph-name="G" horiz-adv-x="606" unicode="G"/><glyph d="M694 473q-21 -46 -43.5 -78t-26.5 -47q-5 -8 -11.5 -20.5t-8.5 -18.5q-3 3 0 7.5t4 8.5q-4 -5 -11 -15t-14.5 -21t-13.5 -21.5t-8 -15.5q10 0 21 1t20.5 -1t15.5 -11t6 -28q-17 -6 -35.5 -6t-38.5 -3q-8 -6 -10.5 -15t-8.5 -17q0 8 4.5 15t6.5 15q-10 -11 -12.5 -16 t-3 -8t-3 -7t-12.5 -14q2 -8 -2.5 -22.5t-9.5 -28.5q-2 0 -1.5 1.5t0.5 3.5q-3 -3 -4 -9.5t-4 -9.5q1 -2 3 2t3 9q2 -6 -2 -10.5t-6 -9.5q-4 -2 -3.5 0t-1.5 2q-14 -17 -20.5 -37.5t-19.5 -35.5q-4 -13 -9.5 -20t-9.5 -18v-1q-3 -5 -3 -10q1 1 -1 -0.5t-5 -0.5q-2 -5 0.5 -6 t2.5 -4q-6 2 -7 2q-2 -5 -5.5 -9.5t1.5 -7.5q-5 -2 -5 -6t-4 -4q-20 -42 -41 -89t-44 -89q-2 3 3 8.5t5 11.5q-5 -4 -8.5 -11t-8.5 -12q-2 -5 2 -3.5t4 -2.5q0 -3 -3 -4.5t-5 -6.5q-3 2 2 6t0 4q-21 -27 -50 -34q5 8 3 6.5t-7 0.5q0 7 3 11t2 7q-5 -2 -4.5 -10t-6.5 -8 q4 8 5.5 16.5t3.5 17.5q11 30 25.5 57t26.5 56q45 100 87 182.5t80 154.5q-15 1 -34.5 -1t-40 -5l-41 -6t-36.5 -4q-2 0 -3 -2.5t-5 -4.5q-5 -1 -9 1t-12 -4q-8 -1 -23 -2t-32 -3t-33 -6t-26 -11q-2 -2 -6.5 -8t-10 -14t-10.5 -17.5t-8 -18.5q-2 -5 -4.5 -5.5t-4.5 -4.5 q0 -8 -1 -11t-2 -5.5t-2.5 -5.5t-2.5 -9q-2 0 -5 -3.5t-6 -8.5t-6 -9t-4 -5l-5 -7t-10.5 -15.5t-9.5 -16t-3 -8.5q-1 -9 -10 -20.5t-11 -20.5q-3 0 -4 1q1 -7 -2.5 -12t-7 -9.5t-6.5 -9.5t-2 -12q-11 -6 -18.5 -26t-16.5 -35q-5 0 -1 4.5t2 6.5q-4 -2 -5 -10.5t3 -8.5 q-10 -16 -14 -33t-18 -31q4 11 9 19t7 20q-8 -10 -13.5 -23.5t-12.5 -25.5q-3 7 -5 3.5t-7 -5.5q1 2 -3 2q0 4 0.5 7.5t-0.5 6.5q-1 4 -2 0.5t-3 -1.5q0 4 0.5 6.5t3.5 8.5q-7 0 -8 -8t-6 -11q-2 -2 -1 3.5t-1 1.5q-4 7 2 15t8 18q-3 0 -4.5 -3.5t-3.5 -4.5q-1 7 5.5 16 t10.5 16q-2 1 -2.5 4t0.5 4q2 0 2 -7l2 6q0 10 4 21.5t10 22.5t12 21t10 19q0 3 3 2.5t1 -2.5q5 2 1.5 4.5t-0.5 7.5q1 0 0.5 -2t1.5 -2q7 13 8 23.5t12 17.5q2 5 0.5 5.5t0.5 3.5q10 23 18 42t16.5 37.5t18 39t23.5 45.5q-20 -2 -23 -4t-3 -3t-3 -1t-21 2 q-11 -4 -23.5 -7.5t-22 -3t-15 5.5t-2.5 18q2 5 5.5 12t4.5 15q28 10 42 12t25.5 2.5t27 3t47.5 13.5q7 20 12 29.5t12 24.5q0 -4 -2 -5.5t-2 -6.5q7 5 12.5 14t3.5 19q6 -3 7 0q0 10 6.5 17.5t10.5 15.5q-2 4 -1 11t6 14q2 -2 5 0t2 -1q6 11 10.5 24.5t12.5 24.5v-6 q17 27 32.5 56t30.5 58t31.5 56.5t34.5 51.5q-2 -1 -2 1t1 5t3 4.5t4 0.5q2 11 5.5 17.5t5.5 14.5q7 -4 11.5 6t11.5 16q1 0 0.5 -2t0.5 -4q9 14 17 31t21 27q0 -6 5.5 0.5t8.5 9.5q19 -3 30.5 -7.5t19.5 -15.5q-3 -3 -3 -7q-21 -31 -40 -68t-38 -70q-23 -38 -42.5 -77 t-43.5 -70q-3 -8 -6 -15.5t-11 -8.5q-2 -19 -15.5 -40.5t-24.5 -42.5q-4 4 -7 -3q-1 -4 -0.5 -4t1 0.5t1.5 0.5t1 -3q-14 -11 -27 -35.5t-30 -53.5q36 6 71.5 14t71.5 14.5t73 11t76 4.5q29 51 54 96t48.5 89t47.5 89.5t51 97.5q3 0 8.5 7t11.5 16t10.5 16.5t4.5 6.5 q11 9 17.5 20.5t13.5 21t15.5 15.5t23.5 5q-2 -8 5.5 -10t13.5 0q0 -7 2 -9t10 0q-4 -10 0.5 -12t6.5 -7q-25 -32 -50 -68t-44 -76zM623 342q0 4 1 6q4 8 6 11q0 -6 -3 -9.5t-4 -7.5zM-20 -103l2 4zM461 52q1 1 1 3q0 -2 -1 -3zM624 340q-1 0 -1 2q0 -1 1 -2zM424 -26v-1v1z M422 -33q2 1 2 3q0 -2 -2 -3z" glyph-name="H" horiz-adv-x="661" unicode="H"/><glyph d="M147 415q2 0 0 -4t-4 -9q3 2 5 5.5t7 2.5q11 29 28.5 56t31.5 62q4 2 6 5t6 4q7 26 23 44.5t29 38.5q17 30 33 59.5t39 46.5q-3 -3 2 -2t13.5 3t18 3t16.5 -2.5t9 -12t-6 -25.5q-3 1 -5.5 -6.5t-2.5 -5.5q-22 -25 -40.5 -57t-36 -65t-36 -64t-40.5 -54q-2 -9 -7 -16 t-10 -13q1 -5 -1.5 -11.5t-6 -13t-8 -11.5t-7.5 -5q-5 -9 -13 -24t-16 -32.5t-15.5 -34t-11.5 -28.5q-5 -1 -4 1t3 4q-6 -2 -8 -7t-3 -10q2 -2 1.5 3.5t4.5 2.5q-2 -8 -4.5 -10t-4.5 -7q-2 0 0 3q-6 -8 -11.5 -15t-9.5 -15q-3 0 -1 5.5t0 4.5q-20 -35 -37 -72.5t-34 -74.5 q-3 3 -6.5 -4.5t-8 -19.5t-9.5 -25t-9 -20q-9 0 -13 -11q-5 2 -3 7t3 7q-6 -6 -5.5 -14t-2.5 -16q5 -1 7 6t4 12q-1 -15 -8.5 -30.5t-11.5 -31.5q11 7 7 -1t-12 -19t-14.5 -20.5t0.5 -4.5q-3 -5 -3 -7t-3 -6q-1 3 -3 3t-4.5 -0.5t-3.5 0.5t-1 7q-5 -6 -8.5 -5t-5.5 -7 q-2 -1 -2 1v3q2 -1 0 1.5t-4.5 8.5t-2.5 14.5t6 19.5q2 5 -0.5 6t-2.5 4q25 54 51.5 115t53.5 123.5t55 122t56 109.5q0 3 0.5 2t2 -2t3 -0.5t2.5 5.5q0 5 -1.5 2.5t-3.5 -0.5q1 12 9 18zM67 107q-2 -5 -4.5 -12.5t-5.5 -14.5t-7 -13t-8 -9q6 13 11.5 25t13.5 24zM78 126 q2 18 12 35.5t18 35.5q-1 -13 -12.5 -31t-17.5 -40zM171 459q1 -9 -6.5 -21t-16.5 -17q8 10 13.5 20t9.5 18zM193 504q0 -5 -4 -13.5t-7 -10.5q7 8 11 24zM132 229l3 6zM354 728q-2 -2 -3 -2q0 1 1 1zM-39 -66l2 5zM-77 -134h-1h1zM-38 -74l-4 -5z" glyph-name="I" horiz-adv-x="195" unicode="I"/><glyph d="M68 -196q-3 -5 0 -10q-2 -1 -4 3q-18 -22 -37 -40.5t-36 -40.5q-14 -8 -31 -19.5t-28 -28.5q-42 -25 -88 -25.5t-79 22.5q0 5 -3.5 9t-8.5 2q3 5 1.5 9.5t-4 9t-4.5 10.5t0 14q-6 -3 -3.5 -9t1.5 -11q-8 17 -5.5 32.5t9.5 30t16 28.5t15 29q-1 1 -2 0t-2 -3t-2.5 -4 t-3.5 -1q6 11 15.5 19t14.5 22q24 20 44 45.5t46 43.5l8 2q14 11 25.5 28.5t31.5 22.5q24 24 49.5 42t53.5 38q0 4 -4 4q45 29 88 56.5t92 51.5q7 11 16 26.5t18.5 31t18.5 30t17 23.5q0 2 -2 0.5t-3 -3.5q0 15 10 28t14 29q2 0 2 -1.5t2 -1.5q14 32 28.5 63.5t28.5 64.5 q2 -1 1.5 -2t1.5 -1q5 9 14 27.5t19 39.5t18.5 40t13.5 29q6 0 2 -8q11 11 16 26t15 31q5 9 14 18.5t6 20.5q6 4 9.5 11.5t6.5 16t7 16t11 10.5q3 -3 8.5 -4.5l11 -3t10.5 -4t7 -6.5q-7 -25 -21.5 -58.5t-31.5 -68.5t-33 -68t-26 -56q-26 -60 -59.5 -125.5t-63.5 -115.5 q23 9 54 21.5t68.5 22.5t79.5 15t86 0q3 -8 15.5 -11.5t17.5 -11.5q-3 0 -2.5 -0.5t2 -1.5t3 -3t0.5 -5q-13 4 -20.5 7t-14 4.5t-13.5 0t-20 -5.5q-3 8 -7 3.5t-11 -6.5q-5 -2 -10 -2t-11 -2q-5 -2 -7 -4t-5 -2h-5.5t-7.5 -2q-14 -5 -27 -6t-23 -12q-3 0 -3 1.5t-2 2.5 q-4 -1 -2.5 -2.5t1.5 -3.5q-11 1 -16.5 0t-10.5 -9q-3 4 -12 0t-13 -10q-6 1 -14 -2t-10 -9q-2 6 -10.5 1t-13.5 -5q2 -4 2 -5t4 1q-2 -4 -6.5 -7t-8.5 -4t-4.5 0.5t6.5 7.5q-11 -5 -25.5 -10t-22.5 -14q6 1 8 2t7 3q-8 -8 -18 -11t-17 -9q-12 -18 -21.5 -33t-18 -30 t-17.5 -31t-19 -36q-4 1 -5 -4t-5 -4q-2 -15 -9.5 -23t-11.5 -21q-6 3 -7 -3q-21 -42 -53.5 -86.5t-65.5 -82.5zM128 -3q5 9 9.5 17.5t12.5 16.5q3 -1 2.5 -2t4.5 1q1 6 1 8.5v3.5t2 2.5t7 6.5q-3 0 0.5 5t9 12.5t11.5 16t8 14.5q1 0 2.5 1.5l3.5 3.5q-5 -1 -14.5 -7 t-21 -14t-23.5 -16.5t-22 -15.5q-15 -12 -32.5 -25.5t-35.5 -28t-35 -28t-31 -25.5q-24 -21 -51 -44.5t-53 -50t-49.5 -56t-39.5 -62.5q-10 -14 -7 -25t8 -22q3 -10 13 -13t22 -1t24 7t21 10q2 2 0.5 3.5t0.5 3.5q72 46 127 114t105 145q-2 3 -3.5 1t-1.5 3q5 8 9 16.5 t15 8.5q5 9 11.5 20t8.5 18q-5 -5 -9.5 -14.5t-9.5 -8.5zM197 101q0 -1 -0.5 -1t-0.5 -1z" glyph-name="J" horiz-adv-x="512" unicode="J"/><glyph d="M-23 -22q1 -5 -4.5 -11.5t-7.5 -12.5q18 26 32.5 55.5t34.5 54.5q-6 8 -16 14t-18.5 13.5t-14 17t-2.5 24.5q5 18 22.5 37t29.5 30q22 19 44 35t39 30q7 -2 10 0.5t9 2.5q1 3 0.5 3.5t-1.5 0l-2 -1t-1 1.5q3 1 6.5 4.5l6.5 6.5t5.5 3.5t2.5 -3.5q4 3 7.5 9t5.5 11 q-1 1 -3 1q8 14 15.5 30t18.5 21q-7 8 6 17q1 -2 -3.5 -5.5t-2.5 -8.5q16 28 31.5 47.5t29.5 48.5q0 2 -1 2t-1 -2q-2 5 2.5 12.5t9.5 8.5q0 4 1 7t3 8q5 2 6.5 7t7.5 5q16 35 33 64.5t37 61.5h3q2 10 6.5 16t4.5 17q7 0 8.5 6t6.5 11q-3 -15 -13.5 -31.5t-18.5 -32.5 q33 45 59 96.5t60 96.5q5 -3 11.5 0.5t16.5 6.5q11 0 15.5 -6.5t4 -15.5t-6.5 -17.5t-17 -11.5q-51 -100 -104 -195t-107 -190q2 -2 8.5 0t6.5 10q4 -1 5 1t5 1q-1 8 3 10t7 8q23 7 41.5 20t40.5 21q-1 -2 0 -3.5t-1 -3.5q2 0 4.5 2t5.5 2t2.5 4t1.5 7q26 13 61.5 33 t68.5 33q8 2 17.5 4.5t14.5 0.5q4 0 4.5 -1.5t3.5 -3.5q7 -1 13 0.5t12 -0.5q11 -1 17 -8.5t14 -12.5q-2 -5 -3 -6.5t-3 -6.5h-11q-19 -3 -35 -9.5t-31 -14t-30.5 -15t-32.5 -11.5q-50 -27 -97.5 -56t-95.5 -58q-1 -5 2 -5t2 -4q-22 -14 -43 -29.5t-44 -26.5 q-8 -8 -14 -19.5t-12 -23.5t-12 -23.5t-13 -18.5q-3 -2 -6.5 -1t-4.5 -5q1 -4 2.5 -2.5l3.5 3.5q-8 -17 -19 -36t-20 -38q21 -2 42 -2.5t40 0.5q8 1 17 -3t20 -4q3 0 4.5 2t3.5 2q8 -1 14.5 -4.5t12.5 -4.5q6 0 12 1t11 1q6 -1 10.5 -3.5t9.5 -3.5q12 -2 26 -3t29 -3 q16 -2 34 -11t35 -12l3.5 -10.5t9.5 -6.5q-90 5 -176.5 13t-185.5 10q-13 -25 -26 -48t-27 -48q-7 0 -15.5 -13t-5.5 -22q-2 -10 -8 -15t-13 -10q1 -7 0 -7.5t-3 -8.5q0 -3 1 0t3 1q-8 -11 -12.5 -23t-14.5 -27q-2 0 -0.5 3t0.5 5q-11 -14 -12.5 -30.5t-9.5 -32.5 q-4 1 -5.5 -2t-3.5 0q-2 -13 -2 -22t-1 -20q-9 -4 -20.5 -2t-19.5 12q-6 -4 -11.5 2.5t-11.5 8.5q2 7 3 12.5t4 10.5q-2 3 -3 -1t-2 1q3 24 15 37.5t20 31.5q-2 10 4 19t9 17q2 -3 -2.5 -8.5t-5.5 -10.5q8 10 17 26t7 27q7 16 16 30.5t18 30.5zM41 148q-8 -6 -8.5 -9t3 -5.5 t9 -7t10.5 -13.5q3 7 9.5 18.5t14 24.5t14 24t9.5 17q-3 -1 -13 -7t-20.5 -14t-19 -16t-8.5 -12zM425 752q-2 -8 -8 -17t-8 -17q-2 3 -1 7.5t4 9t7 9t6 8.5zM399 708q2 -8 -3.5 -14t-7.5 -12q0 5 3.5 13t7.5 13zM458 811q1 -5 -3 -11t-9 -8q1 6 5.5 11t6.5 8zM-6 13 q2 -2 -0.5 -6t-4.5 -6q-2 2 2 5.5t3 6.5zM12 39q-5 -5 -7 -13q-2 1 0.5 7t6.5 6zM162 303q-2 -6 -3 -5zM162 170l1 2z" glyph-name="K" horiz-adv-x="508" unicode="K"/><glyph d="M476 -87q-9 0 -19 -8t-20 -10q-4 0 -6 2t-5 2q-6 0 -11.5 -2t-11.5 -3.5t-12 -2t-11 4.5q-5 -2 -10.5 -2t-10.5 -2q-8 -7 -17.5 -9.5t-20 -4t-21 -3.5t-20.5 -8q-8 -1 -13 -1t-12 -2q-2 -1 -4 -4t-3 -5q-4 1 -5.5 0.5t-5.5 1.5q-9 -8 -26.5 -8.5t-33.5 -7.5q-8 -4 -21 -7 t-24 -7q-8 -4 -14 -7.5t-14 -5.5q-8 -1 -19.5 -1.5t-13.5 -6.5q-16 -5 -31 -4.5t-29 4t-27.5 9t-25.5 10.5q-14 6 -23 13t-13 21q0 5 4 13q-10 3 -6 10.5t4 17.5q5 3 9 6t5 13q-1 0 -7 -4q0 9 5.5 19.5t7.5 21.5q4 -4 0.5 -10.5t-1.5 -9.5q8 17 17 34t16 34q0 5 -2.5 5 t-2.5 3q8 0 11.5 7.5t6.5 16.5q-1 3 -2.5 1.5t-2.5 -3.5q-1 8 4 14t7 12q1 -1 1 -2q4 2 6 5t3 5q14 31 29.5 56.5t31.5 52.5q2 2 3 1.5t5 1.5q0 2 -2.5 1.5t-0.5 4.5q14 32 31 60t33 55q1 2 0 3.5t-1 3.5q6 8 12.5 14t11.5 12.5t8.5 14t3.5 18.5h6q4 7 6 13t7 9 q4 14 11.5 23t15.5 20q6 19 17 32t19 23q5 13 11 26t18 21q2 8 6 12t6 13q5 5 10 13l10 16q5 0 5.5 4t5.5 4q3 2 6 8.5t8 12.5q2 0 -0.5 2t-0.5 2q4 5 11 5.5t1 5.5q2 13 6.5 18t8.5 7q5 -1 6 0t1 3v5.5t3 7.5t7 9t10 12q8 9 13.5 18t16.5 14q4 1 11 1.5t14.5 -1t13.5 -4.5 t6 -7q1 -4 -1.5 -10.5t-6.5 -14t-8.5 -14.5t-7.5 -11q-15 -30 -37 -63.5t-56 -75.5q-22 -29 -36.5 -58t-31.5 -55q-5 -8 -14.5 -20t-13.5 -22q0 -1 1 -2q0 -1 1 -1v-1q-4 -1 -4 -5q-29 -48 -55.5 -95.5t-53.5 -92.5q-3 -3 -4 -1.5t-4 -0.5q-3 -5 0 -4t1 -4q-2 -2 -2 -4t-5 0 q0 -5 1.5 -6t0.5 -5q-28 -45 -52.5 -93t-50.5 -96q-1 6 4.5 14t5.5 16q-12 -25 -25.5 -48.5t-19.5 -52.5q6 8 8 18.5t8 18.5q-4 -17 -10.5 -35.5t-8.5 -40.5q36 0 70 8.5t69 19.5q51 14 102 27t105 22q12 2 27.5 3t31.5 2q17 2 28 -1t29 -1q2 -8 10 -11.5t15 -5.5zM-12 43 q2 -2 6 2.5t2 12.5q1 -4 -3 -7.5t-5 -7.5zM13 98q-1 -7 -5.5 -13.5t-6.5 -11.5q-1 5 4.5 11.5t7.5 13.5z" glyph-name="L" horiz-adv-x="394" unicode="L"/><glyph d="M621 308q1 2 3 4.5t4 8.5q-7 -4 -11 -12t-11 -5q0 -3 -2 -6.5t-2 -6.5q5 1 8.5 6.5t6.5 8.5q-2 -10 -7.5 -17.5t-12 -15t-11.5 -15t-6 -17.5q-6 -2 -10 -2.5t-6.5 -1.5t-5 -3.5t-5.5 -9.5q1 -1 3 1q-1 -8 -7.5 -13.5t-3.5 -15.5q-10 -9 -19 -19t-20 -18 q-18 -36 -43.5 -60.5t-48.5 -52.5q-23 -21 -47 -40t-52 -36q-20 -3 -41 -4t-35 10q-15 8 -15.5 31t4.5 49q0 8 3.5 17.5t7.5 18.5q25 78 61 167t74 170q-9 -9 -22 -23.5t-21 -31.5q-18 -12 -31 -32.5t-25 -41.5q-23 -26 -45 -53.5t-41 -59.5q-5 -5 -12 -7q-1 -7 -2.5 -8 t0.5 -9q-18 -15 -30.5 -35.5t-31.5 -34.5q3 -6 -1 -9.5t-4 -5.5q-1 -2 -0.5 -4.5t-0.5 -5.5q-3 -5 -10.5 -11t-8.5 -16q-5 1 -6.5 -2.5t-4.5 -3.5q-5 -12 -14.5 -22.5t-10.5 -21.5q-7 -14 -16 -22.5t-13 -25.5q-9 -10 -17.5 -23t-16 -26.5t-16 -27t-17.5 -23.5q-8 1 -12 -1 t-14 -2q-6 6 -13.5 8t-15 4.5t-13 7t-6.5 14.5q15 16 28.5 36.5t27.5 39.5q1 16 13 28.5t23 29.5q6 5 7.5 11t6.5 11q3 8 9.5 14.5t13.5 14.5q45 65 90 134t94 130q4 -2 5.5 0t4.5 4q0 3 1 6t1 6h5q3 9 10 20.5t15.5 22.5t17 21t13.5 16q18 19 33.5 37.5t31 36t31.5 33 t35 27.5q13 7 26.5 7t25.5 -2q3 -6 10 -11t13.5 -10.5t10 -13.5t0.5 -21q0 -3 -4.5 -8t-5.5 -13q-2 -1 -2 0t-1 1q0 -5 -2 -9t-3 -10q2 -4 0.5 -14t-6.5 -21q-1 0 -1 5q-11 -11 -17 -27t-14 -32q-9 -2 -14 -11.5t-9 -19.5q3 0 4.5 2t2 4l1 4t3.5 2q-2 -8 -5.5 -13t-6.5 -10 h-2q-8 -15 -11.5 -33.5t-11.5 -33.5q-8 0 -13.5 -6.5t-5.5 -16.5q4 -1 4 3.5t2 6.5q-6 -29 -18 -56.5t-22 -57.5q-2 0 -3 1t-3 1q-4 -4 -6 -13t-6 -14q3 -1 3.5 0.5t1 3.5t1.5 3.5t3 0.5q-6 -12 -7 -22t-6 -21q-2 1 -1.5 3t-0.5 4q-5 0 -4.5 -6t-0.5 -11q-1 -2 1.5 0.5 t2.5 -1.5q-2 -16 -6.5 -26.5t-6.5 -24.5q7 3 16.5 9.5t18.5 14.5q56 49 107.5 111t101.5 128t99.5 132t101.5 124q47 61 94 120.5t106 103.5q17 -4 28 -11.5t21 -24.5q-3 -6 -5 -15.5t-5 -18t-7.5 -15.5t-12.5 -9q4 -6 4 -14.5t-3 -18t-8 -19t-9 -17.5q-6 -1 -3 2t0 3 q-4 -17 -11 -35.5t-19 -30.5q-2 0 -2 3t-2 3q0 -3 -0.5 -4l-1.5 -3q2 -2 4 -2t5 -2q-5 -5 -9 -13.5t-12 -16.5q-3 -1 -3 0t-4 1q-2 -5 -3.5 -10.5t-2.5 -13.5q2 2 2 -1q5 -2 4.5 1.5t3.5 2.5q-2 -9 -7 -17t-9 -19q-5 3 -8 -5t-1 -14q-3 0 -3 3t-4 2q-8 -5 -11 -16t-10 -17 q-1 -5 5 -4t8 4q-4 5 -0.5 12t6.5 14q-3 -32 -21 -63t-32 -62q-12 -26 -21.5 -49t-18.5 -42q-4 -2 -8 -2.5t-6 -5.5q-4 1 0 3.5t2 4.5q-8 -5 -11.5 -18t-3.5 -26q-4 4 -4 12q-5 -10 -9 -19.5t-10 -18.5q5 0 5 -6t-3 -14q2 0 2 2.5t1 4.5q6 -4 0.5 -8t-9.5 -6q1 -9 -2 -17.5 t-8 -16t-10.5 -14.5t-8.5 -15q-1 3 1.5 8l5.5 11t6 12.5t4 12.5q-3 -4 -7.5 -10.5t-8 -14t-4.5 -14.5t2 -11q-6 0 -7 -7q-3 0 -0.5 5.5t-0.5 5.5q-3 -9 -7.5 -17.5t-8.5 -16.5t-7 -16t-2 -16q-4 -6 -8 -8.5t-4 -9.5q2 -5 4.5 -4t1.5 -4q-5 -3 -5 -4q-2 0 -0.5 2t1.5 4 q-8 -3 -9 -9.5t-3 -9.5l-1 -1q1 2 3.5 3t4.5 -1l-5 -12.5t-6 -14t-6 -10t-7 0.5q-2 -11 -2.5 -24t-8.5 -18q0 4 -0.5 4t-1.5 -0.5t-1.5 -1t0.5 4.5q-12 -10 -16.5 -30t-13.5 -39q2 -5 3.5 0t3.5 7q4 0 3 -5.5t1 1.5q3 0 2 -4t-2 -6q-2 5 -3.5 2.5t-2.5 2.5q-4 -2 -3.5 -4 t-1.5 -4q-2 5 -7 -5t-4 -17q-8 -2 -8.5 -12t-8.5 -12q14 33 26 65t23 66q-8 -11 -12 -24.5t-9 -29.5q-3 -4 -3 -2t-5 2q0 -13 -2.5 -21t-11.5 -10q-2 -9 -2.5 -16t-3.5 -13q-1 4 0 7l3 9q-11 -14 -12.5 -30.5t-12.5 -24.5q1 8 5 16t7 15.5t3.5 13.5t-3.5 10 q-5 -5 -10.5 -8.5t-7.5 -11.5q1 -5 5 -1.5t5 -0.5q-3 -3 -5 -6t-6 -5q1 6 -6 2q5 11 6.5 23.5t11.5 20.5q2 26 17 53.5t24 53.5q2 -1 0.5 -2t0.5 -2q2 2 4.5 5t4.5 7q-4 0 -4 -4q-2 11 6 28t16 25q1 2 -1 1t-3 -2q2 9 8.5 21t11.5 20q34 84 71.5 164t75.5 159.5t76 159.5 t74 163q-5 0 -8 -4t-5.5 -8.5t-5.5 -8t-8 -3.5q2 -6 -1 -8t-5 -7q-2 0 -3 0.5t-3 0.5q-2 -2 -2.5 -7t-3.5 -8q-3 3 -5 2t-4.5 -4.5t-4.5 -8t-4 -6.5q3 3 1 -3q-5 -2 -12.5 -7t-7.5 -14q-16 -20 -33 -38t-33 -38q-10 4 -12 -12l1 1q-10 -18 -22.5 -34.5t-26 -32.5t-26 -32.5 t-22.5 -35.5q-5 -3 -8 -7.5t-8 -5.5zM658 53q-2 -8 -5 -12t-7 -12q-2 0 -1.5 1.5t-0.5 1.5q-1 -1 -3 -1q-2 -3 -1.5 -5t-1.5 -5q8 1 4 -5q3 0 4 1t3 1q1 7 2.5 14.5t7.5 6.5q-2 4 0.5 5.5t3.5 6.5q-3 0 -5 2zM662 57q5 5 2.5 1.5t-0.5 -4.5q3 9 6.5 17.5t4.5 16.5 q0 -1 -1 -1q0 5 -2 6q2 -5 -1.5 -5t-4.5 -5q3 -1 4.5 0.5t1.5 -0.5q-5 -5 -8 -11.5t-2 -14.5zM653 382q4 0 6 3t4.5 6.5t4.5 5t6 -1.5q-2 6 -1 8.5t5 7.5q-8 -5 -14 -12t-11 -17zM688 111q3 8 9 19t7 19q-5 -8 -13 -20.5t-3 -17.5zM762 258q-1 -4 -4 -9t2 -7q0 4 1.5 5 t4 1.5t4 1.5t1.5 5q-4 2 -9 3zM821 393q2 4 5.5 9t4.5 14q-8 -2 -9 -10.5t-1 -12.5zM632 5q-2 -6 3 -8.5t7 4.5q-5 -2 -5 -0.5t1 4l2 5t0 2.5zM786 308q0 -4 -3.5 -9.5t-1.5 -7.5q2 5 6 7.5t6 7.5q-2 1 -3 2t-4 0zM799 354q-2 -5 -6 -12.5t-2 -10.5q2 5 7.5 12t0.5 11z M752 258l-3.5 -7t-0.5 -7h5q3 2 2 7t-3 7zM579 261q5 2 10.5 7t3.5 10q-4 -6 -8 -8.5t-6 -8.5zM831 417q5 1 6.5 6.5t1.5 9.5q-4 -4 -5.5 -7t-2.5 -9zM736 216q3 5 6.5 9t-1.5 8q-1 -4 -4 -9t-1 -8zM895 562q6 -2 7 3t3 9q-5 1 -5 -3.5t-5 -8.5zM771 286q1 2 3.5 7.5 t0.5 7.5q-2 -5 -6 -9t2 -6zM905 551q3 1 7.5 6.5t1.5 7.5q-3 -5 -5.5 -7t-3.5 -7zM644 362q-6 -8 -1.5 -8.5t6.5 7.5q-3 -1 -3 0.5t-2 0.5zM333 390q4 5 9.5 9t4.5 8q-2 -4 -8.5 -8t-5.5 -9zM629 322q4 0 4.5 4t2.5 7q-7 0 -7 -11zM598 306q2 3 7 8.5t3 7.5q-3 -2 -7.5 -8 t-2.5 -8zM594 -84q0 -2 -2.5 -6t1.5 -4q1 5 5.5 10.5t1.5 9.5q0 -3 -0.5 -7t-5.5 -3zM857 469q0 2 2 3t1 6q-3 1 -4 -4t1 -5zM841 437q2 -1 4 5t2 7q-2 -4 -3.5 -5.5t-2.5 -6.5zM408 340q-2 -2 -4 -6q4 4 4 6z" glyph-name="M" horiz-adv-x="843" unicode="M"/><glyph d="M929 839q2 0 3.5 -1.5t2.5 -3t2 -2t2 3.5q3 -5 -1 -9t-7 -9q2 -3 3.5 -2t2.5 3l2 4t3 2q-14 -24 -28 -45.5t-27 -44.5q4 -5 5.5 -3.5t6.5 -3.5q-14 -18 -26 -36t-19 -37q-4 0 -1.5 3.5t-1.5 3.5q-5 -10 -8.5 -21.5t-11.5 -21.5q2 -5 6 3q-3 -12 -10 -22.5t-7 -21.5 q-2 -2 -4 -2q-1 0 -1.5 -0.5t-1.5 -0.5l1 1h-1q0 -1 -1 -1h-4t-4 -1q-14 -31 -31 -60t-34 -57q0 2 -1.5 1t-3 -3.5t-3.5 -5t-4 -3.5q2 -1 3 -2t-3 -8q-2 2 -2.5 5t2.5 9q-4 -2 -9 -9t-7 -15q-2 -4 0.5 -1t4.5 4q3 -4 1 -11q-2 -4 -6.5 -7t-7.5 -9q2 -4 4.5 0t6.5 2 q-12 -14 -19 -26.5t-13 -24.5t-12 -24.5t-14 -25.5q0 -2 -1.5 -5t0.5 -3q-5 1 -7.5 -2.5t-5 -8.5t-5 -10.5t-5.5 -6.5q-8 -18 -12.5 -26t-6.5 -24q-4 -2 -10.5 -5t-5.5 -11q-7 5 -9.5 -1t-5.5 -13v1v-2q0 -1 -1 -2q0 -2 1 -2q-1 -9 -2.5 -21.5t-4.5 -19.5q-5 -1 -7 -2t-6 -1 q-1 -2 -1 -7q-1 -1 0 -2v-1q-7 -6 -10 -14t-4.5 -17t-4 -18.5t-9.5 -17.5q-2 -1 -1.5 0t-0.5 3q-5 -2 -4.5 -4.5l1.5 -7.5q-8 4 -12 -1.5t-10 -5.5q-7 -25 -23 -44.5t-24 -43.5q-11 -9 -20.5 -24t-19 -31.5t-19.5 -31t-22 -20.5q-2 0 -1.5 1.5t-1.5 1.5q-14 -9 -27.5 -7.5 t-25 9t-20 19t-11.5 23.5q-6 18 -6 55t3 81t8 89t11 79q5 35 8 64t11 65q4 28 11.5 59t10.5 57q1 10 1 20t-2 16q-6 -2 -8.5 2t-3 10t-2 11.5t-5.5 5.5q-5 -9 -17.5 -22t-25 -27.5t-22.5 -29t-10 -26.5q-9 -13 -19 -25.5t-20 -20.5q-4 -6 -1.5 -7.5t0.5 -3.5 q-7 -9 -12.5 -20t-12.5 -20q-13 -2 -21 -18t-16 -30q5 0 7.5 8t7.5 8q-22 -45 -48 -88t-48 -91q-10 -1 -14 -6.5t-6 -10.5q0 -12 -4.5 -23.5t-11 -23t-14 -23t-11.5 -21.5q-1 1 -0.5 3t-0.5 6q-5 -4 -3 -8.5t1 -9.5q-12 -25 -22.5 -44.5t-21 -38t-21 -37.5t-21.5 -43 q-2 -5 -12.5 -8.5t-21.5 -3t-19 6.5t-4 20q10 41 32 92.5t50 107.5t59 114t61 112q14 25 29.5 47.5t30.5 45.5q41 66 83 127t92 111q11 -3 24 1.5t24 0.5q5 4 3.5 4t-1.5 4q26 -3 42 -15.5t28 -29.5q6 -43 -5 -89q-2 2 -2 6q-8 -13 -8.5 -27t-5.5 -29q0 -6 -3.5 -7.5 t-5.5 -4.5q0 -10 -4 -19.5t-7 -18t-3.5 -14.5t5.5 -10q0 -2 -1.5 -5.5t-1.5 -7.5q-4 -1 -3.5 0t-3.5 0q-2 -5 -2.5 -11t7.5 -5q-2 -12 -2 -24t-5 -25q-3 -2 -4 -1t-3 -1q-3 -12 -5.5 -25.5t6.5 -15.5q-1 -5 -2.5 -10.5t-1.5 -10.5q-2 0 -3 1t-3 1q-2 -9 -2.5 -18t-1 -17 t-2 -16t-5.5 -17q-1 -5 4 -3.5t3 -1.5q-7 -14 -11.5 -32.5t-0.5 -29.5q-2 -8 -2.5 -11.5t-2.5 -12.5q0 -3 2 -1t4 -1q1 -3 0 -7t-2 -7.5t-1 -6t3 -1.5q-9 -14 -6 -30.5t1 -30.5q5 2 3.5 6.5t0.5 8.5q5 -2 3 -9t-4 -12q2 0 3 -6.5t2 -14t2.5 -14.5t4.5 -9q5 1 11.5 7 t12.5 13.5t11.5 15.5t9.5 13q15 19 33 52.5t46 72.5q20 28 44.5 68t51.5 87t55 98.5t56 103.5q14 28 20 39.5t10.5 19t10.5 18t20 36.5q10 17 20 33.5t21 32.5q2 5 3.5 6.5t2.5 7.5q2 0 2 3t3 3q21 44 46 80.5t48 78.5q3 0 5 4t7 3q-1 7 1 9.5t3 6.5q5 2 8.5 1.5t8.5 7.5 q-2 1 -4.5 -2.5t-3.5 2.5q9 14 10.5 15t0.5 -2t-0.5 -6t7.5 3zM876 717q1 -5 -1.5 -7t-4.5 -7h6q5 9 0 14zM194 331q4 -2 7 3t-1 7q-1 -2 -3.5 -4.5t-2.5 -5.5zM863 685q5 -1 8 5q-2 2 -5 1t-3 -6zM843 656q1 4 5 7.5t2 7.5q-2 -4 -6.5 -8t-0.5 -7zM807 563l4 8 q-1 -2 -0.5 -3t0.5 -3zM807 563q-4 -6 -5.5 -8t3.5 8h2zM582 187q2 -5 0 -5v4v1zM811 571q0 3 1 4h1zM839 628q0 -2 -2 -6zM563 130l-1 -1q0 1 1 1z" glyph-name="N" horiz-adv-x="717" unicode="N"/><glyph d="M4 239q2 -2 4 0.5t5 1.5q0 5 -3 8q-1 -4 -5 -4l12 22q2 3 3.5 8.5t1.5 9.5q14 13 25.5 34.5t26.5 38.5q0 -2 0.5 -3.5t-1.5 -3.5q8 5 11 11t7 12q2 2 0 1.5t-3 -0.5q2 8 6.5 14.5t12.5 9.5q-4 -7 -8.5 -9t-2.5 -11q6 4 12 14.5t13 10.5q5 17 18 21q-3 -8 -3.5 -11t1.5 -8 q7 2 6.5 11t-4.5 11q10 4 17 14.5t14 22t14 21t16 11.5q8 14 20.5 21.5t21.5 15.5q0 2 -1 0.5t-3 -0.5q16 25 34.5 43.5t36.5 37.5q2 3 0.5 2.5t1.5 4.5q6 3 12.5 9t12.5 11.5t12.5 8.5t12.5 1q7 5 5.5 9t0.5 7q5 4 4.5 -0.5t1.5 -4.5q7 10 17 17t23 16q7 5 14.5 11.5 t13.5 8.5q2 0 1.5 -1.5t1.5 -1.5q11 -1 23.5 8t26.5 11q18 2 37 0q13 -3 25.5 -7.5t22.5 -12.5t16 -19.5t5 -26.5l-6 -7q-8 2 -14 9t-12 13t-14 9t-19 -3q-13 -5 -27.5 -12.5t-24.5 -15.5q11 -3 22 -4t21.5 -2t20 -3t17.5 -8q10 2 18.5 -1.5t16 -9.5l15 -12t14.5 -9 q2 -4 3.5 -9.5t6.5 -1.5q2 -4 1 -5t-1 -7q15 -21 16 -48t0 -59q-2 -16 -5.5 -29t-8 -25.5t-9 -25.5t-7.5 -28q-1 -5 -4 -4.5t-3 -4.5q3 -6 0.5 -12.5t-5.5 -13t-5 -13.5t0 -13q-4 -8 -12 -13t-17 -7q1 -8 -1 -13t-5 -10t-5 -10.5t-1 -14.5q-12 -10 -23.5 -23t-23.5 -24 q-4 -19 -17 -37t-28 -18q-5 0 -5 -4.5t-2 -5.5q-6 -14 -15.5 -23t-19.5 -18t-20 -19t-17 -24q-16 -6 -28.5 -19.5t-29.5 -20.5q2 -3 2 -8t-2 -7q-3 3 -7.5 -0.5t-10.5 -10t-12 -13.5t-10 -9q-14 -1 -27 -10t-24 -24q-9 -5 -19 -12.5t-20 -12.5q-3 -2 -4.5 -5t-3.5 -5 q-18 -5 -33.5 -17.5t-35.5 -20.5q-24 -9 -50.5 -19t-52.5 -11q-34 -1 -61.5 11.5t-44 38t-20.5 63.5t9 86q5 11 9 27.5t11 27.5q6 17 10.5 34.5t14.5 32.5q0 1 1.5 1t1.5 1q5 11 8 23.5t7 22.5q8 13 15.5 26t15.5 26v-4zM14 113q-7 -10 -5 -13.5t2 -9.5q-5 -15 -9.5 -30 t-11.5 -26q0 -8 -2 -18.5t-4 -18.5q-2 2 -3.5 5.5t-8.5 0.5q-3 -2 -5 -8t-2.5 -12t-1.5 -11.5t-2 -6.5q-3 0 -2.5 -5t-3.5 -5q1 -19 12 -27q0 -11 4.5 -18.5t11 -13.5t13 -11.5t11.5 -11.5q25 0 49 6t45.5 16t42 22.5t38.5 24.5q13 8 23 16.5t21 17.5q26 21 52.5 41.5 t47.5 46.5q26 22 54 51.5t55.5 63t53.5 71t49 76.5q8 18 20 35.5t18 37.5q21 49 22.5 92t-13 74t-44 46.5t-69.5 10.5q-13 -2 -29 -5.5t-28 -1.5q-95 -69 -175 -161.5t-149 -206.5q-16 -24 -30.5 -49t-22.5 -54q-8 -8 -13 -18t-10 -22q0 7 -1 9zM-23 46q-2 -2 -3.5 -10.5 t-0.5 -10.5q4 2 9 7t2 11q-3 -6 -4 -1.5t-3 4.5zM8 86q-8 -1 -10.5 -8t-0.5 -11q3 5 5.5 8.5t5.5 10.5zM609 615q-3 -6 2 -9q2 2 3 2t2 2q-2 0 -2.5 3t-4.5 2zM-13 41l-1.5 -7.5t2.5 -2.5q1 2 1 6.5t-2 3.5zM15 104q0 -11 -4 -15v1zM5 245q-1 -1 -1 -2v2h1z" glyph-name="O" horiz-adv-x="600" unicode="O"/><glyph d="M168 320q5 0 6 4.5t5 5.5q38 60 80.5 114.5t81.5 112.5q4 5 3 6.5t2 6.5q2 2 3 4.5t6 -0.5q0 2 0.5 2.5t0.5 2.5q-5 1 -12.5 -4.5t-12.5 -13.5q-1 2 -2 3t-1 5q-12 -9 -22 -6q-7 -8 -15 -11.5t-11 -15.5q-14 -6 -29.5 -14.5t-30.5 -8.5q-23 -17 -44.5 -32t-40.5 -34 q1 -7 0 -9t1 -9q-17 7 -36.5 14t-27.5 21q2 11 8.5 15.5t8.5 12.5q21 17 43.5 31t47.5 27q4 0 1 3q4 -1 8.5 2.5t9 7.5t9 7t9.5 1q6 5 13 6t16 9q0 -3 -0.5 -4l-1.5 -3q6 1 10 8.5t14 3.5q3 1 1 3t0 4l67.5 22.5t65.5 19.5q11 14 22 27t22 28q0 6 4 12.5t7 4.5q0 5 2.5 7 t4.5 8q1 1 1 0t2 -1q17 23 35 45.5t35 47.5q6 -1 8.5 -5t3.5 -6q4 3 7 3t6 -1t6.5 -1.5t8.5 1.5q-1 -1 -1 -3q8 1 12.5 -8t7.5 -16q-2 -8 -6 -13.5t-8 -13.5h-7q-17 -21 -33.5 -43t-33.5 -47q46 2 96 5t96 -7q21 -6 44 -18t35 -30q5 -8 14.5 -21t7.5 -26q0 -17 -8 -35 t-8 -32q-10 -9 -17.5 -20.5t-14.5 -23t-15 -22t-18 -16.5q-1 -3 -3 -4.5t-3 -6.5q-9 -3 -20 -11.5t-18 -21.5q-5 -7 -10.5 -9.5t-5.5 -11.5q-23 -12 -43.5 -28.5t-40.5 -33.5t-41.5 -33t-45.5 -28q-5 -10 -15.5 -14.5t-20.5 -9.5q-1 0 -1 -5q-23 -11 -42.5 -23t-39.5 -20 q-17 -17 -41 -26t-46 -22q-14 -3 -40.5 -12t-56 -19t-56.5 -18.5t-42 -9.5q-6 -1 -6 0.5t2 3.5q-4 1 -11 -4t-11 -2l-12 -16q-1 2 -2 2.5t-1 4.5q2 2 2.5 -0.5t1.5 4.5q-2 2 -5 -1t-6 -8t-5.5 -11.5t-4.5 -10.5q4 -1 3.5 3t4.5 3q0 -8 -3.5 -16.5t-11.5 -10.5q-1 -4 -4 -9 t-7 -7q-1 -3 0.5 -5.5t-3.5 -3.5q-6 -4 -8.5 -12t-9.5 -11q5 5 7 10.5t3 11.5q-6 -3 -7 -10.5t-5 -13.5q-5 -6 -11 -14t-8 -23q-14 -22 -25 -48.5t-27 -49.5q-3 -3 1 -2.5t0 -3.5q-9 -14 -15 -30t-16 -40q-2 4 -0.5 9.5t-0.5 10.5q-2 -1 -4 -5t-4 -1q-1 5 1 6.5t0 6.5 q0 4 -2 -1t-5 -5q0 5 2 8.5t2 5.5q-4 1 -4 -2t-4 -1q0 2 -0.5 5.5t-2.5 -1.5q-1 2 0 8t4 10q2 -1 1.5 -2.5t-0.5 -3.5q6 7 10 16t6 19q-1 2 -1 3.5t-3 1.5q1 -7 -2 -13.5t-7 -12.5t-8 -12.5t-5 -14.5q-2 8 0.5 18t4.5 21q10 2 10.5 6t-3.5 14q3 4 5.5 5t2.5 5q3 12 -1 12 q-1 5 7 10q27 63 58 119.5t64.5 109.5t68 104t68.5 102q4 2 3 1t1 -1q7 11 11.5 20.5t9.5 17.5q3 -2 0 -5.5t-3 -6.5zM83 88q5 2 7 3.5t3 -0.5q9 5 22.5 9.5t28.5 8t29 7t23 5.5q1 4 -3 1t-2 3q8 5 8.5 4t9.5 2q0 -2 7.5 -3.5t7.5 -3.5q3 0 2.5 7.5t2.5 8.5q17 7 26 12 q5 2 9.5 3t9.5 3q2 1 4 5t3 5q19 9 36.5 17t38.5 19q14 10 28.5 18t29.5 18l10 8q5 2 8 4.5t10 4.5q16 14 32 24t36 24q1 2 4 2t5 1q2 2 3.5 6.5t3.5 5.5q19 15 41.5 35.5t45 43.5t43.5 45.5t37 40.5q4 4 5.5 4h3t3 1.5t4.5 8.5q2 2 1.5 5.5t0.5 5.5q13 26 17.5 53t-10.5 44 q-20 16 -48 23q-2 1 -3.5 0.5t-4.5 -0.5l-10 3q-2 0 -7 -0.5t-7 -0.5q-56 10 -114 4q-12 -1 -17 -3t-8.5 -4.5t-8 -5t-15.5 -4.5q-11 -13 -21.5 -30t-24.5 -28q-24 -40 -51.5 -75t-54.5 -70q-3 0 -4 -2.5t-4 -2.5q-5 -4 -6.5 -10t-6.5 -6q-3 -5 -0.5 -4.5t0.5 -4.5 q-2 -4 -7 -8.5t-8 -12.5q-8 -2 -14.5 -10t-2.5 -16q-6 -5 -11.5 -8.5t-7.5 -8.5q2 4 5 3q-6 -13 -13.5 -23t-15.5 -19t-15.5 -18t-13.5 -20q-5 1 -1.5 3t1.5 7q-5 -5 -7.5 -10t-0.5 -9q-3 -2 -3 -0.5t-2 -0.5q-2 -13 -9.5 -22t-16 -17.5t-16 -17t-9.5 -20.5 q-16 -13 -23.5 -30t-21.5 -33q-3 0 -2.5 3t-1.5 5q-2 -11 -6.5 -20.5t-9.5 -19.5q4 5 7.5 12.5t6.5 12.5zM7 -29q2 6 9 16t3 15q-2 -9 -8 -16.5t-4 -14.5zM68 76q2 -1 4.5 6t0.5 9q-1 -2 -3.5 -6t-1.5 -9zM-133 -184q2 1 1 -3t-2 -6q1 3 1 9zM181 553q-1 0 -1 1z" glyph-name="P" horiz-adv-x="668" unicode="P"/><glyph d="M660 609q-2 -8 -4.5 -20t-1.5 -24q-7 0 -5 7q-2 -4 -3 -7t-3 -1q-2 -5 1 -6t4 -3q3 -1 2 2.5t1 5.5q4 0 2 -6t0 -8q1 0 2 3.5t1 5.5q5 -8 0.5 -14.5t-4.5 -17.5q-2 -11 0.5 -19.5t-2.5 -19.5q-1 -5 -4 -7.5t-1 -7.5q-3 0 -4 1.5t-3 0.5q4 -6 2.5 -12t-5.5 -14 q-4 2 -2 3.5t4 6.5q-9 -8 -11 -21.5t-4 -23.5q0 -2 0.5 -1t2.5 1q-8 -8 -14 -23.5t-9 -32.5q-2 -2 -7 -7.5t-5 -10.5q-5 -3 -7 -7.5t-5 -10.5q-1 -1 -0.5 0t-1.5 1q-2 -5 -7.5 -12.5t-9.5 -16.5q-1 -15 -11 -28t-21 -21q1 -4 1 -9q-2 0 -2 -3t-2 -2q-6 -24 -23 -32 q-6 -11 -12.5 -19.5t-14.5 -12.5q0 -8 -5 -14.5t-11.5 -13t-13 -14t-9.5 -16.5q-2 -1 -2.5 1t-2.5 2q-6 -3 -7.5 -13t-6.5 -16q-2 -1 0.5 -1.5t3.5 -1.5q-3 -4 -5 -8t3 -7q-8 -11 -21 -20.5t-22 -7.5q0 -6 -1 -9q-2 3 -5 0.5t-7 -7t-7.5 -9.5t-5.5 -8q-5 -7 -16 -15.5 t-16 -13.5q-5 -7 -7.5 -12t-7.5 1q-10 -20 -25 -30.5t-27 -26.5q-1 -7 1.5 -12t2.5 -10v1l-1 1q4 -23 16.5 -45t19.5 -48q6 -16 15 -27.5t13 -31.5q-6 3 -11.5 -0.5t-10.5 -6.5q-21 8 -35.5 22.5t-25.5 32.5t-20 38t-20 39q-39 -29 -89 -52.5t-99 -27.5h-24q-99 14 -89 137 q2 21 6.5 38t9.5 42q2 -3 0 -7.5t-2 -10.5q9 9 8.5 18t1.5 17q8 24 21 45.5t18 48.5q13 19 20.5 42t21.5 42q5 4 5 1.5t4 1.5q0 12 5 20t11 15t12.5 14.5t9.5 18.5q2 2 0 0l-4 -4q3 7 7 15.5t14 12.5q9 11 16.5 22t16.5 22q2 -1 0 -3t0 -4q4 2 7 9t3 11q4 7 8.5 18t14.5 10 l34 44t38 39q5 15 15 23.5t18 19.5q22 11 41.5 27.5t33.5 38.5v-2v-2q9 9 17.5 18t10.5 19q5 1 5 -4l101 84q-2 4 -6 0t-4 3q-5 -5 -12.5 -10t-13.5 -10q-4 -3 -2.5 -1t2.5 4q12 7 26 18.5t30 21.5t33 16.5t35 3.5q22 -3 41 -9.5t33 -17.5q-1 5 -2 7.5t-7 2.5 q-1 8 -6.5 11.5t-3.5 12.5q-4 7 -11 10.5t-15.5 6l-17 5t-14.5 7.5q-4 0 -9 -1l-10 -2q8 6 15.5 6t18.5 5q20 -6 39.5 -8t37.5 -13q4 -9 12 -18q10 -12 16 -21t11 -23q4 -14 5.5 -25t-0.5 -28q-3 0 -4.5 1t-3.5 2q-1 -5 0 -8t1.5 -6t0 -6.5t-3.5 -7.5q2 0 2 -1t1 -1 q2 0 2 2.5t2 3.5zM517 309q19 33 37.5 72t32 80.5t21.5 83.5t7 81q-8 -7 -9.5 -18.5t-10.5 -13.5q-10 -3 -17 7.5t-15 15.5q5 20 0 32q-4 -8 -8.5 -15t-9.5 -6q6 15 8.5 31t-3.5 26q-53 -19 -95.5 -54.5t-86.5 -69.5q-36 -42 -75.5 -81.5t-71.5 -84.5q-13 -15 -23.5 -30.5 t-21.5 -29.5q-7 -7 -11 -4q-2 -9 -11 -12q0 2 1.5 3t-1.5 1q-3 -5 -2 -8.5t3 -5.5q-20 -20 -30 -41.5t-26 -39.5q-3 -15 -9 -21t-10 -18q-8 -3 -13.5 -11.5t-11.5 -15.5q1 -15 -5.5 -21t-11.5 -14q-2 2 -4.5 2.5t-3.5 -4.5q-1 -3 0 -4t2.5 -2t1.5 -2t-3 -4q-2 -3 -2.5 0.5 t-4.5 -0.5q-3 -8 -7 -17t-6 -18q-1 -2 0 -1t1.5 2t1.5 1.5t0 -2.5q1 -8 -4 -13.5t-10 -6.5q0 -14 -5.5 -18.5t-11.5 -13.5q2 6 -2 5q0 -3 -1.5 -5.5t-0.5 -6.5q-2 -4 1 -1t2 -1q-3 -6 -4.5 -14.5t-3.5 -18t-5.5 -18.5t-10.5 -16q1 -8 -2 -19t-5 -22q0 -2 1 -4.5t1 -4.5 q1 -4 0 -9t-1.5 -9t0.5 -5t4 2q-4 -12 1 -21t3 -21q4 -5 7 -11t8 -10.5t12 -6.5t19 0q22 3 45.5 13t46 23t43 27.5t35.5 27.5q-6 17 -13 33t-12.5 33t-8.5 36t0 42q7 -3 8.5 2.5t4.5 7.5q17 -4 29.5 -2.5t26.5 -5.5q9 -5 12 -16t4.5 -24.5t2.5 -27t6 -23.5q75 72 146 160.5 t135 193.5zM446 680q8 2 18.5 8t12.5 13q-6 -6 -14.5 -9t-16.5 -12zM646 611q-1 -2 -1 -5t2 -5q5 8 -1 10zM602 401q-1 -3 -4 -7t0 -6q0 4 4 8t0 5zM562 329q0 -5 -4.5 -8.5t-0.5 -8.5q-2 6 3 10.5t2 6.5zM60 284l-2 -2zM41 258v-1v1z" glyph-name="Q" horiz-adv-x="594" unicode="Q"/><glyph d="M570 399q-5 -2 -10.5 -7t-10.5 -8q5 -2 7.5 3t9.5 4q-12 -18 -26.5 -26t-31.5 -18q0 5 2 7q-13 2 -19 -4t-12 -10q1 -1 4 0.5t6.5 3t7.5 2t9 -2.5q-27 -20 -59 -37.5t-55 -39.5q-7 -1 -15 -6t-16 -11t-15.5 -12t-13.5 -9q-4 -6 -10 -7.5t-10 -4.5v-3v-3q-3 -4 -11 -9 t-11 -6q0 -1 -6.5 -2t-7.5 -10q-12 3 -14.5 -5.5t-9.5 -13.5q-8 1 -15.5 -4.5t-15 -14t-15.5 -17.5t-15 -15q0 2 1 2.5t1 2.5q-3 -1 -3.5 -2t-2.5 -3q14 -14 32 -28.5t39 -25.5q2 -2 7.5 -2.5t8.5 -2.5q2 -1 8 -3t8 -3q5 -2 4 -2.5t4 -2.5q7 -2 9 -2t11 -2q8 -2 24.5 -6 t24.5 -6q10 -2 18.5 -3t15.5 -2q5 0 6 -0.5t2 -0.5q23 -1 48 -8q16 -5 13.5 -6.5t-6.5 -3.5q-2 -1 8 -5.5t11 -6.5q-4 -1 -11 -1.5t-4 -5.5q1 -5 -1 -12q-3 2 -6 0.5t-5 -0.5q-26 -6 -42 -2t-30 6q-26 5 -57.5 10t-59.5 14q-2 1 -2.5 2t-2.5 2t-8 1t-8 1t-3 3.5t-3 3.5 q-24 10 -42.5 21t-32.5 24q-7 6 -13.5 13t-11.5 14q-2 2 -5 4t-5 4q-2 4 -0.5 7t0.5 7q0 2 0.5 3.5t0.5 3.5q-2 5 1 13.5t8.5 17t12 16.5t12.5 13q29 26 65 52t68 50q16 10 29.5 18.5t25.5 21.5q15 3 27 15q8 5 19 11t16 15q35 17 70 40.5t74 52.5l34 25.5t35 28.5t30.5 32 t21.5 36q4 19 -4.5 28.5t-26.5 15.5q-24 11 -43 15.5t-42 1.5q-2 0 -4 0.5t-4 -0.5q-3 2 -7.5 1t-9.5 0q-7 -2 -13.5 -1.5t-14 0.5t-16 -1.5t-19.5 -5.5q-9 -5 -14.5 -11t-12.5 -12q-6 -7 -9 -11l-4.5 -6t-3.5 -4t-6 -5q-2 -3 -3.5 -8.5t-6.5 -3.5q-2 -2 -1.5 -3t-1.5 -6 q-23 -18 -41 -42.5t-35 -52.5l-34 -56t-37 -52q-4 0 -2.5 0.5t-0.5 0.5q-8 -9 -17 -25t-20 -25q-2 -5 -6.5 -12t-1.5 -8q-7 -14 -16.5 -24t-17.5 -21q-2 1 -2 -1t-1 -6.5t-4 -10t-10 -11.5q-8 -11 -16.5 -21t-13.5 -27q-4 -2 -3.5 0t-1.5 0q-6 -15 -12.5 -23.5t-13 -15.5 t-12.5 -15.5t-12 -23.5q-14 -16 -27.5 -37t-24.5 -41q0 11 7 18t6 16q-11 -12 -19.5 -29.5t-20.5 -32.5q2 -2 3 -2q-14 -20 -29.5 -44t-23.5 -43q-2 0 -1 4t3 7q-8 -7 -9 -20t-10 -25q0 -5 -1.5 -2.5t-3.5 1.5q-5 -12 -11.5 -20t-11.5 -24q0 -2 3 -1.5t6 -0.5q-2 -3 -4.5 -3 t-4.5 1q-3 -3 -3 -3.5t1 -1t1 -2t-1 -4.5q-1 3 -3 2.5t-5 -3t-6 -4.5t-6 -2q-14 8 -12 29.5t8 42.5q2 2 0 1t0 1q6 12 11.5 27.5t13.5 24.5q1 2 6 7t5 12q4 13 9.5 22.5t11.5 18.5t12.5 19t12.5 25q5 3 4.5 6t1.5 5q7 15 15 26t16.5 21.5t16 21.5t13.5 27q44 52 78.5 109 t75.5 113q1 -1 2.5 5t3.5 6q9 14 17.5 26.5t23.5 28.5q2 6 4 9.5t5 7.5t7.5 9.5t10.5 15.5q12 8 17 20t16 26q1 3 1.5 4t5.5 6t12.5 14t6.5 20q13 11 22.5 30.5t19.5 33.5h-6t-8 -4q-17 -5 -26.5 -5.5t-19.5 -6.5q-1 3 -0.5 3t1 -0.5t1.5 -0.5t1 2q0 1 -6 -1t-8 -4 q0 -2 1.5 0.5t2.5 1.5q0 -4 -3 -4.5t-8 -2.5q-2 -2 0.5 -4t-2.5 -2q-11 -5 -22 -9t-27 -9q1 3 5 4t11 3q-3 3 -9.5 1t-10.5 -4v-10q-23 -8 -40 -18t-39 -19q11 10 21 15l20 10q-12 -1 -25 -9.5t-25 -16.5q1 0 1 -1q-16 -14 -32.5 -25.5l-33 -23t-32 -24.5t-27.5 -29 q-4 0 -3.5 0.5t1.5 2.5q-12 -1 -25.5 5.5t-17.5 20.5q2 5 4.5 9t5.5 9q-3 1 -5 -1t-3.5 -4.5t-3.5 -5t-5 -1.5q9 19 22 30t27 18q-1 -7 -4 -6t-5 -4q11 3 18.5 9.5t14.5 14.5q-2 3 -6.5 -3t-9.5 -5q25 25 52.5 39t54.5 32q34 14 63 29t63 23q2 2 4.5 3t3.5 3q34 9 69.5 22 t70.5 16q3 0 5 -0.5t5 -0.5q8 8 15.5 18l15 20t16 17.5t19.5 10.5q10 -7 16 -11.5t14 -9.5q3 -7 3 -14.5t5 -12.5q21 1 38 -1t32.5 -5.5t30.5 -7t32 -4.5q2 -2 3.5 -4.5t2.5 -4.5q7 0 12.5 -2t6.5 -9q4 -2 5.5 0t2.5 0q1 -4 2 -5.5t8 -0.5q5 -11 12.5 -23t13 -25.5 t7.5 -29.5t-4 -35q-10 -23 -24.5 -38t-25.5 -36q-6 4 -14.5 -5t-13.5 -16q-18 -16 -39 -28.5t-38 -23.5q2 5 2 7t3 7zM199 143q2 -2 6 -1t8 4.5t7.5 8t4.5 9.5q-5 -8 -13 -10.5t-13 -10.5zM107 557q-11 -1 -19.5 -7.5t-16.5 -12.5q10 5 17.5 8.5t18.5 11.5zM104 495 q3 5 8 6.5t7 8.5q-5 -1 -11 -5t-4 -10zM533 372q-3 2 -6 -1t-3 -7q3 -5 9 -1t0 9zM198 550q8 2 14.5 5t10.5 8q-12 -3 -25 -13zM78 88q4 0 5.5 4t2.5 8q-5 1 -6 -3t-2 -9zM412 293l1.5 -1.5t4.5 -2.5q1 2 1 4t2 4q-8 3 -9 -4zM53 54q2 -2 3.5 1.5t3.5 7.5q-4 1 -6.5 -2.5 t-0.5 -6.5zM96 117q0 -4 -5.5 -7.5t-3.5 -6.5q3 3 8.5 7t0.5 7zM134 524q5 -1 8 7q-2 0 -5 -1.5t-3 -5.5zM-60 -133q0 2 2 3.5t2 6.5q-4 2 -5 -4t1 -6zM46 43q4 -1 5 3t-1 6q-2 -4 -4 -4.5t0 -4.5zM71 473q2 2 6 5t-1 5q0 -2 -3 -5t-2 -5zM145 189q0 -2 -2.5 -3t-4.5 -5 q4 -2 6.5 3t0.5 5zM130 514q-2 -5 0.5 -2.5l5.5 5.5zM14 -13q-2 -3 -4 -6.5t-4 -4.5zM17 -10l-2 -2q0 2 2 2zM473 -22q-14 2 -20.5 5t-17.5 5q11 0 20.5 0.5t17.5 -10.5zM430 -11q-3 2 -5.5 -0.5t-2.5 -6.5q3 -4 8 -0.5t0 7.5z" glyph-name="R" horiz-adv-x="625" unicode="R"/><glyph d="M48 -164q-5 1 -9.5 0t-4.5 5q-6 -11 -11.5 -11t-11 1.5t-11 1.5t-9.5 -10q-5 2 -5.5 4t-3.5 3q-9 2 -21.5 -3t-20.5 -5q-6 0 -17.5 3t-22.5 8.5t-18.5 13.5t-6.5 17q10 3 15 -2.5t14 -7.5q14 -2 27.5 3.5t27.5 7.5q2 0 4.5 -1.5t4.5 -0.5q22 5 41 14t38 10 q15 14 35.5 21.5t43.5 18.5q14 8 33.5 19t38 24.5t33.5 29t21 32.5q8 35 0 55q-8 23 -25 41t-35 36q-16 20 -32 36.5t-33 32.5q-18 17 -35.5 36.5t-30.5 41.5t-21 46t-6 50q3 48 25 87q2 6 5 5t6 2q11 26 28 42t31 36q5 0 7 1.5t3 3.5t2 3.5t4 0.5q6 5 3.5 5t-1.5 5 q8 1 13 6.5t11 13.5q5 0 10 3.5t9.5 8t9.5 9t10 6.5q2 5 1.5 6.5t2.5 3.5q5 -5 9 7q1 -1 1.5 -3.5t3.5 -0.5q7 5 16.5 13t17.5 6q7 6 17 13t19 12h3q1 0 2 -1q33 16 63 32.5t68 21.5q12 2 23.5 3t17.5 -3q12 -7 23.5 -16.5t20.5 -16.5q3 1 4 -2t1 3q11 -10 15.5 -30 t-3.5 -49q-2 -12 -7.5 -25.5t-13 -25.5t-16.5 -19.5t-17 -6.5l-8 10t-5.5 11.5t0 14.5t8.5 19q0 4 -3 2t-3 -4q-5 2 -1.5 5t3.5 7q-4 -3 -4 -3.5t1 0t0.5 0.5t-4.5 -3q3 20 11 35t8 38q-34 2 -66.5 -12t-64.5 -33q-26 -16 -49 -31.5t-48 -32.5q-27 -23 -55.5 -53t-54.5 -57 q-2 -3 -1 -3.5t0 -5.5q-8 -4 -9 -7.5t-6 -13.5t-14 -20.5t-11 -18.5q-5 -9 -4 -20t-1 -22q-5 -17 -4 -27t6 -22q12 -24 32 -46t39 -41q18 -20 40 -40t41 -45q9 -13 19 -27.5t18 -30t12.5 -32.5t3.5 -36q-5 -17 -9.5 -26.5t-9.5 -25.5q-26 -32 -58 -54.5t-70 -38.5 q-4 0 -4.5 2.5t-4.5 3.5q-22 -15 -45.5 -27t-50.5 -11q-5 -1 -3.5 -4t-4.5 -5zM98 -145q2 0 3 2t3 1q3 6 -2 5t-4 -8z" glyph-name="S" horiz-adv-x="397" unicode="S"/><glyph d="M105 243q4 1 4 -0.5t3 -1.5q2 5 6 12t7 14q2 0 1.5 -3.5t1.5 -3.5q7 9 12 16.5t9 20.5q-7 -4 -8.5 -14.5t-12.5 -12.5q22 44 47.5 91.5t52.5 87.5q3 -2 -0.5 -6t-3.5 -7q3 -2 7 4.5t9 8.5q-2 4 0.5 7.5t3.5 9.5q19 23 34.5 52t35.5 49q2 14 12 24.5t14 23.5q-6 -2 -14 -3 t-16.5 -2.5t-16 -4.5t-11.5 -8q-9 -1 -11 1q-10 -8 -18.5 -7t-16.5 -1t-17.5 -6.5t-21.5 -7.5t-27.5 -5.5t-31.5 -5.5t-31 -7t-27 -10q-4 -2 -7 -6t-8 -6t-13.5 -4t-17.5 -3.5t-17 -3t-11 -1.5q-16 1 -28.5 7t-24.5 10q-3 5 -8 9t-3 9q1 5 2 8t-1 8q106 33 217.5 58.5 t225.5 50.5q14 18 29 37.5t32 35.5q13 -1 17.5 -7t4 -14.5t-5.5 -18.5t-11 -20q69 8 140.5 24t143.5 24q4 -5 8.5 -5.5t7.5 -1.5q5 1 3.5 -1.5t-1.5 -4.5q3 2 8 -0.5t10 -4.5q-8 -1 -14.5 -1t-11.5 -5q3 -5 11 -4.5t13 -2.5q-9 -8 -20.5 -8.5t-21.5 -5.5q-3 -2 -6 -7 q-11 -5 -18.5 -3.5t-16.5 -0.5q-14 -3 -28 -9.5t-28 -5.5q-4 0 -7 1.5t-7 1.5q-9 -1 -20.5 -6.5t-22.5 -7.5q-4 0 -9.5 0.5t-10.5 -0.5q-11 -2 -22 -8t-25 -5q-20 1 -44.5 -6t-48.5 -10q-75 -134 -159.5 -274t-164.5 -281q-23 -44 -47 -86t-43 -86q-3 -10 -5.5 -20.5 t-6.5 -21.5q-14 -2 -24 5.5t-21 13.5q2 9 3 18.5t-3 12.5q3 6 6 13t3 12q-1 2 -2 1.5t-2 -2t-2.5 -2t-2.5 2.5q12 10 15 22.5t8 26.5q4 15 13 30.5t18 32.5l16 32t17 29q7 10 14.5 18t12.5 19t9.5 23t13.5 23q8 8 12.5 23t12.5 24zM24 98q-1 -5 2.5 -4.5t3.5 -4.5 q-2 0 -2 -1t2 -2l3 8q-2 0 -3.5 2t-5.5 2zM-37 -38q2 3 4.5 5t2.5 6q-3 0 -7.5 -5.5t0.5 -5.5z" glyph-name="T" horiz-adv-x="352" unicode="T"/><glyph d="M650 761q-3 -6 -6.5 -11t-5.5 -13q5 2 8 10t6 14q5 1 6 3.5t4 2.5q1 14 10.5 23t14.5 25q3 -2 3.5 -3t2.5 1q-1 -8 -3 -11.5t-4.5 -5t-5 -3.5t-4.5 -7q4 -3 4 1.5t4 2.5q-2 -7 -0.5 -10t-3.5 -13q7 3 10.5 12.5t8.5 14.5q-14 -42 -38.5 -87t-43.5 -88q4 -1 4.5 2t2.5 5 q2 -6 -2.5 -10t-8.5 -2q-1 -5 -1 -7.5t1 -8.5q-5 -1 -3 3t-4 3q-8 -13 -10.5 -27t-8.5 -27q-10 -15 -19.5 -26.5t-20.5 -28.5q2 -2 5 -2q-2 -6 -3.5 -4.5t-2.5 3.5q-2 -8 -7.5 -14t-6.5 -14q0 -2 1 -2t2 2q-3 -7 -8.5 -9.5t-7.5 -10.5q-2 -5 -2 -9.5t-3 -10.5q-1 1 0 3t1 5 q-4 -2 -9.5 -7.5t-1.5 -8.5q1 0 1.5 3.5t2.5 0.5q-11 -19 -23 -39.5t-26 -37.5q-2 2 3 6t6 8q-12 -11 -21 -25.5t-19 -28.5q-6 -1 -7.5 -4.5t-2.5 -10.5q-2 3 -4 0t-4.5 -7.5t-5.5 -8t-6 -1.5q-1 -4 -1 -8t3 -5q-10 -8 -16 -18.5t-11 -23.5q-8 -2 -12.5 -8t-10.5 -12 q-5 0 -2 2t3 6q-11 -11 -17 -26q4 2 5 5t4 6q0 -1 -1 -4t-3.5 -6t-5 -5t-5.5 0q-2 -5 -1.5 -5.5t-0.5 -4.5q-4 0 -2.5 2t0.5 6q-7 -11 -16.5 -22.5t-14.5 -25.5q-3 -2 -4 -0.5t-3 1.5q-3 -8 -9 -12t-10 -16q-14 -14 -26 -30.5t-25 -36.5q-5 -5 -10 -9.5t-8 -13.5 q-17 -12 -32.5 -26t-31 -28.5t-31.5 -27.5t-34 -22q0 -5 2 -5q-19 -11 -41 -16t-39 -5q-31 0 -48.5 14t-24 38t-3.5 55t11.5 66t21 71t25.5 69q1 -3 3 -3q4 11 12.5 22t2.5 22q8 2 9.5 11.5t3.5 17.5q8 13 14.5 28l13 30t14 29t16.5 24q0 2 -1 2.5t-1 2.5q14 35 32 61t35 59 q-1 2 -2 0.5t-3 -0.5l5 8v-1q0 -1 1 -2q30 50 64 91q9 -2 14 -3.5t13 9.5q18 -1 24.5 -4.5t16.5 -12.5q-1 -12 -6.5 -18.5t-10.5 -17.5q-2 1 -3 -1t-3 2q-39 -57 -72.5 -117t-63.5 -130q-2 0 -5 -3q-23 -38 -39.5 -82.5t-34.5 -86.5q-6 2 -1.5 7.5t3.5 10.5 q-9 -6 -12.5 -20.5t-1.5 -18.5q-11 -24 -18 -51.5t-10 -54t-2 -50t8 -39.5q8 -1 17 3.5t17 7.5q36 21 67 48.5t59.5 59t55 66t52.5 68.5q20 23 37.5 52.5t37.5 52.5q2 3 4.5 6t6.5 2q17 35 38 63.5t38 63.5q3 0 4 -1.5t3 -1.5q7 30 24.5 54t30.5 51q5 2 5.5 0t2.5 1 q2 9 6 14.5t6 11.5q1 0 1.5 -1t2.5 -1q2 7 5.5 9.5t4.5 7.5q-2 -1 -4 -6q-3 10 2.5 20t12.5 20t14 21t7 24q2 0 3.5 -1.5t4.5 -1.5q2 9 3.5 12.5t0.5 9.5q6 3 9.5 2.5t8.5 9.5q-4 2 -5 -2t-3 -5q-1 8 5 12t10 10q-4 2 -7 -1.5t-7 -8.5q2 10 8 21.5t12 14.5q2 -2 1.5 -3 t2.5 -2q8 19 18 35.5t22 31.5q4 -2 -1 -7t-4 -12q5 5 8.5 12.5t2.5 13.5q3 -3 3 5q3 0 3 -4q8 8 6 11.5t3 10.5q9 10 10.5 9.5t-0.5 -7t-6.5 -15t-8.5 -12.5q-5 -5 -1 -4t2 -1zM676 755q-6 1 -8.5 -7.5t-1.5 -10.5q4 3 8 8t2 10zM637 732q-4 3 -5.5 -3t-4.5 -1v-5.5t1 -3.5 q2 2 5 6t4 7zM622 695q-2 -4 -4.5 -7.5t-3.5 -8.5q4 2 6 6.5t4 8.5q-1 0 -2 1zM581 548q2 5 4 7.5t4 7.5q-2 0 -6 -5.5t-2 -9.5zM597 598q0 1 2 3.5t2 6.5q-4 2 -5 -4t1 -6zM616 720q1 1 2.5 5t1.5 5q-3 -1 -4.5 -5t0.5 -5zM537 468q0 -2 -2 -4zM639 768v2v-2z" glyph-name="U" horiz-adv-x="505" unicode="U"/><glyph d="M495 443q-5 4 -5.5 -1.5t-4.5 -5.5q-5 -5 -2 -6t-1 -6q-2 0 -1.5 3t-1.5 3q-1 -5 -0.5 -6.5t2.5 -4.5q0 -4 -2 -5t-7 -5q-2 1 -2 2t4 3q-7 -2 -8.5 -7t-1.5 -11q4 0 1.5 3.5t2.5 3.5q0 -10 -14 -12q5 5 2 3t-5 -2q3 2 3 6q-1 -3 -4.5 -4t-7.5 -5q2 2 6.5 0.5t7.5 -4.5 q0 -4 -3 -5.5t-5 -6.5q-4 0 -0.5 4t4.5 4q0 3 -1.5 1t-1.5 3q-4 -3 -7 -8t-4 -13q-9 8 -13 -8q0 -2 1.5 1t3.5 4q3 -6 -1 -16q-6 1 -9 -4.5t-5 -13t-5 -16t-9 -12.5q-4 0 -4.5 1t0.5 2.5t1.5 2.5t-0.5 1q-7 -6 -10.5 -12.5t-11.5 -8.5q-5 -8 -2 -13.5t-5 -11.5h-7 q3 -8 0 -11t-5 -7q1 6 -2.5 5.5t-4.5 4.5q-5 0 -6 -3t-3 -5q-2 -5 2 -1.5t7 2.5q-4 -5 -5.5 -7.5t3.5 -5.5l-19 -28q-1 1 0 1t-1 1q-8 -4 -13.5 -14t-12.5 -16q-2 1 -0.5 4t3.5 5q-4 -2 -6.5 -4.5l-4.5 -4.5q4 -3 1 -7.5t0 -9.5l-15 -14q-4 0 -6 1q-6 -1 -7 -8q0 -2 1 -2h1 q-8 -13 -9 -23t-8 -20q-4 2 -1.5 4t1.5 5q-5 0 -8 -3.5t-6 -9t-6 -10.5t-8 -8q0 6 4 8t1 5q-5 -3 -8.5 -8.5t-9.5 -9.5q1 -3 3.5 -0.5t3.5 2.5q2 0 1 -3.5t-1 -5.5q5 -2 4 2t4 0q0 -4 -3 -5.5t-6 -6.5q-8 -1 -13 -6t-9.5 -11.5t-8.5 -13t-10 -11.5q-2 0 -1 2.5t-1 2.5 q-3 -3 -2.5 -8.5t3.5 -5.5q-5 -11 -11.5 -15t-11.5 -15q-2 1 0 3t2 6q-5 -5 -8 -10.5t-8 -10.5q-1 -3 2.5 -0.5t3.5 4.5q2 0 -3 -7.5t-10 -11.5q-1 2 1.5 4t0.5 5q-2 -2 -3.5 -5.5t-5.5 -5.5q-3 -3 0.5 -2t4.5 3q-2 -7 -7.5 -12t-3.5 -13q-2 -2 -3 -1t1 5q-5 -8 -12.5 -20.5 t-15.5 -10.5q-14 -14 -30 -25.5t-30 -23.5q-12 -8 -27 -11.5t-29 -2.5t-26 6.5t-18 16.5q-5 24 -1.5 57t12.5 68.5t20.5 70t22.5 61.5q-3 -16 -9 -34.5t-12 -38.5q12 17 17 41.5t15 45.5q-5 1 -5.5 -2.5t-1.5 -6.5q-3 2 0 6t5 9v-4q6 10 11 24t10.5 29.5t10.5 31.5t11 30 q20 54 43 106t43 112q5 14 9.5 26.5t13.5 20.5q11 36 21.5 69t26.5 60q4 1 3 -2.5t3 -2.5q8 6 15.5 6.5t14 -1t13 -3.5t11.5 -2q3 -1 1 -3.5t1 -3.5q-7 -39 -22.5 -70t-26.5 -64q-9 -14 -13.5 -35.5t-15.5 -41.5h-7q4 -8 -1.5 -11t-8.5 -11l3 -3q-5 -11 -8.5 -25t-8.5 -24 q0 3 -2 -0.5t-4.5 -9.5t-5.5 -12.5t-5 -8.5q-3 -3 0.5 -0.5t4.5 -2.5q-7 -11 -11 -23t-6 -22q-3 -1 -3.5 0t-1.5 1q-12 -36 -25.5 -73t-30.5 -80q-6 3 0 7t3 7q-3 -2 -5 -5l-4 -6l-1 -1q-1 -11 -7 -24t-4 -21q2 0 2.5 1t2.5 1q-3 -7 -5 -10.5t-1 -10.5q-2 -2 -2 -1t-2 2 q-8 -14 -10 -25.5t-7 -25.5q2 1 2 4t2 4q4 -10 -1.5 -22t-8.5 -26q-2 1 -2 1.5t-2 0.5q-14 -15 -16 -39.5t-4 -45.5q19 10 35 26t31 34.5t30 37.5t32 36q23 34 51.5 70t52.5 71q8 6 12.5 15.5t14.5 14.5q5 15 12.5 23t12.5 22q1 1 5 0q4 14 12 21t12 18q2 1 2 -3 q2 3 2.5 5.5t3.5 6.5q5 -2 6.5 5t6.5 13q2 0 1 -1.5t4 1.5q4 7 5.5 10.5t3 5.5t4 3.5t7.5 5.5q1 2 0 4.5t3 6.5q11 18 23 38.5t32 36.5q1 11 7 17t11 13v1l2 2l-1 -1q10 16 24 34t22 39q5 -5 7.5 1t6.5 14q2 2 2.5 0.5t2.5 0.5q5 14 11.5 22.5t10.5 19.5q5 -1 6.5 3t3.5 6 q8 6 15 22t20 23q1 4 -1.5 3t0.5 4q2 2 4 4.5t6 0.5q5 15 14 27t17 21q5 17 19 30.5t22 30.5q2 -1 3.5 4.5t7.5 4.5q2 8 9 20.5t18 18.5q0 8 3 12q8 -1 11.5 10.5t8.5 20.5q5 -2 3 -4t0 -4q4 0 4 5t2 9q4 -1 5 3t3 5q-2 2 -1 7t6 9q4 1 3 -1.5t2 -2.5q0 2 2 4q-3 2 -2 4 t3.5 5t5.5 7t4 10q3 -6 5.5 -5t4.5 5.5t4.5 10.5t5.5 10q3 2 5.5 2.5t4.5 4.5q1 -5 -0.5 -6t-2.5 -5q7 2 6 7.5t5 11.5q-3 2 -2.5 -1.5t-3.5 -1.5q0 3 2.5 3.5t2.5 3.5q4 2 3.5 -1.5t1.5 -5.5q7 3 11 9.5t13 10.5q-2 -5 -3.5 -7t-2.5 -4q0 -2 0.5 -2t1.5 1t2 1.5t1 -0.5 q-4 -12 -10 -22.5t-13 -13.5q0 -4 -1 -5l-4 -4q0 -3 0.5 -3t1.5 0.5t1.5 0.5t-0.5 -4q3 2 5.5 4t4.5 5q-1 -14 -10.5 -20.5t-13.5 -21.5q5 0 5 4q3 -1 2 -3l-2 -4t-1.5 -3.5t4.5 -1.5q-8 -4 -11 -6t-8 -8q-1 5 2 6t3 6q-9 -3 -7 -12t-4 -16q0 -1 4 -1q-5 -8 -8.5 -13.5 t-9.5 -10.5q-2 1 -6.5 -2t-8 -8.5t-5 -10.5t1.5 -8q-5 -8 -9.5 -14t-10.5 -10q1 2 3 3.5t2 3.5q-5 -2 -10 -6.5t-5 -11.5q2 1 3.5 3t3.5 2q-2 -6 -5 -7.5t-5 -6.5q-1 1 -0.5 3.5t-1.5 2.5q0 -8 -4 -9.5t-2 -7.5q-6 0 -7.5 -3t-2 -6.5t-0.5 -7.5t-2 -6q-1 0 -1 3v5 q-5 -2 -6.5 -7t-4.5 -7q-1 -3 0.5 -2.5t3 2t3.5 2.5t2 0q-17 -22 -30 -41t-28 -39q-3 0 -1 3t-1 3q-16 -16 -21 -33q2 -1 1.5 1.5t1.5 4.5q1 -10 -6.5 -10.5t-11.5 -9.5q1 -5 3 -1t7 2q-10 -16 -20.5 -29t-19.5 -26q1 4 4 9t5 7q-7 -1 -10.5 -9.5t-12.5 -13.5 q3 -3 1.5 -10.5t-5.5 -5.5q2 5 1.5 4.5l-2.5 -2.5t-4 -3t-3 3q-1 -5 -3.5 -11.5t-4.5 -12.5zM370 277q3 6 7 10t5 10q-2 -3 -7.5 -8.5t-4.5 -11.5zM70 167q5 0 7.5 5.5t0.5 7.5q-1 -3 -3.5 -5.5t-4.5 -7.5zM748 876q2 3 5.5 6t1.5 7q-2 -3 -5.5 -6.5t-1.5 -6.5zM495 463 q-3 -3 -2 -8q4 -1 5 3.5t-3 4.5zM6 -42q2 2 4 6.5t0 5.5q-1 -2 -4.5 -6t0.5 -6zM357 249q5 0 5 5q-3 2 -5 -5zM-8 129q0 -3 -1 -4q0 1 0.5 1.5t0.5 2.5zM419 424l1 2q0 -1 -1 -1v-1z" glyph-name="V" horiz-adv-x="417" unicode="V"/><glyph d="M1057 765q-5 5 -9 2t-8.5 -9t-8.5 -13t-8 -11q-1 -5 1 -5t4 -1q-5 -5 -11 -10t-8 -13q3 -2 6.5 5.5t8.5 7.5q2 -5 2.5 -8t-4.5 -6q-2 1 -2 2.5t-2 1.5l-3 -9t-5.5 -11t-7.5 -7t-9 3q4 4 8 4t6 6q-8 2 -13 -6t-7 -16q-2 0 -2 2.5t-2 2.5q-4 -3 -8.5 -9.5t-6.5 -4.5 q-16 -22 -12.5 -26t18.5 16q-20 -41 -51 -75t-55 -73q-6 1 -10 -1q1 -16 -12.5 -28t-25.5 -24q0 2 1.5 3t0.5 3q-5 0 -6.5 -4t-1.5 -8q0 1 1 1.5t2 2.5q2 0 0.5 -3t-3.5 -3q1 -7 -1.5 -11t-7 -7t-9.5 -7t-8 -11q0 -5 3 -2q-2 -9 -10.5 -16t-14.5 -14q-2 2 -5 1.5t-5 -1.5 t-2 -2t4 0q-2 -4 -4.5 -8.5t-7.5 -9.5q-2 2 2 5.5t2 8.5l-14 -20q4 2 9.5 3t8.5 8q0 -4 -4.5 -9t-9.5 -4q0 -7 -0.5 -12t-3.5 -12q-2 -2 -2 -0.5t-5 0.5q-4 -12 -12.5 -14.5t-12.5 -12.5q-6 -2 -7 -3.5t-1 -3.5t-1.5 -5t-7.5 -9q1 -3 1 -6t3 -4q-20 -32 -41.5 -58t-40.5 -58 h-4q-11 -26 -36.5 -53.5t-49.5 -56.5q-9 -10 -15 -17.5t-15 -15.5q-8 -8 -14.5 -17t-16.5 -17q-16 -15 -36 -22.5t-39.5 -6t-34.5 12.5t-20 34q4 46 13 87.5t20.5 82t24.5 81t27 82.5q-36 -37 -67.5 -77t-63.5 -78q-2 -3 -2 -5t-1 -5q-14 -14 -27.5 -30t-27.5 -31 q-3 2 -0.5 4t-0.5 4q-6 -8 -13.5 -15.5t-12.5 -18.5q4 0 7 6q-32 -49 -71 -92t-74 -94q-14 -10 -27.5 -26t-27 -31.5t-28.5 -26t-33 -10.5q-33 0 -47.5 17t-3.5 62q11 37 28 79t34 77q0 -2 2 -2q3 2 4.5 9t-0.5 7q35 82 73 159t77.5 152t78.5 149.5t77 152.5 q1 -13 -5.5 -22.5t-8.5 -22.5q7 5 11 14t7.5 18t8 16t12.5 9q7 -5 16 -9t16 -10t11 -13.5t1 -18.5q-2 -11 -13.5 -25.5t-15.5 -25.5q-11 -18 -21 -41.5t-24 -41.5q-4 -4 -8 -7.5t-6 -7.5q-7 -5 -9 -13t-9 -13q-2 -5 -0.5 -5.5t0.5 -4.5q-13 -9 -21 -21.5t-14 -27t-13 -28.5 t-18 -25q0 -2 2.5 -2.5t1.5 -4.5q-4 -4 -7 -5.5t-10 -3.5q-1 -3 2.5 -3t3.5 -2q-3 -4 -4.5 -7t-5.5 -2q-3 -11 -9.5 -21l-13 -20t-12 -20.5t-6.5 -22.5q-4 -5 -9.5 -13.5t-10.5 -18t-8.5 -20t-2.5 -20.5q-22 -23 -37 -58.5t-30 -69.5q-4 1 -5 0t-2 -1q-2 -6 -1 -11.5 t-6 -3.5q-5 -26 -15 -53.5t-21 -54.5q-2 2 -2 3.5t-4 0.5q-8 -7 -9 -16t6 -12q1 -7 -2 -9.5t0 -5.5q40 36 73.5 78t69.5 83q3 3 7 3q11 25 28 42t31 40q3 0 3 -1t-1 -2.5t-2.5 -3.5t-0.5 -3q11 5 4 14q8 6 14 15t15 14q30 44 65 83t67 82q2 2 3 1t3 -1q1 8 6.5 15.5 t12.5 10.5q24 34 50 65.5t61 50.5q37 -6 43 -41q-18 -60 -41.5 -126.5t-44.5 -132.5q-1 0 -5 4q-3 -5 -0.5 -6.5t0.5 -8.5q-2 6 -3.5 3.5t-3.5 -9.5q-4 9 -4.5 -13t-7.5 -63q-2 -2 -3 -7t-2 -11t-2 -10t-2 -4q-2 -8 -1.5 -14.5t-0.5 -12.5q32 8 55.5 33t43.5 51 q18 23 31 38.5t28 32.5q33 48 68.5 91.5t65.5 91.5q3 0 4.5 4.5t6.5 2.5q2 2 0 3t1 5l81 115q2 1 5 1.5t7 4.5q0 9 8 20t14 16q14 30 32 41q2 11 12 22.5t18 19.5q10 22 26 36t27 34q2 5 4 0t7 -1q-1 2 -0.5 5.5t-3.5 2.5q17 26 35 45t36 43q3 3 6 0q0 3 2.5 8.5t6 9.5 t6.5 5t4 -4q5 3 2.5 7.5t2.5 9.5q3 0 2 -4t-3 -6q4 1 5 3t1 4.5v5t2 4.5q4 1 1.5 -4t-0.5 -6q6 3 7.5 3t5.5 -3q4 2 6 6t7 4q-1 -1 -1 -2q-1 -1 -1 -2q6 3 10.5 6.5t9.5 8.5q2 0 -3 -7.5t-10 -10.5q0 -7 -1 -11t0 -9zM202 88q2 4 4.5 5t2.5 5q-5 2 -8.5 -3.5t1.5 -6.5z M726 334q2 4 7 7t0 7q0 -5 -4.5 -7.5t-2.5 -6.5zM600 169q0 2 1 5.5t-2 3.5q-2 -4 -3 -6.5t4 -2.5zM-43 39q2 0 0 -2t-3 -4zM204 78l3 4zM608 158q0 -1 -0.5 -1t-0.5 -1q1 1 1 2z" glyph-name="W" horiz-adv-x="762" unicode="W"/><glyph d="M393 433q-7 2 -13.5 -6t-9.5 -15q3 0 2 -1.5t-3 -4t-4.5 -5.5t-2.5 -7q-2 6 -3 2t-6 -3q-1 -9 -5 -11.5t-5 -11.5q-7 1 -18 -3q-2 -5 0.5 -5.5t0.5 -4.5q-2 0 -2.5 -1.5t-2.5 0.5q-2 -10 -7 -16t-10.5 -10.5t-9.5 -9.5t-4 -14q3 0 6 5v-13.5t-5 -15.5q-6 -70 -11 -139 t-14 -140h-4q-3 -8 -1 -12.5t-2 -14.5q3 3 4.5 2t2.5 -4t1 -6.5v-3.5q-8 5 -9.5 15t-3.5 21q-4 -8 -3.5 -17.5t2.5 -17.5q-4 2 -4.5 6.5t-2.5 5.5q-5 -2 -2 -6.5t1 -8.5q-9 5 -14.5 15.5t-14.5 18.5q5 66 12 134t7 131q-11 -12 -25.5 -21t-25.5 -22q-5 7 -8 1t-8 -7 q-2 -5 -1.5 -4t2.5 1q-1 -5 -5 -7t-6 -7q-1 1 0.5 2.5t-0.5 4.5q-5 -7 -13.5 -10.5t-11.5 -11.5q3 -2 5.5 -0.5t4.5 4t4 4.5t4 -1q-14 -9 -26 -23q1 -5 2.5 -2t3.5 2q-20 -16 -36 -34t-36 -36q-2 3 1 8q-6 -1 -10 -6t-7 -9q0 -2 1 -2t1 -2q-2 -8 -11 -9q2 1 0 3 q-7 -5 -12 -9.5t-10 -10.5q-3 7 -5.5 1t-8.5 -6q-2 -18 -11 -26q-1 -3 0 -4t-1 -4h-4q-8 -5 -9.5 -6t-1.5 -0.5t-1.5 0.5t-8.5 -4q-2 -1 -2.5 -4t-5.5 -5q-2 1 -2 2.5t-3 -1.5q4 -5 -1.5 -9.5t-9.5 -9.5q-2 5 -7.5 2.5t-7.5 -6.5q4 0 6 1.5t6 1.5q-2 -2 -4 -6t4 -1 q-6 -14 -19 -23.5t-16 -20.5q-3 -2 -7 -4t-6 -9q-2 0 -1.5 3t0.5 5q-5 -2 -6.5 -6t-6.5 -7q5 -5 0 -8t-7 -8q-1 2 1 7.5t3 8.5q-5 -1 -7.5 -5.5t-5.5 -8.5q-2 -4 0 -4.5t2 -4.5q-14 -19 -28.5 -35.5t-28.5 -33.5q-2 7 -4.5 4t-6.5 -1q-2 4 0.5 5.5t3.5 6.5q-4 0 -5.5 -3 t-3.5 -5q-4 3 -6 2t-5 -2q4 4 6.5 7t4.5 9q5 -2 2.5 -3.5t-4.5 -5.5q3 -1 5 1.5t3 5.5t2.5 5.5t4.5 2.5q2 3 -2.5 2.5t-1.5 2.5q-11 -6 -17.5 -18t-12.5 -23q-3 2 -4 4.5t-3 -2.5q0 15 8 25.5t10 24.5q8 4 12.5 11.5t9.5 14.5q2 2 2.5 -1t4.5 2q4 4 0.5 3t-0.5 3q5 2 7.5 9 t7.5 3q1 5 5 9t7 11q1 5 -1.5 1.5t-4.5 -1.5q6 10 14 18.5t16 15.5q-5 -9 -11.5 -14.5t-11.5 -16.5q14 11 25 23.5t22 27.5q-2 4 -3.5 -0.5t-5.5 -2.5q13 19 19 26t8.5 8t3 0.5t2.5 5.5q5 0 7 -0.5t7 2.5q-3 3 -2 7t3.5 7t5 4t2.5 -2q3 4 3.5 9.5t6.5 8.5q0 3 -4.5 -0.5 t-6.5 -3.5q8 6 13 13.5t16 13.5q4 0 -0.5 -2t-4.5 -5q9 5 15 12.5t13 17.5q-1 2 -3 -2t-4 -2q0 7 5 10.5t10 6.5t9 6.5t2 10.5q2 2 4 2.5t4 3.5q3 -2 0 -3.5t-4 -3.5q1 1 4 3t5.5 4t4 4t-1.5 4q5 8 12.5 9t10.5 11q-4 1 -5.5 -4.5t-3.5 -2.5q2 5 6 8.5t6 -1.5q3 5 8 7.5 t7 8.5q0 4 -2.5 2.5t-2.5 -3.5q-2 1 -0.5 3t3 3.5t3 2t0.5 -1.5q4 11 14.5 20.5t17.5 16.5q-1 -5 -3 -8t-6 -7q5 2 9.5 4.5t5.5 9.5q30 24 56.5 52.5t54.5 54.5q7 10 16.5 18.5t18.5 13.5q8 88 11.5 176.5t19.5 180.5q2 -5 4 -1.5t7 6.5q5 -2 9.5 -3.5t6.5 -4.5 q6 7 10.5 -0.5t9.5 -10.5q1 -2 3 -0.5t3 0.5q1 -3 1.5 -7.5t0.5 -8t1.5 -6t6.5 -1.5q-6 -24 -3 -38q-7 -14 -8 -36.5t-6 -47.5q-3 -17 -5 -30.5t-3 -33.5q-1 -15 -0.5 -26.5t5.5 -17.5q13 8 23 18.5t22 21.5q3 -5 -2 -7.5t-7 -7.5q17 11 35 27.5t32 33.5q22 16 41 34t37 35 q3 2 4 0t4 -1q4 1 3.5 4t1.5 8q1 2 7 7t13 10.5t14 11.5t12 10q13 8 18 12.5t18 7.5q11 2 19 3t13 -13q3 -1 4.5 1t3.5 0q3 -10 13 -11q-2 -5 -0.5 -7.5t3 -4.5t2.5 -4.5t0 -6.5q-13 0 -23.5 -6t-19.5 -14t-18.5 -17t-20.5 -14q-4 -6 -8.5 -10t-6.5 -12q-3 4 -9 -2t-9 -3 q-15 -16 -29.5 -29t-31.5 -24q-1 -8 -1.5 -11t-2.5 -9q-10 -1 -14.5 -7.5t-11.5 -12.5q-3 -1 -1.5 3.5t-0.5 4.5q-2 -5 -7.5 -8.5t-4.5 -8.5q-4 -5 -7 -5t-5 -8q-2 3 -5 2t-4 4l-6.5 -6.5t-5.5 -8.5zM-97 -20q5 0 2.5 -2t-4.5 -4q9 2 15 8.5t6 13.5q-4 -3 -8 -10t-7 -1z M105 151q6 2 10.5 4.5t4.5 10.5q-4 -2 -8.5 -6.5t-6.5 -8.5zM-63 57q3 2 7.5 6t2.5 8q-3 -3 -6 -4.5t-4 -9.5zM77 126q4 1 8.5 3.5t1.5 4.5q-2 -2 -6.5 -2.5t-3.5 -5.5zM-190 -157q3 0 4 1.5t4 3.5q2 2 2 4q-3 -1 -5.5 -2.5t-4.5 -6.5zM310 443q-4 1 -4 -2.5t-1 -6.5 q4 -1 5 3t0 6zM-135 -69q6 0 8 9q-2 0 -3.5 -3t-4.5 -6zM-185 -124q-1 -2 -3 -3t-1 -4q2 -1 4 2.5t0 4.5z" glyph-name="X" horiz-adv-x="437" unicode="X"/><glyph d="M213 213q2 0 1 -3t2 -1q5 4 4 10.5t8 7.5q-1 8 2.5 15.5t8.5 13.5l10 12t7 11q10 19 15.5 28.5t8.5 14l4 6l3 4.5t5.5 9t11.5 19q-25 -26 -50.5 -51t-51.5 -37q-8 -5 -24.5 -9.5t-27.5 -2.5q-7 0 -22 3t-23 4q-24 4 -38.5 20.5t-12.5 50.5q4 28 18 56t31 55t34 51.5 t28 45.5q3 1 4 -2q6 8 9.5 18t9.5 17q1 3 4.5 4.5t5.5 3.5q4 8 11.5 15.5t11.5 13.5l-2 10q8 11 18 16.5t24 10.5q8 -5 6.5 -9t6.5 -9q4 -2 4 -2.5t-2 -8.5q1 -8 2 -12.5t-4 -13.5q-14 -16 -28 -37t-27.5 -43t-26.5 -42.5t-24 -35.5q-5 -15 -12 -28.5l-14 -27t-13 -28 t-7 -32.5q-2 -3 0 -4t5.5 -1.5t8 -1.5t7.5 -5q67 28 114 72t84.5 92.5t70 96.5t70.5 85q6 11 14.5 16t16.5 9q6 -2 4.5 -8t5.5 -8q8 -2 15 -10t6 -19q-2 -5 -10 -14t-13 -21q-7 -11 -20.5 -31.5t-28.5 -43t-28.5 -43.5t-19.5 -33h-2l-8 -18t-10 -17l-3 -6q-8 -8 -13.5 -17 t-7.5 -14q2 -5 -0.5 -4.5t-1.5 -1.5q-3 -1 -7 -5.5t-8 -10.5v-1h-1q-2 -5 -5 -9t-4 -7q-1 -5 -2 -11.5t-9 -11.5q-1 -3 -2.5 -8.5t-8.5 -10.5v-13q-9 -8 -14.5 -17t-14.5 -17v-4q3 -3 17.5 2t42.5 14t71 20t104 22q-2 -5 -2.5 -6.5t5.5 -3.5q-1 -5 -6.5 -4t-9.5 -2 q1 -2 5.5 -1.5t8.5 0.5t7 -0.5t2 -3.5q-11 -3 -19 -5.5t-15 -5.5t-14.5 -6l-17.5 -7q-3 -1 -3 5q-6 -4 -6.5 -4t1.5 0.5t3 0t-2 -5.5q-11 2 -16 -0.5t-10 -4.5q-3 0 -3 2t-4 0q-3 -2 -9.5 -2.5t-8.5 -4.5q-10 1 -13 0.5t-3.5 -2t-1.5 -3.5t-6 -4q-6 2 -13.5 -1t-15 -8 t-14 -11t-9.5 -10q-1 2 -1 3v3q-4 0 -7 -2.5t-5 -4.5t-4 -2.5t-3 1.5q-7 -1 -11 -7q-2 3 -5 2v-3h1l2 1q0 -1 -1.5 -1.5t-1.5 -1.5q-2 -3 -5.5 -4t-5.5 -1q0 1 0.5 1t-0.5 2q-5 0 -2.5 -3t-2.5 -5q-3 -2 -2 0.5t0 4.5q-3 -4 -9 -6t-8 -10q-7 -4 -12 -5t-8 -6q-1 -4 1 -1t6 2 q-8 -6 -8.5 -7.5t-5.5 -5.5l-2 -5q1 3 -0.5 3t-6.5 -8q-1 -2 0 -3t-1 -3q-1 -4 -2 -2t-3 2q-14 -32 -29 -58.5t-29 -57.5q-3 -1 -8 -1q-23 -39 -49 -73.5t-49 -71.5l-12 -3q-5 -19 -18 -31t-20 -31q-7 0 -9 -6.5t-9 -8.5q-26 -34 -52.5 -66.5t-60.5 -60.5q-9 -8 -16.5 -14.5 t-18.5 -9.5q-8 -9 -22.5 -17.5t-31.5 -14t-34 -6.5t-30 5q-10 10 -14 20t0 29q5 27 16.5 53.5t26.5 51t31 47t31 42.5q31 45 68 84t70 76q24 26 52 48t58 41.5t60.5 38t59.5 38.5q6 12 11.5 21.5t6.5 12.5zM109 76q2 -4 0 -6q-5 1 -10 -4t-7 -3q0 -1 1 -1.5t1 -2.5 q-2 -4 -7.5 -3t-6.5 -4q2 0 3 1t1 -1q-2 -5 -8.5 -9.5t-11.5 -6.5q-4 0 -6.5 -2t-5.5 -5l-6 -6t-7 -3q-1 -2 1.5 -2.5t0.5 -4.5q-1 -1 -2.5 1t-3.5 -1q0 -6 -5 -7q0 2 -5 -1t-7 -7l1 -1q0 -1 1 -2q-3 0 -6.5 -5.5t-13.5 -6.5q0 -1 -1 -3t1 -4q-4 0 -6 -2t-4 2 q-8 -15 -20.5 -25t-17.5 -23q-7 -7 -14 -12t-8 -16q-7 -3 -13.5 -10.5t-12.5 -15.5l-1 1q-6 -9 -17 -17.5t-13 -22.5q-4 0 -9 -4.5t-3 -9.5q-1 -2 -1.5 -1t-3.5 1q1 -2 2 -2.5t1 -2.5q-5 -1 -7 -4t-3.5 -6t-3.5 -6t-7 -5h1q2 0 2 -1q-2 -1 -2.5 0t-0.5 -1q-5 -8 -11.5 -16 t-9.5 -21q-11 -14 -21.5 -32t-17.5 -37q0 -2 -1.5 -6.5t-3.5 -6.5q33 12 57 32.5t47 43.5q14 15 30 30t30 33q58 69 113 143.5t111 153.5q-15 -8 -27.5 -17t-24.5 -17zM333 408q-8 -7 -15 -13t-12 -15q4 4 9.5 7.5t9.5 8.5zM283 359q6 3 13 8.5t9 10.5q-6 -6 -12.5 -8.5 t-9.5 -10.5zM-236 -321q-1 -2 -0.5 -4t0.5 -4l7 2q-2 1 -2 3.5t-5 2.5zM258 333q5 1 6 3.5t3 6.5q-2 -2 -5 -4t-4 -6zM279 218q0 -2 1 3t-1 6l-1.5 -3t1.5 -6zM313 196l3 3l-2 -3q-1 -4 -2.5 -5.5t-0.5 5.5h2zM424 460q0 -1 -0.5 -1.5t-0.5 -1.5q2 2 1 3zM309 197q1 -1 2 -1 q-2 0 -2 1zM162 111q-1 0 -1 -1z" glyph-name="Y" horiz-adv-x="395" unicode="Y"/><glyph d="M402 387q-1 -2 -5 -4.5t-6 -7.5q3 0 7 2q-5 -5 -8.5 -13t-10.5 -11q-2 -2 -1.5 0.5t-2.5 2.5q-4 -2 0 -3t3 -4q-8 -7 -10.5 -6t-10.5 -4q-1 -2 0.5 -3t0.5 -3q-5 1 -8 -1t-5.5 -4.5t-4 -3t-2.5 3.5q-4 -1 -7 -5t-5 -6q1 -2 3 2t4 4q1 -2 -6 -11t-16 -19t-17.5 -18.5 t-12.5 -9.5q2 -1 2 -3.5t-3 -4.5v3q-11 -5 -17 -14t-18 -14q2 5 6.5 7t6.5 11q-10 -4 -14.5 -10t-12.5 -8q-1 -14 -6.5 -15.5t-11.5 -6.5q-2 -1 0.5 -0.5t0.5 -0.5q2 0 3.5 0.5t-0.5 0.5q3 1 8 4.5t7 2.5q-10 -6 -14 -16t-14 -17q-2 0 -3 3q-2 -3 -6 -7t-10 -6q2 6 4.5 7.5 t3.5 3.5q-2 0 -9 -4.5t-11 -12.5q-4 5 -6 0l-4 -10q-5 0 -8 -6t-6 -9q6 2 9 7.5t8 7.5q-2 -4 0 -4t4 -2q-2 -5 -4 -6t-4 -3q-2 0 -2 1t-2 0q1 -5 -5.5 -11t-9.5 -2q-6 -23 -29 -26q1 1 3 1.5t2 5.5q-7 -7 -12 -8.5t-11 -12.5q-2 8 3.5 10.5t7.5 7.5q-11 -6 -19 -17t-16 -19 q4 2 8 2t9 2q-2 -4 -4 -10.5t-9 -6.5q0 3 1 4.5t-1 3.5q-4 -3 -7 -9.5t-11 -6.5q1 -8 -4.5 -10.5t-9.5 -8.5q1 -2 3 -1t5 -1q-7 -11 -12.5 -16t-11.5 -13q-3 1 -1.5 4t1.5 6q-5 -6 -12 -12.5t-8 -15.5q-5 -2 -6 -1.5t0 5.5q-4 0 -4 -6.5t-4 -8.5q-3 -1 -1 1t2 7 q-5 -2 -7 -9.5t-5 -14.5h1q-1 -5 1.5 -6t0.5 -6q-5 -1 -7 -9t-5 -12q22 4 45.5 11.5t47.5 16.5t49 17t50 13q12 9 32.5 18t34.5 6q2 5 7.5 7t7.5 -2q14 9 33.5 17t42.5 15q8 3 19 6t18 3q3 0 6 -1.5t8 -0.5q5 0 6.5 2.5t3.5 3.5q7 2 12 0.5t7 0.5q4 2 4 9q4 -2 5 -3.5 t8 -2.5q0 -4 -1.5 -2.5t-3.5 -1.5q5 -5 10.5 -5.5t15.5 -3.5q-4 -2 -6.5 -5t3.5 -4q-3 -6 -4 -3.5t-6 -2.5q3 -5 6 -1t6 -1q-5 -2 -5.5 -3.5t-0.5 -5.5q-14 -4 -25 -5.5t-22 0.5q-3 -8 -9 -10.5t-13 -3.5t-13 -2.5t-10 -7.5q-2 0 -2.5 1t-2.5 3q-5 -8 -14 -9.5t-20 -5.5 q-2 -8 -12.5 -12.5t-13.5 1.5q-11 -9 -24 -14.5t-27 -10t-27 -9.5t-24 -14q-7 2 -14.5 0t-13.5 0q-2 -1 -1.5 -1.5t0.5 -2.5q-5 1 -7 -1.5t-4 -4.5q-5 5 -10.5 -1.5t-10.5 -8.5q-3 -1 -5.5 -0.5t-4.5 -1.5q-6 -5 -10 -8t-12 -2q-3 0 -4 0.5t-6 -1.5q0 -2 2 -2.5t4 -0.5 q-5 -5 -10.5 -3t-9.5 -3q-4 1 -5.5 3t-6.5 0q-5 -1 -12 -8.5t-14 -10.5q-4 0 -4.5 2t-2.5 3q-5 0 -10.5 -2.5l-11 -5t-9.5 -3.5t-7 3q-11 -1 -22 -0.5t-18 7.5q-8 5 -10.5 15.5t-4.5 21.5q-3 11 -6 19.5t0 18.5q0 12 7.5 21t15.5 19q0 4 -2 1t-4 -2q2 7 6.5 9.5t8.5 6.5 q7 11 13.5 20t16.5 14q24 38 53.5 69t58.5 64q2 -2 0 -7q9 4 10 7q-1 2 -1.5 2.5t-0.5 2.5q19 29 44 48t45 45q3 1 4 -1.5t0 -5.5q2 0 2.5 1.5t2.5 1.5q1 2 6 9t11.5 15t12 15t7.5 9q11 12 24 23t24 24q3 0 4 -1.5t3 -1.5q1 0 0.5 2.5t-0.5 4.5q4 -2 6.5 -1t4.5 6 q12 4 21 14.5t20 19.5q-1 2 -3.5 1t-3.5 -3q-1 5 5 9t10 7q-2 -6 0 -7q2 2 2 6t1 7q5 6 12 9.5t12 12.5q26 19 50.5 43.5t50.5 46.5q2 -2 1.5 -4.5t1.5 -1.5q11 18 28.5 32.5t36 28t35.5 27.5t27 33q-22 2 -44.5 -0.5t-43.5 -6.5q0 2 -3 5q-5 -6 -11 -8t-13 -3q0 7 -11 4.5 t-12 -11.5q-5 1 -11 -3.5t-8 2.5l-6 -3t-3 -6q-63 -17 -121.5 -43t-112.5 -58q-11 -8 -16.5 -5.5t-7 12t0.5 25t5 33.5q41 26 83.5 47t87.5 38q3 -2 5 -1t6 1q4 3 12 6.5t16.5 6.5t16 4.5t11.5 -0.5q5 1 7.5 5t1.5 -3q4 7 11 9t14.5 3.5t14.5 3.5t10 8q4 2 3 -1t1 -1 q4 0 7 5q11 -1 26.5 -1t30.5 5q0 4 -4 4q4 2 10.5 2.5t13.5 0.5q1 -2 -0.5 -2.5t-1.5 -3.5q0 -1 4.5 0t2.5 6q21 0 37.5 -10.5t25 -28.5t8 -41.5t-12.5 -48.5q-6 -6 -11.5 -10.5t-8.5 -11.5q-2 0 -2.5 1t-2.5 1q-4 -4 -4 -8q-17 -11 -30 -27.5t-31 -26.5q2 -7 -4 -11.5 t-13 -4.5q-1 -2 -2.5 -3t-1.5 -4q-6 0 -6 5q-5 0 -7 -3t-4 -8q1 -4 4.5 0t3.5 0q-17 -20 -37 -34q2 2 2 8q-5 1 -4.5 -3.5t0.5 -6.5q-6 -8 -14.5 -14t-13.5 -17q-7 2 -9.5 -3.5t-9.5 -7.5q-4 -1 -2 -3t1 -4q-5 0 -9 -4.5t-8 -8.5q-7 0 -10 -2q5 5 1 7zM-36 -71q-4 0 -5 -3 t-4 -5q4 1 5 -0.5t4 -1.5l5 5t3 7q-2 1 -3 -1t-2.5 -3.5t-2 -1.5t-0.5 4zM505 479q-5 -5 -8.5 -7t-5.5 -7q3 -1 5 0.5t5 0.5q-2 5 1.5 6.5t2.5 6.5zM402 54q-4 -3 -8.5 -3.5t-8.5 -2.5q4 -4 5.5 -1.5t3.5 3.5v-4q2 2 4 2t4 1q0 1 -0.5 1.5t0.5 3.5zM27 87q3 5 7 7.5t6 7.5 q-3 0 -3.5 -2t-4.5 -1q1 -5 -3 -7t-2 -5zM355 5q8 0 8 5q-1 2 -4.5 1t-3.5 -6zM381 367q2 -2 5.5 0t3.5 6q-3 -2 -6 -1.5t-3 -4.5zM135 167q3 2 6.5 5t5.5 6q-7 0 -12 -11zM449 428q1 -2 4 0.5t3 5.5q-6 1 -7 -6zM248 -41q0 3 -3.5 0.5t-4.5 -5.5q2 1 5 0.5t3 4.5zM351 338 q4 4 7 4t3 7q-2 -2 -6 -4.5t-4 -6.5zM412 21q4 0 5 -1t6 6q-8 -2 -11 -5zM5 -8q2 4 4.5 4.5t4.5 5.5q-3 -1 -7 -5t-2 -5zM424 23q2 0 6.5 0.5t2.5 2.5q0 -2 -5 0t-4 -3zM401 380l-3 -3zM476 445l2 1q-1 0 -1 -0.5t-1 -0.5zM-19 -47l1 1z" glyph-name="Z" horiz-adv-x="531" unicode="Z"/><glyph d="M533 215q-15 -12 -22 -18.5t-12.5 -11t-13 -9.5l-22.5 -15q-4 -3 -12.5 -10t-18.5 -15t-19.5 -14.5t-15.5 -8.5q0 -2 -4 -7.5t-3 -0.5q-34 -23 -59 -41t-62 -32q-2 -2 -10 -3.5t-10 -3.5q-29 -6 -45 5.5t-21 32t1 46t23 49.5q-9 -2 -19 -6q-14 -15 -34.5 -29.5 t-41.5 -30.5q-20 -13 -41 -28.5t-40 -23.5q-4 -1 -11.5 -2.5t-10.5 -1.5q-5 0 -12 5t-13.5 11.5t-10.5 13.5t-3 13q1 15 14.5 33t21.5 31q29 36 58.5 67.5t64.5 61.5q19 16 38 32.5t42 27.5q5 -2 7.5 -1.5t8.5 -0.5q12 -14 17.5 -31t10.5 -34q8 5 12 12.5t12 8.5q5 0 9 -6.5 t7 -15t5.5 -16.5t4.5 -12q-9 -11 -21.5 -32.5t-24 -45t-20.5 -44.5t-11 -32q3 -8 19.5 -4.5t39 13t47.5 24t45 28.5q35 23 75.5 52.5t82.5 58.5q1 -1 -0.5 -4.5t0.5 -5.5q3 -3 2.5 -6t-2 -6.5t-3 -8t0.5 -8.5zM30 100q49 27 96 64t91 69q0 1 1 2t1 3q-10 7 -3 35 q-5 -3 -3.5 -1.5t0.5 3.5l-78 -56q-8 -14 -16.5 -22t-19.5 -19l-2 1q-6 -5 -9.5 -14t-12.5 -15q-2 1 -0.5 2.5t-0.5 3.5q-6 -19 -19.5 -30.5t-24.5 -25.5zM157 129q1 2 3.5 3t0.5 4q-1 -1 -4.5 -3.5t-3.5 -4.5q0 1 4 1zM176 147q2 -2 4.5 0t5.5 4q-3 -1 -5.5 -2t-4.5 -2z " glyph-name="a" horiz-adv-x="419" unicode="a"/><glyph d="M340 130l-57 -26q-5 -9 -13 -12.5t-14 -8.5q5 -1 9 1.5t10 1.5q-27 -8 -48 -23.5t-43 -30.5q-22 -16 -45 -30t-50 -25q-3 1 -4.5 2t-6.5 -2v-8t-5 -8q-11 -5 -18 -2.5t-14 7.5q-2 7 -7 11.5t-8.5 10t-4.5 12t6 17.5q3 2 7 5.5t6 7.5q11 8 25.5 17.5t28.5 17.5t30 15 t27 18q21 7 41.5 15t39.5 20q0 -1 -3 1q5 4 10 12t13 6q13 16 25 34.5t17 43.5q-5 4 -10.5 2.5t-11.5 -4.5t-12.5 -5.5t-12.5 -1.5q-10 -6 -20.5 -12.5t-23.5 -7.5q-8 -5 -15.5 -8t-12.5 -13q-25 -13 -47 -31t-46 -32q-14 -15 -27.5 -30.5t-27.5 -32.5q-3 1 -6 2.5t-4 6.5 q-2 2 -4 -0.5t-6 -1.5q-2 5 -9 9t-8 12q-3 24 4.5 52t20.5 56q4 5 7 8.5t5 8.5q5 11 10.5 24t12.5 24q8 11 13.5 23t13.5 23q2 6 6.5 11t5.5 12q8 18 19.5 34t19.5 31q2 2 2.5 1.5t2.5 -1.5q11 26 29 47t29 44q3 6 3.5 10.5t4.5 9.5q5 3 7 5t4 7q13 20 28.5 41.5t28.5 44.5 q8 8 14 18t16 12q9 -6 12 -15t7 -17q-4 -17 -12.5 -30.5t-19.5 -29.5q-29 -45 -56.5 -90t-54.5 -92l-2 -2t-4 -1q-5 -17 -14.5 -26.5t-10.5 -23.5q-22 -27 -39 -63t-35 -66q14 8 27.5 20.5t31.5 16.5q15 10 34 22.5t39.5 23.5t41.5 18.5t40 7.5q11 0 18.5 -3.5t15.5 -8.5 q4 -13 14 -27t12 -31q0 -10 -3 -19t-8 -17l31 6q-8 -4 -4.5 -5.5t5.5 6.5q6 -2 16.5 1t12.5 9q7 0 12.5 2.5t11 6t10 6t9.5 2.5q10 0 16.5 5t13.5 6q2 0 13.5 6t16.5 7q3 1 4.5 1t5.5 3q-1 10 4 10t10 5q0 -2 -0.5 -4t3.5 3q2 1 8.5 3.5t14 4.5t13.5 4t8 2l5 -12 q-55 -34 -110.5 -65t-120.5 -57v-1zM232 134q4 1 8 5.5t3 6.5zM89 312q2 3 4.5 7t0.5 7q-1 -3 -3.5 -7.5t-1.5 -6.5z" glyph-name="b" horiz-adv-x="458" unicode="b"/><glyph d="M292 71q-10 -3 -20.5 -8.5t-21.5 -12.5t-22.5 -13t-21.5 -10q-2 -1 -5 -0.5t-6 0.5q-5 -2 -10 -6.5t-9 -6.5q-2 -2 -5 -1.5t-8 -1.5q-24 -9 -52.5 -20t-54.5 -4q-10 1 -20.5 7t-19.5 15t-14 20.5t-4 23.5t2 20.5t2.5 15.5t4 14.5t7.5 17.5q-2 0 0.5 4t5 8.5t4 7.5t-1.5 2 q5 9 8 15l5.5 11t6 10.5t9.5 13.5q29 36 60.5 67.5t62.5 61.5q2 1 2 6l21 11q14 2 21.5 -12.5t14.5 -30.5q2 -5 4.5 -9t1.5 -10q0 -13 -8.5 -29t-10.5 -31q-6 -14 -11.5 -28.5t-16.5 -20.5q-8 -2 -11 4t-13 3q-2 7 -5 11t-5.5 8.5t-3 10.5t3.5 17q-24 -15 -37 -27.5 t-30 -35.5q-2 -3 -4.5 -10.5t-4.5 -10.5q-12 -11 -16.5 -26t-10.5 -37q-8 -23 -2.5 -30.5t27.5 -8.5q6 -1 12 -0.5t13 1.5q35 7 65.5 21.5t67.5 31.5q14 8 30 17t30 18q17 8 34.5 18.5t25.5 18.5q1 2 12.5 9.5t25 16.5t25 17t13.5 11q4 0 11.5 0.5t14 -0.5t10 -4.5 t0.5 -11.5q-2 -6 -16 -17t-31 -23t-33 -22.5t-21 -13.5q-18 -14 -37.5 -28t-39.5 -25z" glyph-name="c" horiz-adv-x="387" unicode="c"/><glyph d="M378 271v-1q-2 -5 -4 -6q-2 4 -6.5 -2.5t-6.5 -8.5q5 0 6 3.5t3 4.5q-2 -12 -12.5 -22.5t-18.5 -22.5q-1 1 -1 5q-2 -1 -4 -1.5t-4 -5.5q3 -1 3 1.5t2 0.5q-1 -4 0 -4.5t2 2.5q0 -11 -8 -20.5t-16 -11.5q-1 -3 -1.5 -6.5t-4.5 -6.5q3 -1 1.5 -4t2.5 -3q-3 -6 -5.5 -12 t-5.5 -8q0 2 1 3.5t2 4.5q-2 0 -3.5 -2.5t-2.5 0.5l-3 -6q-2 -5 1.5 -5.5t-0.5 -6.5v2q0 1 -0.5 1.5t-0.5 1.5q-3 -8 -7 -15t-7 -12q5 2 7 6t4 9q0 -8 -3.5 -14.5t-5.5 -11.5v3q-4 0 -4.5 -5t-2.5 -9q-5 1 -5.5 -2.5t-1.5 -5.5q0 -2 0.5 -5t2.5 2q2 -2 -1 -6t-1 -7 q-2 1 -2.5 4t0.5 6q-5 -3 -5 -9.5t-3 -9.5q2 -2 4.5 0.5t2.5 7.5q5 -3 0.5 -8t-4.5 -10q-2 0 -1.5 3.5t2.5 5.5q-6 -5 -8 -13t-1 -12q1 0 1 5q4 -5 4 -10.5t-1.5 -12.5t-3 -13.5t-1.5 -12.5q0 -5 1.5 -8.5t3.5 -6.5l4 -6t2 -7q-11 -3 -18.5 2t-12.5 14q-3 1 -3 -2 q-17 17 -18 43.5t6.5 56.5t20.5 60t24 54q-11 -9 -22.5 -21t-22.5 -23q-2 -1 -2 0t-2 1q-8 -5 -13 -14.5t-15 -12.5q-2 -6 -6.5 -10t-6.5 -3q-6 -5 -10 -8.5t-10 -3.5q-5 -6 -11.5 -10.5t-11.5 -14.5q-2 0 -2 2q-17 -16 -37 -27t-37 -23q-15 -5 -29 -2t-25.5 10.5 t-20.5 17.5t-15 19q1 5 -0.5 8.5t-0.5 8.5q5 1 2.5 -3t1.5 -3q1 2 2 6.5t1.5 9t2.5 7.5t5 3q3 14 9 19.5t14 12.5q-2 5 -4 0.5t-3 -2.5q1 7 7 12t11 11q2 -2 -3 -5t-5 -5q2 -2 6 3t6 7q1 4 6.5 11t11.5 14t11 12.5t7 6.5q4 -2 5 4t5 10q3 2 4.5 4t5.5 2q17 18 35.5 36 t40.5 35h1q1 3 3.5 4t3.5 5q1 -5 4.5 -4t3.5 5q-2 3 -2.5 0t-2.5 -1q8 7 18 16t21.5 16t24 11.5t24.5 4.5q10 0 18.5 -6.5t14.5 -16t10 -20.5t6 -20l11 3q1 8 -0.5 8t-2.5 2q4 3 9.5 6t9.5 8q0 2 -0.5 0.5t-1.5 0.5q14 24 32 42t29 45q-2 2 2 1.5t7 4.5q8 15 16 31t17 32h3 q14 23 25.5 44.5t25.5 45.5q2 0 5 1.5l5 2.5q3 19 11.5 29t16.5 25q7 3 13 16.5t15 21.5q8 0 8 -2.5v-7.5q2 1 5 5q1 -1 3 -2.5t3 -5.5q6 2 8.5 -0.5t4.5 -6t3.5 -8t4.5 -7.5q-2 -14 -7 -20.5t-7 -20.5q-65 -92 -130 -198q-3 -1 -5.5 -2t-5.5 -6q1 -2 3 -2t1 -5 q-2 -1 -8.5 -7.5t-7.5 -12.5q-5 0 -6 2q-3 -8 -5.5 -20.5t-5.5 -18.5q-1 5 -3 4t-4 -4t-4 -7t-3 -5q-1 0 -1 3q-4 2 -3.5 -2.5t-1.5 -6.5q4 -3 2.5 1.5t2.5 2.5q-4 -13 -6 -16q0 -1 -0.5 -1.5t-0.5 -1.5v1zM260 248q1 2 3.5 6.5l5 9t3.5 8t1 2.5l-8 25q-4 2 -12 0t-11 -7 q-68 -40 -121.5 -97.5t-97.5 -132.5q17 5 31.5 16.5t33.5 19.5q7 9 16 16t18 13.5t17 14t14 18.5q24 13 40 34v-4q12 15 27.5 27t26.5 25q3 0 6.5 3t6.5 3zM-22 89l3 -1q2 3 3 7.5t2 8.5q-5 0 -5 -5.5t-5 -9.5h2zM389 315q2 -5 0.5 -8t0.5 -5q3 4 3.5 8t1.5 6q-2 0 -3 -0.5 t-3 -0.5zM346 233q2 2 7 6t5 6q-5 -2 -8 -3.5t-4 -8.5zM381 274l-3 -3q1 0 1 2q1 0 2 1z" glyph-name="d" horiz-adv-x="387" unicode="d"/><glyph d="M429 235q-2 -5 3.5 -10t3.5 -7q3 -4 -1.5 -8.5t-10.5 -9t-11.5 -9t-4.5 -9.5q-6 -3 -21.5 -14.5t-33 -24t-33.5 -24.5t-24 -17q-7 2 -10 1t-9 -8q-6 3 -13 -2.5t-12 -9.5v-1q-8 -9 -24 -17t-30 -16q-9 -2 -18 -5.5t-18 -7.5q-13 -6 -25.5 -11.5t-26.5 -10.5l-17 -2 q-11 -2 -22 -4.5t-25 -0.5q-7 1 -16.5 4t-19.5 7t-18.5 8.5t-13.5 9.5q-2 4 -8 7q-8 13 -7 25t7 29q4 12 12 27q1 -1 4.5 7t8.5 19t11 21.5t11 14.5q8 12 13 15.5t10 15.5q1 -2 3.5 1t5 6.5t5 6t2.5 -0.5q42 48 97 80l20 10q4 2 3.5 3.5t4.5 3.5q3 2 4.5 0t4.5 0l16 8 q3 2 6.5 1.5t6.5 0.5q2 -2 6 -4t4.5 -4t2.5 -8l9 -12q5 -7 10 -15t3 -18q-1 -4 -5 -12q-1 -2 -1 -4t-1 -4l-8 -14t-9 -13q-2 -3 -4.5 -5.5t-4.5 -5.5q-5 -6 -15 -16.5t-16 -16.5q-4 -7 -6 -9.5t-3.5 -3t-3 -0.5t-3.5 -1q-5 -2 -8 -5t-3.5 -4.5t-3.5 -4.5q-7 -6 -18 -13.5 t-17 -13.5q-3 0 -4 -2t-3 -3t-3 -2t-3 -2t-4 -1.5t-4 -2.5l-12 -6q-4 -2 -10 -4t-10 -2q-5 -1 -4 2t-2 5q-2 2 -5.5 0t-5.5 0l-3.5 3.5t-4.5 3.5q-2 1 -3 2t-3 1q-13 -13 -20.5 -34.5t-3.5 -38.5q41 -3 73 8q35 11 67.5 26t67.5 32q16 9 37 21t42.5 24.5t41 24.5t33.5 20 q6 4 14.5 10t15.5 9q7 4 10.5 7.5t10.5 3.5zM84 184q1 -2 -3 -6.5t-9 -9.5t-9 -10t-2 -7q8 1 14 1t12 5q7 4 9.5 6t4.5 3t4 3t8 6q9 7 17 14t15 12q6 5 11 9l10 8q6 5 9 9t7 8q10 10 14 21t-2 18q-3 -1 -7.5 -4.5t-7.5 -5.5q-2 -1 -3.5 -2t-3.5 -2t-2.5 -1.5t-2.5 -1.5 l-9 -5l2 1t2 0.5t-8 -6.5q-5 -3 -9.5 -7t-9.5 -8q-2 -2 -3 -2.5t-3 -2.5t-4.5 -4t-4.5 -4q-9 -8 -19 -17t-17 -18z" glyph-name="e" horiz-adv-x="343" unicode="e"/><glyph d="M415 192q-3 -8 -10 -11t-9 -11q1 -4 3 -1.5t5 1.5q-2 -8 -6 -11t-4 -10q-12 -12 -30 -27.5t-37 -29t-36.5 -23t-28.5 -9.5q-2 0 -2.5 -2.5t-3.5 -3.5q-2 -1 -3 1t-3 0q-40 -16 -70 -19t-66 11q2 -14 -0.5 -32t-6.5 -36.5t-9.5 -37t-9.5 -33.5q-2 -2 -2.5 -5.5t-2.5 -3.5 q0 -3 -1.5 -5t-2.5 -6q0 -5 -3 -5q0 -9 -5.5 -18.5t-11.5 -19.5t-11 -20t-6 -19q-1 -4 -3.5 -5t-5.5 -5q0 -3 1.5 -1t2.5 1q0 -6 -6 -6q-3 -13 -13 -16q-4 -17 -11 -25.5t-13 -22.5q-13 -13 -26.5 -30.5t-28 -36t-29.5 -34.5t-31 -26q-12 -9 -30 -11t-34.5 3t-28.5 16.5 t-11 29.5q0 5 1 6q0 1 1 2q-2 14 1 30t7 33q0 5 3 10t5 7q0 4 -0.5 7t-0.5 5q5 12 9 23t9 19q2 11 2 14t4 11q1 7 8 19.5t15.5 26t15 25.5t6.5 17q5 13 13.5 28.5t18 32t18.5 32t15 28.5l8 9q0 8 6 12q2 2 6 4.5t1 9.5q3 2 3 1t2 -2q2 1 0 4t1 8q12 19 24.5 45t26.5 44 q2 -1 -2 -6q5 0 6.5 3l2.5 5q-5 1 -1 4t1 5q3 3 2 5h2q2 5 6.5 14t10 18.5t10.5 19t8 15.5q11 8 17.5 20t13.5 23q5 6 9 11t7 13q13 18 34 46.5t44.5 59t45 59.5t34.5 48q6 7 15.5 18t19.5 21q23 26 48 56.5t55 47.5q5 3 14 5.5t18.5 3.5t18 0t13.5 -5q3 -8 7.5 -14.5 t8.5 -13t6 -15t-2 -19.5q-5 -15 -12.5 -28t-12.5 -30q-14 -16 -25 -34.5t-27 -29.5q-1 -3 -11 -17t-22.5 -29.5t-23.5 -28t-13 -13.5q-2 -10 -7.5 -13t-7.5 -11q-6 -7 -12 -12t-8 -13q-23 -16 -45 -34t-43 -37q-1 -3 -10.5 -9t-9.5 -9q-6 -3 -9 -4t-6 -2.5l-7 -3.5t-11 -8 q-7 -5 -15.5 -12t-17.5 -7q-3 1 -7 -5.5t-4 -4.5q-2 1 -3.5 0t-3.5 -1q-3 1 -4.5 -1.5t-2.5 -5.5t-2 -5.5t-3 -0.5q-1 -2 -4.5 -8.5t-7.5 -14t-8 -14.5t-5 -8q11 -11 15 -25t16 -20q4 -4 14 -6.5t18 -3.5q6 -4 8 -7.5t13 -1.5q23 3 44.5 3.5t45.5 9.5q7 3 18.5 9t24 12.5 t24.5 14t20 13.5q3 1 9 7.5t12.5 13t13 11.5t9.5 5q8 3 14 8.5t11 6.5v-8q7 0 10.5 4t8.5 4zM-160 -354q9 -3 14 0t9.5 9t9 13.5t11.5 12.5q16 19 28 35t23 33t24 37.5t30 49.5l4.5 7.5t9.5 17t10 17.5t6 9q5 18 10.5 26.5t10.5 24.5q7 23 16 42.5t11 30.5q0 8 1 15t0 14 q1 15 0 24.5t-3 16t-6.5 11.5t-11.5 13q-5 -8 -5 -7.5t-6 -4.5q1 3 -0.5 2.5t-1.5 2.5q2 5 6.5 9t2.5 8q-6 -6 -9.5 -12t-8.5 -11q2 -2 -0.5 -6t-4.5 -9q2 -2 3 2.5t4 4.5q0 -2 1 -2.5t2 -2.5q-5 -1 -4 -6t-1 -7t-4 -3t-5 -6q-6 -14 -14 -30.5t-16 -31.5t-15.5 -28.5 t-11.5 -21.5q-2 0 -2 1t-1 2q0 -4 -1 -5t-1 -4q-2 0 -2 1.5t-1 2.5l-2.5 -5t-0.5 -4q-1 -6 -8 -19t-15 -27.5t-15 -28t-8 -21.5q-3 -2 -4.5 -7t-2.5 -7h-3q-10 -17 -12 -27t-11 -28q-1 2 0 4.5t-1 0.5q-2 -8 -6 -15.5t-6 -16.5q3 -2 3.5 2.5t3.5 4.5q-2 -8 -3.5 -13t-6.5 -6 q0 2 2.5 5t-1.5 5q-3 -5 -4 -14t-5 -17q1 5 -1.5 1t-4.5 -9q-3 -8 -1.5 -16t3.5 -7q-2 -1 0 -5q-1 -2 -2 -2.5t0 -2.5q1 -3 1.5 -9t-0.5 -13zM383 580q4 2 3 2q-2 -8 -5 -5.5t-7 0.5q-3 -5 -6 -9t-8 -8q-1 -5 1 -3t2 0q0 -6 -4 -6q-2 0 -1.5 1.5t-1.5 1.5q-1 -6 -7.5 -10 t-8.5 -12v-4.5t-3 -4.5q-1 -3 -4.5 -8t-8 -9t-8 -6t-4.5 1q-9 -12 -26.5 -34t-36.5 -47t-37 -47t-28 -34q3 3 0 5q-11 -14 -17.5 -30.5t-22.5 -26.5q1 -5 -2.5 -8.5t-6.5 -4.5q2 -6 -2.5 -9t-2.5 -8q32 28 72 69t80.5 87t77.5 93.5t63 87.5q2 8 6 13.5t6 15.5 q-14 -5 -29 -18t-23 -25zM-128 -203q3 6 4 8.5t1.5 4t0.5 4t1 8.5l-4 -8t-1 -3.5t-0.5 -4.5zM-53 -321q2 0 6 2q0 2 1.5 5t-0.5 3q-2 -5 -4 -6t-3 -4zM-141 -242q2 3 2.5 4t0.5 6q-2 0 -3.5 -4t0.5 -6zM131 277q1 2 3.5 4t0.5 5q-2 -1 -4 -4t0 -5zM-31 -15q4 0 5.5 4.5 t1.5 6.5q-1 -2 -3 -5zM112 252q1 2 2 3t3 6q-2 0 -4.5 -4t-0.5 -5zM-163 -288q1 -5 -2 -8t-1 -5q1 2 3 8.5t0 4.5z" glyph-name="f" horiz-adv-x="342" unicode="f"/><glyph d="M2 -125q-1 -2 -1 -5h1l-4 -5q0 2 0.5 5.5t-0.5 3.5q-3 -2 -5.5 -8t1.5 -9q-5 -2 -7 -6.5t-9 -4.5q-1 5 2.5 4.5t2.5 4.5q-5 -2 -6.5 -6t-3.5 -7q-2 -5 0.5 -1t3.5 1q-6 -6 -13.5 -15.5t-15.5 -18.5t-14 -15t-9 -5q-5 -5 -9 -9.5t-8 -9.5q-2 -5 1 -6t-2 -4q0 2 -1.5 3 t-7.5 1q-3 -11 -10 -19t-18 -9q-2 -5 -2 -9q-4 0 -5.5 -2t-3.5 -4q-4 -20 -15 -31t-19 -22q0 -7 -4.5 -10.5t-0.5 -7.5q-5 -5 -11.5 -8t-10.5 -11q2 0 4 2t1 -2q-24 -27 -41 -62t-36 -72q28 8 52 25t44 35q49 48 94 107t83 119q2 10 7 13.5t7 14.5q14 12 22 28.5t18 34.5 q18 28 39.5 60t32.5 64q-3 -7 -9.5 -10t-10.5 -9q2 -1 4.5 2.5t4.5 -1.5q-3 -1 -7.5 -5.5t-8 -8.5t-7 -6t-5.5 3q-2 -4 -0.5 -5.5t-2.5 -6.5q-5 4 -11 -1t-8 -10h4t2 -1l-7 -7t-5 1q-7 -4 -7 -5.5t-1 -8.5q-2 0 -2 4t-3 -1q-4 -3 -2.5 -4.5t5.5 -1.5q-13 -8 -22.5 -19 t-19.5 -22q-2 2 -4 1zM480 200q1 1 3.5 4.5t6.5 3.5q-4 -5 -6 -6.5t-4 -1.5zM99 73q2 -2 0 -5.5t-6 -3.5q2 5 4 6t2 3zM9 -127q0 3 5 6.5t5 5.5q4 -2 -1.5 -4t-8.5 -8zM2 -130q3 -2 4.5 0t-0.5 4zM119 -102q-1 0 -1 -2zM-294 -480q0 2 0.5 3t0.5 3q3 19 10 34q3 7 6 13t6 13 q7 13 12 29v2q3 2 4.5 5t3.5 5q2 4 4.5 7.5t4.5 6.5q1 2 5 6q1 2 1 3.5t1 3.5q4 13 15 22q3 3 6.5 6t6.5 7q7 7 10 16q1 1 1 1.5t1 1.5q17 23 34 45t35 44l22 26l22 26q1 1 1.5 2t1.5 2q4 5 8.5 10.5t9.5 10.5l11 11t11 12q2 2 4 5.5t4 5.5q2 3 6 7q12 14 25 26t26 25 q17 15 34 30.5t35 29.5q10 8 20.5 16t21.5 16q2 1 2.5 2t2.5 2l5 5q7 9 15 14l9 6q1 0 1.5 0.5t1.5 0.5q9 13 24 19l3 3q6 16 14 34q2 5 6.5 11.5t6.5 11.5l2 4q3 5 0.5 7t1.5 10q0 -1 -2 -1h-1l-11.5 -11.5t-10.5 -11.5q-3 -4 -6.5 -7.5t-6.5 -7.5q-4 -1 -5 0h-2l-3.5 -3.5 t-3.5 -4.5q-2 -2 -3 -4t-3 -4q-5 -6 -10 -9l-2 -2q-2 -5 -6 -8l1.5 1.5t3.5 3t3.5 3t0.5 1.5l-8 -6q-8 -6 -10 -6q-3 -3 -5 -7q-4 -3 -9 -4h-2q-2 -2 -4.5 -5t-5.5 -5q-2 -2 -5 -4.5t-5 -6.5l-1 -1q0 1 -2 1q-9 -8 -19 -15t-21 -14q-7 -4 -13 -8t-13 -8q-4 -2 -8 -2 q-17 -3 -40 7q-9 6 -19.5 12.5t-16.5 14.5q-1 4 -3 6q-3 5 -2 7q0 2 -0.5 3.5t-0.5 3.5v4q2 0 2 -2v-2v-1q1 0 1 1q1 0 1 2q1 2 1 4.5t1 6.5q0 1 0.5 2t0.5 3q1 6 6 6q0 1 0.5 1t0.5 1q3 12 13 19q1 1 5.5 2t6.5 3q1 0 1 1q1 0 1 1t-1 1q-1 1 -1 0q-1 0 -4.5 -1t-4.5 -1 l-2 -2q0 3 0.5 4l1.5 3q2 4 6 8l7 7q1 0 1 1q1 -1 -1 -3l-4 -4q-1 -1 -1 -2l2 1q6 4 10 10q2 4 5 7.5t5 7.5q5 7 9.5 11.5l9.5 9.5q2 2 3 2q2 0 2 2q2 2 2 3q1 6 8 11q1 0 1.5 0.5t1.5 0.5q2 0 4 2q23 27 50 51q5 4 8.5 7t8.5 5q4 4 7 6q1 1 1 2q1 -1 1.5 -1t1.5 -1h1 q1 0 1 1q3 1 1 3q-1 0 -1 -1t-2 0l1 1q19 22 46 36q6 2 13 4t13 3l1 1h10q2 -1 2.5 -1t2.5 -1q5 -2 13.5 -5t11.5 -8q8 -9 12 -19.5t6 -21.5v-2q2 1 5 1.5t5 1.5q0 2 2 2.5t2 2.5q0 1 -2 3q2 2 1 2.5t1 1.5q1 1 5 1q2 2 5 5.5t5 6.5q2 2 5 0.5t5 1.5q0 1 2 1q5 0 5.5 2 t-0.5 -2q0 -2 1 -3q1 2 2.5 2.5t2.5 2.5q2 -2 5 -4t4 -5q1 0 1 0.5t2 0.5q6 0 8 -6q2 -4 3 -7h7q-1 -3 -1 -7h1q0 4 2 4v-3q-2 -4 -3 -8t-3 -9q-2 -2 -2 -3q-3 3 -4 0q-2 -2 -4 -4.5t-4 -5.5q4 1 5 3l2 5q0 -5 -2 -9t-5 -7l-6 -6q-3 -5 -7 -10t-9 -10q0 -1 -1 -1q0 1 -0.5 3 t-0.5 3q-4 -1 -6 -8q2 0 2 1t1 1q2 -1 1 -2t0 -2q1 1 2 1q-2 -17 -15 -21q-2 0 -2 -1q0 -5 -4 -9q0 -2 -2.5 -5.5t-2.5 -4.5v-2l1 -1q0 -2 -1 -3q2 0 3 -1q-13 -18 -21 -34q4 2 6 2q5 2 8 5t8 6t10.5 6.5t10.5 5.5q7 4 12 7.5t13 4.5q2 0 3 1q6 4 12 6t12 5q11 6 22.5 11 t22.5 10q35 14 69.5 27t69.5 25l9 3q1 -4 6 -4h3q2 1 4 1t4 1q1 0 2 1v-2q-1 -2 -4 -5l-3 -3q-2 -1 0 -3q1 0 1.5 -0.5t1.5 -0.5l-3 -3q-4 -4 -5 -7q0 -2 -2 -2q-1 -1 -1.5 -1t-1.5 -1q1 0 2 -0.5t3 -0.5q-4 -5 -19 -8q1 2 1.5 2.5t1.5 2.5h-2q-11 -5 -22 -10.5t-22 -11.5 q-10 -5 -19 -10t-19 -10l-9 -6l-2 -1q-14 -7 -28.5 -13.5t-28.5 -14.5q-9 -5 -16 -10t-15 -8l-16 -6q-9 -2 -18 -6q-4 -2 -6 -4l-9 -6q-3 -2 -6.5 -2.5t-6.5 -2.5q-1 -1 -1.5 -1t-1.5 -2t-2.5 -3t-3.5 -3q-4 -2 -6 -2q-6 -2 -10 -4q-3 -3 -5 -4t-2.5 -1.5t-2.5 -1.5 q-2 0 -2 -2q-3 -5 -6 -7t-7 -6q-11 -2 -19 -13.5t-18 -19.5h-2q-1 -1 -2 -1t-2 -1q-2 -2 -6 -2q0 2 4 2q0 1 -1 1q-7 0 -8 -6q-1 -2 -1 -7l2 1q3 0 2 -2v-3q-3 -3 -1 -6q0 -4 -1 -6q-5 -7 -9 -13t-9 -12q-2 -2 -3.5 -4t-3.5 -4q0 -1 -0.5 -1t-0.5 -1q-3 0 -1 2q0 2 0.5 2.5 t0.5 2.5q-1 0 -1 -1q-1 -2 -2 -3t-2 -3q-2 -3 -4 -11q1 0 1 0.5t1 0.5h2q2 -3 -1 -6t-4 -5q-1 1 -2 1t-2 -0.5t-3 -0.5q-2 -2 0 -6q2 4 4 4v-10l-4 -2l-3 -3q-1 0 -1 0.5t-1 0.5q-2 -4 -4.5 -7t-4.5 -7q-2 -2 -2.5 -4t-2.5 -4q-5 -7 -9 -9q-1 -1 -1.5 -1t-1.5 -2h4 q-1 0 -1 -2q-4 -8 -8 -14.5t-8 -13.5q-4 -6 -8 -12.5t-7 -13.5q-1 -2 -2 -5t-2 -5q0 -3 -4 -3t-7 -4q-11 -15 -20.5 -30.5t-19.5 -31.5q-5 -8 -10 -16.5t-10 -16.5q-2 -3 -6 -5q-5 -2 -6 -6q-9 -22 -24 -40l-6 -6q-3 -1 -4 -4q-4 -5 -7.5 -11t-7.5 -12q-8 -13 -17 -22l-6 -6 v2l-1 -1q-6 -5 -10.5 -10.5t-9.5 -11.5q-3 -5 -5.5 -9.5t-5.5 -9.5q-1 -4 -6 -1q-8 -6 -9 -14h-3q-1 0 -3 -2q-1 -2 -1.5 -2.5t-1.5 -2.5l-8 -8q-1 -1 -2 -1v2l-1 -1q-5 -5 -9 -8.5t-9 -7.5q-22 -20 -44 -38q-16 -13 -33 -20q-5 -2 -10.5 -4t-10.5 -3h-1h-8h-1q-13 3 -22 15 q-5 9 -7 23q0 1 -0.5 1.5t-0.5 2.5v13zM168 195l1 1q5 6 12 11.5t15 11.5q5 7 10.5 12t10.5 11l1 1q4 2 5 2q2 2 4 3q2 0 2 2q4 4 1 6t-1 8v2q-2 5 -3 10t-3 10l-2 2h-2q-9 0 -15 -6l-2 -2q-32 -19 -55 -38.5t-49 -46.5q-24 -26 -44.5 -55t-38.5 -60l-1 -2h2q4 1 8 3 q5 2 10 5.5t10 6.5q7 5 13 10t14 8q1 0 1 1q12 11 21 17q5 3 9 6t9 7q7 6 12 11.5t8 11.5l2 2q9 6 18.5 14t15.5 16q1 0 2 1q0 -1 -0.5 -1.5t-0.5 -1.5zM-32 100q2 3 2.5 7.5t1.5 8.5q-3 -2 -4 -4t-1.5 -5t-3.5 -5q4 -2 5 -2zM323 245l-7 -3.5t-3 -6.5q3 3 5.5 5t4.5 5z M482 201q5 0 9 8q-4 -1 -9 -8zM7 -125q-1 -1 -1.5 -2t-2.5 -2q0 4 1 5t3 -1z" glyph-name="g" horiz-adv-x="442" unicode="g"/><glyph d="M527 164q-2 0 -3.5 -3t-3.5 -3q-11 -9 -20 -18.5l-18 -19t-19 -18t-24 -15.5q-10 -14 -27 -22t-36 -13q-10 -5 -18 -6t-21 -2q-20 -1 -40 3t-36 13.5t-25 24.5t-6 36q2 17 6.5 35.5t5.5 34.5q-33 -20 -63 -41.5t-56 -47.5h-3q-10 -17 -28.5 -29t-32.5 -29q-7 -8 -9.5 -16 t-10.5 -13q-6 -6 -12.5 -9t-11.5 -10q-8 2 -13 1t-12 -6q-4 5 -6 9t-4 9q-8 -7 -14.5 -1.5t-14.5 7.5q2 2 0.5 3.5l-3.5 3.5q5 24 12 42t18 32q3 17 12.5 31.5t17.5 28.5t14.5 30t20.5 25q7 13 11 25t14 20q0 11 7.5 18t13.5 15q8 16 15.5 33.5t19.5 31.5q2 0 4 2.5t4 3.5 q3 9 5 13t8 12q2 0 1.5 -0.5t0.5 -0.5q35 54 73 102.5t70 105.5q2 0 3 2t3 1q6 8 11 18t11 19t13.5 15t16.5 7q14 1 23 -7.5t18 -16.5q-6 -10 -10.5 -18t-12.5 -12q-21 -32 -41.5 -61.5t-39.5 -60.5q-9 -2 -13.5 -10t-5.5 -16q-13 -9 -22.5 -25t-19.5 -28q0 -3 -0.5 -5 t-0.5 -4q-18 -14 -31 -35.5t-24 -43.5q-8 -4 -13.5 -14t-13.5 -18q-2 -1 -2 0t-2 1q-7 -9 -12 -20q0 -4 -3 -4t-4 -2q-7 -17 -16.5 -31t-16.5 -30q1 -2 -2 -2.5t-5 -2.5q-5 -14 -13.5 -26.5t-15.5 -24.5q-2 -5 -3 -9.5t-5 -9.5q-3 -7 -7.5 -12.5t-9 -11.5t-8 -13t-4.5 -16 q18 18 38.5 37t40.5 39q3 -2 4.5 0.5t4.5 1.5q17 20 38.5 37t44.5 32q17 11 35 20.5t38 4.5q7 -2 16 -7.5t15 -9.5q6 -5 11 -9t5 -12q0 -13 -3.5 -24.5t-6.5 -23.5q0 -7 1.5 -13.5t-0.5 -13.5q-2 -14 2 -26t12 -20q26 1 46.5 7.5t38.5 16.5t35.5 23t37.5 27q8 6 19 15.5 t22.5 19.5t22.5 19t19 15q5 0 5.5 -1.5t-0.5 -4l-2 -5t2 -4.5q-3 -4 -6.5 -6t-6.5 -5q2 -4 4.5 1t3.5 2q-3 -5 -3 -7q2 -2 3.5 3.5t3.5 1.5q3 -3 2.5 -4.5t-3 -3l-5 -3t-2.5 -4.5zM546 179q-1 0 -1 2q0 -1 1 -2zM545 181l1 1z" glyph-name="h" horiz-adv-x="488" unicode="h"/><glyph d="M372 255q-2 -9 -8 -15.5t-6 -13.5q-30 -31 -57.5 -54.5t-59.5 -49.5q-14 -9 -21 -16.5t-15 -10.5q-5 -2 -8.5 -4.5t-7.5 -4.5q-10 -7 -26 -16.5t-34 -19.5t-35 -18t-28 -11q-5 -1 -13 -3.5t-13 -0.5q-11 3 -24 8t-19 9q-9 3 -14 18.5t-4 31.5q1 19 6.5 38.5t13 37.5 t16 35l15.5 31q2 -1 0 -4.5t-2 -8.5q5 7 8 16.5t11 14.5q0 2 0.5 2.5t0.5 -0.5v-2q7 11 15.5 22t19.5 13t17 -6.5t11 -15.5q0 -11 -8 -12q-21 -40 -42 -84.5t-30 -98.5q22 1 41 14q11 6 26 13t31 14.5t30.5 15.5t25.5 16q5 2 9 4t6 6q38 20 69 49q8 6 12.5 9t7 5t5 4.5 t6.5 7.5q10 8 21.5 18t19.5 15q4 1 5 1.5t3 0.5q5 4 3.5 2t3.5 0q2 2 1.5 -0.5t0.5 -4.5q1 1 1.5 2.5t3.5 0.5q0 -4 -2.5 -4.5t-2.5 -5.5q5 1 7 4.5t7 5.5zM118 363q5 11 7 9q3 3 0.5 2.5t-0.5 4.5q7 8 9 17.5t9 13.5q0 4 4 10.5t7 5.5q-2 6 3 10t7 8q-1 3 4.5 8.5l12 12 t11.5 13.5t2 12q3 1 5.5 2t4.5 1t3 -1t-1 -2q7 2 12 7.5t13 3.5q5 -1 7.5 -4t8.5 -3q-2 -5 0.5 -6.5t0.5 -8.5q-12 -12 -22.5 -26.5t-20 -29.5t-19.5 -29t-22 -25q-1 2 -3 -0.5t-3 -5.5q-3 0 1 6q-7 -5 -9 -12.5t-10 -9.5q2 1 2 3q-3 -2 -5.5 -6.5t-5.5 -2.5q-1 4 1 6 q-4 -3 -6 -2.5t1 4.5q-6 -5 -8.5 -5.5t-3.5 2.5t0.5 7.5t3.5 9.5h-1zM12 170q1 2 0 4.5t1 2.5l2 -2q0 -1 1 -2q1 8 5.5 17.5t2.5 12.5q-1 -2 -2 -5.5t-1 1.5q-3 -3 -3.5 -7.5t-1.5 -8.5q-1 0 -1.5 0.5t-2.5 -0.5q2 -5 -1 -8t1 -5zM16 183q1 -2 -0.5 -4t-2.5 -2z" glyph-name="i" horiz-adv-x="253" unicode="i"/><glyph d="M-162 -246q-2 1 -0.5 2t-2.5 -1q-6 -6 -13.5 -15.5t-6.5 -20.5q-8 -5 -14 -10.5t-11 -6.5q2 -5 -4.5 -10.5t-7.5 -11.5q-1 -3 -2.5 -4.5t-1.5 -6.5q-3 0 -9 2t-8 2q-6 -7 -8 -13.5t-7 -19.5q-2 -2 -0.5 1t0.5 3q-8 -2 -13 -8.5t-3 -11.5q-14 -13 -26 -26t-28 -21 q-15 -14 -32.5 -23.5t-29.5 -24.5q-8 -5 -22.5 -8.5t-29.5 -4.5t-27.5 2t-16.5 12q-3 5 -1.5 12.5t-3.5 14.5q1 10 -1 14q6 13 8 21t10 18q0 4 4 4q2 2 2 5t2 6q5 7 11 12l12 10q2 8 5.5 17t11.5 14q4 11 10.5 19t13.5 14.5t14 13.5t13 17q5 2 8 6.5t9 5.5q7 10 14.5 20 t16.5 15q2 5 5.5 6.5t4.5 6.5l57 57t59 49q2 2 3 3.5t4 3.5q6 6 12 9q1 2 1.5 3.5t2.5 4.5q14 11 30 19.5t25 26.5q36 23 67 44t65 44q3 9 4.5 11l7.5 10q3 1 3 6t4 6q12 22 27 43t29.5 42t28 42.5t23.5 44.5q10 9 18.5 10t15 -2.5t12 -9t10.5 -9.5q-2 -10 -5.5 -16.5 t-11.5 -14.5q-11 -24 -32.5 -52.5t-36.5 -51.5q9 0 18.5 7t23.5 7q4 2 6.5 7.5t8.5 5.5q4 2 10 1t8 7q2 -1 2.5 -1.5t1.5 -0.5q1 1 1.5 3.5t4.5 3.5q18 4 38 12.5t39 16t36.5 12.5t31.5 4q0 -7 -1.5 -9.5t-4.5 -5.5q6 -2 15 3.5t17 5.5q-17 -12 -31.5 -22t-31.5 -19 q-6 2 -14.5 -1t-16.5 -7.5t-15 -8t-11 -2.5q-3 1 -3 -2t-2 -5h-13q-15 -17 -29 -18q-3 -2 -13 -9.5t-16 -9.5q-2 -1 -6 -1t-4 1q-1 2 -2.5 1.5t-7.5 -3.5q1 -2 3.5 0t6.5 1q-8 -8 -19 -13.5t-20 -4.5q-14 -14 -31 -22.5t-35 -13.5q-8 -6 -12 -13t-13 -10 q-24 -42 -45.5 -80.5t-53.5 -76.5q-2 4 3 6.5t3 8.5q-8 -7 -13.5 -16.5l-11 -19t-12.5 -18.5t-16 -14q-2 -6 -5.5 -10t-8 -7.5t-9 -8t-6.5 -11.5q0 -2 2 0q-2 -3 -7 -9t-8 -12zM-194 -219q2 3 4.5 8t4.5 3q13 28 35.5 50.5t39.5 48.5q11 23 27.5 41.5t25.5 40.5 q-7 -3 -11.5 -5t-12.5 -9q-2 -5 1 -3.5t2 -3.5q-8 -2 -13.5 -7.5l-11 -11t-11 -10t-12.5 -4.5q-29 -29 -61 -53t-59 -54q0 -4 -1 -8.5t-6 -8.5q-2 4 -4 1.5t-6 -1.5q-5 -2 -4.5 -7.5t-4.5 -6.5q-1 3 0.5 3t0.5 4q-2 -5 -7.5 -7t-9.5 -9q0 -5 2 -2t2 -2q-11 -11 -20.5 -26.5 t-27.5 -23.5q-4 -11 -10.5 -17t-12.5 -11q-4 -12 -11.5 -18t-14.5 -14q-8 -16 -17.5 -30t-19.5 -28t-19.5 -29.5t-17.5 -33.5q18 7 33 17.5t29.5 22.5t28.5 24.5t29 23.5q22 31 47.5 54.5t46.5 52.5q11 9 21.5 21.5t18.5 18.5q0 -5 1 -5q1 5 7 10t4 9q-1 -2 -4 -6t-1 1z M208 332q-8 2 -14 4t-11 10q3 29 15 48t26 34q13 0 18 -5.5t10 -12.5q-12 -20 -21 -41.5t-23 -36.5zM197 402q0 -3 -1 -8.5t-6 -4.5q0 5 1.5 7.5t5.5 5.5zM-171 -110q4 -2 8 1.5t1 4.5q0 -1 -9 -6z" glyph-name="j" horiz-adv-x="260" unicode="j"/><glyph d="M174 165q-1 -4 -3.5 -5t-4.5 -3q-9 -4 -19.5 -6.5t-18.5 -5.5q-5 -21 -7.5 -38t-1.5 -34q-1 -10 1 -17.5t5 -13.5q11 -15 38.5 -18t53.5 2q17 3 32 8t30 11q27 12 54.5 31t54.5 41.5t53 45t49 40.5q2 1 3 2.5t3 2.5q13 3 13 -4t-8 -19.5t-21.5 -28t-26.5 -30t-23.5 -24.5 t-12.5 -12q-8 -4 -15.5 -15t-16.5 -13q-5 -7 -12 -10t-13 -7q-8 -4 -10 -7q-11 3 -18 -4.5t-16 -9.5q-5 -2 -9 -8q-7 -2 -13.5 -5.5t-15.5 -2.5q-34 -22 -80 -23q-22 -1 -40.5 4t-34.5 13q-29 17 -44.5 47.5t-13.5 78.5q-18 -17 -31.5 -39.5t-28.5 -43.5q-3 -5 -5 -5 q-2 -1 0.5 1.5t0.5 1.5q-5 -5 -10.5 -13.5t-11.5 -19t-11 -20.5l-8 -16q-5 -2 -9 -7t-8 -10.5t-8 -10t-10 -4.5q-4 0 -3 4t3 10q-3 -5 -9 -2t-11 0q-2 8 3 14.5t8 11.5q1 2 1.5 4t2.5 4q1 5 0.5 7t-0.5 6l6 12q4 8 10.5 19t13 23t13 22.5t10.5 18.5q1 2 1 5.5v5.5 q1 2 3.5 4.5t2.5 4.5t2 2.5t3 2.5t3 10t4 9q2 0 2 -1q4 7 8 13.5t9 16.5q1 2 1.5 3.5t2.5 3.5q0 2 -0.5 4.5t0.5 3.5q2 2 4.5 2t4.5 1l2 4t2 5q7 5 15 15q1 1 0 1.5t1 2.5l3 7q15 29 33 54.5t32 54.5q4 2 6 5.5t3.5 7.5t4 7.5t7.5 4.5q13 19 23 41t26 37q6 17 16 30.5 t22 25.5q0 2 2 3.5t3 3.5q0 4 2 10q1 0 1 -0.5t2 -0.5q1 2 2.5 2.5t2.5 2.5q1 1 1 4q2 4 5 6q6 0 9 5t4.5 11t3.5 11.5t7 6.5q8 17 18.5 29.5t21 24.5t20.5 24t17 28q4 3 8.5 5t9.5 4q6 2 11 4t7 -2q5 -8 5 -20t6 -17q1 -1 -2 -2l2 -2q-60 -97 -125.5 -185t-130.5 -181 q7 2 9 0q11 17 26 27t29 24q13 12 29.5 16.5t28.5 17.5l-6 -2q4 3 6 3l1 1v-1q2 1 5 1t10 4t17 6q12 1 20.5 -3.5t16.5 -8.5q5 -2 10 -7.5t10 -10.5q5 -3 5 -5q2 -2 1 -4t1 -6q1 -3 -1 -5t-6 -7q-1 -4 -5 -7q-2 -2 -0.5 -3.5t0.5 -3.5q-11 -17 -20 -27t-18.5 -18t-20 -15.5 t-24.5 -19.5h1h-1l-1 -1q-1 0 -1.5 -0.5t-1.5 -0.5v-1q0 -1 -1 0q-7 -4 -13 -7.5t-10 -6.5q-6 -5 -12.5 -8t-13.5 -7q0 -2 0.5 -1.5t0.5 -1.5q-3 -4 -9 -6q-2 -2 -4.5 -1t-3.5 -1q-4 5 -7.5 2.5t-6.5 -5.5h1zM233 285q-3 -7 -8.5 -8t-10.5 -7q-19 -12 -38.5 -25.5 t-36.5 -28.5q-12 -9 -22 -26q1 -1 2 -0.5t3 -1.5q2 -1 3.5 -2t3.5 -1t4 -1.5t4 0.5q5 2 8 2t8 2q2 2 4 1t4 0q0 2 -1 2t-1 2l7 4q22 15 39 25t32 21.5t28 27t27 40.5q-14 -6 -19.5 -8.5t-10 -4.5t-10.5 -4.5t-19 -8.5zM266 215q-2 -2 -8 -4zM245 345q-1 0 4 3zM172 163l1 1 q-1 0 -1 -1z" glyph-name="k" horiz-adv-x="422" unicode="k"/><glyph d="M290 119q0 -2 4 -2q-2 -1 -2.5 -3.5t-5.5 -4.5h-2q-1 0 -2 1q-4 -2 -4.5 -4t-1.5 -4q-4 -5 -6 -7t-4.5 -3.5t-5.5 -3t-9 -5.5q-1 -6 -7.5 -9.5t-11.5 -5.5q-18 -17 -47 -34.5t-54 -28.5q-3 0 -15.5 -4.5t-15.5 -4.5q-23 -5 -48.5 -7.5t-45.5 7.5q-9 4 -19.5 11.5 t-14.5 12.5q-1 1 -1.5 6t-3.5 9q-9 21 -3.5 43t14.5 50q2 4 3 7t0 6q2 5 3.5 6.5t1.5 7.5q2 8 5 11.5t6 8.5q58 124 136.5 229t163.5 195q8 8 17 13.5t19 13.5q2 3 3 6t3 6q23 11 45.5 4.5t34.5 -20.5q-4 -8 -0.5 -15t-3.5 -18q2 -1 3 -2t-3 -3q0 -2 2 0t3 0l-5.5 -5.5 t-4.5 -3.5q-4 -11 -8.5 -18.5t-14.5 -14.5q0 -7 -3.5 -12t-8 -9.5t-8.5 -9.5t-6 -12q-5 -5 -10.5 -10t-5.5 -12q-10 -4 -14.5 -14t-11.5 -19q-1 -2 -0.5 0t-1.5 3q-3 -4 -6 -10t-7 -1q-3 -5 -4.5 -9.5t-4.5 -8.5q-2 0 -4 -2.5t-3 -0.5q-3 -19 -18 -22q-3 -8 -8.5 -14 t-13.5 -8q-2 -4 -1 -5t1 -5q-8 -7 -13.5 -11.5t-10.5 -9.5t-10 -11t-12 -15q-8 -2 -8 -5t0 -1.5t2 -0.5q-2 -3 -4.5 -4.5t-7.5 -6.5q-12 -2 -15.5 -10t-13.5 -13q-2 -7 -5 -10.5t-6.5 -6.5l-7 -6t-5.5 -8q-11 -2 -11 -4q-1 -5 0 -6t-1 -4q-3 -3 -6.5 -3.5t-6.5 -1t-5.5 -3 t-4.5 -8.5q-4 -2 -7.5 -5t-7.5 -5q-5 -6 -5.5 -7.5t-2 -2t-5 -2t-12.5 -7.5q-2 -2 -1 -0.5t0 2.5q-4 -10 -6 -10.5t-3 1.5t-1 2.5t0 -6.5q-5 -9 -10.5 -22t-10.5 -25.5t-8.5 -24.5t-4.5 -19q-6 -30 10 -44.5t40 -15.5q5 5 14 5t15 2q1 2 3.5 2.5t6.5 2.5q0 -2 2 -1t8 2 q23 10 41 19t34.5 19t33 22t36.5 27q17 10 33 19.5t31 23.5q5 -2 8 1.5t8 5.5q-2 -6 -6 -7.5t-7 -6.5q2 -2 2.5 -0.5t1.5 0.5q-6 -4 -3.5 -5.5t6.5 -2t5 -1t-8 -3.5q-5 -5 -18 -14.5t-18 -11.5zM313 515q14 22 30.5 44t26.5 52h-2q-2 -2 -3.5 -2.5t-2.5 -1.5q-3 -11 -11 -13 t-15 -9h1l-2 1q-4 -5 -7 -13t-13 -12q1 2 1 5q-7 -4 -9.5 -10.5t-7.5 -13.5q-5 0 -6 -1.5t-3 0.5q-3 -5 -10 -11t-8 -12l3 -1q-4 -2 -6 -10q-2 -2 -4 -6.5t-7 -4.5q-1 -6 -7 -9t-8 -9q0 -2 1 -1t2 -1q-9 -7 -11.5 -15t-13.5 -12q-1 -2 0.5 -4t-0.5 -2q-1 0 -1 3q-7 -8 -9 -4 q0 -4 -4 -5.5t1 -3.5q2 3 5 3.5t6 0.5l-3 -3t-3 -1q-2 -2 -7.5 -7t-5.5 -12q-7 -16 -15.5 -25t-13.5 -21h-4q-2 -2 -8.5 -10t-8.5 -15l1 -1v-1q-3 -8 -9 -15t-7 -15q94 94 178 204zM265 519q4 0 5.5 3.5t3.5 7.5q-2 -1 -5 -4.5t-4 -6.5zM195 424q5 0 5 6q-5 0 -5 -6z M298 141q7 2 10 5q-8 0 -10 -5zM144 342q2 1 2.5 0t1.5 -1q0 4 1 4q-4 0 -2 2.5t2 4.5q-2 -1 -2.5 -4.5t-2.5 -5.5z" glyph-name="l" horiz-adv-x="312" unicode="l"/><glyph d="M756 237q2 -4 4.5 0.5t2.5 -0.5t-2 -10q-1 -4 1 -2t4 2q0 -4 -1 -5t-4 -6q-3 -2 -5 -2t-3 -1t-2 -4.5t-4 -13.5q-7 -8 -13 -11t-16 -11q-2 -1 1 4t0 5q-3 -2 -3.5 -4.5t-2.5 -7.5q-10 -8 -22 -15.5t-22 -21.5q-6 2 -12 -1.5t-12.5 -9t-12.5 -11.5t-11 -9q-3 2 -6 0.5 t-5 -4.5t-5 -6.5t-6 -5.5q0 -2 3 1.5t3 -1.5q-7 -4 -16.5 -13.5t-20.5 -7.5l-3 -8q-4 7 -8 -0.5t-9 -12.5q-2 -1 -2 1.5t1 3.5q-6 -2 -10 -5t-9 -5q-3 -7 -6.5 -8.5t-8.5 -1.5q-6 0 -13.5 -2.5t-16 -5t-16.5 -3t-15 2.5q-13 5 -27.5 19t-21.5 28q-2 8 -1.5 15.5t-1.5 14.5 q5 19 11 43.5t18 38.5q5 27 16.5 48t19.5 46q-5 2 -6.5 -2t-5.5 -4q0 3 1.5 3.5t3.5 2.5q0 3 -1.5 2t-3 -2.5t-4 -2t-3.5 1.5q-2 -2 -4 -6.5t-6 -6.5q3 0 6.5 4t5.5 2q-17 -17 -33 -32l-32 -30q-2 5 3.5 8.5t7.5 9.5q-10 -3 -14.5 -12t-14.5 -20q-1 -4 -4.5 -5t-6.5 -6 q-36 -36 -70 -67q-2 1 1 3t3 4q-5 0 -8.5 -6t-5.5 -9q0 -2 1 -0.5t2 -0.5q-3 -8 -8 -7t-9 -6q-3 0 -1 2q-14 -16 -30.5 -31.5t-34.5 -24.5q-15 -2 -22 6.5t-15 16.5q-3 3 -6 5t-5 5.5t-2.5 9t1.5 13.5q6 18 17.5 43.5t21.5 44.5q1 3 2.5 4t3.5 3q7 12 10 27t10 22 q-6 -2 -10 -7t-10 -7q-2 -1 -1 0t-1 1q-6 -2 -12 -6t-3 -12q-15 -10 -27 -23t-24 -24q2 5 4 5t0 4q-11 -11 -21.5 -25.5t-21.5 -26.5q-3 1 -1 2.5t3 2.5q-13 -3 -22 -16.5t-19 -27.5q2 -4 4.5 0.5t4.5 6.5q-2 -7 -11.5 -16t-13.5 -11q-5 -11 -13.5 -20.5t-15.5 -23.5 q-17 -2 -26.5 7t-15.5 22q11 20 25 43.5t24 49.5q13 21 25 42t22 42q12 17 23 36t21 38q11 18 21.5 37.5t21.5 29.5q9 12 14.5 11.5t9.5 -6.5t6.5 -15.5t5.5 -16.5q-4 -3 -7 -10t-6 -13.5t-6 -11.5t-7 -5q-7 -14 -15 -26t-15 -25q16 12 31 25t30.5 25t33 20.5t38.5 11.5 q4 -10 11 -19.5t11 -20.5t4 -24.5t-9 -30.5q-13 -9 -19 -26t-14 -32q-2 0 -2.5 1t-2.5 1q-6 -15 -14.5 -28t-15.5 -29q45 42 98.5 94t105.5 97q16 14 31.5 25t29.5 19q20 7 26.5 -1t12.5 -25q5 -11 9 -19.5t1 -23.5q-2 -14 -8 -25t-11 -23v7q-2 -5 -3 -11t-3 -8h-7 q-10 -28 -21.5 -55.5t-23.5 -53.5q2 -9 0 -20t-1 -20q6 -9 17.5 -10t24 1.5t24 7.5t18.5 10q31 17 61 40t62 47q19 13 34 22.5t28.5 18.5t27.5 17.5t30 18.5q0 -2 -4.5 -4.5t-4.5 -3.5zM95 134q2 0 4.5 3.5t4.5 5.5q-3 0 -5 -3zM590 80q2 -1 4 0t2 2q-2 2 -4 1t-2 -3z M497 233q0 -3 -1 -5.5t-2 -4.5zM259 92q1 2 3 3.5t2 3.5zM492 216q0 3 1 5q0 -1 -0.5 -2t-0.5 -3z" glyph-name="m" horiz-adv-x="689" unicode="m"/><glyph d="M497 183q11 8 12 -3t-14 -37q-14 -17 -32.5 -34t-36.5 -31.5t-32 -25l-18 -13.5q-8 -2 -16 -5t-19 -7q-7 -4 -13.5 -4h-15.5q-6 2 -14 5t-11 8q-14 9 -24.5 30.5t-12.5 40.5q-2 15 -2 27.5t1.5 26.5t3.5 30t4 37q-25 -5 -43.5 -22.5t-38.5 -35.5q-3 0 -4 1.5t-2 -1.5 q-5 -4 -7.5 -8.5t-7.5 -10.5q-5 -7 -11 -11t-14 -9q-16 -16 -33.5 -36.5t-33.5 -40.5q-8 -10 -15.5 -20.5t-19.5 -16.5q-1 3 -3 1l-4.5 -4.5t-4.5 -3.5t-3 4q-6 -7 -9.5 -14.5t-8.5 -12.5q-9 3 -11 2q0 16 -3 27q17 49 36 89.5t42 79.5q1 -1 2.5 0t1.5 6q5 7 7 14t6 15 l18 36q9 17 15.5 27t16.5 26q2 -1 6.5 3.5t3.5 4.5q2 0 9.5 4.5t8.5 -0.5q2 -9 6.5 -13.5t4.5 -15.5q-1 -5 -5 -14.5t-9 -19t-10 -18.5t-8 -14l-16 -22t-13 -27q-4 4 -7 -4.5t-8 -15.5q22 21 48 46.5t51 42.5q8 6 21.5 14t27.5 13t27 5.5t21 -8.5q6 -10 11 -17t7 -14.5 t1.5 -18t-6.5 -28.5q-3 -13 -1.5 -26.5t-0.5 -27.5q-2 -9 -1.5 -12.5t1.5 -11.5q3 -21 11.5 -30.5t19.5 -12t23 1t24 8.5q4 1 19 12.5t33.5 27t38 32.5t33.5 30zM317 21q5 -1 2.5 -1t-6.5 1l-6 1.5t3 0.5h2q4 -2 5 -2z" glyph-name="n" horiz-adv-x="456" unicode="n"/><glyph d="M472 249v-7t-2 -7q-2 -3 -6 -6q-1 -2 1.5 -1.5t2.5 -1.5q-11 -5 -20.5 -14.5t-18.5 -8.5q-4 -3 -9 -6t-7 -7q-14 -7 -27.5 -18t-22.5 -13q-4 1 -5 0t-4 -3q-2 -1 -2 -3.5t-4 -2.5q-2 -1 -1.5 0.5t0.5 3.5q-5 -5 -6.5 -3.5t-1.5 -3.5q-8 -2 -14.5 -7t-22.5 -7 q-7 -6 -18 -9.5t-14 -2.5v-3q-2 -1 -2.5 1t-2.5 1l-4 -4q-4 2 -5 0t-4 -3q-2 -2 -4 -1t-5 1q-14 -2 -29 -6t-26 0q-6 -3 -16.5 -14.5t-24.5 -26.5t-30 -31t-32 -26q-2 1 -3 0t-3 -1q-8 -4 -18.5 -8t-21 -6.5t-19.5 -3t-15 2.5q-9 6 -24.5 13t-16.5 18q0 8 -0.5 15.5 t1.5 14.5q5 29 14.5 56.5t19.5 47.5q1 -4 -1 -6t-1 -6q3 11 14 26t19 29q1 -2 0 -3t-1 -3q4 1 6 5.5t6 9.5q0 -3 -1.5 -4t-0.5 -2q11 15 22 29.5t28 25.5q2 2 7.5 5t6.5 3q5 1 6 -0.5t2 4.5q2 0 1 -1t-1 -3q5 0 6 7q2 0 4 4t9 9q-2 0 -2 -1q7 6 11.5 13.5t11.5 10.5v-2 q0 1 1 1.5t2 2.5q1 -1 2 1.5t3 2.5q10 5 29 10.5t32 9.5q19 -2 31 -11q15 -8 22.5 -19t1.5 -36q-2 -8 -6 -18t-8 -17q-3 -9 -10 -21l-14 -24t-14 -22t-10 -16q-3 -1 -4 -2t-3 -4q17 2 29.5 4t30.5 9q45 14 92 41.5t95 61.5q5 -1 6.5 0t4.5 1v-3v-1q-1 -3 1.5 -5t0.5 -4z M89 80q14 14 24 22t21 25q-19 6 -29.5 25.5t-5.5 47.5q-17 -22 -29 -45t-29 -52q-6 -18 -10.5 -38t-4.5 -43q17 11 32.5 25.5t30.5 32.5zM181 256q-2 0 -2 1t-1 0q-4 -8 -8.5 -13t-6.5 -10q5 3 8 8t8 7q-5 -4 -9.5 -10.5t-9.5 -13.5q-6 -6 -11 -16.5t-8 -21.5t-2 -20.5 t7 -12.5q23 31 47.5 69t34.5 80q-14 -11 -25 -22t-22 -25zM160 225q1 0 2 1l-5 -7zM152 212q0 2 5 7zM83 11q-1 -2 -4 -2q2 0 4 2zM126 285q1 1 2 1zM183 113v-1q0 -1 1 -1q-1 0 -1 1v1zM465 260q0 -1 -1 -1zM206 153q0 -1 -0.5 -1.5t-0.5 -1.5q0 1 0.5 1.5t0.5 1.5z" glyph-name="o" horiz-adv-x="369" unicode="o"/><glyph d="M193 326q-14 -28 -29.5 -52.5t-32.5 -47.5q-4 -16 -15 -27q-5 -9 -6 -10t-1.5 0t-1 0l-4.5 -9q5 6 6.5 6.5t1.5 0t1.5 0.5t6.5 8q9 2 13 9t13 15q2 -2 2.5 0t1.5 0q5 6 14 12t12 17q23 19 53.5 38t59.5 33h2q29 12 45.5 -1t22.5 -35q5 -8 2 -17.5t-6 -23.5l-1 -7 q-1 -3 -4 -10t-7 -16q-3 -8 -8 -16q-6 -12 -14.5 -23t-16.5 -20q-7 -8 -13 -14.5t-11 -12.5q-8 -9 -17 -17.5t-23 -19.5q-5 -4 -9 -7.5t-11 -8.5q-13 -8 -30 -19.5t-39 -24.5q-4 -2 -8 -3t-9 -3t-9.5 -3.5t-9.5 -3.5t-9 -1.5t-8 -0.5q-5 2 -8.5 3.5t-5.5 -0.5q-2 2 -5.5 4 t-5.5 4t0.5 5.5t0.5 5.5q-1 2 -3.5 1.5t-3.5 1.5t2 5t3 5q0 3 -3 4.5t-1 4.5q2 4 8.5 5t14.5 1q3 0 6 0.5t6 0.5q5 0 11 1.5t6 3.5q5 2 9.5 5t9.5 6q8 4 15.5 8.5t14.5 9.5q8 6 17 12t17 13t14.5 14t12.5 13l5 5l6 6q10 10 16 17.5t10 11.5q6 8 10.5 16t10.5 16q13 19 22 41 q1 2 1.5 4t1.5 4q2 4 2 7q-9 -3 -20 -8q-44 -20 -80.5 -53t-70.5 -65q0 -5 -4 -5t-5 -5q-20 -17 -34.5 -39.5t-31.5 -41.5q-20 -28 -33.5 -47t-25 -34.5t-21.5 -30.5t-22 -35q-2 0 -4 -0.5t-2 -5.5q0 -2 1 0.5t2 -0.5q-1 -2 -2.5 -3t-0.5 1q-11 -14 -17 -29.5t-20 -28.5 q-6 -18 -15.5 -35t-21.5 -34q-1 -2 -1.5 -5t-1.5 -4q-1 0 -2 -3.5t-2.5 -8t-3.5 -8t-4 -3.5q-3 -3 -5 -3.5t-3.5 0l-1.5 0.5l1 -3q-3 -1 -9 0t-12.5 2.5t-12 2.5t-8.5 1q0 2 -1.5 3.5t1.5 6.5q2 2 1 0t1 0v2h1q-1 4 2.5 12t5.5 8q1 2 0 2t-1 2q8 10 11.5 19t8.5 22 q23 32 39.5 72.5t44.5 89.5q0 3 0.5 2.5t1.5 -0.5q0 5 3 7.5t7 5.5l-3 -1q6 13 7 15.5t2 3t3.5 3.5t10.5 18q2 -4 3 4.5t7 13.5q-3 -3 -1 -3q9 7 10 15t8 13q5 14 13.5 31t18.5 31q1 0 1.5 3.5t2.5 1.5q2 5 3 6.5t3 6.5q3 -3 4.5 0t3 8.5t4 9.5t6.5 2q0 4 1.5 5.5t2.5 3.5 q1 1 2 1v-1q3 2 4 6t0 7q14 18 26 40t25 42q3 0 3.5 3t4.5 3q11 26 23 41.5t22 37.5q3 -2 4 1.5t6 3.5q7 1 9.5 -4t4.5 -10q1 -2 2 -2t1 -1q8 -7 9.5 -18t-10.5 -14z" glyph-name="p" horiz-adv-x="375" unicode="p"/><glyph d="M98 -394q4 -2 5 1.5t3 1.5q-1 -4 -3.5 -5t-2.5 -6q-8 -1 -17 -8.5t-13 -18.5q-2 1 -4 -0.5t-4 -1.5q-7 -6 -14 -15t-15 -16.5t-16.5 -13t-17.5 -4.5q-3 0 -5 2.5t-6 4.5q-8 5 -20 11t-15 21q-1 14 3.5 31t9.5 35q3 2 2 1t1 -2q8 11 10.5 21.5t5.5 24.5q3 1 3 8q2 1 2 -2 q5 2 5 8q-2 0 -2.5 -2.5t-3.5 -0.5q0 2 1.5 3t0.5 5q-3 -5 -2 -1.5t3.5 9.5t5.5 13t4 10q2 -1 2 -2.5t2 -1.5q2 6 5.5 12t1.5 11q2 4 5.5 13.5t9.5 21t13.5 24.5t16.5 24q-3 1 -1.5 6.5t4.5 7.5q-1 -4 -2.5 -5.5t-1.5 -5.5q6 4 7 14.5t6 15.5q2 0 2 -0.5t2 -0.5l3 9t0 8 q8 6 12.5 12t8.5 14q0 3 -2.5 -0.5t-4.5 -5.5q-1 4 2.5 7.5t7.5 7t6.5 8t-0.5 11.5q7 3 11 10l8 14q3 1 4.5 -1.5t1.5 3.5q0 1 -1 1t-1 -1q1 13 11 22.5t13 22.5q5 2 7.5 8t7.5 7q6 23 18 40.5t21 31.5q3 -1 1 -2t-1 -3l48 72t45 74q-19 -7 -26 -30q-5 -5 -11 -4.5t-12 -2.5 q-5 -3 -6 -5.5t-6 -7.5q-3 -5 -10 -9.5t-14 -10.5l-2 -6t-5 -5q-2 -4 -6 -5.5t-6 -5.5q-12 -10 -19.5 -21t-18.5 -20q-4 0 -6 -2q-17 -15 -34 -31.5t-38 -34.5q-10 -6 -22 -12.5t-17 -7.5q-6 -2 -13.5 3t-14.5 12t-11.5 14.5t-4.5 12.5q-1 2 0.5 5t1.5 5q11 31 28 59.5 t36 54.5t38.5 51t35.5 49q7 0 10.5 4.5t8.5 12.5q9 6 17 15.5t17 18.5t19.5 16t23.5 8t27 -10.5t19 -21.5q7 -8 7 -22.5t2 -25.5q11 8 20.5 20t26.5 17q10 -2 15 -7.5t8 -13t5 -16t6 -15.5q1 -8 -2.5 -12.5t-5.5 -9.5q-9 -13 -15 -28.5t-16 -29.5q-9 -15 -18.5 -27 t-17.5 -26q25 4 55.5 12.5t62 17t61.5 16t56 10.5q1 -8 0.5 -11.5t4.5 -5.5q0 -1 -1 -1l-1 -1q-5 0 -9 -2.5t-7 -4.5q3 -2 6.5 -0.5t7.5 3t8 2t6 -2.5q-4 -2 -8.5 -4.5t-9.5 -6.5q-2 0 -3 0.5t-3 0.5q-6 -5 -16 -8t-21 -5.5l-22 -5t-18 -6.5q-7 1 -16.5 -2t-14.5 -11 q-9 -1 -17 -3l-16 -4q-7 -6 -15.5 -9.5t-17.5 -5.5t-18 -5t-16 -9q-14 -2 -25 -7.5t-29 -1.5q-2 -6 3 -8l10 -4q10 -19 13.5 -44t-2.5 -53q0 -8 1.5 -19.5t-5.5 -24.5l-2 4q-2 -2 -2.5 -7t-2.5 -7q0 -2 1 -2t1 1q-1 -24 -11.5 -42.5t-22.5 -31.5q-4 1 -3.5 -4.5t-1.5 -3.5 q-2 -4 -3 -5.5t-1 -2.5t-0.5 -3t-2.5 -8q1 -3 -1 -3t-1 -2q-3 -11 -10 -23.5t-17 -19.5q0 -13 -9 -22.5t-18 -18.5q-3 2 -1 3.5t3 3.5q-3 0 -4.5 -3.5t-2.5 -5.5q0 -3 1.5 -2t3.5 1q-7 -21 -18.5 -33t-22.5 -29q-2 -2 -3 -1t-3 1q-5 -9 -13.5 -14t-13.5 -16zM241 -28 q7 8 5.5 18t0.5 18q-6 1 -6 6t-5 7q-28 -38 -50 -81.5t-48 -81.5q-2 3 -3.5 2t-5.5 -3q-24 -45 -36 -70t-17 -38.5t-7.5 -20t-7.5 -12.5q-2 -4 -7 -9.5t-7 -11.5q-1 -2 1 -2.5t0 -2.5q-7 -11 -12 -23.5t-9 -25.5t-9 -25t-12 -20q0 -1 -0.5 -4t-1.5 -6.5t-2 -6.5t0 -4 q26 19 47 48t47 53l-1 2q3 5 6.5 10.5t8.5 9.5q2 -2 1.5 -3.5t1.5 -1.5q7 5 8 16t9 16q-3 -3 1 -3q5 8 12 15t11 18q-3 -2 -4.5 -4t-3.5 -2q1 7 5 12.5t8.5 9.5t8.5 8t4 9q8 13 24 41.5t27 61.5q2 0 1.5 -2t1.5 -2q1 10 5 21.5t7.5 23t5 22t-2.5 18.5zM52 50q32 26 69 59.5 t69 65.5q5 4 15 13t20 20t18.5 21t11.5 15q3 7 1.5 12.5t-4 10.5t-3.5 10.5t2 12.5q-7 -2 -10 -8t-11 -6q-14 -15 -33 -35.5t-33 -37.5q-7 -7 -11.5 -14.5t-11.5 -7.5q1 0 1 0.5t-2 0.5q-23 -29 -45.5 -61t-42.5 -71zM12 -259l1 -2l-2 -3zM168 -217q0 1 2 3q0 -5 -2 -3z M101 -321q-1 0 -3 -2zM172 -212l-2 -2l2 4v-2z" glyph-name="q" horiz-adv-x="468" unicode="q"/><glyph d="M173 213q-5 -2 -9.5 -3t-9.5 -6q-14 -1 -25 -6t-24 -5q-8 1 -17.5 5.5t-15.5 10.5l-7 4q-3 2 -9.5 5.5t-8.5 5.5q-7 14 -5 36.5t18 46.5q4 7 8.5 11.5t7.5 12.5q5 9 16.5 18t21.5 17q7 6 11.5 3t7 -10t2.5 -16.5t-2 -15.5q-1 -5 -4 -9t-5 -9q-9 -17 -16 -32t-17 -32 q14 0 32 7.5t36 12.5q2 0 4 2t4 2q8 4 15 7t16 4q17 4 23.5 -6t12.5 -25q2 -8 5 -16t-5 -23q-4 0 -5.5 -3.5t-4.5 -3.5q-13 -22 -27.5 -40l-29 -36t-28 -39t-24.5 -48q5 -8 20.5 -6t26.5 6q44 11 85.5 37.5t82.5 51.5q13 9 26.5 20t29.5 16l7 7q0 -1 7 0q3 0 6 2.5t7 1.5 q-2 -2 -1 -2t2 -1q0 -3 -2 -3.5t-4 -5.5q0 -3 2 0.5t4 1.5q-4 -5 -6.5 -11.5t7.5 -6.5q-8 -6 -10.5 -9.5t-6.5 -8t-12 -12t-28 -20.5q-5 -2 -12.5 -7t-15.5 -10q-3 -1 -5.5 -4t-3.5 -4q-8 -5 -8.5 -4t-6.5 -4l-30 -15q-12 -13 -27.5 -19t-28.5 -15q-14 -7 -27.5 -12.5 t-29.5 -10.5q-9 0 -14 -5q-16 -1 -25.5 2.5t-19.5 9.5q-16 8 -24 29t7 43q0 5 -1 7t1 5q11 17 20.5 33t19.5 33q5 -1 10.5 6t4.5 12q8 9 15 21.5t16 23.5z" glyph-name="r" horiz-adv-x="373" unicode="r"/><glyph d="M201 80q-9 -4 -19.5 -12.5t-21.5 -13.5q-2 -1 -1.5 1.5t-3.5 1.5q-8 -7 -22 -10.5t-17 -13.5q-31 -11 -57.5 -22t-58.5 -5l-2.5 2.5t2.5 4.5q-3 1 -7.5 2t-8.5 2.5t-7 4t-1 5.5q5 5 15 6t16 9q34 10 71 27t66 37q8 5 15 11t12 16q-9 8 -25.5 11.5l-33 7t-31 9.5t-18.5 20 q-10 7 -14 16t-10 15q0 18 10.5 33t25.5 28t31.5 24t27.5 20q1 -3 -1 -3t-2 -3q26 13 54.5 25.5t60.5 11.5q-3 -5 -5 -5q10 -2 16.5 -10.5t3.5 -19.5q-17 -1 -30.5 -5.5t-25.5 -11t-23.5 -16t-24.5 -19.5q-16 -11 -30 -25.5t-22 -30.5q14 -6 30.5 -10.5t32.5 -10.5t29 -15 t20 -24q4 -5 6.5 -17.5t2.5 -18.5v-2q-5 -17 -18 -25.5t-24 -17.5q4 4 8 7t9 9z" glyph-name="s" horiz-adv-x="281" unicode="s"/><glyph d="M436 244q-1 -8 -5 -15t-9 -15l-1 -1l-2 -4q-5 -8 -13.5 -19t-18 -22t-17.5 -20t-11 -13q-1 -3 1 -2.5t4 2.5q-6 -7 -17.5 -11.5t-13.5 -10.5q-2 0 -1.5 2t-2.5 3q-13 -18 -27.5 -34t-37.5 -18q-2 -2 -4.5 -6t-4.5 -9q-10 -5 -14 -11t-12 -3q-2 -1 -2 -2.5t-1 -3.5 q-3 0 -4.5 1t-3.5 2q-5 -10 -14.5 -16t-14.5 -4q-4 -1 -6.5 -3t-7.5 -4q-14 -4 -30 -11.5t-35 -9.5q-2 -1 -11 -2.5t-14 0.5q-12 2 -27.5 9.5t-26.5 13.5q-8 7 -15.5 12t-10.5 15q-8 13 -6 33t4 39q9 27 15.5 44t12.5 29.5t13 24t17 27t24.5 37.5t35.5 56q-11 -1 -16.5 0 t-11.5 1.5t-13.5 -0.5t-20.5 -4q-7 -2 -16 -4t-17 -1t-14 5t-6 13q3 0 3 5q35 11 70.5 18.5t76.5 14.5q5 1 16.5 16t24 34.5t23.5 37t15 22.5q1 1 4.5 6.5t7.5 12t7.5 12t3.5 6.5q3 2 3.5 3.5t5.5 3.5q2 0 4.5 8t3.5 6q3 5 5 6.5t3 2.5t2 2.5t3 6.5q7 7 12 11.5t10 8.5 t11.5 9t17.5 14q4 0 7 3t6 4q4 -4 10 -8t10 -9t5.5 -11.5t-1.5 -15.5q-2 -2 -4 -1.5t-4 -0.5q-7 -8 -25.5 -33.5t-39.5 -55t-39 -55.5t-24 -34q33 1 66.5 8t64.5 4q-2 -5 -2 -10t-4 -9.5t-15 -8t-34 -4.5q-1 -4 2.5 -2t3.5 0q-6 -1 -20.5 -4t-31 -6.5t-31.5 -6.5t-22 -4 q-5 -3 -8.5 -3.5t-6 -1t-5.5 -3t-8 -9.5q-11 -17 -26.5 -34t-35.5 -50q-3 -5 -5 -10.5t-7 -6.5q-3 -7 -5 -13.5t-7 -8.5q-2 -14 -11.5 -26.5t-11.5 -26.5q-8 -8 -12.5 -20.5t-7.5 -24.5q2 -6 1 -12t-5 -14q-1 -1 -1 3q-5 -16 -6.5 -29.5t-0.5 -26.5q45 -3 83 12t72 36 q25 16 54 36.5t57.5 43.5t54.5 47t46 47q3 -4 0 -5.5t-2 -4.5q6 2 6.5 6.5t5.5 6.5q0 -3 -2.5 -7t-5 -7.5t-3.5 -7t1 -6.5q2 2 3.5 5t3.5 6q1 5 2 9.5t3 2.5q0 -2 -1 -3q3 5 7 6q0 -5 -4.5 -10t-6.5 -11v5q-2 -6 -2 -10l1 1q4 4 6.5 11.5t8.5 10.5zM421 213q0 -7 -2 -5v1 q2 2 2 4zM421 222q0 3 1 4q0 -2 -0.5 -2.5t-0.5 -1.5zM366 137l-1 -2q0 1 1 2z" glyph-name="t" horiz-adv-x="324" unicode="t"/><glyph d="M387 69q-3 3 -6.5 -3t-8.5 -10q-7 0 -11 -3.5t-9 -8.5q-3 0 -1.5 1t1.5 3q-15 -11 -34 -21.5t-39 -13.5q-20 -4 -37 -2t-30 10t-19 23t-3 38q4 10 6 19t7 19q-14 -10 -29.5 -25.5t-32.5 -31t-34.5 -30t-33.5 -21.5q-7 -3 -15.5 -6.5t-16.5 -2.5q-5 0 -16 2.5t-17 3.5 q-16 3 -25.5 15t-4.5 38q11 42 35 80t44 70q1 0 5 -1l6.5 13t8.5 12l3.5 3.5l3.5 3.5q5 5 7 10.5t7 10.5l14 11q7 8 11 12.5t15 7.5q6 -3 10.5 -9t9.5 -10q3 -2 6.5 -2.5t2.5 -5.5q-2 -6 -10 -13t-15 -14q-20 -24 -36 -52t-36 -51q-10 -23 -25 -42t-20 -45q-4 -5 -5.5 -6.5 t2.5 -7.5q9 4 21 11t20 12q54 46 106.5 95.5t99.5 103.5q6 8 9 16t10 11q3 1 7.5 -1.5t9 -5.5t7.5 -7t5 -6q2 -4 7.5 -9t4.5 -13q-2 -5 -8.5 -13t-11.5 -17q-11 -17 -20.5 -33t-21.5 -34h-1q-10 -16 -19.5 -33t-13.5 -38q-2 -8 -2 -16t6 -13q32 2 59 15.5t53 29.5 q21 12 28.5 17t12 9t11.5 10t26 20q9 7 21.5 19t25.5 25t25.5 24.5t21.5 18.5q0 -2 -0.5 -2t-0.5 -2q2 2 2.5 -0.5t0.5 -6.5v-7t2 -2q0 -4 -4.5 -3.5t-2.5 -5.5q2 -2 3.5 2t4.5 3q-3 -6 -7 -10q2 -2 3 1t3 2l-4 -10t-8 -10q1 -2 3 0.5t2 0.5l-19.5 -19.5t-24 -23.5 t-24 -22.5t-20.5 -17.5q0 -2 -1.5 -4.5t1.5 -3.5q-8 -5 -14.5 -10.5t-14.5 -5.5q0 -4 -7 -7.5t-8 -3.5q0 2 1 2zM140 68q8 7 17 14t13 15q-8 -8 -16 -13.5t-14 -15.5zM121 53q6 2 11 6.5t7 7.5q-5 -4 -9.5 -6t-8.5 -8zM100 34q8 1 9 7q-3 -1 -9 -7zM178 102q0 2 2.5 3.5 t1.5 3.5q-2 -2 -4.5 -3.5t0.5 -3.5zM270 153q-2 -2 -2 -3q2 2 2 3z" glyph-name="u" horiz-adv-x="442" unicode="u"/><glyph d="M270 197q-9 -10 -16 -17.5t-13.5 -14.5t-12.5 -14.5t-13 -18.5q-4 -1 -3.5 0t-1.5 2q1 -6 -4.5 -8.5t-10.5 -3.5q0 -4 -1 -4.5t0 -2.5q-24 -20 -47.5 -46.5t-44.5 -44.5q-8 -4 -25 -8.5t-28 -3.5q-11 2 -23 9.5t-15 12.5q0 7 2.5 19t4.5 25q4 15 6.5 27t5.5 23.5t7 24 t12 28.5q17 29 30.5 51.5t29.5 49.5q3 8 6.5 13t10.5 9q7 -2 12.5 3t8.5 2q0 -2 1 -2t3 -2q4 -6 7 -12.5t4 -15.5q-2 -15 -12 -27.5t-20 -21.5q-7 -15 -12 -25t-9.5 -18.5t-9.5 -18.5t-12 -26q-7 -8 -10 -16.5t-5.5 -17.5t-4.5 -19.5t-8 -23.5q19 9 30.5 17.5t24.5 22.5 q21 20 39 38t35 36.5t34 37.5t37 42q2 7 5 10.5t6.5 7.5t7.5 8.5t8 12.5q5 9 9 13t13 5q8 -5 16 -1t14 -4q-3 -2 -2.5 -2h2.5t3.5 -1.5t-1.5 -6.5q0 -2 -2.5 -6.5t-6 -9.5t-6 -9.5t-0.5 -5.5z" glyph-name="v" horiz-adv-x="322" unicode="v"/><glyph d="M425 193q-8 -10 -16 -22.5t-23 -17.5q-9 -14 -18 -25.5t-20 -21.5q-13 -11 -27 -23.5t-29 -23t-32 -17.5t-35 -6q-12 0 -24 9.5t-21 18.5q-11 13 -10 32.5t11 42.5q-12 -8 -26 -20.5t-29 -26.5l-30 -28t-28 -24q-10 -6 -20.5 -12t-18.5 -7q-12 -1 -20 3.5t-14.5 12 t-12 16t-12.5 15.5q9 44 24 77.5t33.5 62.5t38.5 57t39 61q10 3 16.5 0.5t11 -8.5t7.5 -13.5t6 -12.5q-11 -23 -20 -36t-22 -32q-18 -29 -27.5 -41.5t-13.5 -21.5q-5 -16 -14.5 -28.5t-11.5 -22.5q0 -3 -2.5 -3.5t-3.5 -3.5q-2 -8 -4.5 -12t-2.5 -10q11 4 21.5 12.5 t21.5 18.5t22 20.5t23 18.5q23 26 53.5 54t59.5 55q15 13 28 23t24 -3q8 -8 13 -17.5t8 -20.5q-25 -38 -47.5 -76t-40.5 -87q16 -1 30.5 8t28.5 19q40 31 75.5 69.5t70.5 79.5q3 3 4.5 7t6.5 7q3 5 3.5 7.5t2.5 6.5t7 12t17 25q0 5 8 20.5t14 23.5q3 -2 11.5 -6t12.5 -7 q7 -4 9 -18.5t-6 -30.5q-6 -8 -14 -25t-23 -33q-5 -13 -7 -16t-10 -11z" glyph-name="w" horiz-adv-x="472" unicode="w"/><glyph d="M460 167q1 -4 3 -1t4 -1q-8 -8 -14 -17.5t-11 -11.5q-8 -14 -23 -30t-27 -25q-14 -9 -23.5 -20t-26.5 -21q-21 -16 -50 -29t-50 -21q-19 -7 -34 -7t-31 2q-22 12 -40.5 27t-25.5 41q-4 14 -9.5 34t-4.5 38q-9 -8 -20.5 -15.5t-17.5 -19.5q-5 -5 -8 -8.5t-6.5 -6.5l-7 -6 t-9.5 -9q-3 -3 -8 -8.5t-11 -11.5l-12 -12t-10 -9l-10 -10q-4 -4 -7.5 -7t-4.5 -2q-8 -6 -15 -3.5t-14 -3.5q-8 1 -8 0.5t1.5 -2.5t1.5 -3.5t-6 -1.5q1 4 -1.5 9t-5.5 9.5t-4.5 8.5t1.5 6q27 17 50.5 37t45 41t42 41.5t42.5 37.5q3 40 4.5 74t5.5 66q11 4 19 2t14 -7.5 t11 -13t10 -12.5q-2 -15 -0.5 -34t-2.5 -31q18 13 41.5 26.5t44.5 31.5q5 5 14.5 13.5t14.5 8.5q8 1 14 -7t11 -11q-4 -6 -8.5 -10.5l-9.5 -9.5q-24 -12 -47.5 -35t-46.5 -35q-6 -12 -12.5 -14t-20.5 -11q-6 -13 -6 -33.5t4.5 -41.5t12 -37.5t15.5 -21.5q3 -2 7.5 -3.5 l7.5 -2.5q32 0 64 13q59 22 102 61.5t82 80.5q4 -2 7.5 0.5t6.5 6.5t6.5 7.5t6.5 4.5q0 -5 -1.5 -8t-1.5 -9q3 -1 7 2t7 1q2 -8 -5 -10.5t-13 -9.5z" glyph-name="x" horiz-adv-x="370" unicode="x"/><glyph d="M177 137q-2 -2 -3 -2t1 2q-12 -8 -21 -19t-20 -22q-10 -6 -20.5 -15t-21 -19.5l-21 -21t-20.5 -17.5q-8 -7 -17.5 -13t-20.5 -5q-5 2 -11.5 6t-11.5 8q-11 7 -19 16.5t-1 32.5q11 42 32 76t40 69q17 23 26.5 45.5t21.5 42.5q6 11 14 16t21 -3l6 -15q4 -6 8.5 -8.5 t2.5 -10.5q-2 -5 -4.5 -9t-4.5 -9t-3 -9t-3 -8q-9 -20 -21.5 -36.5t-20.5 -34.5q-21 -19 -36 -48l-30 -58q56 48 108 100.5t103 106.5q2 3 3.5 5t6.5 2q-1 8 8 18q2 -5 7.5 -1.5t8.5 5.5q5 -2 10.5 -0.5t9.5 -0.5q3 -2 2 -4.5t0 -5.5q7 -5 12.5 -10.5t3.5 -14.5 q12 -10 8.5 -28t-12.5 -32q-12 -23 -24.5 -49.5t-25.5 -49.5q4 4 8.5 9t8 8.5t5 4t0.5 -2.5q17 10 35.5 21.5t39.5 22t47 19t58 12.5q-2 -5 -2 -6.5t4 -4.5q0 -3 -3.5 -2.5t-5.5 -1.5q0 -2 2.5 -2.5t5 -0.5t3.5 -0.5t0 -3.5q-7 -2 -10 -3t-5.5 -2.5t-5.5 -3.5t-10 -6 q-2 -1 -1 0t1 3q-2 -2 -3 -2q0 -1 -3 -5q-5 2 -7.5 -1t-5.5 -4q-2 0 -2 1.5t-2 -0.5q-2 -1 -5.5 -2t-5.5 -4q-11 1 -10 -2t-6 -7q-6 4 -17 -4t-16 -15v4q-5 -1 -7.5 -6t-4.5 0q-6 -6 -7 -10q8 1 14 3.5t12 4.5q-7 -5 -16.5 -8.5t-18.5 -9.5q-2 -1 -1.5 2.5t0.5 5.5l-46 -30 q-1 -5 1 -5q-2 -3 -6.5 -4.5t-6.5 -1.5q2 2 1.5 2t0.5 2q-5 0 -4.5 -4t-4.5 -5q-2 -1 -1.5 0.5t0.5 4.5q-3 -4 -9 -6t-8 -11q-8 -3 -13.5 -4.5t-9.5 -7.5q0 -5 1.5 -1t4.5 3q-6 -7 -6.5 -8.5t-8.5 -5.5q-5 -12 -7 -15.5t-4.5 -5t-5.5 -4t-9 -11.5q-1 -2 0.5 -3t-0.5 -3 t-2.5 -1t-2.5 1q-17 -29 -39.5 -55t-38.5 -55q-2 -1 -6 -1q-25 -38 -52.5 -70.5t-53.5 -67.5q-6 -2 -6 -4q-8 -17 -22 -28.5t-22 -29.5q-6 -1 -8.5 -6.5t-7.5 -8.5q-29 -32 -58 -63.5t-63 -57.5q-14 -18 -32 -23q-9 -9 -21.5 -17t-26 -13t-27.5 -6t-26 4q-7 11 -10 20t5 27 q7 26 20 51.5t29 48.5t33.5 44.5t32.5 40.5q32 44 69.5 81t70.5 73q30 29 61 52.5t63.5 45.5t65.5 42.5t67 43.5h1q0 2 1 4q23 38 45.5 76t39.5 83q-5 -7 -10.5 -15t-10.5 -17q-12 -4 -24 -16q-1 -3 1 0t6 0q-3 -4 -7 -6t-5 -7q-3 2 -1 4t2 4q-5 -6 -13 -13.5t-10 -13.5z M-78 -166q-2 4 -5.5 0t-2.5 -5l8 3q-8 -9 -15.5 -16.5t-12.5 -17.5q-10 -8 -17.5 -13t-9.5 -18q-10 -5 -17 -13l-14 -16q-1 0 -1 1t-2 1q-7 -10 -17.5 -20t-18.5 -24q-4 0 -8 -5t-2 -10q-4 -2 -3 -1t-3 1q-2 -3 -1 -3.5t1 -2.5q-8 -2 -10 -10t-10 -12h1l1 -2q-2 -1 -2 0 t-2 -1q-5 -8 -12.5 -16.5t-12.5 -22.5q-14 -15 -27.5 -35.5t-21.5 -40.5q-2 -5 -3.5 -9t-6.5 -6q-1 2 0 4.5t-4 2.5q-2 -4 -2 -10q38 13 67 36.5t57 49.5q17 17 35.5 33.5t34.5 36.5q70 74 135 154.5t129 167.5q-14 -8 -28 -18t-27 -20q1 -3 -1 -6q-6 2 -11 -3.5t-7 -3.5 l2 -4q-2 -4 -7.5 -3.5t-10.5 -4.5q2 0 5 1t1 -1q-3 -5 -9.5 -10t-12.5 -8q-8 1 -14 -7.5t-13 -9.5q-2 -2 0 -2.5t1 -4.5q-1 -1 -3 1t-4 -2q0 -2 -0.5 -4t-4.5 -4q-1 3 -6 0t-7 -7q0 -1 1 -1q0 -1 0.5 -1t0.5 -1q-2 -2 -6.5 -7.5t-13.5 -6.5q-1 -1 -2.5 -3t1.5 -5 q-5 -1 -8.5 -2.5t-7.5 1.5q-5 -8 -10 -13q1 2 1 6q-5 2 -3.5 -2.5t-0.5 -4.5zM-209 -456v3q-3 0 -5 -0.5t0 -2.5h5zM-76 -166q0 -2 -2 -2z" glyph-name="y" horiz-adv-x="367" unicode="y"/><glyph d="M362 84q4 2 3.5 -0.5t-3.5 -6t-7.5 -6t-8.5 -0.5q-1 -1 -1 -2q-6 -1 -10.5 -3t-11 -4t-16.5 -4.5t-26 -3.5q-17 -4 -27.5 -5.5t-26.5 -4.5q0 -2 2.5 -1t0.5 -4q-3 2 -7 4t-7 -6q-2 3 -5 4t-5 4q-2 0 -2 -2t2 -2q-2 -5 -4 -2t-4 5q-5 -2 -3 -3.5t-1 -3.5 q-13 -2 -19.5 -3.5t-12 -3t-13 -3.5t-21.5 -5q-3 -1 -1.5 -2.5t-1.5 -1.5q-2 -2 -2.5 1t-6.5 -1q0 -1 1 -0.5t1 -0.5q-5 -2 -10.5 -2.5t-11.5 -0.5t-12.5 -1t-12.5 -5q-2 3 -9.5 0.5t-10.5 -4.5q-18 -4 -27 0t-13.5 12t-5.5 18t-3 19q0 3 1 6.5t2 5.5q27 30 57 54t60.5 46.5 t60.5 45.5t57 52q-3 -1 -6 1t-6 3.5t-6 2t-6 -2.5q0 -1 1.5 -1t-0.5 -3q-2 1 -5 0t-5.5 -1.5t-4 -0.5t0.5 4q-10 -7 -22 -11t-14 5q-5 -8 -13.5 -8.5t-10.5 -7.5h-10.5t-4 -1t-5 -2.5t-13.5 -4.5q-11 7 -12 21.5t-3 31.5q29 21 60 29t70 13q10 2 22 2t23 -1.5t19 -4.5t9 -9 q4 -7 1 -26t-5 -31q-7 -21 -19 -31.5t-25 -27.5q-13 -8 -25 -17t-24 -17q-6 -5 -6 -8q-29 -17 -56.5 -38.5t-56.5 -41.5q0 -2 -1 -4l-3 -6q-5 -3 -9.5 -5.5t-6.5 -8.5q39 3 69 10.5t62.5 14.5t73.5 11.5t101 0.5q-3 -4 -4.5 -5t-1.5 -3z" glyph-name="z" horiz-adv-x="366" unicode="z"/><glyph d="M149 280q13 18 26 35.5t25 40.5q4 0 3 -3q5 5 4.5 10t2.5 9q2 4 0 2t-4 -2q2 5 5 7t3 4q2 -1 0.5 -2.5t0.5 -1.5q5 4 2.5 5t-0.5 6q3 -3 6 0.5t6 8.5t6 8.5t6 2.5q1 7 5.5 13.5t10.5 13t10.5 13t5.5 14.5q3 3 7 5t7 6q0 3 1 6t1 6q22 21 39.5 50.5t39.5 56.5q2 1 -1 -3.5 t2 -2.5q2 2 4 6.5t-3 6.5q5 9 10 13t10 12q-35 -8 -72.5 -17.5t-71.5 -26.5q-44 -20 -87.5 -41.5t-79.5 -57.5q0 -4 -0.5 -7.5t-2.5 -7.5q-5 0 -6 -3q-14 6 -22.5 16.5t-22.5 18.5q-1 11 5.5 21t8.5 19q33 23 65 44.5t72 30.5q2 1 2.5 3.5t3.5 4.5q59 28 124.5 45.5 t131.5 29.5q18 20 26.5 32t15 22.5t15 23.5t25.5 34q16 5 25 -0.5t20 -13.5q-1 -8 -4 -13.5t-7 -11t-7.5 -11t-5.5 -13.5q-4 -2 -6.5 -4t-5.5 -3q-10 -13 -11.5 -15t-1.5 -2.5t-1 -3t-10 -16.5q39 3 81.5 -2.5t77.5 -19.5q5 -2 11 -5t8 -6q18 -10 39 -22t32 -29 q33 -45 22 -110t-86 -150q-9 -8 -18 -18t-18 -8q2 -8 -5 -13.5t-14 -10.5q-1 0 -0.5 2t0.5 4q-4 -5 -7 -7q0 -3 1 -2.5l2 1t1.5 0.5t0.5 -3q-3 -3 -4 -1.5t-2 3.5q-7 -3 -4 -6t-2 -7q-2 1 -6 0t-7.5 -3.5t-6 -6.5t-1.5 -8q-12 0 -17 -8.5t-11 -17.5q-7 0 -10.5 -4.5 t-8.5 -9.5q-14 -7 -24.5 -19t-22.5 -21q-4 -3 -9 -4.5t-10 -4.5q-11 -6 -20 -14.5t-20 -16.5q0 -2 -0.5 -3.5t0.5 -2.5q-7 -5 -11.5 -9t-10.5 -7q0 7 -2 7q-2 -2 -3.5 -7.5t-6.5 -8.5q-5 -1 -7 -3t-7 0q-6 -5 -13.5 -9t-15.5 -8.5t-15 -10.5t-11 -16q-2 -2 -6.5 -3t-6.5 -3 q-4 -1 -4 4q-11 -8 -24.5 -14t-21.5 -12q-1 1 -1.5 0t-2.5 -1q-10 -14 -22 -22t-25 -13.5t-26.5 -10.5t-26.5 -13q-5 -1 -5.5 0t-2.5 2q-13 -8 -34 -20t-46 -24.5t-50.5 -23t-46.5 -14.5q-11 -18 -15 -21.5t-6.5 -4t-7 -4.5t-16.5 -23q-1 0 0.5 3t1.5 7q-2 -2 -5 -7t-8 -5 q-4 1 -9 3.5t-9.5 5t-8 4t-6.5 -0.5q-4 3 -3.5 8t2 10.5t2.5 9.5t-2 6q2 5 8.5 6.5t6.5 7.5l-3 -5q-3 5 2.5 10t5.5 11q-3 4 9.5 24.5t30.5 48t37 56.5t29 50q3 2 4 5.5t6 5.5q0 4 4 10q14 20 30 41.5t25 48.5q11 12 20 25t20 21q0 -5 -2.5 -6t-3.5 -7q3 3 5.5 8t5.5 10 q1 3 -1 1t-4 1q5 8 11 13.5t12 13.5q1 -5 -5.5 -9t-5.5 -11zM335 140q37 23 79 52.5t83.5 62.5t80 68t70.5 70q12 13 25.5 30.5t25.5 37.5t20 42.5t10 46.5q0 31 -18 50.5t-45 30.5t-57.5 15t-55.5 6q-17 1 -32 -1t-26 0q-4 -2 -6.5 -1t-5.5 -2q0 -3 5 -1t3 -3 q-6 -2 -8.5 -0.5t-11.5 -0.5q-109 -167 -225 -331t-223 -333q34 15 76.5 34.5t85 41t82 43.5t68.5 42z" glyph-name="D" horiz-adv-x="693" unicode="D"/><glyph d="M137 92q-5 -15 -16 -27t-31 -26q-7 0 -10.5 3.5t-5.5 7.5t-4.5 8t-6.5 6q1 6 0 11.5t-1.5 11t0.5 11.5t6 13q1 0 3 1t3.5 1t3.5 2q12 10 26 17t24 -9q5 -6 5 -14.5t4 -16.5z" glyph-name="period" horiz-adv-x="184" unicode="."/><glyph d="M501 182q-13 6 -25 19t-32 16q-5 1 -13 1h-15q-4 1 -6 3.5t-5 2.5q-8 2 -23.5 0.5t-20.5 -6.5q-7 2 -11 2t-10 4q-10 -8 -22.5 -7.5t-22.5 -6.5q-15 5 -29.5 3.5t-29.5 -4.5t-31 -5.5t-34 1.5q-2 6 -4.5 10t-2.5 12q-13 -16 -27 -35.5t-28.5 -40t-28 -41t-24.5 -38.5 q-6 0 -8 -6q-5 -13 -13.5 -23t-10.5 -23q-4 -4 -7.5 -7t-5.5 -7q-11 -15 -20 -33.5t-18 -32.5q-5 -9 -12 -15t-7 -15q-15 3 -26 14.5t-4 28.5q12 25 27 50t29 47q32 54 67 106t67 100q-1 17 10.5 25.5t22.5 16.5q51 78 103.5 150.5t103.5 150.5q-39 -13 -64 -21t-45.5 -18 t-42 -23.5t-53.5 -37.5q-12 10 -7.5 24t15 27t22.5 21.5t14 7.5q6 5 11 6t10 3q9 4 16 6t12 5q8 5 19 9.5t22 6.5q6 2 11 4t10 5q24 8 44.5 14.5t48.5 12.5q14 26 36.5 53.5t45.5 60.5q4 11 12.5 23.5t18.5 13.5q8 0 12.5 -8t6.5 -18.5t3.5 -21.5t4.5 -18 q-11 -19 -24.5 -30.5t-24.5 -28.5q8 -3 10.5 2t11.5 4q20 5 43 11.5t45 9.5q5 0 8.5 -1.5t8.5 -1.5h32q4 0 7 -1t6 -1q17 0 31 -0.5t23 -14.5q3 -4 6 -12.5t4.5 -18t2 -20t-0.5 -17.5q-4 -20 -15 -33t-24.5 -23.5t-26.5 -20t-22 -22.5q-77 -45 -154 -94t-154 -94 q-1 -3 -1 -2.5v2t-0.5 2t-0.5 -2.5q-9 -5 -20.5 -11.5t-22.5 -14t-21.5 -14.5t-17.5 -13q22 -2 50 1t50 1q22 4 50.5 3t55.5 -8t48.5 -19t30.5 -29q3 -6 6 -18.5t4 -27t0 -28.5t-4 -22q-6 -16 -17.5 -27t-25 -20t-27.5 -17.5t-25 -19.5q-14 -3 -25 -10.5t-23 -18.5 q-10 0 -19.5 -6t-19 -12.5t-19 -12t-19.5 -5.5q-23 -19 -47.5 -28t-49.5 -26q-14 -1 -22.5 -4t-16.5 -12q-11 4 -19.5 -1.5t-22.5 -5.5q-1 -2 -1.5 -6.5t-3.5 -4.5q-11 -2 -20.5 -7t-15.5 -12q-42 -10 -79.5 -26t-79.5 -25q-2 -2 -4.5 -3.5t-7.5 -5.5q-16 0 -20.5 -1t-7 -1 t-8 1.5t-23.5 5.5q-3 4 -6.5 7.5l-7 7t-5 8.5t0.5 13q20 4 30 6.5t17.5 6t17 7.5t27.5 11q1 1 -1.5 1t-4.5 -0.5t-3.5 -0.5t0.5 2q142 50 276.5 111.5t261.5 144.5q7 11 14.5 18.5t15.5 21.5zM441 612l-5.5 -5.5t-0.5 -8.5q-14 -8 -23 -21.5t-19 -27.5q-17 -23 -42.5 -58 t-53.5 -72.5t-54.5 -72.5t-43.5 -58q38 26 82.5 56t90 60t90.5 59t85 54q5 0 5 -1t5 1q13 9 30.5 23.5t35 31t33 33t26.5 31.5q-28 8 -59.5 7.5t-63 -5.5t-62 -12.5t-56.5 -13.5z" glyph-name="B" horiz-adv-x="630" unicode="B"/><glyph d="M141 316q-3 2 -5 3.5t-4 -0.5q-2 -3 -7 -9.5t-3 -11.5q0 -2 -1 -0.5t-3 0.5q-24 -35 -44 -70t-37 -77q1 -5 -2.5 -3t-4.5 -3q-2 -5 -1.5 -6t-1.5 -6q-17 -33 -24 -70t-13 -80q-3 -1 -3 4q-8 -45 17 -69.5t71 -24.5q23 1 49.5 7t48.5 14q58 23 114.5 56t107.5 57 q4 2 4 1.5t2 -2.5q4 4 9.5 7.5t10.5 7.5q0 -4 2 -3.5t5 3l6 5t6 3.5q2 1 5.5 -1t6.5 7q6 -4 15 0t17 4q-3 -7 -8 -10.5t-10 -6.5t-9.5 -6t-5.5 -9q-7 3 -12.5 -1.5t-9.5 -9.5q1 -3 6 2.5t7 0.5q-4 -8 -11.5 -12.5t-13.5 -9.5q-5 0 -2.5 5.5t0.5 7.5q-5 -2 -8.5 -8t-8.5 -11 q-3 3 -6 2.5t-6.5 -2.5t-7.5 -4.5t-8 -2.5q-2 -6 1.5 -7.5t-1.5 -5.5q-4 -3 -6.5 -3.5t-4.5 -0.5h-4.5t-7.5 -2q0 2 1 3t1 3q-12 -5 -22.5 -13t-22 -16t-23 -13.5t-24.5 -5.5q-2 -2 -0.5 -4.5t-1.5 -6.5q-2 1 -1 3.5t-2 2.5q-11 -5 -22.5 -10t-22.5 -9q-4 -4 -2.5 -5.5 t-0.5 -3.5q-5 2 -10.5 -1t-7.5 -8q-12 -2 -25.5 -5t-24.5 -11q-43 -9 -82.5 -4t-69.5 24t-47 51.5t-14 77.5q1 8 2.5 20.5t4.5 25.5t7 25t10 21q2 25 11.5 45t18.5 41q4 0 4 -2q8 8 13.5 23t14.5 29q2 1 3.5 1t2.5 2q5 6 6.5 11.5t3.5 10.5q1 2 4 3.5t6 4.5q2 3 1.5 7t2.5 9 q5 13 12.5 20.5t12.5 15.5q7 14 16 30t23 22q37 54 77.5 101t85.5 87q0 3 2 4t1 5q14 9 26 21l24 24t24.5 22.5t26.5 18.5q-1 -5 -5 -6t-7 -8q4 -2 10.5 4.5l9.5 9.5q9 -3 15.5 7t13.5 15q2 1 3 -0.5t2 -2.5q33 26 65.5 47t69.5 38q2 3 -3.5 1.5t-7.5 -2.5q7 8 22.5 11.5 t27.5 3.5q22 1 42 -8.5t33 -27.5t18 -44t-3 -58q-7 -24 -17.5 -48.5t-19.5 -51.5q-5 -11 -11.5 -24.5t-14 -26t-15.5 -23t-15 -14.5q-18 5 -31 13t-14 25q-2 2 -5 2.5t-5 2.5q16 22 31.5 48.5t28.5 56t22.5 60.5t12.5 63q2 5 -1 5.5t-1 2.5q-22 1 -36.5 -5.5t-30.5 -6.5 q-8 -9 -18 -16t-22 -10q-33 -24 -64 -47t-60 -49q-2 -3 -0.5 -6.5t-3.5 -6.5q-4 0 -3 2.5t-1 5.5q-57 -51 -108 -107t-100 -119q-10 -2 -19.5 -14t-17.5 -26q2 -4 5 0t4 6q2 2 2 -2q-7 -4 -6.5 -7.5t-0.5 -8.5zM321 -48q4 -1 5.5 1t2.5 -1q-5 -9 -14 -13t-20 -7q3 4 7 5.5 l8 3t7 4t4 7.5zM428 707q-3 -8 -11 -11.5t-16 -7.5q6 8 12.5 11t14.5 8zM395 684q2 -4 -5 -9.5t-12 -7.5q3 8 8.5 10t8.5 7zM451 723q0 -3 -2 -3.5t-3 -4.5q-3 3 -0.5 6t5.5 2zM306 601v1v-1z" glyph-name="C" horiz-adv-x="580" unicode="C"/><glyph d="M25 -1q-4 -5 -3.5 -7.5t2.5 -4.5q-13 -20 -25.5 -40.5t-26.5 -34.5q-11 -23 -27 -44t-32 -39q-17 -2 -24.5 1t-19.5 11v4.5t-2 4.5q31 50 55.5 96t60.5 93q23 45 50 83.5t55 80.5q-11 2 -22.5 -2.5t-24.5 -4.5q-3 5 -11 7.5t-16 4.5t-15 5.5t-8 10.5q12 13 30 15t40 9 q6 1 15 4t19.5 6t20.5 6.5t16 6.5q9 4 21.5 22.5t23.5 33.5q36 49 76 100t81 99.5t82.5 93.5t80.5 83q13 11 27 23t28 21q18 14 40.5 23t44.5 2q7 -2 16.5 -7t17 -13.5t11.5 -19t-1 -23.5q-7 -28 -12.5 -56t-20.5 -59q-3 -5 0.5 -5t1.5 -2q0 -4 -3 -8t-6 -7.5t-4 -7.5t2 -8 q-8 -5 -8.5 -10t-1.5 -12q-7 -10 -7 -19t-7 -21q-2 -1 -4.5 -3t-3.5 -9q2 -3 2.5 -6.5t-4.5 -9.5q-2 1 0 7q-12 -22 -21 -49.5t-22 -51.5q16 -2 37.5 -0.5t43 1.5t41.5 -2t35 -10q-3 -11 -9 -9.5t-16 -0.5q-2 0 -4 -2.5t-6 -3.5q-22 -1 -45 -3.5t-43 -4.5q-11 -1 -21.5 -0.5 t-18.5 -7.5q-5 0 -6 2t-6 0q-4 -14 -12 -32t-16 -31q-2 -4 -2.5 -3.5l-1.5 1.5t-2 1t-4 -3q-1 -3 0 -3.5t2 0t2 0.5t1 -1q-3 -20 -7 -30t-15 -21q-1 2 1 6t1 8q-4 -2 -5.5 -7.5t-4.5 -13.5q5 0 7.5 -3.5t5.5 -0.5q4 -1 -1 -7t-6 -9q-2 0 -1 2t-1 2q-5 -5 -0.5 -7.5t3.5 -5.5 q-7 -5 -8.5 -12.5t-9.5 -9.5q4 -4 3 -10t-4 -11.5t-6.5 -9t-4.5 -0.5q-5 -16 -14 -25.5t-17 -21.5q2 -5 1 -9.5t-3 -11.5q0 -2 3 -2h5q-6 -12 -10 -21t-15 -11q0 -12 -5.5 -21.5t-10.5 -18.5t-9 -18.5t-1 -20.5q-6 -22 -17 -34q-8 -20 -20 -33.5t-25 -24.5q2 2 4 6t1 12 q0 4 -1.5 -1t-1.5 -6q-5 4 -1 9.5t4 9.5q-4 0 -6 -2.5t-3 -6.5t-2 -7.5t-3 -4.5q-5 5 -9.5 10.5t-1.5 13.5q14 42 32.5 82.5t35.5 85.5q28 69 59.5 135.5t58.5 130.5q-4 6 -8.5 5.5t-6.5 -2.5q-16 -2 -33 -8t-35 -10q-13 -2 -25 -6.5t-29 -8.5q-18 -5 -37 -8.5t-39 -11.5 q-20 -9 -41.5 -15t-40.5 -13q-2 -7 -1.5 -8t-4.5 -7q-5 -2 -0.5 1t0.5 5q-5 -3 -7 -6.5t-3 -8l-2 -9t-4 -7.5q-2 0 -1.5 2.5t0.5 4.5q-21 -22 -38.5 -52t-35.5 -54q0 -3 -3 -3.5t-3 0.5q-6 -17 -19.5 -33t-18.5 -32q-3 0 -4 -3t-4 -2v3q-3 -7 -6.5 -15.5t-10.5 -12.5z M275 344q-8 -2 -14 -12t-17 -13q-1 -5 0.5 -6.5t-0.5 -4.5q3 -1 4 0.5t1 3.5t1 3t4 0q-2 -6 -11 -12q29 7 61.5 15t66.5 15.5t67 14.5t63 13q31 73 62.5 149t47.5 166q2 12 5.5 25t-3.5 21q-2 -5 -7.5 -10t-10.5 -7v6q-10 -11 -23 -19.5t-16 -19.5q5 9 12 10 q-5 -4 -11.5 -12t-14.5 -12q-1 -7 -6 -12.5t-12 -10.5q-1 0 -1.5 2t-1.5 0q-7 -4 -12 -11t-9.5 -14t-8 -10.5t-7.5 -0.5q-3 -8 -8.5 -11t-6.5 -14q-2 1 -3 2t-2 1q-5 -16 -17.5 -26.5t-21.5 -22.5q1 5 -1 5q-9 -17 -20 -30t-22 -27q0 5 -2 5q-8 -13 -15.5 -25.5t-19.5 -20.5 q5 5 7.5 8t2.5 8q-6 -9 -13.5 -18.5t-14.5 -19.5h1q-2 -8 -9 -13t-13 -10q-5 -13 -14.5 -29t-16.5 -19zM97 94q-1 -7 -7.5 -10.5t-8.5 -11.5q-2 5 4.5 10.5t11.5 11.5zM123 136q2 -4 -2.5 -9.5t-7.5 -6.5q1 4 4 7t6 9zM322 408q2 0 2 3q-2 -2 -2 -3zM629 533v-3v3zM629 533 v1l2 2zM44 30q-1 -1 -1 -2q0 1 0.5 1t0.5 1zM467 158l3 3zM521 305q1 1 1 2q0 -1 -1 -2z" glyph-name="A" unicode="A"/><glyph d="M469 308q-3 0 -1 4q-5 -9 -8 -18.5t-11 -20.5q-3 -2 0 3q-11 -17 -20 -35.5t-22 -33.5q-2 -5 -5.5 -7t-5.5 -7q-13 -9 -21 -22.5t-18 -24.5q-3 0 -3 2.5t-1 3.5q-2 -4 -6 -9.5t-9 -11.5q2 -2 4.5 3t6.5 3q-17 -23 -36 -44.5t-33 -35.5q-2 -1 -2.5 -1t-4.5 1 q-11 -13 -23.5 -24t-22.5 -23q-10 0 -18.5 -6.5t-17.5 -14.5t-18 -16.5t-19 -12.5q0 -4 2 -4q-8 -12 -21 -16q1 3 0 7q-20 -13 -36.5 -18.5t-41.5 -0.5q-26 3 -41 14t-21.5 30t-6 46.5t5.5 63.5q1 14 3.5 33.5t6.5 39.5q20 73 51.5 142.5t63.5 135.5q32 60 64 116t67 100 q1 2 -0.5 3t0.5 6q7 4 11.5 8.5t10.5 6.5q1 5 -1.5 6t2.5 4q8 8 20 11t20 14q4 0 1.5 -1.5t-4.5 -4.5q7 6 16.5 7.5t19.5 2.5t20.5 2t20.5 6q2 -2 5 -3.5t6 -3.5q10 -2 18 0t13 -5q30 -6 56 -30t44 -59q11 -20 14 -48t0 -56q-2 -23 -10 -50t-15 -53q-3 -13 -10 -23.5 t-15 -21t-15 -22.5t-9 -29l6 5l-6 -6v-7zM185 397q-3 -10 -10 -16t-12 -12q-6 1 -8.5 -6t-9.5 -10q-6 -20 -15.5 -36t-13.5 -31q-8 -7 -14 -19t-12 -26.5t-11.5 -28.5t-12.5 -24q-5 -29 -15.5 -61.5t-15.5 -67.5q-2 -22 -2 -42.5t6 -34.5t19.5 -18t37.5 7q26 11 50.5 34 t48.5 45q60 57 113 124.5t93 143.5q10 17 18 33.5t17 32.5q2 5 6 11.5t4 11.5q5 5 7.5 11.5t4.5 13.5q7 20 14 45.5t9 42.5q8 50 0.5 88.5t-24.5 63.5q-29 11 -57 11t-63 -8q2 -8 8 -10.5t4 -13.5q-16 -11 -29.5 -27t-26.5 -34.5t-25 -37.5t-24 -37q-11 -13 -16 -25.5 t-13 -24.5q-10 -13 -19 -26t-11 -32q2 -2 1.5 -3.5t-1.5 -6.5z" glyph-name="zero" horiz-adv-x="494" unicode="0"/><glyph d="M136 207q-4 1 -0.5 6t2.5 9q-11 -11 -18.5 -27.5t-11.5 -30.5q1 -2 3 1l4 6q-1 -8 -7.5 -18t-10.5 -18q-2 4 2.5 7.5t4.5 11.5q-7 -6 -14 -15.5t-9 -19.5q-8 -17 -16 -36t-20 -33q-3 -12 -8 -21.5t-11 -18.5t-11.5 -19.5t-8.5 -23.5q-4 0 -2 6t-2 6q-4 -8 -6 -22.5 t-8 -22.5q-6 -2 -8.5 0.5t-7.5 2.5q6 50 25 96.5t40 88.5q44 89 92.5 175.5t99.5 172.5q27 45 49.5 84t40.5 90q-14 -11 -28 -23t-30 -24q-8 -6 -17.5 -13.5t-14.5 -7.5q-6 -2 -13 3t-14 11.5t-13.5 14t-11.5 11.5q-2 6 0.5 10t5.5 9q3 0 5.5 1t4.5 2q20 18 45 36.5t51 32.5 q8 5 18 11t20 10t19.5 4.5t16.5 -5.5q-1 -2 -1 -4.5v-4.5q7 -14 16 -26t11 -29q0 -5 -1.5 -11.5t-1.5 -13.5q-39 -72 -78 -135.5t-79 -127.5v3q-12 -14 -23 -32t-20 -37q2 -2 3.5 0t3 5t3 5.5t3.5 2.5q-5 -10 -10.5 -18t-3.5 -16q-15 -20 -27 -38.5t-22 -42.5zM81 108 q2 -4 -2 -9.5t-6 -12.5q-1 4 3 11t5 11zM215 352q0 2 2.5 5.5t5.5 6.5zM163 251q-3 -2 -5 -6.5t-4 -5.5q2 3 4 7t5 5zM229 375q0 -3 -2 -5.5t-4 -5.5z" glyph-name="one" horiz-adv-x="310" unicode="1"/><glyph d="M167 342q21 -9 43 -17t43 -17.5t39 -22.5t30 -32q8 -17 12 -43t-12 -58q-6 -14 -17.5 -27t-25 -25t-27.5 -23.5t-25 -20.5q-29 -17 -57.5 -36.5t-58.5 -37.5t-62.5 -31.5t-68.5 -18.5q-5 2 -11.5 2.5t-12.5 2t-10 5t-4 11.5q57 8 106 34t98 57q18 11 37 25t39 29 q12 9 26.5 23t26 30.5t17.5 35.5t1 38q-9 26 -33 40t-52.5 24.5t-56 21.5t-41.5 31q2 7 1.5 13.5t2.5 12.5q3 9 11.5 19t18 20t19 19t15.5 16q38 30 71.5 58.5t68.5 63.5q20 19 39 40t27 55q-14 6 -30.5 3t-36.5 -9q-42 -11 -81.5 -31t-71.5 -47q-1 -4 -2.5 -8.5t-3.5 -7.5 q-11 -1 -15 6t-9 13q-9 14 -11 26.5t19 31.5q10 11 29.5 23.5t38.5 20.5q2 2 5 1.5t5 1.5q5 2 10 6.5t10 6.5q10 4 19.5 5.5t17.5 4.5q17 6 33.5 12t39.5 3q32 -2 49.5 -16.5t29.5 -39.5q4 -9 8.5 -17t6 -17t-0.5 -19.5t-10 -24.5q-5 -3 -8 -7.5t-6.5 -9.5t-8.5 -9t-12 -4 q-28 -35 -63.5 -63t-68.5 -60q-3 0 -4 -2.5t-5 -1.5q-11 -15 -31 -26q-2 -7 -8.5 -13t-14.5 -8q-6 -15 -17.5 -21t-18.5 -20z" glyph-name="three" horiz-adv-x="400" unicode="3"/><glyph d="M122 -61q-9 5 -11 16t-0.5 24t6 27t9.5 26q1 4 5 12t8 17t7 16.5t4 11.5q33 71 65 134t61 130q-4 2 -10 0t-12 -4.5t-11.5 -4t-7.5 1.5q-13 -8 -28 -14.5t-33 -13.5q-3 0 -1.5 -3t-1.5 -5q-9 -5 -15.5 -3t-17.5 0q-13 -2 -29 -5.5t-30 5.5q-3 2 -9.5 8t-12.5 13.5 t-10 14.5t-3 12q1 7 6.5 19t10.5 20q7 13 16.5 26.5t19.5 29.5l37 52q9 14 20.5 32.5t23 37.5t23 37.5t20.5 32.5q8 14 18.5 26t13.5 31q2 1 4 3l5 5q2 -2 5.5 0t8.5 2q8 -11 11 -26t4 -30q-2 -8 -8.5 -19.5t-14.5 -23.5t-16.5 -22.5t-13.5 -16.5q-13 -17 -22.5 -35.5 t-23.5 -26.5q-26 -39 -52.5 -75.5t-50.5 -78.5q29 2 56.5 10t54 18t53.5 20t54 16q23 42 47.5 91t46.5 94q4 7 10 17t12.5 20.5t12 21t10.5 17.5q8 10 12 19t13 12q7 -2 10 -7t9 -8q-3 -7 -2.5 -13.5t5.5 -6.5q-3 -4 -4 -10.5t-1 -11.5l-114 -221q14 0 34 5t38 -1 q-7 -15 -17.5 -22t-24.5 -11q-4 -1 -1.5 -3t-1.5 -4q-9 -4 -20 -6.5t-20.5 -6.5t-16.5 -11.5t-9 -20.5q-4 -2 -7.5 -7.5t-7 -12.5t-6.5 -14t-6 -11q-3 -9 -9 -18t-11 -17q-1 -15 -9 -25t-15 -19q-1 -2 0.5 -3.5t0.5 -5.5q-6 -10 -10 -17t-7.5 -13.5t-7.5 -13.5t-10 -17 q-3 -12 -10.5 -27t-16.5 -31t-17 -31.5t-12 -26.5q-8 -11 -13.5 -25l-11 -28t-12 -27.5t-15.5 -22.5zM366 432q5 -2 7 3t0 5q-2 -3 -3.5 -4t-3.5 -4z" glyph-name="four" horiz-adv-x="430" unicode="4"/><glyph d="M543 711q-1 -5 -4 -5.5t-5 -0.5q-2 -3 -1 -3.5t2.5 -1t2 -1t-1.5 -3.5q-2 -7 -5.5 -6t-3.5 -7q-29 -1 -66.5 -11t-68.5 -19q-4 -1 -4.5 -3t-2.5 -3q-14 -5 -15.5 -5.5t-0.5 0.5l-7 -3q-5 -2 -7.5 -4.5t-4.5 -0.5q-2 -1 -3 -2t-3 -1q-16 -7 -22 -9t-10 -3.5t-10.5 -4.5 t-23.5 -11q-10 -4 -20 -10t-21 -11q-4 -3 -9 -10.5t-10.5 -16l-11 -17t-9.5 -13.5q-11 -16 -18 -30t-16 -27q-18 -29 -36 -58.5t-23 -63.5q14 -4 32.5 -6.5t37.5 -5.5t37.5 -7t33.5 -12q16 -8 35 -23t31.5 -36t15 -48.5t-13.5 -61.5q-2 -5 -5 -8.5t-4 -9.5q-5 -2 -4.5 -1 t-1.5 2q-4 -5 -6.5 -8t-2.5 -8q-12 -6 -18.5 -14.5t-15.5 -16.5q-4 -3 -9 -6l-10 -6q-17 -17 -39 -33q-8 -6 -15.5 -9.5t-14.5 -14.5q-14 -9 -29 -17.5t-29 -21.5q-21 -6 -46 -15.5t-52 -7.5q-14 2 -24 7.5t-21 10.5q-8 5 -16.5 11.5t-8.5 19.5q5 3 9 0.5t8 1.5 q8 -11 19 -15.5t30 -0.5q20 6 46.5 18.5t53.5 28.5t52.5 34t43.5 35q15 13 30.5 34t24.5 44t9 45t-15 38q-8 8 -15.5 11.5t-21.5 6.5t-30 4.5t-31.5 3t-29.5 4t-24 7.5q-10 11 -21 18.5t-21 18.5q-8 9 -10 20t2 34q4 21 14.5 39t23 34.5t24.5 32.5t21 32q2 2 5 2t5 2 q11 19 23 37t27 31q2 5 1 8t1 8q5 11 13.5 16t17.5 11q6 10 12.5 12t14.5 7q5 3 9 4.5t9 4.5q-4 -3 -0.5 -1.5t9 3.5t10.5 4.5t4 1.5q6 3 9.5 5t8.5 4q7 4 11.5 6t15.5 5q27 8 45.5 13t34.5 8t33 3.5t42 -0.5q14 -1 26 -3.5t23 -9.5z" glyph-name="five" horiz-adv-x="385" unicode="5"/><glyph d="M5 124q0 2 -2.5 1.5t-2.5 -1.5q0 8 8.5 14.5t5.5 15.5q-9 1 -12 -9.5t-10 -15.5q2 10 -4 5q8 9 16 18.5t18 15.5q14 33 27.5 59.5t30.5 53.5q-5 -14 -13 -26t-13 -27q16 17 25 41t23 43q3 17 13 27.5t16 24.5q2 2 2.5 3.5t2.5 -0.5q7 21 18 37.5t22.5 31t22.5 29t18 32.5 q4 1 6 2t4 0q12 14 24.5 27.5t15.5 33.5q5 2 10.5 11t11.5 14q6 -2 7 0t3 5q2 5 -1 1.5t-5 -2.5q14 16 26 35l24 38t24.5 37t27.5 33q17 8 30.5 -3t15.5 -29q-171 -198 -308 -451q9 -2 18 5.5t17 11.5q17 8 35 15.5t36 15.5q33 17 67.5 18.5t60 -11.5t38 -40t1.5 -67 q-1 -6 -5 -10.5t-7 -8.5q0 -6 -2 -13t-9 -10q2 5 1.5 6.5t0.5 4.5q-4 -4 -6.5 -8.5t-4.5 -9.5q0 -1 2 -0.5t2 -1.5q-5 -8 -7 -13.5t-8 -10.5q-2 2 -0.5 4.5t1.5 6.5q-2 0 -2.5 -2.5t-2.5 -1.5q-2 -14 -8.5 -21t-17.5 -13q-2 0 0 2q1 1 3 2q-13 -7 -25 -22.5t-27 -23.5 q-17 -22 -39 -36.5t-42 -31.5q-2 -4 -1.5 -6t-1.5 -2q-3 1 -5 -1t-7 -3q-19 -12 -43 -23t-45 -15q-14 -2 -27 2t-25 10.5t-22 14t-18 12.5q-14 26 -15.5 65.5t12.5 84.5zM232 249q0 -2 1 -2t2 -2l-10 -5t-10 -1q-29 -17 -59 -30t-53 -39q-2 2 -2.5 0t-3.5 -1 q-11 -14 -15.5 -32t-10.5 -35q-11 -23 -17 -39.5t-8 -43.5q-1 -6 0 -11t-2 -10q0 -9 3.5 -14t9.5 -7t13 -2t14 2q26 5 53 20t52.5 35.5t47.5 43t39 41.5q14 12 30.5 30.5t30.5 40.5t22 46.5t5 48.5q-19 2 -33.5 1t-27.5 -11q-2 2 -6.5 0t-7.5 0q-2 -1 -3.5 -3t-3.5 -4 q0 2 1.5 4t1.5 4q-5 0 -6 -3t-5 -3q0 2 0.5 3.5t-1.5 1.5q-5 -4 -10 -5.5t-10 -3.5q0 -4 0.5 -4t2 1t3.5 1.5t3 -0.5q-7 -3 -14 -7t-16 -6zM291 65q5 2 8.5 5.5t8.5 10.5q-6 -3 -11.5 -5.5t-5.5 -10.5zM104 187q15 7 23 17q-5 1 -10.5 -5.5t-12.5 -11.5zM161 223 q5 0 6.5 0.5t5.5 2.5q0 2 1 2.5t1 2.5q-5 -1 -8.5 -2t-5.5 -6zM213 478q4 4 8.5 9t3.5 10q-3 -5 -7.5 -11t-4.5 -8zM277 58q-1 -2 -2 -6.5t1 -4.5q1 4 4.5 6t3.5 5h-7zM122 196q4 0 8 2t6 6q-4 -2 -7 -4t-7 -4zM242 22q3 0 6 1.5t3 4.5q-6 0 -9 -6zM236 256q7 -4 10 5 q-3 -2 -5.5 -2.5t-4.5 -2.5z" glyph-name="six" horiz-adv-x="411" unicode="6"/><glyph d="M218 223q5 -2 6.5 4.5t6.5 6.5q-3 -11 -7.5 -18t-9 -12.5t-8.5 -12t-5 -15.5q-9 -2 -11 -10t-6 -16q-2 0 -2 2.5t2 4.5q-5 -5 -8 -7.5t-8 -2.5q-7 -14 -13 -25.5t-12 -26.5q4 4 7 10t7 11q-2 -8 -5.5 -15l-7.5 -15q-2 -2 -4 -0.5t-2 2.5q-12 -11 -24 -30t-23.5 -41 t-23 -43.5t-21.5 -36.5q-4 6 -21 4q-2 15 4 35.5t16 41.5t20.5 40.5t17.5 33.5q12 25 29 52.5t35.5 55t36.5 54t32 49.5q-6 3 -21.5 -1.5t-24.5 -6.5l-40 -8t-40 -3q-6 8 -11 10.5t-9.5 5t-8.5 6t-7 13.5q5 8 12.5 10t13.5 4q32 6 59 12.5t61 13.5q15 3 30.5 4.5t22.5 6.5 q4 2 9 9.5t10.5 16t11 17.5t9.5 14q28 45 56 96t49 102q2 9 6 24t1 26q-27 4 -59.5 -1.5t-64.5 -13.5q-19 -5 -44 -15.5t-59 -19.5q-10 -2 -19 -6.5t-16 -3.5q-10 2 -14 3t-3 9q1 9 -5.5 14.5t-9.5 16.5q13 10 19 16.5t24 11.5q30 7 59 16.5t57.5 17t57.5 11t60 -1.5 q22 -3 37 -19t26 -33q4 -8 9 -17.5t8 -21t1.5 -25t-8.5 -29.5q-1 -3 -3.5 -5.5t-4.5 -6.5q-8 -14 -16.5 -31t-19.5 -26q-7 -21 -20 -35.5t-23 -30.5q-11 -17 -19 -32.5t-21 -28.5q23 2 49 6t53 7t52.5 3.5t47.5 -2.5q-5 -6 -13.5 -8t-9.5 -12q-7 -5 -15 -5.5t-12 -10.5 q-9 -2 -18.5 -4.5t-17.5 -7.5q-23 -5 -45 -8.5t-45 -7.5q-20 -3 -37 -8.5t-37 -13.5q-2 -8 -6.5 -14.5t-8.5 -12.5q-14 -10 -26.5 -28t-26.5 -38z" glyph-name="seven" horiz-adv-x="413" unicode="7"/><glyph d="M290 429q10 -20 23.5 -38t25.5 -37t20 -42t8 -53q-1 -29 -11.5 -56t-26 -51t-32.5 -44.5t-32 -35.5q-20 -21 -43 -37.5t-45 -33.5q-12 -9 -27.5 -18.5t-33 -19t-36.5 -18t-37 -13.5q-13 -4 -29 -8.5t-33 -1.5q-30 5 -46.5 27.5t-1.5 73.5q28 64 62.5 120t72.5 106.5 t79 97.5t83 95q-10 17 -22.5 33t-22 35t-13 41.5t3.5 52.5q2 0 1.5 -2t1.5 -2q5 9 7.5 17t8.5 16q3 -3 6.5 -0.5t7 7t7.5 9t9 6.5q6 0 1 -5q17 9 35.5 22.5t38 25t39.5 19t41 6.5q11 0 18 -7.5t17 -12.5q7 -10 10.5 -22t9.5 -23q-1 -5 0.5 -7.5t-3.5 -4.5q8 2 16.5 10 t17.5 15t18.5 11t19.5 -2q1 -4 -1 -5.5t-5 -3.5q3 -1 7 -0.5t8 -2.5q-11 -14 -23 -24t-23 -21q9 2 15.5 10t15.5 11q0 -4 -4.5 -8t-9.5 -8t-9 -8.5t-2 -9.5q-8 -5 -13 -4q-2 -8 -7 -14t-11.5 -11t-13 -10.5t-10.5 -12.5q-5 -1 -6.5 -3t-3.5 0q1 -5 -3 -9t-4 -10 q-5 -4 -9.5 -6t-9.5 -7q-11 -9 -19 -19.5t-19 -17.5v-9q-11 -5 -19 -15.5t-16 -10.5q-4 -5 -9 -9.5t-10 -12.5zM-17 -47q11 -3 29.5 1.5t32.5 11.5q46 18 96.5 49.5t99.5 78.5q25 27 47.5 60t30.5 70q9 30 7.5 53.5t-10 43t-20.5 35.5t-24 31q-3 4 -4.5 8.5t-6.5 1.5 q-21 -27 -45 -51t-45 -53q-10 3 -12 -7q0 -2 0.5 -1.5l1.5 1.5t2.5 2t1.5 -1q-19 -21 -35 -42.5t-33 -42.5q-1 0 0 5q-9 -9 -18 -22.5t-12 -22.5q-14 -9 -22 -27t-18 -29q-3 -7 -1 -10q-6 -2 -9 -8.5t-6 -14.5q-8 -11 -14.5 -27t-11.5 -23q1 4 0.5 4t-2 -1.5l-3 -3t-1.5 0.5 q-4 -11 -8 -23t-5.5 -22t2 -17t15.5 -8zM398 666q-12 3 -29.5 -2t-36.5 -15t-37 -22.5t-31 -23.5q-8 -10 -21.5 -28.5t-14.5 -38.5q-2 -21 7.5 -35t17.5 -29q90 88 175 169q-5 0 -9 3.5t-7 7.5t-6.5 8t-7.5 6zM425 571q-4 -2 -10 -5.5t-5 -8.5q2 5 7 6.5t8 7.5z" glyph-name="eight" horiz-adv-x="483" unicode="8"/><glyph d="M394 601q8 -14 13.5 -28.5t-3.5 -39.5q-6 -20 -14.5 -32t-15.5 -30q-19 -23 -34.5 -53t-31.5 -59q-10 -8 -15.5 -18.5t-10.5 -22.5q-37 -48 -65.5 -101.5t-55.5 -112.5q-4 0 -1.5 3t2.5 6q-6 -3 -8 -10t-2 -12q-7 -13 -13 -28.5t-14 -29.5q0 4 -0.5 7t0.5 5q-3 -8 -6 -17 t1 -14q-11 -12 -14.5 -32.5t-5.5 -40.5q-7 -11 -24 -21q-3 8 -4 14.5t-4 14.5q3 -1 7 -1q-5 18 1.5 45t14.5 53q28 88 65.5 161t78.5 143q5 5 8.5 10t5.5 10q30 45 59 93.5t47 98.5q-18 -11 -36.5 -26.5t-39.5 -26.5q0 -3 -1 -3.5t-3 -5.5q-14 -5 -26.5 -20t-29.5 -23 q-3 -5 -9 -5q-9 -4 -20.5 -12.5t-21.5 -16.5q-12 -6 -23.5 -12.5t-22.5 -11.5q-31 -16 -65 -13t-57 24q-14 14 -10.5 37t14.5 51q1 2 3 2.5t5 5.5q12 22 26 37.5t26 33.5q1 -7 -4 -9.5t-3 -5.5q32 38 65.5 71.5t72.5 58.5q-3 -5 -7 -7.5t-5 -8.5q5 2 10.5 5.5t11.5 7.5 q15 11 32 24.5t38 19.5l9 8q13 2 20.5 -2.5t12.5 -12.5q4 -7 8.5 -10.5t5.5 -9.5q11 -15 10.5 -39.5t-12.5 -50.5q12 6 19.5 9t14.5 8q13 -5 17 -13t14 -19zM177 496q31 24 60.5 47t58.5 48q-11 3 -9.5 13t4.5 20q2 20 10 41.5t6 35.5q-25 -1 -43 -12t-40 -27 q-17 -12 -34 -29t-32 -34q-17 -17 -35 -36t-34 -41t-28.5 -46.5t-17.5 -52.5q38 8 71 29t63 44zM161 113q5 5 10 16t7 19q-5 -8 -10 -17.5t-7 -17.5zM152 652q-3 2 -5.5 -2t0.5 -6q1 2 3 3t2 5zM185 164q-2 5 1.5 7.5t1.5 5.5q-2 -2 -3.5 -5.5t0.5 -7.5zM178 151q0 -1 2 3 t0 5q0 -2 -1 -2.5t-1 -5.5z" glyph-name="nine" horiz-adv-x="363" unicode="9"/><glyph d="M151 -147q17 -8 31 -17q8 0 14 -2.5t12 -6.5q10 -5 6 -18q-49 10 -82.5 32t-54 53.5t-29 72.5t-7.5 89q2 23 4 47.5t4 44.5q2 14 5.5 29t8.5 32q3 18 6.5 36.5t11.5 31.5q1 3 2.5 5.5t2.5 7.5q6 8 7 16.5t3 15.5q2 5 5.5 7.5t8.5 7.5q1 4 0.5 9t1.5 10l15 19 q8 15 15.5 31.5t16.5 33.5q9 16 18.5 33.5t17.5 28.5q5 5 11 9t8 9q11 10 18.5 22.5t15.5 23.5q10 11 19 22t17 20q2 5 9 8t11 7q14 13 26 29.5t26 30.5q7 8 16 17.5t18.5 18.5t19.5 16t21 10q9 8 17 20.5t19 21.5q12 9 29.5 18.5t27.5 8.5q8 -1 14 -9t8 -14q2 -4 0.5 -7 t-5.5 -6t-8.5 -5t-8.5 -5q-8 -5 -15 -11.5t-18 -14.5q-51 -40 -98.5 -91.5t-88.5 -107.5q-36 -45 -68.5 -97t-61.5 -115q-2 -10 -7 -20t-8 -20q-4 -11 -10 -21t-9 -19q-2 -4 -1 -8.5t-1 -9.5q-2 -9 -9.5 -25.5t-10.5 -29.5q0 -3 1 -7t1 -7q-12 -46 -18.5 -91.5t-4 -86.5 t15 -75t38.5 -58z" glyph-name="parenleft" horiz-adv-x="373" unicode="("/><glyph d="M-51 -182q-1 4 0.5 5.5t2.5 5.5q-5 -2 -15 -2q6 21 23 39t28 34q2 -2 -1.5 -5t-3.5 -5q7 0 11 6t7 8q0 10 6 17.5t12 10.5q0 5 3.5 7t5.5 7q12 9 21.5 26.5t20.5 33.5l6 6q24 35 44.5 72.5t47.5 68.5q5 24 16 43.5t22 39.5q5 14 9 28.5t12 28.5q4 8 8.5 20t8.5 24.5 t8 25.5t7 23q18 63 18.5 123.5t-10.5 102.5q-6 18 -13.5 33.5t-15.5 30.5q-7 12 -13.5 24t-13.5 22q-1 2 -5.5 6.5t-10.5 9t-11 8.5t-8 6q-6 6 -10 14.5t-4 22.5l6 6q7 0 18 -11t19 -14q17 -20 33.5 -41t31.5 -43q36 -55 51 -132.5t-3 -171.5q-2 -8 -7 -18t-7 -21 q0 -2 -0.5 -5t-0.5 -6q0 -5 -6 -13.5t0 -16.5q-3 -3 -6 -8t-1 -9q-17 -38 -32.5 -76t-35.5 -72q-2 -1 -4 -2.5t-4 -2.5q-5 -27 -22.5 -47.5t-28.5 -44.5q-7 -4 -9 -11t-7 -14q-3 0 -3.5 -2.5t-2.5 -2.5q-7 -16 -20 -29.5t-17 -30.5q-1 0 -1 1t-1 1q-5 -8 -10.5 -14.5 t-13.5 -8.5q-5 -7 -11 -14.5t-7 -15.5q-2 0 -5 -2.5t-5 -4.5q0 -3 1.5 -3t-1.5 -4t-8 -9t-12 -6q-14 -11 -32.5 -26t-29.5 -26q-6 3 -8.5 0.5t-10.5 -0.5z" glyph-name="parenright" horiz-adv-x="353" unicode=")"/><glyph d="M349 786q-5 -13 -13 -26t-12 -30q-6 -17 -6 -33.5t-4 -33.5q-5 -35 -12 -67.5t-21 -64.5q-8 -24 -21 -47t-27 -41q-2 -2 -5.5 -4t-5.5 -6q-5 -2 -5.5 -5.5t-0.5 -6.5q-11 -14 -25.5 -24.5t-31.5 -21.5q6 -11 12 -23.5t8.5 -27t0.5 -31t-11 -35.5q-18 -40 -41 -80.5 t-39 -77.5q-3 -6 -1 -4.5t0 -3.5q0 -4 -3.5 -4.5t-4.5 -2.5q-14 -31 -30.5 -66.5t-26.5 -72.5q-2 -3 -3 -7.5t-2 -9.5q-1 -4 -3.5 -7t-4.5 -7q-9 -28 -9 -56t4 -49q5 -8 13 -11.5t15 -7.5q2 -8 4 -13q-21 1 -32 8t-19 16q-11 17 -14 41.5t-1 47.5q2 15 5.5 27t8.5 29 q17 72 48.5 137t63.5 128q7 16 15.5 33.5t15 35.5t9.5 34.5t0 30.5q-5 1 -8 5t-10 4q-3 5 -4.5 9t-5.5 7q-4 7 -4 11.5t-2 7.5q42 22 74 56q53 51 81 138q14 43 16 92q2 26 5 59.5t17 62.5q-1 5 1.5 3t3.5 1q1 1 2 4t2 3q1 1 3.5 0.5t2.5 0.5q5 4 9.5 11t11.5 14q5 6 13 12 t18 10t20.5 5t19.5 -3q1 -8 9 -13t5 -15q-2 -7 -9.5 -9.5t-12.5 -6.5q-14 -5 -24.5 -12.5t-21.5 -16.5z" glyph-name="braceleft" horiz-adv-x="239" unicode="{"/><glyph d="M239 326q-2 -3 -1.5 -7t-3.5 -9q-22 3 -33 -2t-26 -17l-14 -13q-10 -12 -14.5 -20.5t-10.5 -21.5q-2 1 -2 -5.5t-1 -4.5q-6 -10 -8 -22t-2.5 -25t-0.5 -27t-3 -27q0 -26 -1 -47.5t-9 -48.5l-2.5 -7.5t-0.5 -3.5q-6 -29 -19.5 -54.5t-28.5 -48.5q-24 -40 -60.5 -72.5 t-74.5 -47.5q-11 -4 -18 -7.5t-12.5 -4t-11.5 2t-15 9.5q5 5 4 13.5t4 15.5q4 -4 6.5 -5t4.5 0t5.5 3.5t10.5 4.5q6 2 8.5 2.5t4.5 1.5t4.5 2.5t8.5 5.5q27 13 52.5 35.5t46.5 52.5t36 67t21 79q3 25 2.5 45.5t-1 40.5t1 41.5t8.5 47.5q3 13 9.5 26.5t16.5 23.5q1 4 5 8 q9 4 11 9q11 11 16.5 13.5t10.5 6.5q-17 7 -25 13.5t-16 16.5q-11 19 -9.5 52t9.5 66q7 20 16.5 44t19.5 38l6 9q1 5 5 8.5t6 11.5q4 3 8 11.5t7 14.5q2 2 1.5 2.5t0.5 3.5q11 10 18.5 25.5t17.5 25.5q4 13 10 27.5t11.5 29t9 29t2.5 28.5q-20 8 -33 8t-23 -5 q-5 -2 -11.5 9.5t-7.5 19.5q4 12 13.5 13.5t22.5 1.5q8 -1 20 -1.5t20 -5.5q4 -6 13 -6q14 -12 16.5 -22.5t7.5 -21.5q7 -19 0 -45t-16 -49q-14 -27 -31 -56.5t-31 -55.5l-5.5 -11t-4.5 -11q-8 -14 -15 -27.5t-12 -32.5q-6 -14 -10.5 -21.5t-9.5 -21.5q-7 -27 -7 -43 t6.5 -25.5t19 -14.5t30.5 -11q3 -2 5 -2t6 -2l10 -3q5 -2 8.5 -5.5t-3.5 -17.5z" glyph-name="braceright" horiz-adv-x="301" unicode="}"/><glyph d="M441 262q-6 -3 -14 -2t-13 1q-8 -9 -17 -6.5t-23 0.5q-2 5 -6 5.5t-10 1.5q-5 -8 -11.5 -12t-15.5 -1q-2 4 -4.5 5t-4.5 2q2 4 3 2.5t3 0.5q-6 1 -13 0t-14 -3t-13.5 -3t-10.5 2q-6 -1 -11.5 -6.5t-10.5 -2.5q-3 0 -1 2t-1 4q-12 -1 -16 -9q-5 -1 -3.5 2.5t-2.5 1.5 q-3 2 -2.5 -1.5t-0.5 -2.5q-14 1 -26 0.5t-27 -2.5q-2 -1 -2.5 -0.5t-2.5 0.5q-15 -2 -33 -10.5t-32 -12.5q-8 -2 -12 -1t-6.5 4t-4.5 6.5t-5 7.5q-13 11 -19 32q4 8 7.5 8.5l10.5 1.5q33 3 75.5 13t86.5 12q32 2 62.5 1.5t63.5 -1.5q10 0 23 1t24.5 -1t19.5 -9t7 -23 q2 -2 3 -2q0 -3 -1 -3t1 -3zM320 425q-12 -17 -22.5 -31t-21.5 -16q-5 0 -8 2.5t-5 6t-4 7.5t-5 6q1 10 -1.5 19.5t7.5 20.5q1 1 3 2q1 1 2 1.5t2 1.5q11 9 24.5 15.5t22.5 -7.5q2 -6 2.5 -14t3.5 -14zM199 146q3 -2 14 2.5t14 2.5q4 -3 7 -11t4.5 -17t0.5 -18t-6 -14 q-2 -2 -6.5 -5t-10 -6.5t-10.5 -6t-8 -1.5q-7 1 -7.5 7t-9.5 6q0 8 -3 15.5t-2 15.5q3 10 10.5 17t12.5 13z" glyph-name="divide" horiz-adv-x="549" unicode=""/><glyph d="M396 288q-25 3 -46.5 2.5t-50.5 -3.5q-3 5 -12.5 2t-14.5 -3q-8 0 -18 -2q-11 -3 -19 -3.5t-17 -5.5q-20 -2 -48.5 -6t-55.5 -8q-12 -3 -17.5 -3.5t-14.5 10.5q2 2 1 4l-2 4q-5 3 -6 5v9q-2 4 -3 8.5t0 5.5q1 4 7 6t13.5 3t15 1t13.5 1q45 3 94.5 6.5t99.5 3.5 q22 1 43 -0.5t39 -9.5q7 -9 -1 -27zM387 201q-2 -4 -5.5 -7.5t-3.5 -6.5q-18 -1 -37 -2t-36 -6q-1 -2 -2 -3.5t-5 -1.5q-2 -1 -5.5 0.5t-3.5 4.5q-2 -1 -4.5 -3t-4.5 -3q-2 0 -5 -1.5t-2 1.5q-4 -1 -3.5 -4t-3.5 -1q-11 -2 -23 -1.5t-23 -3.5q-6 2 -9.5 -1t-11.5 -4 q-5 -1 -9 -0.5t-7 0.5q-4 -1 -7.5 -2.5t-8.5 -2.5t-9 -0.5t-12 -1.5q-11 -3 -22 -7t-18 -7q-5 0 -8 -0.5t-5 0.5q-6 1 -10 7t-6.5 13.5t-4 15.5t-2.5 13q8 7 17 9.5t17 4.5q17 2 34.5 3t35.5 3q46 4 97.5 7.5t101.5 -2.5q2 -2 4.5 -6t9.5 -4z" glyph-name="equal" horiz-adv-x="472" unicode="="/><glyph d="M406 310q-4 -8 -10.5 -13.5t-11.5 -11.5q-23 -7 -41 -9.5t-46 -7.5q-11 -4 -23.5 -5t-23.5 -3q-3 -11 -7.5 -19.5t-6.5 -19.5q-5 0 -9 -6t-7 -9q-14 -32 -28.5 -59.5t-14.5 -60.5q-11 -7 -17.5 -4.5t-7.5 9.5q-3 8 -1.5 18t5.5 21q11 32 23.5 58.5t23.5 57.5 q-6 0 -19.5 -3t-28.5 -6t-28 -5.5t-19 -2.5q-12 2 -20.5 11.5t-18.5 16.5q2 9 8.5 11t14.5 2q9 0 27 2.5t38 6t38 6.5t27 4q14 32 28 61t26 63q6 9 12 9.5t10.5 -2.5t8.5 -9t7 -11q5 -7 7.5 -11t-2.5 -14q-2 -4 -5 -6.5t-7 -6.5q-10 -16 -18.5 -34.5t-16.5 -29.5 q19 2 34.5 4.5t31 4.5t32 3.5t36.5 1.5v-2z" glyph-name="plus" horiz-adv-x="432" unicode="+"/><glyph d="M213 236q4 -10 9 -23t10.5 -25.5t11.5 -23.5t14 -17q2 -9 6.5 -15t9.5 -12t8.5 -12.5t4.5 -16.5q-7 -5 -11 -1.5t-6 8.5q-14 7 -26 20t-23 28t-20.5 30.5t-18.5 27.5q-14 -12 -24.5 -23t-19.5 -22t-17.5 -23.5t-19.5 -28.5q-5 -7 -9 -11.5t-7.5 -8t-8.5 -7.5t-11 -10 q-6 3 -11 2t-9.5 -2t-7.5 -0.5t-6 6.5q11 26 28 46.5t37 41.5l5 5t1 2t1 2t4 5q14 16 26.5 30.5t29.5 29.5q-8 24 -19 51t-19 53q-2 6 -4.5 14.5t-2.5 16.5t3.5 14t14.5 7q15 -8 24 -20.5t15.5 -27.5t11.5 -32t11 -32q34 38 66.5 75.5t69.5 69.5q3 0 6.5 -0.5t7.5 3.5 q8 -4 12.5 -6t7 -5t3 -7.5t0.5 -13.5q-1 -6 -1 -7.5t-3 -4.5q-30 -27 -57 -53t-58 -60q-8 -6 -19.5 -16t-19.5 -21z" glyph-name="multiply" horiz-adv-x="437" unicode=""/><glyph d="M93 672q5 -2 8 -7t8 -11q7 -11 4.5 -19t-8.5 -25q-19 -43 -18 -83q15 -2 32 10t29 26q26 27 53 60t50 61q5 0 6.5 -3.5t7.5 -5.5q-1 -4 -2 -4t-3 -4q7 -2 7 -4q0 -11 -3 -18t-7.5 -13.5t-10 -13t-8.5 -14.5q-7 -6 -13.5 -15t-11.5 -17q-15 -17 -33 -33.5t-35 -30.5 q-13 -5 -24 -10.5t-25 -0.5q-13 4 -25.5 14t-15.5 24q-6 20 -1.5 46t15.5 52q4 13 9.5 23.5t14.5 15.5z" glyph-name="breve" horiz-adv-x="282" unicode=""/><glyph d="M170 596q-3 -5 -4.5 -10t-4.5 -10q-3 -2 -4.5 -4t-3.5 -4l-2 -4q-3 -4 -12 -11q-5 -3 -7 -6.5t-4 -4.5q-4 -2 -4 -4q-4 -1 -5.5 -2t-3.5 -2h-6l-15 -4h-8q-15 2 -21 16t-3 29q2 14 8.5 27.5t15.5 23.5q1 5 5 8.5t7 7.5l2 1l9 9q6 1 8 2.5t7 3.5l-3 -2q-3 -2 -2 -3 q0 -1 5.5 2t8.5 3q1 0 1 -1q2 0 5.5 1.5t5.5 1.5h6.5t7.5 -2q0 -2 1.5 -2.5t2.5 -1.5q4 -4 9 -14q2 -5 3 -12t0 -14q1 -7 -2.5 -14.5t-5.5 -14.5q1 3 1 5.5t2 5.5zM167 585v-3v3z" glyph-name="dotaccent" horiz-adv-x="247" unicode=""/><glyph d="M204 576q-2 -1 -3.5 -1.5t-5.5 -5.5q1 -2 2 0t1 3q2 -4 0.5 -8t-2.5 -6q-2 -1 -1.5 1t-1.5 2q0 -4 -7 -8q0 -1 3 -1q-4 -15 -15 -26q-7 0 -12 -3.5t-9.5 -8.5t-9.5 -10t-11 -7q0 1 2.5 2t2.5 3q0 1 -1.5 0.5t-1.5 1.5q-8 -4 -15 -9t-14 -9.5t-15.5 -7.5t-19.5 -1 q-6 1 -13 7.5t-11 12.5q-9 13 -6 30t11 34t18 32.5t17 25.5q2 0 2 -2t1 -3q4 6 9 12t10 8q-3 -5 -6 -7t-4 -5q6 2 12 11.5t14 13.5q0 -4 -2 -5t-3 -4q1 -2 2 1t4 3q-1 -1 -1 -2q4 2 5 7q1 4 -7 4q2 2 6.5 2.5t6.5 4.5q-2 4 -6.5 0t-6.5 1q11 11 25 12t25 -1q0 -2 3.5 -4 t5.5 0q2 -2 3 -3.5t5 -3.5q3 -7 8.5 -14.5t9 -16t4 -19t-6.5 -24.5q0 -4 0.5 -5.5t-0.5 -3.5zM108 517q23 15 43.5 40.5t31.5 57.5q1 7 2 13t-1 13q-5 0 -10.5 1t-10.5 -1t-14 -10.5t-14 -14.5q-22 -21 -39.5 -48.5t-26.5 -58.5q12 -6 20.5 -1.5t18.5 9.5zM196 556 q-2 -3 -3.5 -3h-3.5q2 1 3.5 3t3.5 0zM197 575q1 1 1.5 4t-1.5 4v-8zM189 553v-1v1z" glyph-name="ring" horiz-adv-x="262" unicode=""/><glyph d="M92 2q2 2 1.5 0t2.5 0q3 6 7.5 9.5t9.5 7.5q5 3 10 7.5t9.5 7.5t8.5 3t8 -6q1 -2 4 -8.5t5 -8.5q-1 -4 -3.5 -6.5t-4.5 -7.5q-5 -1 -9 -5t-7 -6q-18 -20 -35 -41.5t-28 -55.5q19 -11 36.5 -13t35 1t35.5 9.5t38 12.5q2 -2 4 -1.5t7 0.5q3 -8 8.5 -16t3.5 -17 q-2 -6 -5.5 -5.5t-6.5 -4.5q-12 -5 -19.5 -7.5l-15 -5t-16 -4t-22.5 -2.5q-8 -1 -7 -4t-4 2q-11 -4 -21 -3.5t-19.5 3t-18.5 6.5t-18 7q-5 11 -13 21.5t-8 27.5q0 2 -1.5 3t-2.5 3q-2 19 8 38t18 32q7 8 12.5 12t12.5 11q1 2 -0.5 2t0.5 2z" glyph-name="ogonek" horiz-adv-x="308" unicode=""/><glyph d="M80 632q4 2 8 -1.5t7 -9t4.5 -12t1.5 -10.5q-2 -10 -4.5 -21t-4.5 -19q-2 -10 -3 -21.5t-1 -19.5q17 5 32 18.5t29 25.5q11 11 22.5 23.5t23.5 23.5l3 4l3 2l-2 -2q3 1 3 3l2 2l-2 -1l1 1q3 5 9.5 9.5t13.5 8.5q3 3 9.5 7.5t11.5 -0.5q2 -4 1 -7t5 -5q-2 -6 -3.5 -8 t-1.5 -7q-6 -6 -9.5 -9t-5.5 -6t-5.5 -7t-9.5 -11q-8 -8 -17.5 -16.5t-14.5 -17.5q-15 -12 -26.5 -24.5t-26.5 -20.5q-4 -2 -7.5 -5.5t-6.5 -5.5q-5 -2 -11.5 -4.5t-12.5 -1.5q-4 2 -6.5 6t-4.5 8q-7 4 -13 7t-8 11q-1 11 0 27t3 31t7 29t7 26zM201 615l1 2v-1z" glyph-name="caron" horiz-adv-x="283" unicode=""/><glyph d="M269 344q0 4 1 5t-1 3q-2 1 -3.5 -3.5t-3.5 -6.5q2 -4 2.5 -2t2.5 2q0 -6 -5 -8.5t-5 -7.5q-2 1 -2 2.5t-1 3.5q0 1 -0.5 -0.5t-2.5 -1.5q1 -2 2 -3.5t2 -3.5q1 -1 -1 -6q-4 -2 -6 -2q-3 -6 -2 -11q-5 0 -6.5 -2.5t-5.5 -6.5q1 -1 2 -0.5t1 -0.5t-3 -1q0 -7 -4.5 -8 t-4.5 -6q-2 -2 -2 1q-2 3 -0.5 5t2.5 4q-5 -3 -8 -6.5t-1 -8.5q-11 -4 -11 -11q3 0 3 5q4 -11 -4 -19.5t-12 -18.5q-6 -2 -9 -7t-6 -11.5t-6.5 -12t-10.5 -8.5q-1 2 -1 6q-3 0 -3 -2t-2 -1q-2 2 -1 3t0 3q-4 -2 -6.5 -3.5t-7.5 -3.5q0 -5 -2 -6.5t-3 -3.5q1 -2 1.5 -1t3.5 2 q0 -1 -1 -3t0 -5q1 0 1 2.5t1 -1.5q2 -5 -2 -8.5t-3 -9.5q-5 1 -7 -2t-4.5 -7.5t-5 -7.5t-7.5 0q-5 -2 -5 -5.5t-2 -5.5q-1 2 0 4t0 5q-1 -1 -2.5 -5.5t-6.5 -6.5q1 -3 3.5 -0.5t3.5 2.5q2 0 -2 -3.5t1 -3.5q-3 -14 -11.5 -25t-18.5 -22q-1 5 2 9q1 2 -0.5 0.5t-2.5 -0.5 q0 4 1.5 5.5t1.5 5.5l-7 -10.5t-7 -16.5q-8 -2 -11 -10q1 -2 2 -0.5t3 -1.5q-4 -7 -9 -15t-10 -13q0 6 3 12q-4 -4 -6.5 -10t-4.5 -12.5t-5.5 -12t-10.5 -8.5q0 2 1.5 2.5t-1.5 2.5q-1 -2 -1.5 -5t-5.5 -1q1 -3 1 -3.5t-2 -2.5q-2 -1 -3 -2.5t-3 -1.5q1 3 -1 3.5t-3 -1.5 q0 11 6.5 18.5t11.5 15.5q-2 1 -4 -0.5t0 3.5q-3 -1 -2.5 -2.5t-1.5 -2.5q-6 2 -1.5 8t3.5 13q5 5 8 5q8 24 22.5 41.5t24.5 39.5q16 18 28 39.5t25 41.5q15 15 26.5 34t25.5 34q5 14 14 21t15 20q32 36 58 76.5t59 73.5q16 26 34.5 46t34.5 44h3q17 23 33.5 43t34.5 44 q1 0 1 -1t2 -1q2 6 3 11t9 7q10 11 19 24t19 27q2 -4 -1 -7t-5 -8q7 6 11 12t9 12q0 -2 -0.5 -3t-0.5 -2q9 10 17 18t14 17q6 4 12.5 4.5t13.5 5.5q4 -2 7 -1t7 -2q3 -7 -1.5 -12.5t-9.5 -8.5q-15 -20 -29 -44.5t-30 -44.5q-10 -10 -20 -22.5t-17 -23.5t-14.5 -18.5 t-13.5 -19.5q-20 -18 -36 -39.5t-33 -41.5q-3 0 -5 -3t-3.5 -7t-4 -7t-6.5 -4q2 -2 1 -2.5t-2 -2.5q-12 -13 -22 -26.5t-20 -26.5q-5 -7 -10.5 -13.5t-9.5 -9.5q0 -3 1 -3q2 -1 0 -0.5t-2 -0.5q-6 -3 -8 -13q-5 -2 -15 -11zM387 73q-2 -3 -4.5 -5.5t-2.5 -4.5q-8 -8 -21 -13 t-27 -3q-3 0 -9.5 3t-12.5 7t-10 8.5t-3 9.5q-2 20 4 34t14 30l12 17q3 5 9 10.5t6 6.5q2 1 7 0t10 1q15 3 28.5 -2t22.5 -16q7 -8 11 -21t0 -27q-9 -24 -34 -35zM267 718q8 1 12 0.5t9 -3.5q7 -5 14 -12t11 -12q1 -2 2.5 -7t-0.5 -7q1 -2 -1 -4.5t-3 -7.5q-3 -3 -3 -6 t-1 -4q-4 -10 -12 -20t-17.5 -17.5t-20.5 -10.5t-22 1q-12 2 -20 11t-8 24q-3 12 0 24.5t10 23.5q9 11 22.5 23t27.5 4zM385 143q-8 -8 -17 -18.5t-21 -16.5q-7 -5 -9 -12.5t-6 -14.5q10 0 23 6.5t23 15.5t13.5 20t-3.5 22q0 -2 -3 -2zM289 678q6 15 -4 18q-1 -2 1 -1.5 t1 -1.5q-3 -8 -12 -10t-14 -9q-3 0 -3 -1.5t-2 -1.5q-2 -5 -6.5 -11t-6.5 -11q-3 3 -2 3q-2 -2 -3 -6.5t-4 -9.5q9 -3 18 0t17 9t13.5 15t6.5 18zM115 158q2 4 4 5q-1 -3 4 -6q-1 1 -1.5 2.5t-2.5 3.5q4 5 7.5 7.5t1.5 9.5q-2 -8 -7 -11.5t-6 -10.5zM39 44q2 2 2 4t2 0 q2 3 4.5 4t1.5 4q-4 0 -6.5 -3.5t-3.5 -8.5zM33 65q-2 0 -4 -0.5t-1 -2.5q3 0 3.5 -0.5t1.5 -0.5v4zM157 207q4 0 6 3q0 1 -3 0t-3 -3zM166 219q-1 -1 -1 -2t-0.5 -2.5t1.5 -2.5v7z" glyph-name="percent" horiz-adv-x="605" unicode="%"/><glyph d="M188 263q0 3 -1 3t-1 -2q-2 1 -1 2t0 2q-8 0 -8.5 -6.5t-6.5 -8.5q1 -2 1 -4.5t1 -3.5q2 0 2 2t2 -1q2 0 1.5 2t1.5 2q-3 -9 -8 -16t-10 -15q0 4 2 6t-1 5q-4 0 -4.5 -2l-1.5 -6q-1 2 -2.5 -0.5t-1.5 -5.5q-2 -1 -2 0.5t-4 0.5q0 -5 2 -11q-3 -5 -5.5 -10t-4.5 -13 q-2 -2 -2 -5q-2 1 -1 2t1 3q-7 -1 -11 -6t-7 -11.5t-6.5 -14t-7.5 -13.5q-2 1 -1 2t0 3q-3 -3 -3 -12q-4 -1 -5.5 -5t-1.5 -9h-4q-2 -9 -5.5 -12.5t-5.5 -10.5q-1 0 -1.5 0.5t-1.5 0.5q-2 -2 -2 -6t-4 -3q-2 -16 -11 -28t-14 -26q-2 -2 -3.5 -2t-2.5 -2q1 -2 -3 -10 q-1 0 -1 2q-3 -1 -1.5 -2t1.5 -3q-2 1 -2.5 2t-1.5 2q-2 -2 -2 -5.5t-1 -8.5q-2 -2 -4.5 -5t-3.5 -9q-5 -10 -11 -19.5t-10 -20.5q-1 1 -3 -1q-1 -2 -2 -3.5t0 -4.5q-2 0 -2 -0.5t-1 -0.5h-1q1 -5 -1 -9.5t-5 -6.5q1 12 7.5 18.5t8.5 17.5q-6 -4 -10.5 -16t-11.5 -20 q2 11 8 21t11 21q-7 -10 -12.5 -21t-10.5 -22q4 -8 -1.5 -12.5t-3.5 -13.5q-4 -3 -6.5 -9.5t-0.5 -11.5q-2 -1 -3 -3.5t-3 -2.5q0 3 1.5 3t1.5 3q-3 -2 -4.5 -5.5t-3.5 -6.5q-2 9 4.5 15.5t8.5 16.5q-8 -8 -14.5 -23.5t-11.5 -27.5l-3 3q-2 -4 -1.5 -5t2.5 -4q-4 1 -5.5 -4 t-4.5 -9q0 -2 1 -2.5t1 -2.5l-2 2q-3 -3 -3.5 -7t-4.5 -7q-2 8 3 12t6 10q-2 5 -4 3t-3 3q-2 -4 -4 -6t-1 -7q-2 1 -1.5 3.5t0.5 4.5q-5 -5 -6.5 -13t-6.5 -15q-1 7 2.5 12t4.5 13q-2 0 -2.5 -3.5t-0.5 -5.5q-2 8 1 14.5t6 13.5q11 24 20.5 49.5t23.5 46.5q32 71 69.5 138.5 t75.5 133.5q18 28 35 56t37 55q40 60 80 119t81 121q2 4 5 7l5 5q5 6 7 12t9 9q1 8 3.5 11.5t6.5 8.5q2 -4 2 1q0 -1 2 -1q0 2 -0.5 3t-0.5 2t2 5q7 9 14 20.5t13 25.5q2 5 6 9.5t6 11.5q0 4 2 6q-1 2 1.5 4.5t0.5 5.5q6 9 13 9.5t13.5 -3t13 -8.5t10.5 -8q2 0 1 -1.5 t0 -3.5q2 0 2 0.5t2 0.5q0 -2 0.5 -3.5t-1.5 -3.5q2 3 4 -0.5t5 -4.5q-4 -4 -4 -13.5t-5 -9.5q-2 -2 -2 -6q-7 -2 -7 -8q-11 -4 -14.5 -11t-10.5 -17q-8 -14 -13 -17.5t-12 -16.5q-12 -15 -22 -32.5t-24 -30.5q-6 -12 -12.5 -22t-14.5 -18q-11 -14 -20 -28.5t-21 -25.5 q-3 -10 -8 -17t-10 -15q-2 2 0.5 3t2.5 3q-3 1 -2.5 -1t-1.5 -1q-1 2 -0.5 2.5t0.5 2.5q-3 -4 -7 -9.5t-6 -10.5q6 0 11 10q-2 -11 -10 -19.5t-13 -19.5h-4.5t-2.5 -4q-1 -2 0 0.5t3 0.5q-4 -8 -9 -15.5t-10 -16.5q-2 2 0 2.5t1 2.5q-2 2 -2 -0.5t-2 -1.5q0 2 0.5 2.5 t0.5 2.5q-5 2 -6.5 -2.5t-3.5 -8.5q-1 -2 -0.5 -2.5t0.5 -3.5q-6 2 -11.5 -7t-8.5 -15q0 -4 1.5 -2t3.5 1q-1 -6 -4 -8t-3 -7q2 0 1.5 1.5t0.5 1.5q0 -5 -4.5 -10t-6.5 -8zM185 268q3 -2 5.5 0.5t4 6.5t2.5 8.5t2 5.5q-5 -2 -7 -8.5t-6 -6.5q1 -2 -2.5 -2.5t-1.5 -2.5 q3 3 3 1v-2zM-36 -96q4 3 6 9t3 11zM258 378q2 2 2 0.5v-2.5q3 0 3.5 2t1.5 4q-2 2 -4.5 0t-2.5 -4zM84 120q2 1 3 -0.5t3 -1.5v4q-2 -3 -2 1t-4 -3zM3 -18q3 2 3.5 3.5l1.5 4.5q-3 -1 -4.5 -3.5t-0.5 -4.5zM33 32q0 -3 1 -4.5t1 -2.5q2 2 2.5 4.5t-4.5 2.5zM71 99 q-2 -2 3 -4q-1 3 0 4t1 3q-2 2 -2 -0.5t-2 -2.5zM65 96q5 0 3 5q-3 0 -3 -5zM370 623q-1 -1 -1 -2v1q-5 -5 -2 0t5 4q-1 -2 -1 -4zM-3 -24q5 -2 5 5q-3 0 -3 -1.5t-2 -3.5zM20 17q2 0 4 2t0 4q-1 -2 -2.5 -3t-1.5 -3zM-72 -154q2 1 1.5 3t-0.5 4q-3 0 -1 -7zM254 366 q2 0 2.5 1.5t1.5 3.5q-4 0 -4 -5zM233 334q2 0 4 6q-2 0 -4 -6zM26 15q1 2 2 2.5t1 2.5q-1 0 -3 -1.5t0 -3.5zM-71 -141q-1 -1 -1.5 -1t-1.5 -2l1 -1v-1q0 2 2 2l1 -2q0 2 -1 3q1 1 0 0.5t0 1.5zM-73 -178q0 -1 -1 -2q0 1 0.5 1t0.5 1z" glyph-name="fraction" horiz-adv-x="365" unicode=""/><glyph d="M218 290q3 -5 -1 -10t-7 -8q2 2 -2.5 2.5t-4.5 2.5q-2 -2 -4 -6.5t-5 -9.5q3 3 8 3q-2 3 -1.5 4.5l1.5 4.5h2q0 -1 2 -1q0 -3 -3 -3q1 -5 -1.5 -13.5t-10.5 -10.5q-2 -6 -4.5 -14.5t-10.5 -10.5q2 3 5 5t3 7q-7 -2 -9.5 -8t-4.5 -11q-8 -3 -8 -12h-2q0 -7 -3 -15t-10 -13 q-2 -2 1.5 -1t1.5 -1q-2 -3 -3 -5.5t-3 -2.5q-2 -5 -5.5 -8t-3.5 -11q3 -2 7 0q0 -5 -2.5 -11.5t-5.5 -5.5q1 -7 -8 -9q-1 2 0 3.5t1 4.5q-5 -3 -5 -8.5t-2 -10.5h-1q-6 -3 -10.5 -9.5t-3.5 -16.5q-5 0 -5.5 -1t-1.5 0q-6 -1 -5 -6t-1 -7q4 2 3 6t4 5q-1 -3 -1.5 -5t-2.5 -4 h7q1 -2 -0.5 -5.5t2.5 -1.5q0 -3 -1.5 -5t-0.5 -7q0 -2 -3 -2.5t-5 -2.5q-2 1 -0.5 2t-0.5 5q-2 -4 -8.5 -4t-9.5 4q-3 0 -3 -3q-2 0 -1.5 2.5t-0.5 5.5q-2 -4 -4.5 -3t-5.5 -4q-5 2 -3.5 9t1.5 10q7 24 15 48t19 46q50 109 110 205q28 52 61 101.5t64 100.5q23 41 46 80 t42 83q6 9 17.5 11.5t22.5 0t19.5 -9.5t8.5 -16q-5 -16 -14.5 -28t-20.5 -27q-4 -11 -8.5 -19t-9.5 -19q-4 -1 -6 -4.5t-4 -7.5t-4 -7t-5 -3q0 -2 -1.5 -6.5t-6.5 -6.5q2 -1 1 -4t-1 -4q-8 -3 -8.5 -10t-5.5 -10q-2 -5 -6.5 -9.5l-6.5 -6.5q1 -8 -6 -11t-10 -9q-3 0 -3 7 q-2 -3 -4.5 -8.5t-2.5 -9.5q2 1 4 3t3 2q-3 -3 -2 -5t0 -3q-2 -8 -8 -13.5t-8 -10.5q0 -2 0.5 -4t-1.5 -4q-1 -2 -3 -2.5t-4 -2.5q-2 -5 -3.5 -10.5t-9.5 -8.5q0 -4 -1.5 -5.5t-0.5 -4.5q-2 0 -4.5 -3t-8.5 -3q2 4 4 7.5t5 8.5q-5 -2 -8 -9.5t-8 -7.5q-3 -6 -2 -11 q1 -2 4 2.5t6 4.5q1 -13 -13 -22q-2 -8 -6 -15.5t-8 -15.5q2 5 0 7t0 3q-11 0 -14 -12q5 -1 6 1.5t3 0.5q2 -4 -4 -8.5t-7 -11.5q0 -7 -4 -9.5t-9 -6.5q3 3 4.5 7t-4.5 4q-5 -5 -5 -12t-5 -5q-2 -4 -3.5 -7.5t1.5 -5.5q0 4 1 3t2 2q3 -3 -1.5 -8t-0.5 -7q-2 0 -5 -4.5 t0 -5.5q-7 -2 -7 -7v-1q-2 -3 -3.5 -5.5t-3.5 -4.5zM57 -92q-17 -7 -27.5 -1.5t-22.5 7.5q-5 13 1 31t12 33q17 11 32 11t24 -8q5 -5 -0.5 -11t-8.5 -17q-1 -11 -3 -22.5t-7 -22.5zM276 403q0 -2 -1.5 -3t-1.5 -3q2 2 4 1t5 1q-2 1 -2.5 2t-3.5 2zM323 478q3 1 4 2t5 1 q2 5 0 5q-2 -2 -6.5 -4.5t-2.5 -3.5zM380 563q-5 -1 -5.5 -3.5t0.5 -2.5q3 0 4 2t1 4zM340 502q-2 0 -3 -3.5t2 -3.5q1 1 1 3v4zM184 240l-3 -4l2 -1h1q0 2 2 3t2 2h-4zM258 368q0 2 1 3.5t1 3.5q-1 -2 -2.5 -4t0.5 -3zM226 300h-1l3 3zM103 89q1 1 1 2q0 -1 -1 -2z" glyph-name="exclam" horiz-adv-x="343" unicode="!"/><glyph d="M127 418q0 -5 -2 -7.5t1 -4.5q-10 -20 -16 -47q0 11 3 19.5t6 16.5q-3 -6 -6.5 -16t-5.5 -20q0 -5 -0.5 -9.5t0.5 -8.5q-7 1 -14 4t-10 7q-2 12 2.5 27.5t9.5 29.5q-16 -5 -28 -9.5t-29 -4.5q0 4 -4 8t-7 7.5t-3.5 8.5t5.5 13q23 2 40 6t42 9q14 29 27.5 58.5t25.5 59.5 q-18 -4 -30.5 -8.5t-35.5 -9.5q-6 7 -12.5 12t-9.5 14q2 2 2.5 6t-1.5 6q16 1 29 4t25 6t25 6.5t29 6.5q19 36 34.5 75.5t32.5 77.5q5 2 7 -0.5t5 -5.5q2 -2 3.5 -1.5t1.5 -0.5q1 -2 1 -3.5t2 -3.5q4 -3 7 -5.5t5 -7.5q-2 -6 -5.5 -13t-8.5 -14q-11 -18 -21.5 -39t-19.5 -38 q-2 -2 -2 -4.5t-1 -4.5q15 1 35 7.5t37 9.5q3 2 5 7.5t6 9.5q0 4 0 2t2 -2q2 8 6 14.5t6 13.5q12 12 19.5 29.5t21.5 26.5q7 0 14 -6.5t7 -11.5q0 -2 -3 -7.5t-5 -9.5l-30 -55q9 1 15.5 1.5t12.5 1.5t12.5 1.5t17.5 1.5q18 1 22 -6t5 -24q-12 1 -20.5 0t-17 -2.5t-18.5 -3.5 t-26 -3q-4 0 -2 1.5t1 1.5q-3 0 -2.5 -1t-0.5 -2q-3 0 -8 -2t-8 -2q-11 -22 -22.5 -43t-20.5 -47q-2 2 0.5 5.5t2.5 6.5q-9 -11 -15 -25t-11 -25l22.5 3t13.5 2t14 2t25 2q7 2 14 3t13 0q1 0 2 -1.5t3 -1.5q4 -2 3 -2t3 -2q0 -2 -0.5 -2.5t-1.5 -2.5q-9 -2 -11.5 -8.5 t-9.5 -1.5l-9 -3t-5 -1.5t-6 -1l-12 -1.5q-6 -1 -2.5 -1t-2.5 -1q-10 -2 -16 -1t-14 -3q-9 1 -19 -1.5t-17 -3.5q-3 -4 -5.5 -11t-6.5 -13q-2 -1 -3 -2t-3 -7q2 0 2.5 3.5t2.5 2.5q-5 -15 -11 -30.5t-14 -31.5q-1 5 2.5 8.5t1.5 8.5q-11 -14 -16 -35.5t-14 -34.5 q-7 5 -14 7.5t-4 15.5q3 11 8.5 23t11.5 26q14 31 23 59q-9 -1 -22.5 -5.5t-21.5 -6.5q-2 0 -2.5 -1.5t-2.5 -1.5t-5 -1t-5 1q-8 -7 -19 -8l-7 -13q1 2 1.5 5t-1.5 5zM208 579q0 -1 -6 -3q-2 -4 -3 -9t-4 -9q1 4 0.5 5.5t1.5 4.5q-6 -11 -13 -25t-13 -25q-9 -15 -14.5 -31 t-13.5 -31q17 3 41 8.5t41 10.5q14 32 27.5 62t28.5 62q-16 -2 -36 -9t-37 -11zM221 387l4 12t5 13q-4 0 -7.5 -10t-1.5 -15z" glyph-name="numbersign" horiz-adv-x="464" unicode="#"/><glyph d="M153 59q-2 -1 -1.5 -2t-0.5 -1q1 -4 -7.5 -14t-11.5 -13l-7 -5q-7 -5 -14.5 -16.5t-17.5 -12.5q-2 4 -1 5l3 3q-5 -1 -5.5 -2t-5.5 -1v8q-1 0 -2 -1t-2 0t-1 3.5t-2 4.5q9 12 17 21.5t15 18.5t12.5 19t9.5 24q-7 -6 -13 -18t-17 -17q-6 3 -12.5 5.5t-5.5 13.5q-1 1 -2 1 q-3 0 -4 1q4 17 16 32q6 7 11.5 14.5t9.5 9.5q9 8 21 6.5t20 -3.5q0 -2 2 -4.5t4 -5.5q5 0 8.5 -2t6.5 -4q3 -23 -3.5 -37.5t-19.5 -30.5z" glyph-name="comma" horiz-adv-x="220" unicode=","/><glyph d="M218 591q-2 -1 -2 0.5t-1 1.5q-2 -2 -3 -4.5t-3 -4.5q-1 -2 0.5 -0.5t3.5 0.5q-3 -8 -7.5 -12t-6.5 -9h-5q-8 -4 -14.5 -17t-16.5 -14q-2 4 0 6.5t4 5.5q-3 -1 -5.5 -4t-5.5 -3q0 2 -0.5 2.5t0.5 4.5q-2 0 -2.5 -1t-2.5 0q-1 1 -1 3t-2 4q8 12 13.5 20t10 16t8 17t7.5 22 q1 9 0.5 16.5t1 13t6 9t14.5 3.5q4 -6 5 -9q4 0 7.5 -2t8.5 -4q2 -20 1 -33.5t-13 -27.5zM308 591q-2 -1 -2 0.5t-1 1.5q-2 -2 -3 -4.5t-3 -4.5q-1 -2 0.5 -0.5t3.5 0.5q-3 -8 -7.5 -12t-6.5 -9h-5q-8 -4 -14.5 -17t-16.5 -14q-2 4 0 6.5t4 5.5q-3 -1 -5.5 -4t-5.5 -3 q0 2 -0.5 2.5t0.5 4.5q-2 0 -2.5 -1t-2.5 0q-1 1 -1 3t-2 4q8 12 13.5 20t10 16t8 17t7.5 22q1 9 0.5 16.5t1 13t6 9t14.5 3.5q4 -6 5 -9q4 0 7.5 -2t8.5 -4q2 -20 1 -33.5t-13 -27.5z" glyph-name="quotedbl" horiz-adv-x="134" unicode="&quot;"/><glyph d="M108 34q-2 -1 -1 0.5t0 1.5q-8 -6 -9 -10h2q-2 -8 -6.5 -12t-6.5 -11h-3q-3 -2 -7 -7t-8.5 -10.5t-9.5 -10t-10 -4.5q-2 4 1 7t5 7q-5 -2 -7.5 -5.5t-5.5 -3.5q-1 2 -1 3v6q-2 0 -3 -2t-3 -1q2 5 -1 9q17 25 37 49.5t28 53.5q-10 -8 -15.5 -19.5t-18.5 -17.5 q-5 5 -10.5 7.5t-6.5 10.5q-1 1 -2.5 1.5t-1.5 2.5q1 9 5 16t10 15q5 7 11.5 14t10.5 9q8 8 19 7t19 -3q2 -3 4 -5t2 -5q5 0 8 -2t7 -4q3 -23 -7.5 -47t-24.5 -40zM183 251q-16 0 -25.5 9.5t-16.5 23.5q5 29 14.5 49t23.5 33q5 -4 12 -5t13 6q3 -4 4 -9.5t7 0.5 q0 -2 -1.5 -4t-1.5 -4q14 0 10 -10.5t-9 -18.5q-3 -5 -5 -10.5t-6 -10.5q0 -2 -3 -4t-3 -5q-5 -11 -5.5 -20t-7.5 -20z" glyph-name="semicolon" horiz-adv-x="259" unicode=";"/><glyph d="M405 538q-29 -14 -60 -22t-62 -22q-2 -3 -9 -1.5t-9 -3.5q2 -17 6 -30t5 -31q10 -20 13 -46.5t13 -45.5q0 -7 -1 -11.5t-1 -8.5q-6 -2 -9.5 2t-10.5 5q-4 12 -8.5 22t-7.5 25q-5 18 -9 39t-9 39q-4 8 -5.5 15.5t-6.5 10.5q2 1 2 5q-3 -3 -3.5 -5t-2.5 -4q2 -3 2 0t2 1 q0 -2 -1 -3.5t-1 -3.5l-2 2q-4 -2 -5.5 -8t-4.5 -10q-1 0 -1 3q-3 -3 -2 -5t-3 -7q2 -2 2.5 -1t1.5 -1q-7 0 -14 -15l-2 4l-3 -6t-2 -7q-1 -2 0.5 -1t2.5 1q-5 -8 -9 -19.5t-9 -21.5q2 -5 -1 -8t-5 -9q-3 -8 -3 -15t-2 -11q-1 -2 -7.5 -3t-9.5 -1q-3 1 -4 4t-4 7 q-2 -3 -3 -3t-4 -2q-2 15 2.5 30.5t11.5 30t15 28.5t12 27q4 6 9.5 20t10.5 19q-1 0 -7 -2.5t-13 -6t-13 -7t-7 -5.5q-3 5 -7 4t-7 -3q0 -4 -2 -6q-7 -3 -14.5 0t-11.5 -4q-1 -2 1 -1t3 0q-8 -6 -20 -8q2 4 5.5 4t5.5 4q-3 2 -6.5 -2t-7.5 -3q-2 -2 -1 -3t1 -3 q-5 -2 -5.5 -2t0 0t0.5 -0.5t-4 -2.5q-5 -2 -6.5 -0.5t-6.5 1.5q-5 1 -10.5 6.5l-9.5 9.5q0 2 -0.5 5.5t-2.5 6.5q3 4 6.5 2t5.5 3q11 2 15.5 3.5t8 3t8 3.5t15.5 5q23 9 46.5 16.5t46.5 19.5q-8 23 -19 42t-24 44q-2 6 -5 12t5 12q8 0 12 -3.5t7 -8t6 -8.5t8 -6 q6 -20 15.5 -35t17.5 -32q18 33 34.5 68t32.5 71q1 0 3 2q26 -3 38 -15q-11 -29 -26.5 -65t-31.5 -62q6 1 16.5 3.5t23 5.5t24 6t18.5 5q2 2 5.5 2t5.5 1q9 2 19 5.5t22 7.5q2 0 1.5 -1t4.5 1q8 0 15.5 3t7.5 -5q1 -1 -1 -2.5t-2 -3.5q3 -7 2 -12q-2 -5 -8 -5.5t-13 -2.5 q-8 -2 -9.5 -2t-5.5 -8zM384 537q-14 -5 -28.5 -9.5t-28.5 -10.5q3 -2 9 0.5t10 2.5q8 3 17 8q8 1 13.5 2t10.5 4q-2 0 -3 3zM291 504q19 2 31 9q-8 1 -15 -3t-16 -6zM132 460q2 1 5 1q1 2 2.5 2t2.5 2q-5 2 -8 -0.5t-2 -4.5z" glyph-name="asterisk" horiz-adv-x="470" unicode="*"/><glyph d="M324 228q-5 -2 -12.5 -1.5t-9.5 -4.5q-4 -1 -3.5 0.5t-1.5 2.5q-6 -3 -12 -3.5t-11 -1.5q-2 -2 -4 -3l-4 -2q-7 -2 -13.5 1t-12.5 2q-2 0 -4 -2t-6 -3q-7 -1 -13.5 -1t-13.5 -7q-5 5 -10.5 2t-12.5 -5q-4 -2 -7 0t-9 0q-3 -2 -6 -3.5l-5 -2.5q-2 -2 -6 -1t-6 1 q-14 -5 -30.5 -8.5t-32.5 -9.5q-8 1 -11 10q-1 8 -1.5 13.5t-3.5 10.5q1 3 0 6.5t4 5.5q18 10 38 15t40.5 8t41 4.5t40.5 6.5q12 2 23 1.5t23 1.5q8 0 20 1t22 -1q7 0 13.5 2t11.5 0q2 0 2 -1.5t-1 -2.5q4 -1 8 0t6 0q8 -1 14.5 -5t14.5 -4q-2 -6 -5.5 -8t-7.5 -2.5t-7 -2 t-5 -7.5q-9 1 -15.5 -0.5t-14.5 -1.5q0 -2 0.5 -2t1.5 -1q-4 -4 -11 0q4 0 5 3z" glyph-name="hyphen" horiz-adv-x="454" unicode="-"/><glyph d="M188 263q0 3 -1 3t-1 -2q-2 1 -1 2t0 2q-8 0 -8.5 -6.5t-6.5 -8.5q1 -2 1 -4.5t1 -3.5q2 0 2 2t2 -1q2 0 1.5 2t1.5 2q-3 -9 -8 -16t-10 -15q0 4 2 6t-1 5q-4 0 -4.5 -2l-1.5 -6q-1 2 -2.5 -0.5t-1.5 -5.5q-2 -1 -2 0.5t-4 0.5q0 -5 2 -11q-3 -5 -5.5 -10t-4.5 -13 q-2 -2 -2 -5q-2 1 -1 2t1 3q-7 -1 -11 -6t-7 -11.5t-6.5 -14t-7.5 -13.5q-2 1 -1 2t0 3q-3 -3 -3 -12q-4 -1 -5.5 -5t-1.5 -9h-4q-2 -9 -5.5 -12.5t-5.5 -10.5q-1 0 -1.5 0.5t-1.5 0.5q-2 -2 -2 -6t-4 -3q-2 -16 -11 -28t-14 -26q-2 -2 -3.5 -2t-2.5 -2q1 -2 -3 -10 q-1 0 -1 2q-3 -1 -1.5 -2t1.5 -3q-2 1 -2.5 2t-1.5 2q-2 -2 -2 -5.5t-1 -8.5q-2 -2 -4.5 -5t-3.5 -9q-5 -10 -11 -19.5t-10 -20.5q-1 1 -3 -1q-1 -2 -2 -3.5t0 -4.5q-2 0 -2 -0.5t-1 -0.5h-1q1 -5 -1 -9.5t-5 -6.5q1 12 7.5 18.5t8.5 17.5q-6 -4 -10.5 -16t-11.5 -20 q2 11 8 21t11 21q-7 -10 -12.5 -21t-10.5 -22q4 -8 -1.5 -12.5t-3.5 -13.5q-4 -3 -6.5 -9.5t-0.5 -11.5q-2 -1 -3 -3.5t-3 -2.5q0 3 1.5 3t1.5 3q-3 -2 -4.5 -5.5t-3.5 -6.5q-2 9 4.5 15.5t8.5 16.5q-8 -8 -14.5 -23.5t-11.5 -27.5l-3 3q-2 -4 -1.5 -5t2.5 -4q-4 1 -5.5 -4 t-4.5 -9q0 -2 1 -2.5t1 -2.5l-2 2q-3 -3 -3.5 -7t-4.5 -7q-2 8 3 12t6 10q-2 5 -4 3t-3 3q-2 -4 -4 -6t-1 -7q-2 1 -1.5 3.5t0.5 4.5q-5 -5 -6.5 -13t-6.5 -15q-1 7 2.5 12t4.5 13q-2 0 -2.5 -3.5t-0.5 -5.5q-2 8 1 14.5t6 13.5q11 24 20.5 49.5t23.5 46.5q32 71 69.5 138.5 t75.5 133.5q18 28 35 56t37 55q40 60 80 119t81 121q2 4 5 7l5 5q5 6 7 12t9 9q1 8 3.5 11.5t6.5 8.5q2 -4 2 1q0 -1 2 -1q0 2 -0.5 3t-0.5 2t2 5q7 9 14 20.5t13 25.5q2 5 6 9.5t6 11.5q0 4 2 6q-1 2 1.5 4.5t0.5 5.5q6 9 13 9.5t13.5 -3t13 -8.5t10.5 -8q2 0 1 -1.5 t0 -3.5q2 0 2 0.5t2 0.5q0 -2 0.5 -3.5t-1.5 -3.5q2 3 4 -0.5t5 -4.5q-4 -4 -4 -13.5t-5 -9.5q-2 -2 -2 -6q-7 -2 -7 -8q-11 -4 -14.5 -11t-10.5 -17q-8 -14 -13 -17.5t-12 -16.5q-12 -15 -22 -32.5t-24 -30.5q-6 -12 -12.5 -22t-14.5 -18q-11 -14 -20 -28.5t-21 -25.5 q-3 -10 -8 -17t-10 -15q-2 2 0.5 3t2.5 3q-3 1 -2.5 -1t-1.5 -1q-1 2 -0.5 2.5t0.5 2.5q-3 -4 -7 -9.5t-6 -10.5q6 0 11 10q-2 -11 -10 -19.5t-13 -19.5h-4.5t-2.5 -4q-1 -2 0 0.5t3 0.5q-4 -8 -9 -15.5t-10 -16.5q-2 2 0 2.5t1 2.5q-2 2 -2 -0.5t-2 -1.5q0 2 0.5 2.5 t0.5 2.5q-5 2 -6.5 -2.5t-3.5 -8.5q-1 -2 -0.5 -2.5t0.5 -3.5q-6 2 -11.5 -7t-8.5 -15q0 -4 1.5 -2t3.5 1q-1 -6 -4 -8t-3 -7q2 0 1.5 1.5t0.5 1.5q0 -5 -4.5 -10t-6.5 -8zM185 268q3 -2 5.5 0.5t4 6.5t2.5 8.5t2 5.5q-5 -2 -7 -8.5t-6 -6.5q1 -2 -2.5 -2.5t-1.5 -2.5 q3 3 3 1v-2zM-36 -96q4 3 6 9t3 11zM258 378q2 2 2 0.5v-2.5q3 0 3.5 2t1.5 4q-2 2 -4.5 0t-2.5 -4zM84 120q2 1 3 -0.5t3 -1.5v4q-2 -3 -2 1t-4 -3zM3 -18q3 2 3.5 3.5l1.5 4.5q-3 -1 -4.5 -3.5t-0.5 -4.5zM33 32q0 -3 1 -4.5t1 -2.5q2 2 2.5 4.5t-4.5 2.5zM71 99 q-2 -2 3 -4q-1 3 0 4t1 3q-2 2 -2 -0.5t-2 -2.5zM65 96q5 0 3 5q-3 0 -3 -5zM370 623q-1 -1 -1 -2v1q-5 -5 -2 0t5 4q-1 -2 -1 -4zM-3 -24q5 -2 5 5q-3 0 -3 -1.5t-2 -3.5zM20 17q2 0 4 2t0 4q-1 -2 -2.5 -3t-1.5 -3zM-72 -154q2 1 1.5 3t-0.5 4q-3 0 -1 -7zM254 366 q2 0 2.5 1.5t1.5 3.5q-4 0 -4 -5zM233 334q2 0 4 6q-2 0 -4 -6zM26 15q1 2 2 2.5t1 2.5q-1 0 -3 -1.5t0 -3.5zM-71 -141q-1 -1 -1.5 -1t-1.5 -2l1 -1v-1q0 2 2 2l1 -2q0 2 -1 3q1 1 0 0.5t0 1.5zM-73 -178q0 -1 -1 -2q0 1 0.5 1t0.5 1z" glyph-name="slash" horiz-adv-x="365" unicode="/"/><glyph d="M67 18q-16 0 -26.5 9.5t-16.5 23.5q5 29 15.5 49t23.5 33q4 -4 11.5 -5t13.5 6q2 -4 4.5 -9.5t6.5 0.5v-8q14 0 10 -10t-10 -19q-2 -5 -5 -10.5t-5 -10.5q0 -2 -3.5 -4t-7.5 -5q-2 -11 -3 -20t-8 -20zM156 255q-8 2 -15 4l-14 4q0 8 -6.5 11t-8.5 12q0 6 5 14t11.5 16.5 t12.5 16t9 12.5t4 9.5t3 8.5q7 2 7 4q7 -2 13.5 -3.5t11.5 -5.5q2 0 1 -2t1 -4l1 1q2 2 3 2l10 -21q0 -11 -11.5 -23t-17.5 -21q-7 -8 -11 -17.5t-9 -17.5z" glyph-name="colon" horiz-adv-x="228" unicode=":"/></font>
</defs>
</svg>
